<?xml version="1.0" encoding="UTF-8" standalone="no"?>
<svg
   version="1.1"
   id="svg386"
   width="160.35461"
   height="139.53168"
   xmlns="http://www.w3.org/2000/svg"
   xmlns:svg="http://www.w3.org/2000/svg">
  <defs
     id="defs1" />
  <g
     id="g386"
     transform="translate(-303.7977,-632.91833)">
    <g
       id="g403">
      <path
         stroke="none"
         fill="#6d4526"
         d="m 309.5,671.9 -0.95,-0.65 -0.1,-0.05 q -3.8,-2.65 -4.45,-8.7 v 0.25 l -0.2,-2.4 v -0.05 q -0.1,-7 4.15,-14.25 4.25,-7.4 10.4,-10.8 l 0.05,-0.05 q 6.7,-3.7 11.6,-1.4 l 0.4,0.2 2.2,1.25 q 8.95,5.15 14.1,12.2 16.35,-11 37.25,-11 20.95,0 37.3,11 5.1,-7.05 14.1,-12.2 h 0.05 q 1.05,-0.65 2.2,-1.25 l 0.4,-0.2 q 4.85,-2.3 11.6,1.4 l 0.05,0.05 q 6.1,3.4 10.4,10.8 H 460 q 4.25,7.25 4.15,14.25 v 0.05 l -0.1,2.2 q -0.75,6 -4.55,8.65 l -0.05,0.05 -0.95,0.65 -0.25,0.15 -1.1,0.6 -0.1,0.05 q -5.3,3.1 -10.5,4.7 5.4,12.45 5.4,27.05 v 2 0.1 q -0.45,15.85 -7.3,29 -4.75,9.15 -12.6,16.95 l -2.4,2.25 -4.1,3.55 q -17.9,14.15 -41.6,14.15 -23.7,0 -41.55,-14.15 h -0.05 l -4.1,-3.55 -2.35,-2.25 Q 316.7,733.4 316,706.65 l -0.05,-2.2 q 0,-14.65 5.45,-27.1 -5.2,-1.6 -10.45,-4.6 l -0.15,-0.1 -1.1,-0.6 -0.2,-0.15"
         id="path209" />
      <path
         stroke="none"
         fill="#8e5a32"
         d="m 337.8,660.1 q -3.3,-3.25 -7.8,-5.9 l -1.75,-0.95 q -2.8,-1.15 -6.75,0.95 -4.3,2.5 -7.3,7.75 -1.95,3.3 -2.6,6.55 l -0.75,-0.5 q -2.45,-1.85 -2.9,-5.95 0.5,-4.95 3.45,-10 3.65,-6.35 8.9,-9.35 4.75,-2.6 8.15,-1.2 l 2.15,1.2 q 8.55,4.95 13.3,11.75 -2.65,2.15 -5.2,4.7 l -0.9,0.95 m 86.25,-5.6 q 4.7,-6.8 13.3,-11.8 l 2.15,-1.2 q 3.4,-1.4 8.15,1.2 5.25,3 8.9,9.35 2.95,5.05 3.5,10 -0.5,4.1 -2.95,5.95 l -0.75,0.5 q -0.65,-3.25 -2.6,-6.55 -3,-5.25 -7.3,-7.75 -3.95,-2.1 -6.75,-0.95 l -1.75,0.95 q -4.55,2.65 -7.8,5.95 l -0.95,-1 q -2.5,-2.5 -5.15,-4.65"
         id="path210" />
      <path
         stroke="none"
         fill="#b67340"
         d="m 424.05,654.5 -1.7,-1.35 q 4.75,-8.55 15,-14.45 l 2.15,-1.2 q 3.4,-1.4 8.15,1.2 5.25,3 8.9,9.35 3.65,6.25 3.6,12.25 l -0.1,1.75 q -0.55,-4.95 -3.5,-10 -3.65,-6.35 -8.9,-9.35 -4.75,-2.6 -8.15,-1.2 l -2.15,1.2 q -8.6,5 -13.3,11.8 m -80.15,-0.05 q -4.75,-6.8 -13.3,-11.75 l -2.15,-1.2 q -3.4,-1.4 -8.15,1.2 -5.25,3 -8.9,9.35 -2.95,5.05 -3.45,10 l -0.15,-1.75 q -0.05,-6 3.6,-12.25 3.65,-6.35 8.9,-9.35 4.75,-2.6 8.15,-1.2 l 2.15,1.2 q 10.2,5.9 15,14.4 l -1.7,1.35"
         id="path211" />
      <path
         stroke="none"
         fill="#774b2a"
         d="m 311.6,668.5 q 0.65,-3.25 2.6,-6.55 3,-5.25 7.3,-7.75 3.95,-2.1 6.75,-0.95 l 1.75,0.95 q 4.5,2.65 7.8,5.9 -6.55,6.8 -10.7,14.55 -6.95,-1.25 -14.2,-5.4 l -1.3,-0.75 m 118.55,-8.35 q 3.25,-3.3 7.8,-5.95 l 1.75,-0.95 q 2.8,-1.15 6.75,0.95 4.3,2.5 7.3,7.75 1.95,3.3 2.6,6.55 l -1.3,0.75 q -7.25,4.2 -14.25,5.4 -4.15,-7.75 -10.65,-14.5"
         id="path212" />
      <path
         stroke="none"
         fill="#bd7841"
         d="m 430.15,660.15 q 6.5,6.75 10.65,14.5 7.15,13.45 7.15,29.8 v 2 q -0.7,-25.2 -18.75,-43.3 -15.1,-15.05 -35.25,-18 l -10,-0.7 -10,0.7 q -20.15,2.95 -35.25,18 -18.05,18.1 -18.7,43.3 l -0.05,-2 q 0,-16.35 7.15,-29.8 4.15,-7.75 10.7,-14.55 l 0.9,-0.95 q 2.55,-2.55 5.2,-4.7 l 1.7,-1.35 q 16.55,-12.65 38.35,-12.65 21.85,0 38.4,12.7 l 1.7,1.35 q 2.65,2.15 5.15,4.65 l 0.95,1"
         id="path213" />
      <path
         stroke="none"
         fill="#a16639"
         d="m 401.45,663.9 q 0,-5.2 -5.15,-8.85 -5.1,-3.65 -12.35,-3.65 -7.25,0 -12.4,3.65 -5.1,3.65 -5.1,8.85 l 0.05,0.85 q 0.35,10.6 5.05,18.25 5.15,8.4 12.4,8.4 7.25,0 12.35,-8.4 4.75,-7.65 5.15,-18.25 V 663.9 M 320,706.45 q 0.65,-25.2 18.7,-43.3 15.1,-15.05 35.25,-18 l 10,-0.7 10,0.7 q 20.15,2.95 35.25,18 18.05,18.1 18.75,43.3 -0.4,14.9 -6.85,27.25 -4.5,8.6 -11.9,15.95 l -2.25,2.15 -3.9,3.35 q -16.2,-13.75 -39.1,-13.75 -22.85,0 -39.1,13.75 l -3.9,-3.35 -2.25,-2.15 q -18.05,-18 -18.7,-43.2"
         id="path214" />
      <path
         stroke="none"
         fill="#aa6c3c"
         d="m 401.45,663.9 v 0.85 q -0.4,10.6 -5.15,18.25 -5.1,8.4 -12.35,8.4 -7.25,0 -12.4,-8.4 -4.7,-7.65 -5.05,-18.25 l -0.05,-0.85 q 0,-5.2 5.1,-8.85 5.15,-3.65 12.4,-3.65 7.25,0 12.35,3.65 5.15,3.65 5.15,8.85"
         id="path215" />
      <path
         stroke="none"
         fill="#955e34"
         d="m 344.85,755.15 q 16.25,-13.75 39.1,-13.75 22.9,0 39.1,13.75 -16.8,13.3 -39.1,13.3 -22.3,0 -39.1,-13.3"
         id="path216" />
      <path
         stroke="none"
         fill="#545454"
         d="m 371.1,707.65 -0.2,-2.35 v -0.9 q 0.3,-2.4 3.8,-4.1 3.85,-1.85 9.25,-1.85 5.4,0 9.25,1.85 3.45,1.7 3.8,4.1 v 0.9 l -0.2,2.35 q -0.7,-1.9 -3.6,-3.35 -3.85,-1.85 -9.25,-1.85 -5.4,0 -9.25,1.85 -2.9,1.4 -3.6,3.35"
         id="path217" />
      <path
         stroke="none"
         fill="#464646"
         d="m 371.1,707.65 q 0.7,-1.95 3.6,-3.35 3.85,-1.85 9.25,-1.85 5.4,0 9.25,1.85 2.9,1.45 3.6,3.35 -0.65,3.95 -3.6,6.9 -2.15,2.15 -4.8,3.1 -4.25,1.75 -8.9,0 -2.65,-0.95 -4.8,-3.1 -2.95,-2.95 -3.6,-6.9"
         id="path218" />
      <path
         stroke="none"
         fill="#383838"
         d="m 388.4,717.65 0.85,1 q 0.95,0.95 2.05,1.5 1.4,0.65 3.05,0.65 3,0 5.15,-2.15 l 1.25,-1.65 0.5,-0.45 0.7,0.05 4.7,2.45 0.45,0.5 -0.05,0.65 -1.5,2.3 -1.05,1.15 q -4.25,4.2 -10.15,4.2 -5.9,0 -10.1,-4.2 l -0.3,-0.3 -0.3,0.3 q -4.25,4.2 -10.15,4.2 -5.95,0 -10.1,-4.2 l -1.05,-1.15 q -0.9,-1.1 -1.5,-2.2 -0.2,-0.35 -0.05,-0.65 0.05,-0.35 0.4,-0.55 l 4.6,-2.55 0.65,-0.1 0.55,0.45 q 0.55,0.95 1.35,1.75 2.15,2.15 5.15,2.15 1.65,0 3.1,-0.65 l 2.05,-1.5 0.85,-1 q 4.65,1.75 8.9,0"
         id="path219" />
      <path
         stroke="none"
         fill="#8e5a32"
         d="m 427.15,692.1 q 0,-3.85 -2.7,-6.55 -2.75,-2.7 -6.6,-2.7 -3.8,0 -6.55,2.7 -2.7,2.7 -2.7,6.55 0,3.85 2.7,6.45 2.75,2.8 6.55,2.8 3.85,0 6.6,-2.8 2.7,-2.6 2.7,-6.45 m 5.65,-3.45 q 1.9,7.2 -0.95,13.35 -2.9,6.3 -8.9,7.9 -5.95,1.55 -11.6,-2.45 -5.55,-3.85 -7.5,-11.05 v -0.05 q -1.6,-6 1.5,-11.35 3.15,-5.4 9.1,-6.95 6,-1.6 11.4,1.5 5.3,3.05 6.95,9.05 v 0.05 m -92.05,3.45 q 0,3.85 2.7,6.45 2.75,2.8 6.6,2.8 3.8,0 6.55,-2.8 2.7,-2.6 2.7,-6.45 0,-3.85 -2.7,-6.55 -2.75,-2.7 -6.55,-2.7 -3.85,0 -6.6,2.7 -2.7,2.7 -2.7,6.55 m -5.65,-3.45 v -0.05 q 1.65,-6 6.95,-9.05 5.4,-3.1 11.4,-1.5 5.95,1.55 9.1,6.95 3.1,5.35 1.5,11.35 v 0.05 q -1.95,7.2 -7.5,11.05 -5.65,4 -11.6,2.45 -6,-1.6 -8.9,-7.9 -2.85,-6.15 -0.95,-13.35"
         id="path220" />
      <path
         stroke="none"
         fill="#ffffff"
         d="m 427.15,692.1 q 0,3.85 -2.7,6.45 -2.75,2.8 -6.6,2.8 -3.8,0 -6.55,-2.8 -2.7,-2.6 -2.7,-6.45 0,-3.85 2.7,-6.55 2.75,-2.7 6.55,-2.7 3.85,0 6.6,2.7 2.7,2.7 2.7,6.55 m -4.5,0.15 q 0,-2.45 -1.7,-4.1 -1.7,-1.7 -4.1,-1.7 -2.4,0 -4.15,1.7 -1.7,1.65 -1.7,4.1 0,2.4 1.7,4.05 1.75,1.75 4.15,1.75 2.4,0 4.1,-1.75 1.7,-1.65 1.7,-4.05 m -81.9,-0.15 q 0,-3.85 2.7,-6.55 2.75,-2.7 6.6,-2.7 3.8,0 6.55,2.7 2.7,2.7 2.7,6.55 0,3.85 -2.7,6.45 -2.75,2.8 -6.55,2.8 -3.85,0 -6.6,-2.8 -2.7,-2.6 -2.7,-6.45 m 4.5,0.15 q 0,2.4 1.7,4.05 1.7,1.75 4.1,1.75 2.4,0 4.15,-1.75 1.7,-1.65 1.7,-4.05 0,-2.45 -1.7,-4.1 -1.75,-1.7 -4.15,-1.7 -2.4,0 -4.1,1.7 -1.7,1.65 -1.7,4.1"
         id="path221" />
      <path
         stroke="none"
         fill="#5b5b5b"
         d="m 345.25,692.25 q 0,-2.45 1.7,-4.1 1.7,-1.7 4.1,-1.7 2.4,0 4.15,1.7 1.7,1.65 1.7,4.1 0,2.4 -1.7,4.05 -1.75,1.75 -4.15,1.75 -2.4,0 -4.1,-1.75 -1.7,-1.65 -1.7,-4.05 m 77.4,0 q 0,2.4 -1.7,4.05 -1.7,1.75 -4.1,1.75 -2.4,0 -4.15,-1.75 -1.7,-1.65 -1.7,-4.05 0,-2.45 1.7,-4.1 1.75,-1.7 4.15,-1.7 2.4,0 4.1,1.7 1.7,1.65 1.7,4.1"
         id="path222" />
    </g>
  </g>
</svg>
