<?xml version="1.0" encoding="UTF-8" standalone="no"?>
<svg
   version="1.1"
   id="svg386"
   width="190.89771"
   height="159.15533"
   xmlns="http://www.w3.org/2000/svg"
   xmlns:svg="http://www.w3.org/2000/svg">
  <defs
     id="defs1" />
  <g
     id="g386"
     transform="translate(-1054.0566,-627.22351)">
    <g
       id="g406">
      <path
         stroke="none"
         fill="#6d4526"
         d="m 1101.35,636.7 q 6.55,1.95 14.35,-2.1 h 0.05 q 13.2,-6.75 25.3,-0.75 l 0.35,0.25 q 1.65,1.05 3,2.25 l 5.1,-0.2 6.55,0.3 q 1.35,-1.3 3.05,-2.35 l 0.4,-0.25 q 12.05,-6 25.3,0.75 7.8,4.05 14.4,2.1 l 0.1,-0.05 q 2.7,-1 1.75,-4.35 -0.35,-1.3 0.15,-2.55 0.45,-1.25 1.6,-1.95 1.15,-0.7 2.45,-0.55 7.45,0.65 11.05,5 5.15,5.4 3.05,17.55 -1.15,8.4 -10.15,13.55 10.6,-1.45 23.1,1.1 h -0.05 l 2.75,0.55 0.3,0.1 q 6,1.75 8.5,8.35 v 0.05 q 2.45,6.4 -0.3,14.2 h -0.05 q -2.7,7.5 -8.55,12 l -0.15,0.1 q -5.1,3.6 -9.95,3.65 h -1.85 l -0.45,-0.05 -2.65,-0.6 -2.35,-0.45 v 1.8 2 0.1 q -0.45,15.85 -7.3,29 -4.75,9.15 -12.6,16.95 -8.2,8.15 -17.75,13 3.6,5.85 1.05,9.65 l -0.3,0.5 q -2.45,5.35 -12.3,4.05 v -0.05 l -3.6,-0.7 -0.35,2.5 -0.05,0.1 q -0.75,2.8 -2.95,4 h -0.05 q -3.65,2.9 -9.6,-1.65 l -0.05,-0.05 -2.15,-2 -2.2,2 q -5.9,4.6 -9.6,1.7 -2.2,-1.15 -3,-3.9 l -0.05,-0.1 q -0.35,-1.15 -0.35,-2.6 l -3.6,0.7 -0.05,0.05 q -9.65,1.3 -12.2,-3.95 l -0.55,-0.9 q -2.15,-3.75 1.25,-9.35 -9.55,-4.85 -17.7,-13 -19.2,-19.1 -19.9,-45.85 l -0.05,-2.2 0.05,-1.75 -2.25,0.45 h -0.05 l -2.75,0.55 h -0.05 l -2.25,0.1 q -4.85,-0.1 -9.95,-3.7 l -0.1,-0.1 q -5.9,-4.5 -8.6,-12 -2.8,-7.8 -0.35,-14.2 v -0.05 q 2.5,-6.6 8.55,-8.3 l 0.1,-0.05 3.05,-0.65 -0.2,0.05 q 13.85,-2.85 25.35,-0.75 -9.7,-5.25 -10.9,-13.95 -2.1,-12.15 3.1,-17.55 3.55,-4.35 11,-5 1.3,-0.15 2.45,0.55 1.15,0.7 1.65,1.95 0.45,1.25 0.1,2.55 -0.95,3.35 1.8,4.35 l 0.1,0.05"
         id="path249" />
      <path
         stroke="none"
         fill="#704e35"
         d="m 1074.5,699.5 q -3.85,-0.1 -7.95,-3 -4.95,-3.8 -7.25,-10.15 -2.25,-6.3 -0.35,-11.5 1.75,-4.65 5.95,-5.9 l 2.6,-0.55 q 14.05,-2.85 25.5,-0.4 l 1.2,0.3 q -10.35,-1.65 -22.7,0.8 l -2.8,0.65 q -4.15,1.25 -5.95,5.9 -1.85,5.25 0.35,11.45 2.3,6.45 7.4,10.2 1.95,1.55 4,2.2 m 130.3,-31.2 1.2,-0.35 q 11.45,-2.45 25.5,0.4 l 2.6,0.55 q 4.2,1.3 5.95,5.95 1.9,5.2 -0.35,11.5 -2.3,6.35 -7.25,10.15 -4.1,2.9 -7.95,2.95 2.05,-0.6 4,-2.15 5.15,-3.8 7.4,-10.2 2.2,-6.2 0.35,-11.5 -1.8,-4.65 -5.95,-5.85 l -2.8,-0.65 q -12.35,-2.45 -22.7,-0.8"
         id="path250" />
      <path
         stroke="none"
         fill="#5f422d"
         d="m 1204.8,668.3 q 10.35,-1.65 22.7,0.8 l 2.8,0.65 q 4.15,1.2 5.95,5.85 1.85,5.3 -0.35,11.5 -2.25,6.4 -7.4,10.2 -1.95,1.55 -4,2.15 h -1.2 l -2.8,-0.6 -3,-0.6 -4.5,-1.3 3.25,-1.65 q 3.65,-2.85 5.3,-7.4 1.65,-4.5 0.3,-8.3 -1.35,-3.3 -4.4,-4.15 -0.85,-0.4 -1.9,-0.45 -10.05,-2.1 -18.35,-0.3 l -1.35,0.4 -1.7,0.5 -1.65,0.55 0.25,-0.5 q 1.9,-3.55 7.05,-5.75 l 5,-1.6 m -110.6,0 q 9.3,2.35 12.05,7.35 l 0.25,0.55 q -1.45,-0.6 -3.35,-1.05 l -1.35,-0.45 q -8.3,-1.75 -18.35,0.3 l -1.9,0.45 q -3.05,0.85 -4.4,4.15 -1.35,3.85 0.3,8.35 1.65,4.55 5.3,7.35 1.7,1.2 3.25,1.7 l -4.5,1.3 -3,0.6 -2.8,0.55 -1.2,0.05 q -2.05,-0.65 -4,-2.2 -5.1,-3.75 -7.4,-10.2 -2.2,-6.2 -0.35,-11.45 1.8,-4.65 5.95,-5.9 l 2.8,-0.65 q 12.35,-2.45 22.7,-0.8"
         id="path251" />
      <path
         stroke="none"
         fill="#4f3725"
         d="m 1106.5,676.2 0.3,0.6 q 1.2,3.4 -0.55,6.75 -1.55,3.05 -5.5,6.1 -5.5,4.25 -13.3,6.9 L 1086,697 q -1.55,-0.5 -3.25,-1.7 -3.65,-2.8 -5.3,-7.35 -1.65,-4.5 -0.3,-8.35 1.35,-3.3 4.4,-4.15 l 1.9,-0.45 q 10.05,-2.05 18.35,-0.3 l 1.35,0.45 q 1.9,0.45 3.35,1.05 m 106.5,20.75 -1.45,-0.4 q -7.8,-2.65 -13.3,-6.95 -3.95,-3 -5.5,-6.05 -1.45,-2.85 -0.9,-5.65 l 0.35,-1.15 0.3,-0.6 1.65,-0.55 1.7,-0.5 1.35,-0.4 q 8.3,-1.8 18.35,0.3 1.05,0.05 1.9,0.45 3.05,0.85 4.4,4.15 1.35,3.8 -0.3,8.3 -1.65,4.55 -5.3,7.4 l -3.25,1.65"
         id="path252" />
      <path
         stroke="none"
         fill="#704e35"
         d="m 1121.7,773.1 q -1.55,-2.95 2.4,-8.05 3.95,-5.25 11.4,-9.5 13.45,-7.65 28,0 7.4,4.25 11.35,9.5 4,5.1 2.45,8 -0.7,-1.8 -2.45,-4 -3.95,-5.25 -11.35,-9.5 -14.55,-7.65 -28,0 -7.45,4.25 -11.4,9.5 -1.75,2.2 -2.4,4.05"
         id="path253" />
      <path
         stroke="none"
         fill="#5f422d"
         d="m 1121.7,773.1 q 0.65,-1.85 2.4,-4.05 3.95,-5.25 11.4,-9.5 13.45,-7.65 28,0 7.4,4.25 11.35,9.5 1.75,2.2 2.45,4 l -0.1,0.15 q -1.75,3.1 -8.35,2.2 -4.45,-0.65 -9.35,-2.9 0.8,2.2 1.05,4.25 l 0.05,0.25 q 0.2,1.9 -0.15,3.15 -0.3,1.15 -1.15,1.65 -1.9,1.1 -5.15,-1.4 -2.5,-2 -4.65,-5.3 -2.2,3.3 -4.7,5.3 -3.2,2.5 -5.1,1.4 -0.85,-0.5 -1.2,-1.65 -0.35,-1.25 -0.1,-3.1 v -0.3 q 0.3,-2.05 1.15,-4.25 -4.95,2.25 -9.45,2.9 -6.55,0.9 -8.35,-2.2 l -0.05,-0.1"
         id="path254" />
      <path
         stroke="none"
         fill="#704e35"
         d="m 1186.95,736.05 q -0.85,-11.9 -10.95,-20.55 -3,-2.55 -6.35,-4.4 -8.9,-4.95 -20.15,-4.95 -11.25,0 -20.1,4.9 -3.4,1.85 -6.45,4.45 -10.1,8.65 -10.9,20.55 l -0.05,-1.9 v -1 q 0.4,-12.6 10.95,-21.65 3.75,-3.2 8.05,-5.3 8.25,-4.05 18.5,-4.05 10.25,0 18.5,4.1 4.25,2.05 8,5.25 10.55,9.05 11,21.65 v 1 l -0.05,1.9"
         id="path255" />
      <path
         stroke="none"
         fill="#5f422d"
         d="m 1112.05,736.05 q 0.8,-11.9 10.9,-20.55 3.05,-2.6 6.45,-4.45 8.85,-4.9 20.1,-4.9 11.25,0 20.15,4.95 3.35,1.85 6.35,4.4 10.1,8.65 10.95,20.55 -0.75,12.05 -10.95,20.7 -11,9.4 -26.5,9.4 -15.55,0 -26.55,-9.4 -10.15,-8.7 -10.9,-20.7 m 55.95,-29.8 q -8.25,-4.1 -18.5,-4.1 -10.25,0 -18.5,4.05 8.95,-28.1 8.5,-61.35 l 10,-0.7 10,0.7 q -0.45,33.25 8.5,61.4 m -34.1,20.3 q 1.5,1.4 3.55,1.4 2.15,0 3.65,-1.5 1.5,-1.5 1.5,-3.65 0,-1.1 -0.35,-2 l -1.05,-1.55 -0.15,-0.15 q -2.55,-2.55 -5.4,-3.4 l -0.2,-0.05 q -2.2,-0.65 -3.55,0.05 -0.5,0.2 -0.9,0.6 l -0.6,0.85 q -0.65,1.25 -0.2,3.15 l 0.1,0.5 0.45,1.3 q 0.95,2.25 3,4.3 l 0.15,0.15 m 34.1,-10.25 -0.85,-0.6 q -1.4,-0.7 -3.6,-0.05 l -0.25,0.1 q -2.85,0.85 -5.35,3.35 l -0.15,0.15 q -0.65,0.7 -1,1.55 -0.4,0.9 -0.4,2 0,2.15 1.5,3.65 1.5,1.5 3.65,1.5 2.05,0 3.55,-1.4 l 0.15,-0.15 q 2.05,-2.05 3,-4.3 l 0.45,-1.3 0.15,-0.5 q 0.4,-1.9 -0.25,-3.15 l -0.6,-0.85"
         id="path256" />
      <path
         stroke="none"
         fill="#a16639"
         d="m 1186.95,736.05 0.05,-1.9 v -1 q -0.45,-12.6 -11,-21.65 -3.75,-3.2 -8,-5.25 -8.95,-28.15 -8.5,-61.4 20.15,2.95 35.25,18 18.05,18.1 18.75,43.3 -0.4,14.9 -6.85,27.25 -4.5,8.6 -11.9,15.95 -18.75,18.8 -45.25,18.8 -26.5,0 -45.25,-18.8 -18.05,-18 -18.7,-43.2 0.65,-25.2 18.7,-43.3 15.1,-15.05 35.25,-18 0.45,33.25 -8.5,61.35 -4.3,2.1 -8.05,5.3 -10.55,9.05 -10.95,21.65 v 1 l 0.05,1.9 q 0.75,12 10.9,20.7 11,9.4 26.55,9.4 15.5,0 26.5,-9.4 10.2,-8.65 10.95,-20.7"
         id="path257" />
      <path
         stroke="none"
         fill="#4f3725"
         d="m 1133.9,726.55 -0.15,-0.15 q -2.05,-2.05 -3,-4.3 l -0.45,-1.3 -0.1,-0.5 q -0.45,-1.9 0.2,-3.15 l 0.6,-0.85 q 0.4,-0.4 0.9,-0.6 1.35,-0.7 3.55,-0.05 l 0.2,0.05 q 2.85,0.85 5.4,3.4 l 0.15,0.15 1.05,1.55 q 0.35,0.9 0.35,2 0,2.15 -1.5,3.65 -1.5,1.5 -3.65,1.5 -2.05,0 -3.55,-1.4 m 34.1,-10.25 0.6,0.85 q 0.65,1.25 0.25,3.15 l -0.15,0.5 -0.45,1.3 q -0.95,2.25 -3,4.3 l -0.15,0.15 q -1.5,1.4 -3.55,1.4 -2.15,0 -3.65,-1.5 -1.5,-1.5 -1.5,-3.65 0,-1.1 0.4,-2 0.35,-0.85 1,-1.55 l 0.15,-0.15 q 2.5,-2.5 5.35,-3.35 l 0.25,-0.1 q 2.2,-0.65 3.6,0.05 l 0.85,0.6"
         id="path258" />
      <path
         stroke="none"
         fill="#bd7841"
         d="m 1085.55,706.15 -0.05,-2 q 0,-26.5 18.75,-45.3 18.75,-18.7 45.25,-18.7 26.5,0 45.25,18.7 18.75,18.8 18.75,45.3 v 2 q -0.7,-25.2 -18.75,-43.3 -15.1,-15.05 -35.25,-18 l -10,-0.7 -10,0.7 q -20.15,2.95 -35.25,18 -18.05,18.1 -18.7,43.3"
         id="path259" />
      <path
         stroke="none"
         fill="#5b5b5b"
         d="m 1107.45,693.7 q 0,-2.65 1.8,-4.45 1.85,-1.85 4.5,-1.85 2.55,0 4.45,1.85 1.85,1.8 1.85,4.45 0,2.55 -1.85,4.35 -1.9,1.8 -4.45,1.8 -2.65,0 -4.5,-1.8 -1.8,-1.8 -1.8,-4.35 m 82.1,0 q 0,2.55 -1.8,4.35 -1.85,1.8 -4.5,1.8 -2.55,0 -4.45,-1.8 -1.85,-1.8 -1.85,-4.35 0,-2.65 1.85,-4.45 1.9,-1.85 4.45,-1.85 2.65,0 4.5,1.85 1.8,1.8 1.8,4.45"
         id="path260" />
      <path
         stroke="none"
         fill="#ffffff"
         d="m 1189.55,693.7 q 0,-2.65 -1.8,-4.45 -1.85,-1.85 -4.5,-1.85 -2.55,0 -4.45,1.85 -1.85,1.8 -1.85,4.45 0,2.55 1.85,4.35 1.9,1.8 4.45,1.8 2.65,0 4.5,-1.8 1.8,-1.8 1.8,-4.35 m -87.6,-1.2 q 0,-4.2 2.95,-7.1 2.95,-2.95 7.1,-2.95 4.1,0 7.1,2.95 2.9,2.9 2.9,7.1 0,4.15 -2.9,7 -3,3 -7.1,3 -4.15,0 -7.1,-3 -2.95,-2.85 -2.95,-7 m 5.5,1.2 q 0,2.55 1.8,4.35 1.85,1.8 4.5,1.8 2.55,0 4.45,-1.8 1.85,-1.8 1.85,-4.35 0,-2.65 -1.85,-4.45 -1.9,-1.85 -4.45,-1.85 -2.65,0 -4.5,1.85 -1.8,1.8 -1.8,4.45 m 87.6,-1.2 q 0,4.15 -2.95,7 -2.95,3 -7.1,3 -4.1,0 -7.1,-3 -2.9,-2.85 -2.9,-7 0,-4.2 2.9,-7.1 3,-2.95 7.1,-2.95 4.15,0 7.1,2.95 2.95,2.9 2.95,7.1"
         id="path261" />
      <path
         stroke="none"
         fill="#ffdfc6"
         d="m 1087.25,634.85 q 2.75,-3.15 8.35,-3.65 -2.05,7.4 4.5,9.3 8,2.55 17.45,-2.35 11.35,-5.8 21.7,-0.7 5.4,3.45 6.4,8.75 -3.05,-2.95 -7.8,-5.15 -13.5,-5.1 -23.55,0.7 -8.35,4.9 -18.2,2.35 -7.95,-1.9 -8.85,-9.25 m 67.6,11.35 q 1,-5.3 6.4,-8.75 10.35,-5.1 21.7,0.7 9.45,4.9 17.45,2.35 6.55,-1.9 4.5,-9.3 5.6,0.5 8.35,3.65 -0.9,7.35 -8.85,9.25 -9.85,2.55 -18.2,-2.35 -10.05,-5.8 -23.55,-0.7 -4.75,2.2 -7.8,5.15"
         id="path262" />
      <path
         stroke="none"
         fill="#ebceb7"
         d="m 1154.85,646.2 q 3.05,-2.95 7.8,-5.15 13.5,-5.1 23.55,0.7 8.35,4.9 18.2,2.35 7.95,-1.9 8.85,-9.25 3.85,4.45 2.15,14.25 -1.95,11.15 -21.1,15.45 -31,5.9 -37.8,-8.2 -1.2,-2.75 -1.75,-6.05 -0.25,-2.2 0.1,-4.1 m -9.2,0 q 0.35,1.9 0.1,4.1 -0.55,3.3 -1.75,6.05 -6.8,14.1 -37.8,8.2 -19.15,-4.3 -21.1,-15.45 -1.7,-9.8 2.15,-14.25 0.9,7.35 8.85,9.25 9.85,2.55 18.2,-2.35 10.05,-5.8 23.55,-0.7 4.75,2.2 7.8,5.15"
         id="path263" />
    </g>
  </g>
</svg>
