<?xml version="1.0" encoding="UTF-8" standalone="no"?>
<svg
   version="1.1"
   id="svg386"
   width="136"
   height="153.29999"
   xmlns="http://www.w3.org/2000/svg"
   xmlns:svg="http://www.w3.org/2000/svg">
  <defs
     id="defs1" />
  <g
     id="g386"
     transform="translate(-315.95001,-426.70001)">
    <g
       id="g399">
      <path
         stroke="none"
         fill="#989898"
         d="m 316,514.2 -0.05,-2.2 q 0,-28.15 19.95,-48.05 10.1,-10.15 22.35,-15.1 0.95,-1.9 2.4,-3.55 l -0.15,-2.35 q 0,-6.75 4.7,-11.5 l 0.05,-0.05 q 4.75,-4.7 11.5,-4.7 3.95,0 7.2,1.65 3.25,-1.65 7.25,-1.65 6.7,0 11.45,4.7 l 0.05,0.05 q 4.7,4.75 4.7,11.5 l -0.15,2.3 q 1.45,1.7 2.5,3.65 12.15,4.95 22.25,15.05 19.95,19.9 19.95,48.05 v 2 0.1 Q 451.2,540.8 432,560 v 0.05 q -4.15,4.15 -8.65,7.45 -17.2,12.5 -39.4,12.5 -23.8,0 -41.7,-14.3 h -0.05 l -6.3,-5.65 Q 316.7,540.85 316,514.2"
         id="path139" />
      <path
         stroke="none"
         fill="#ffffff"
         d="m 320,514 -0.05,-2 q 0,-26.5 18.75,-45.25 18.75,-18.75 45.25,-18.75 26.45,0 45.2,18.75 18.8,18.75 18.8,45.25 v 2 q -0.7,-25.2 -18.8,-43.25 Q 410.4,452 383.95,452 357.45,452 338.7,470.75 320.65,488.8 320,514 m 101,50.25 Q 404.85,576 383.95,576 q -22.4,0 -39.25,-13.45 l 1.25,-2.3 q 15.1,-26.35 36.45,-26.35 21.35,0 36.4,26.35 l 2.2,4"
         id="path140" />
      <path
         stroke="none"
         fill="#f0f0f0"
         d="m 421,564.25 -2.2,-4 q -15.05,-26.35 -36.4,-26.35 -21.35,0 -36.45,26.35 l -1.25,2.3 -6,-5.35 Q 320.65,539.15 320,514 320.65,488.8 338.7,470.75 357.45,452 383.95,452 q 26.45,0 45.2,18.75 18.1,18.05 18.8,43.25 -0.7,25.15 -18.8,43.2 -3.9,3.95 -8.15,7.05"
         id="path141" />
      <path
         stroke="none"
         fill="#ffffff"
         d="m 435.2,515 q 0,5.7 -4.05,9.6 -4.05,4.1 -9.75,4.1 -5.6,0 -9.75,-4.1 -3.95,-3.9 -3.95,-9.6 0,-5.75 3.95,-9.75 4.15,-4.05 9.75,-4.05 5.7,0 9.75,4.05 4.05,4 4.05,9.75 m -7.55,-0.1 q 0,-3.65 -2.45,-6.1 -2.55,-2.55 -6.2,-2.55 -3.5,0 -6.1,2.55 -2.55,2.45 -2.55,6.1 l 0.05,0.85 q 0.25,2.95 2.5,5.1 2.6,2.5 6.1,2.5 3.65,0 6.2,-2.5 2.15,-2.15 2.4,-5.1 l 0.05,-0.85"
         id="path142" />
      <path
         stroke="none"
         fill="#5b5b5b"
         d="m 427.65,514.9 -0.05,0.85 q -0.25,2.95 -2.4,5.1 -2.55,2.5 -6.2,2.5 -3.5,0 -6.1,-2.5 -2.25,-2.15 -2.5,-5.1 l -0.05,-0.85 q 0,-3.65 2.55,-6.1 2.6,-2.55 6.1,-2.55 3.65,0 6.2,2.55 2.45,2.45 2.45,6.1"
         id="path143" />
      <path
         stroke="none"
         fill="#5b5b5b"
         d="m 340.25,514.9 q 0,-3.65 2.45,-6.1 2.55,-2.55 6.2,-2.55 3.5,0 6.1,2.55 2.55,2.45 2.55,6.1 l -0.05,0.85 q -0.25,2.95 -2.5,5.1 -2.6,2.5 -6.1,2.5 -3.65,0 -6.2,-2.5 -2.15,-2.15 -2.4,-5.1 l -0.05,-0.85"
         id="path144" />
      <path
         stroke="none"
         fill="#ffffff"
         d="m 340.25,514.9 0.05,0.85 q 0.25,2.95 2.4,5.1 2.55,2.5 6.2,2.5 3.5,0 6.1,-2.5 2.25,-2.15 2.5,-5.1 l 0.05,-0.85 q 0,-3.65 -2.55,-6.1 -2.6,-2.55 -6.1,-2.55 -3.65,0 -6.2,2.55 -2.45,2.45 -2.45,6.1 m -7.55,0.1 q 0,-5.75 4.05,-9.75 4.05,-4.05 9.75,-4.05 5.6,0 9.75,4.05 3.95,4 3.95,9.75 0,5.7 -3.95,9.6 -4.15,4.1 -9.75,4.1 -5.7,0 -9.75,-4.1 -4.05,-3.9 -4.05,-9.6"
         id="path145" />
      <path
         stroke="none"
         fill="#d23007"
         d="m 366.3,553.15 q 0,-3.85 3.45,-6.95 l 2.05,-1.9 q 7.1,-6.9 10.55,-15.65 0.45,-0.45 1.1,-0.6 L 383.8,528 h 0.3 l 0.3,0.05 q 0.65,0.15 1.15,0.6 3.5,8.75 10.6,15.7 l 2,1.85 q 3.45,3.1 3.45,6.95 l -0.05,0.15 q -1.95,6.25 -10.4,5.25 -3.4,-0.4 -6.2,-2.6 l -1,-0.9 -1.05,0.9 q -2.75,2.2 -6.2,2.6 -8.45,1 -10.35,-5.25 l -0.05,-0.15"
         id="path146" />
      <path
         stroke="none"
         fill="#c62c05"
         d="m 366.3,553.15 0.05,0.15 q 1.9,6.25 10.35,5.25 3.45,-0.4 6.2,-2.6 l 1.05,-0.9 1,0.9 q 2.8,2.2 6.2,2.6 8.45,1 10.4,-5.25 l 0.05,-0.15 -0.3,2.25 q -1.9,7.85 -10.25,6.6 -3.35,-0.55 -6.1,-3.3 l -1,-1.1 -1,1.1 q -2.75,2.75 -6.15,3.3 -8.3,1.25 -10.2,-6.6 -0.3,-1.15 -0.3,-2.25"
         id="path147" />
      <path
         stroke="none"
         fill="#ff9900"
         d="m 361.7,524.05 q 1.1,-6.95 6.3,-12.25 l 2.65,-2.25 q 5.8,-4.35 13.4,-4.35 7.6,0 13.4,4.35 l 2.55,2.25 q 5.25,5.3 6.3,12.25 -0.5,1.35 -1.95,2.6 -1.3,-5.05 -5.5,-9 l -2.35,-1.95 q -5.4,-3.75 -12.45,-3.75 -7.05,0 -12.45,3.75 l -2.45,1.95 q -4.15,3.95 -5.45,9 -1.5,-1.2 -2,-2.6"
         id="path148" />
      <path
         stroke="none"
         fill="#f39100"
         d="m 363.7,526.65 q 1.3,-5.05 5.45,-9 l 2.45,-1.95 q 5.4,-3.75 12.45,-3.75 7.05,0 12.45,3.75 l 2.35,1.95 q 4.2,3.95 5.5,9 -1.6,1.3 -4.35,2.4 -6.6,2.7 -15.95,2.7 -9.4,0 -16.05,-2.7 -2.75,-1.1 -4.3,-2.4"
         id="path149" />
      <path
         stroke="none"
         fill="#e08600"
         d="m 363.7,526.65 q 1.55,1.3 4.3,2.4 6.65,2.7 16.05,2.7 9.35,0 15.95,-2.7 2.75,-1.1 4.35,-2.4 1.45,-1.25 1.95,-2.6 l 0.3,3.7 -0.1,1.5 q -0.4,5 -6.5,8.6 -6.6,3.85 -15.95,3.85 -9.4,0 -16.05,-3.85 -6.05,-3.6 -6.5,-8.6 l -0.05,-1.5 q 0,-1.95 0.25,-3.7 0.5,1.4 2,2.6"
         id="path150" />
      <path
         stroke="none"
         fill="#f53707"
         d="m 403,450.45 h -0.05 L 403,450.3 v 0.15 m -43.15,10.5 -0.1,-2 q 0,-7 4.75,-12 l 0.45,-0.5 q 0.5,3.1 -1.75,6 -2.85,3.75 -3.35,8.5 m 4.8,-15.95 -0.15,-2.05 q 0,-5.1 3.55,-8.7 3.6,-3.55 8.7,-3.55 4.1,0 7.2,2.35 3.1,-2.35 7.25,-2.35 5.05,0 8.65,3.55 3.55,3.6 3.55,8.7 l -0.15,2.05 q -0.55,-3.85 -3.4,-6.75 -3.6,-3.55 -8.65,-3.55 -4.15,0 -7.25,2.35 -3.1,-2.35 -7.2,-2.35 -5.1,0 -8.7,3.55 -2.85,2.9 -3.4,6.75 m 38.3,1.45 H 403 l 0.4,0.45 q 2.4,2.5 3.6,5.55 1.15,3 1.15,6.5 l -0.1,2 q -0.5,-4.75 -3.3,-8.5 -2.3,-2.9 -1.8,-6"
         id="path151" />
      <path
         stroke="none"
         fill="#d23007"
         d="m 408.05,460.95 q -0.45,4.45 -2.95,8 l 0.5,3.25 0.05,1.7 -0.05,2 q -0.65,7.15 -5.9,12.4 -6,6 -14.45,6 l -1.3,-0.05 -1.3,0.05 q -8.45,0 -14.4,-6 -5.25,-5.2 -5.9,-12.35 l -0.1,-2.05 0.1,-1.75 q 0.1,-1.65 0.5,-3.2 -2.55,-3.55 -3,-8 0.5,-4.75 3.35,-8.5 2.25,-2.9 1.75,-6 l -0.3,-1.45 q 0.55,-3.85 3.4,-6.75 3.6,-3.55 8.7,-3.55 4.1,0 7.2,2.35 3.1,-2.35 7.25,-2.35 5.05,0 8.65,3.55 2.85,2.9 3.4,6.75 l -0.3,1.45 q -0.5,3.1 1.8,6 2.8,3.75 3.3,8.5 M 403,450.45 v -0.15 l -0.05,0.15 H 403"
         id="path152" />
    </g>
  </g>
</svg>
