<?xml version="1.0" encoding="UTF-8" standalone="no"?>
<svg
   version="1.1"
   id="svg386"
   width="136"
   height="136"
   xmlns="http://www.w3.org/2000/svg"
   xmlns:svg="http://www.w3.org/2000/svg">
  <defs
     id="defs1" />
  <g
     id="g386"
     transform="translate(-569.84998,-444)">
    <g
       id="g400">
      <path
         stroke="none"
         fill="#987900"
         d="m 705.85,512 v 2 0.1 Q 705.1,540.8 685.9,560 v 0.05 q -4.15,4.15 -8.65,7.45 -17.2,12.5 -39.4,12.5 -23.8,0 -41.7,-14.3 h -0.05 l -6.3,-5.65 q -19.2,-19.2 -19.9,-45.85 l -0.05,-2.2 q 0,-28.15 19.95,-48.05 19.9,-19.95 48.05,-19.95 28.1,0 48.05,19.95 19.95,19.9 19.95,48.05"
         id="path153" />
      <path
         stroke="none"
         fill="#ffd738"
         d="m 573.9,514 -0.05,-2 q 0,-26.5 18.75,-45.25 18.75,-18.75 45.25,-18.75 26.45,0 45.2,18.75 18.8,18.75 18.8,45.25 v 2 q -0.7,-25.2 -18.8,-43.25 Q 664.3,452 637.85,452 611.35,452 592.6,470.75 574.55,488.8 573.9,514"
         id="path154" />
      <path
         stroke="none"
         fill="#ffcc00"
         d="m 573.9,514 q 0.65,-25.2 18.7,-43.25 18.75,-18.75 45.25,-18.75 26.45,0 45.2,18.75 18.1,18.05 18.8,43.25 -0.7,25.15 -18.8,43.2 -3.9,3.95 -8.15,7.05 l -2.2,-4 q -15.05,-26.35 -36.4,-26.35 -21.35,0 -36.45,26.35 l -1.25,2.3 -6,-5.35 Q 574.55,539.15 573.9,514"
         id="path155" />
      <path
         stroke="none"
         fill="#eebe00"
         d="M 674.9,564.25 Q 658.75,576 637.85,576 q -22.4,0 -39.25,-13.45 l 1.25,-2.3 q 15.1,-26.35 36.45,-26.35 21.35,0 36.4,26.35 l 2.2,4"
         id="path156" />
      <path
         stroke="none"
         fill="#ffffff"
         d="m 681.55,514.9 q 0,-3.65 -2.45,-6.1 -2.55,-2.55 -6.2,-2.55 -3.5,0 -6.1,2.55 -2.55,2.45 -2.55,6.1 l 0.05,0.85 q 0.25,2.95 2.5,5.1 2.6,2.5 6.1,2.5 3.65,0 6.2,-2.5 2.15,-2.15 2.4,-5.1 l 0.05,-0.85 m 7.55,0.1 q 0,5.7 -4.05,9.6 -4.05,4.1 -9.75,4.1 -5.6,0 -9.75,-4.1 -3.95,-3.9 -3.95,-9.6 0,-5.75 3.95,-9.75 4.15,-4.05 9.75,-4.05 5.7,0 9.75,4.05 4.05,4 4.05,9.75"
         id="path157" />
      <path
         stroke="none"
         fill="#5b5b5b"
         d="m 681.55,514.9 -0.05,0.85 q -0.25,2.95 -2.4,5.1 -2.55,2.5 -6.2,2.5 -3.5,0 -6.1,-2.5 -2.25,-2.15 -2.5,-5.1 l -0.05,-0.85 q 0,-3.65 2.55,-6.1 2.6,-2.55 6.1,-2.55 3.65,0 6.2,2.55 2.45,2.45 2.45,6.1"
         id="path158" />
      <path
         stroke="none"
         fill="#5b5b5b"
         d="m 594.15,514.9 q 0,-3.65 2.45,-6.1 2.55,-2.55 6.2,-2.55 3.5,0 6.1,2.55 2.55,2.45 2.55,6.1 l -0.05,0.85 q -0.25,2.95 -2.5,5.1 -2.6,2.5 -6.1,2.5 -3.65,0 -6.2,-2.5 -2.15,-2.15 -2.4,-5.1 l -0.05,-0.85"
         id="path159" />
      <path
         stroke="none"
         fill="#ffffff"
         d="m 586.6,515 q 0,-5.75 4.05,-9.75 4.05,-4.05 9.75,-4.05 5.6,0 9.75,4.05 3.95,4 3.95,9.75 0,5.7 -3.95,9.6 -4.15,4.1 -9.75,4.1 -5.7,0 -9.75,-4.1 -4.05,-3.9 -4.05,-9.6 m 7.55,-0.1 0.05,0.85 q 0.25,2.95 2.4,5.1 2.55,2.5 6.2,2.5 3.5,0 6.1,-2.5 2.25,-2.15 2.5,-5.1 l 0.05,-0.85 q 0,-3.65 -2.55,-6.1 -2.6,-2.55 -6.1,-2.55 -3.65,0 -6.2,2.55 -2.45,2.45 -2.45,6.1"
         id="path160" />
      <path
         stroke="none"
         fill="#ff9900"
         d="m 658.25,526.65 q -1.3,-5.05 -5.5,-9 l -2.35,-1.95 q -5.4,-3.75 -12.45,-3.75 -7.05,0 -12.45,3.75 -1.25,0.85 -2.45,1.95 -4.15,3.95 -5.45,9 -1.5,-1.2 -2,-2.6 1.1,-6.95 6.3,-12.25 1.3,-1.3 2.65,-2.25 5.8,-4.35 13.4,-4.35 7.6,0 13.4,4.35 l 2.55,2.25 q 5.25,5.3 6.3,12.25 -0.5,1.35 -1.95,2.6"
         id="path161" />
      <path
         stroke="none"
         fill="#f39100"
         d="m 658.25,526.65 q -1.6,1.3 -4.35,2.4 -6.6,2.7 -15.95,2.7 -9.4,0 -16.05,-2.7 -2.75,-1.1 -4.3,-2.4 1.3,-5.05 5.45,-9 1.2,-1.1 2.45,-1.95 5.4,-3.75 12.45,-3.75 7.05,0 12.45,3.75 l 2.35,1.95 q 4.2,3.95 5.5,9"
         id="path162" />
      <path
         stroke="none"
         fill="#e08600"
         d="m 658.25,526.65 q 1.45,-1.25 1.95,-2.6 l 0.3,3.7 -0.1,1.5 q -0.4,5 -6.5,8.6 -6.6,3.85 -15.95,3.85 -9.4,0 -16.05,-3.85 -6.05,-3.6 -6.5,-8.6 l -0.05,-1.5 q 0,-1.95 0.25,-3.7 0.5,1.4 2,2.6 1.55,1.3 4.3,2.4 6.65,2.7 16.05,2.7 9.35,0 15.95,-2.7 2.75,-1.1 4.35,-2.4"
         id="path163" />
      <path
         stroke="none"
         fill="#eebe00"
         d="m 651.25,464.45 q 3.9,6.75 4.65,12.65 0.9,5.85 -1.85,7.4 -2.75,1.6 -7.45,-2.05 -4.6,-3.65 -8.5,-10.4 l -0.9,-1.55 q -1.6,-3.2 -1.2,-6.5 0.4,-3.65 3.15,-5.25 2.75,-1.55 6.15,-0.1 3,1.3 5,4.3 l 0.95,1.5 m -19.7,7.7 q -2.55,4.5 -5.7,6.9 -3.05,2.45 -4.85,1.35 -1.8,-1 -1.25,-4.9 0.55,-3.9 3.1,-8.35 l 0.6,-1.05 q 1.35,-2 3.35,-2.85 2.25,-1 4.05,0.05 1.8,1.1 2.1,3.55 0.25,2.1 -0.8,4.25 l -0.6,1.05"
         id="path164" />
    </g>
  </g>
</svg>
