<?xml version="1.0" encoding="UTF-8" standalone="no"?>
<svg
   version="1.1"
   id="svg386"
   width="152.46094"
   height="136"
   xmlns="http://www.w3.org/2000/svg"
   xmlns:svg="http://www.w3.org/2000/svg">
  <defs
     id="defs1" />
  <g
     id="g386"
     transform="translate(-1073.2611,-828)">
    <g
       id="g411">
      <path
         stroke="none"
         fill="#2c2b2b"
         d="m 1225.65,848.05 q -0.3,2.8 -1.35,5.85 v 0.05 q -2.7,7.5 -8.7,12 l -0.1,0.1 -3.7,2.15 q 5.7,12.75 5.7,27.8 v 2 0.1 q -0.45,15.85 -7.3,29 -1.6,3.1 -3.55,6.05 -3.9,5.75 -9.05,10.9 -19.95,19.95 -48.1,19.95 -28.15,0 -48.05,-19.95 -5.2,-5.2 -9,-10.9 -10.4,-15.5 -10.9,-34.95 l -0.05,-2.2 q 0,-15.05 5.75,-27.75 -1.9,-0.9 -3.8,-2.2 l -0.1,-0.1 q -6,-4.5 -8.65,-12 v -0.05 q -1.1,-3.05 -1.35,-5.85 v -0.1 q -0.4,-4.35 1,-8.2 v -0.05 q 2.5,-6.6 8.55,-8.35 l 0.25,-0.1 2.85,-0.55 h -0.1 q 14.95,-3.05 27.15,-0.35 l 0.15,0.05 1.1,0.3 h 0.1 q 4.55,1.1 7.75,2.85 5,-2.2 10.4,-3.5 8.05,-2.05 16.95,-2.05 8.7,0 16.6,1.9 l 0.35,0.1 q 5.35,1.3 10.4,3.5 3.15,-1.7 7.7,-2.8 h 0.1 l 1.15,-0.3 0.1,-0.05 q 12.2,-2.7 27.15,0.35 H 1213 l 2.8,0.55 0.3,0.1 q 6,1.75 8.5,8.35 l 0.05,0.05 q 1.35,3.85 1,8.2 v 0.1"
         id="path309" />
      <path
         stroke="none"
         fill="#414040"
         d="m 1122.25,841.35 -1.3,-0.4 q -8.25,-1.8 -18.35,0.25 l -1.9,0.45 q -3.05,0.85 -4.35,4.2 -0.9,2.45 -0.55,5.15 0.2,1.55 0.8,3.15 1.65,4.6 5.3,7.35 1.75,1.2 3.3,1.75 l -3.6,1.05 -0.95,0.25 -2.95,0.6 -2.8,0.5 -1.25,0.1 q -3.8,-0.1 -7.9,-3 -5.05,-3.8 -7.3,-10.15 -0.9,-2.6 -1.15,-5 0.2,-1.8 0.8,-3.5 1.75,-4.65 5.95,-5.95 l 2.65,-0.55 q 14.05,-2.85 25.5,-0.35 l 1.15,0.3 q 5.7,1.4 8.9,3.8 m 54.45,0 q 3.2,-2.4 8.9,-3.8 l 1.15,-0.3 q 11.45,-2.5 25.5,0.35 l 2.65,0.55 q 4.2,1.3 5.95,5.95 0.6,1.7 0.8,3.5 -0.25,2.4 -1.15,5 -2.25,6.35 -7.3,10.15 -4.1,2.9 -7.9,3 l -1.25,-0.1 -2.8,-0.5 -2.95,-0.6 -0.95,-0.25 -3.6,-1.05 q 1.55,-0.55 3.3,-1.75 3.65,-2.75 5.3,-7.35 0.6,-1.6 0.8,-3.15 0.35,-2.7 -0.55,-5.15 -1.3,-3.35 -4.35,-4.2 l -1.9,-0.45 q -10.1,-2.05 -18.35,-0.25 l -1.3,0.4"
         id="path310" />
      <path
         stroke="none"
         fill="#545353"
         d="m 1176.7,841.35 h -0.05 q -1.95,0.45 -3.4,1.1 l 0.25,-0.55 q 2.7,-5.05 12.1,-7.35 l 1.15,-0.3 q 11.45,-2.5 25.5,0.35 l 2.65,0.55 q 4.2,1.3 5.95,5.95 1.1,3.05 0.8,6.5 -0.2,-1.8 -0.8,-3.5 -1.75,-4.65 -5.95,-5.95 l -2.65,-0.55 q -14.05,-2.85 -25.5,-0.35 l -1.15,0.3 q -5.7,1.4 -8.9,3.8 m -54.45,0 q -3.2,-2.4 -8.9,-3.8 l -1.15,-0.3 q -11.45,-2.5 -25.5,0.35 l -2.65,0.55 q -4.2,1.3 -5.95,5.95 -0.6,1.7 -0.8,3.5 -0.3,-3.45 0.8,-6.5 1.75,-4.65 5.95,-5.95 l 2.65,-0.55 q 14.05,-2.85 25.5,-0.35 l 1.15,0.3 q 9.4,2.3 12.1,7.35 l 0.25,0.55 -3.4,-1.1 h -0.05"
         id="path311" />
      <path
         stroke="none"
         fill="#ffaaff"
         d="m 1176.7,841.35 1.3,-0.4 q 8.25,-1.8 18.35,0.25 l 1.9,0.45 q 3.05,0.85 4.35,4.2 0.9,2.45 0.55,5.15 -0.2,1.55 -0.8,3.15 -1.65,4.6 -5.3,7.35 -1.75,1.2 -3.3,1.75 l -1.4,-0.45 q -7.85,-2.7 -13.3,-6.95 -3.95,-3 -5.5,-6.05 -1.75,-3.35 -0.6,-6.75 l 0.3,-0.6 q 1.45,-0.65 3.4,-1.1 h 0.05 m -54.45,0 h 0.05 l 3.4,1.1 0.3,0.6 q 1.15,3.4 -0.6,6.75 -1.55,3.05 -5.5,6.05 -5.45,4.25 -13.3,6.95 l -1.4,0.45 q -1.55,-0.55 -3.3,-1.75 -3.65,-2.75 -5.3,-7.35 -0.6,-1.6 -0.8,-3.15 -0.35,-2.7 0.55,-5.15 1.3,-3.35 4.35,-4.2 l 1.9,-0.45 q 10.1,-2.05 18.35,-0.25 l 1.3,0.4"
         id="path312" />
      <path
         stroke="none"
         fill="#4f4e4e"
         d="m 1165.05,837.75 0.45,-3.9 q 16.4,4.05 29.25,16.85 l 1.25,1.3 q 17.5,18.4 17.5,44 v 2 q -0.7,-24.3 -17.5,-42 l -1.25,-1.3 q -13,-12.95 -29.7,-16.95 m -31.55,-3.85 0.45,3.85 v 0.05 q -10.15,2.4 -18.95,8.15 -5.65,3.7 -10.75,8.75 -18.05,18.1 -18.7,43.3 l -0.05,-2 q 0,-26.5 18.75,-45.3 5.1,-5.1 10.75,-8.75 8.6,-5.65 18.5,-8.05"
         id="path313" />
      <path
         stroke="none"
         fill="#ffffff"
         d="m 1133.5,833.9 q 7.6,-1.9 16,-1.9 8.35,0 15.95,1.85 h 0.05 l -0.45,3.9 H 1165 l -5.5,-1.05 -10,-0.7 -10,0.7 -5.55,1.1 v -0.05 l -0.45,-3.85"
         id="path314" />
      <path
         stroke="none"
         fill="#f0f0f0"
         d="m 1133.95,837.8 5.55,-1.1 10,-0.7 10,0.7 5.5,1.05 h 0.05 q -3.25,15.45 -4.2,31.2 -0.75,12.15 -0.1,24.5 1.2,22.2 42.55,37.45 -3.65,5.45 -8.55,10.3 -18.75,18.8 -45.25,18.8 -26.5,0 -45.25,-18.8 -4.9,-4.9 -8.5,-10.3 41.3,-15.25 42.5,-37.45 0.65,-12.35 -0.05,-24.5 -1,-15.7 -4.25,-31.15"
         id="path315" />
      <path
         stroke="none"
         fill="#414040"
         d="m 1133.95,837.8 q 3.25,15.45 4.25,31.15 0.7,12.15 0.05,24.5 -1.2,22.2 -42.5,37.45 -9.75,-14.55 -10.2,-32.9 0.65,-25.2 18.7,-43.3 5.1,-5.05 10.75,-8.75 8.8,-5.75 18.95,-8.15 m 69.35,93.1 q -41.35,-15.25 -42.55,-37.45 -0.65,-12.35 0.1,-24.5 0.95,-15.75 4.2,-31.2 16.7,4 29.7,16.95 l 1.25,1.3 q 16.8,17.7 17.5,42 -0.4,14.9 -6.85,27.25 l -3.35,5.65"
         id="path316" />
      <path
         stroke="none"
         fill="#ffc4ff"
         d="M 1112.05,927.9 1112,926 v -1 q 0.4,-12.6 10.95,-21.65 11,-9.35 26.55,-9.35 15.5,0 26.5,9.35 10.55,9.05 11,21.65 v 1 l -0.05,1.9 Q 1186.1,916 1176,907.35 1165,898 1149.5,898 q -15.55,0 -26.55,9.35 -10.1,8.65 -10.9,20.55"
         id="path317" />
      <path
         stroke="none"
         fill="#ffaaff"
         d="m 1112.05,927.9 q 0.8,-11.9 10.9,-20.55 11,-9.35 26.55,-9.35 15.5,0 26.5,9.35 10.1,8.65 10.95,20.55 -0.65,10.2 -8.05,18 l -2.9,2.7 q -2.1,1.8 -4.4,3.3 -9.85,-2 -22.1,-2 -12.3,0 -22.1,2 l -4.45,-3.3 -2.85,-2.7 q -7.4,-7.8 -8.05,-18 m 55.95,-19.75 -0.85,-0.6 q -1.4,-0.7 -3.6,-0.05 l -0.25,0.1 q -2.85,0.85 -5.35,3.35 l -0.15,0.15 q -0.65,0.7 -1,1.55 -0.4,0.9 -0.4,2 0,2.15 1.5,3.65 1.5,1.5 3.65,1.5 2.05,0 3.55,-1.4 l 0.15,-0.15 q 2.05,-2.05 3,-4.3 l 0.45,-1.3 0.15,-0.5 q 0.4,-1.9 -0.25,-3.15 l -0.6,-0.85 m -34.1,10.25 q 1.5,1.4 3.55,1.4 2.15,0 3.65,-1.5 1.5,-1.5 1.5,-3.65 0,-1.1 -0.35,-2 l -1.05,-1.55 -0.15,-0.15 q -2.55,-2.55 -5.4,-3.4 l -0.2,-0.05 q -2.2,-0.65 -3.55,0.05 -0.5,0.2 -0.9,0.6 l -0.6,0.85 q -0.65,1.25 -0.2,3.15 l 0.1,0.5 0.45,1.3 q 0.95,2.25 3,4.3 l 0.15,0.15"
         id="path318" />
      <path
         stroke="none"
         fill="#a66ea6"
         d="m 1133.9,918.4 -0.15,-0.15 q -2.05,-2.05 -3,-4.3 l -0.45,-1.3 -0.1,-0.5 q -0.45,-1.9 0.2,-3.15 l 0.6,-0.85 q 0.4,-0.4 0.9,-0.6 1.35,-0.7 3.55,-0.05 l 0.2,0.05 q 2.85,0.85 5.4,3.4 l 0.15,0.15 1.05,1.55 q 0.35,0.9 0.35,2 0,2.15 -1.5,3.65 -1.5,1.5 -3.65,1.5 -2.05,0 -3.55,-1.4 m 34.1,-10.25 0.6,0.85 q 0.65,1.25 0.25,3.15 l -0.15,0.5 -0.45,1.3 q -0.95,2.25 -3,4.3 l -0.15,0.15 q -1.5,1.4 -3.55,1.4 -2.15,0 -3.65,-1.5 -1.5,-1.5 -1.5,-3.65 0,-1.1 0.4,-2 0.35,-0.85 1,-1.55 l 0.15,-0.15 q 2.5,-2.5 5.35,-3.35 l 0.25,-0.1 q 2.2,-0.65 3.6,0.05 l 0.85,0.6"
         id="path319" />
      <path
         stroke="none"
         fill="#f0a0f0"
         d="m 1171.6,951.9 q -9.6,6.1 -22.1,6.1 -12.55,0 -22.1,-6.1 9.8,-2 22.1,-2 12.25,0 22.1,2"
         id="path320" />
      <path
         stroke="none"
         fill="#ffffff"
         d="m 1190.5,872.05 q 0,4.1 -2.95,7 -2.9,2.95 -7.05,2.95 -4.1,0 -7.05,-2.95 -2.9,-2.9 -2.9,-7 0,-4.2 2.9,-7.1 2.95,-2.9 7.05,-2.9 4.15,0 7.05,2.9 2.95,2.9 2.95,7.1 m -3.8,0.15 q 0,-2.9 -2,-4.95 -2,-2 -4.95,-2 -2.8,0 -4.9,2 -2,2.05 -2,4.95 0,2.85 2,4.85 2.1,2 4.9,2 2.95,0 4.95,-2 2,-2 2,-4.85 m -78.2,-0.15 q 0,-4.2 2.9,-7.1 2.95,-2.9 7.1,-2.9 4.05,0 7.05,2.9 2.9,2.9 2.9,7.1 0,4.1 -2.9,7 -3,2.95 -7.05,2.95 -4.15,0 -7.1,-2.95 -2.9,-2.9 -2.9,-7 m 3.75,0.15 q 0,2.85 2.05,4.85 2,2 4.9,2 2.85,0 4.9,-2 2.05,-2 2.05,-4.85 0,-2.9 -2.05,-4.95 -2.05,-2 -4.9,-2 -2.9,0 -4.9,2 -2.05,2.05 -2.05,4.95"
         id="path321" />
      <path
         stroke="none"
         fill="#5b5b5b"
         d="m 1112.25,872.2 q 0,-2.9 2.05,-4.95 2,-2 4.9,-2 2.85,0 4.9,2 2.05,2.05 2.05,4.95 0,2.85 -2.05,4.85 -2.05,2 -4.9,2 -2.9,0 -4.9,-2 -2.05,-2 -2.05,-4.85 m 74.45,0 q 0,2.85 -2,4.85 -2,2 -4.95,2 -2.8,0 -4.9,-2 -2,-2 -2,-4.85 0,-2.9 2,-4.95 2.1,-2 4.9,-2 2.95,0 4.95,2 2,2.05 2,4.95"
         id="path322" />
    </g>
  </g>
</svg>
