<?xml version="1.0" encoding="UTF-8" standalone="no"?>
<svg
   version="1.1"
   id="svg386"
   width="136"
   height="136"
   xmlns="http://www.w3.org/2000/svg"
   xmlns:svg="http://www.w3.org/2000/svg">
  <defs
     id="defs1" />
  <g
     id="g386"
     transform="translate(-569.84998,-1020)">
    <g
       id="g414">
      <path
         stroke="none"
         fill="#1b8045"
         d="m 610.45,1020.65 q 4.7,0 8.75,1.85 8.8,-2.5 18.65,-2.5 9.8,0 18.7,2.5 3.95,-1.85 8.7,-1.85 8.6,0 14.75,5.9 l 0.8,0.75 q 5.2,5.6 5.65,13.2 8,8.2 12.8,17.8 6.6,13.5 6.6,29.7 v 2 0.1 q -0.15,6.2 -1.3,12 -3.25,16.2 -14.3,29.2 l -4.35,4.75 -1.2,1.2 -0.05,0.05 q -3.6,3.45 -7.4,6.2 -17.2,12.5 -39.4,12.5 -23.8,0 -41.75,-14.3 l -4.95,-4.35 -0.05,-0.05 -1.3,-1.25 -4.35,-4.8 v 0.05 q -11.05,-13 -14.2,-29.2 -1.2,-5.75 -1.35,-11.9 l -0.05,-2.2 q 0,-16.2 6.65,-29.7 4.7,-9.65 12.8,-17.85 0.4,-7.85 6,-13.45 h 0.05 l 0.2,-0.2 v -0.05 q 6.2,-6.1 14.9,-6.1"
         id="path346" />
      <path
         stroke="none"
         fill="#b19a89"
         d="m 624.65,1114.9 -0.15,-0.1 q -1.75,-1.75 -2.55,-3.65 l -0.35,-1.1 -0.1,-0.45 q -0.4,-1.6 0.15,-2.65 l 0.55,-0.7 q 0.3,-0.35 0.75,-0.55 1.15,-0.55 3,0 h 0.15 q 2.4,0.75 4.6,2.9 l 0.1,0.15 0.9,1.3 0.3,1.7 q 0,1.8 -1.3,3.05 -1.25,1.3 -3.05,1.3 -1.75,0 -3,-1.2 m 28.85,-8.65 0.5,0.7 q 0.55,1.05 0.2,2.65 l -0.1,0.45 -0.4,1.1 q -0.8,1.9 -2.55,3.65 l -0.1,0.1 q -1.3,1.2 -3,1.2 -1.85,0 -3.1,-1.3 -1.3,-1.25 -1.3,-3.05 0,-0.95 0.35,-1.7 0.3,-0.75 0.85,-1.3 l 0.15,-0.15 q 2.1,-2.1 4.5,-2.85 l 0.2,-0.05 q 1.9,-0.55 3.05,0 l 0.75,0.55"
         id="path347" />
      <path
         stroke="none"
         fill="#ebceb7"
         d="m 624.65,1114.9 q 1.25,1.2 3,1.2 1.8,0 3.05,-1.3 1.3,-1.25 1.3,-3.05 l -0.3,-1.7 -0.9,-1.3 -0.1,-0.15 q -2.2,-2.15 -4.6,-2.9 h -0.15 q -1.85,-0.55 -3,0 -0.45,0.2 -0.75,0.55 l -0.55,0.7 q -0.55,1.05 -0.15,2.65 l 0.1,0.45 0.35,1.1 q 0.8,1.9 2.55,3.65 l 0.15,0.1 m 28.85,-8.65 -0.75,-0.55 q -1.15,-0.55 -3.05,0 l -0.2,0.05 q -2.4,0.75 -4.5,2.85 l -0.15,0.15 q -0.55,0.55 -0.85,1.3 -0.35,0.75 -0.35,1.7 0,1.8 1.3,3.05 1.25,1.3 3.1,1.3 1.7,0 3,-1.2 l 0.1,-0.1 q 1.75,-1.75 2.55,-3.65 l 0.4,-1.1 0.1,-0.45 q 0.35,-1.6 -0.2,-2.65 l -0.5,-0.7 m 33.7,22.45 -4.15,4.5 -1.2,1.2 -6.95,5.85 q -16.15,11.75 -37.05,11.75 -22.4,0 -39.25,-13.45 l -4.75,-4.15 -1.25,-1.2 -4.1,-4.5 q -10.35,-12.2 -13.35,-27.4 l 5.2,2.15 q 14.75,5.55 33.25,7.7 0.5,-4.45 3.75,-7.8 3.95,-3.9 9.5,-3.9 5.5,0 9.4,3.9 l 1.6,1.85 1.55,-1.85 q 3.95,-3.9 9.5,-3.9 5.5,0 9.4,3.9 3.35,3.35 3.85,7.8 18.5,-2.15 33.2,-7.7 l 5.25,-2.15 q -3.05,15.2 -13.4,27.4"
         id="path348" />
      <path
         stroke="none"
         fill="#f0ede7"
         d="m 592.05,1111.1 -1,-4.65 q -0.1,-0.35 0.05,-0.65 0.15,-0.4 0.45,-0.55 l 0.7,-0.05 13.75,2.5 q 0.4,0.05 0.7,0.35 l 0.45,0.6 0.1,0.8 -0.95,4.25 -14.25,-2.6 m 77.35,2.6 q -0.55,-2 -0.95,-4.25 l 0.1,-0.8 0.45,-0.6 q 0.3,-0.3 0.7,-0.35 l 13.75,-2.5 0.7,0.05 0.45,0.55 0.05,0.65 -1,4.65 -14.25,2.6"
         id="path349" />
      <path
         stroke="none"
         fill="#fffcf5"
         d="m 669.4,1113.7 14.25,-2.6 q -2,7.25 -6.05,13.4 l -0.55,0.55 -0.7,0.2 -0.65,-0.25 q -4.2,-3.2 -6.3,-11.3 m -63.1,0 q -2.1,8.1 -6.3,11.3 l -0.65,0.25 -0.7,-0.2 -0.55,-0.55 q -4.05,-6.15 -6.05,-13.4 l 14.25,2.6"
         id="path350" />
      <path
         stroke="none"
         fill="#ffffff"
         d="m 604.2,1042 q 0,3.15 2.25,5.3 2.15,2.3 5.35,2.3 3.15,0 5.4,-2.3 l 0.1,-0.05 q 0.95,-1 1.5,-2.15 0.65,-1.4 0.65,-3.1 0,-1.75 -0.65,-3.2 -0.55,-1.25 -1.6,-2.25 l -0.35,-0.3 q -2.15,-1.85 -5.05,-1.85 -3.2,0 -5.35,2.15 -2.25,2.15 -2.25,5.45 m -5.95,-0.25 v -0.05 q 0,-2.6 1,-4.8 0.85,-2.05 2.6,-3.75 3.6,-3.5 8.6,-3.5 l 0.7,0.05 q 3.1,0.1 5.7,1.7 l 0.05,0.05 1.9,1.4 0.35,0.3 q 3.5,3.55 3.5,8.6 0,5.05 -3.5,8.5 l -0.35,0.35 -1.15,0.95 q -3.2,2.35 -7.2,2.35 -5,0 -8.6,-3.65 -3.6,-3.45 -3.6,-8.5 m 73.35,0.25 q 0,-3.3 -2.25,-5.45 -2.25,-2.15 -5.4,-2.15 -2.85,0 -5.1,1.85 l -0.35,0.3 q -2.25,2.15 -2.25,5.45 0,3.1 2.2,5.25 l 0.05,0.05 q 2.35,2.3 5.45,2.3 3.15,0 5.4,-2.3 2.25,-2.15 2.25,-5.3 m 5.85,-0.25 q 0,5.05 -3.5,8.5 -3.6,3.65 -8.7,3.65 -4.1,0 -7.2,-2.4 l -1.35,-1.25 q -3.6,-3.45 -3.6,-8.5 0,-5.05 3.6,-8.6 1,-1 2.1,-1.65 l 0.15,-0.1 q 2.5,-1.6 5.65,-1.7 l 0.65,-0.05 q 5.1,0 8.7,3.5 1.7,1.75 2.6,3.85 0.9,2.15 0.9,4.7 v 0.05"
         id="path351" />
      <path
         stroke="none"
         fill="#2ecc71"
         d="m 598.25,1041.75 q 0,5.05 3.6,8.5 3.6,3.65 8.6,3.65 4,0 7.2,-2.35 l 1.15,-0.95 0.35,-0.35 q 3.5,-3.45 3.5,-8.5 0,-5.05 -3.5,-8.6 l -0.35,-0.3 -1.9,-1.4 -0.05,-0.05 q -2.6,-1.6 -5.7,-1.7 l -0.7,-0.05 q -5,0 -8.6,3.5 -1.75,1.7 -2.6,3.75 -1,2.2 -1,4.8 v 0.05 m 20.55,-15 q 1.75,0.95 3.35,2.35 l -0.1,-0.05 0.65,0.55 0.05,0.05 0.2,0.3 q 4.7,4.9 4.7,11.8 -0.05,6.95 -4.7,11.75 l -0.25,0.3 -0.35,0.35 -0.25,0.2 q -1.8,1.6 -3.75,2.65 l 1.3,7.05 -1.3,1.25 q -0.65,0.8 -0.75,1.9 v 0.4 0.35 q 0.1,0.7 0.45,1.3 0.55,0.85 1.35,1 0.85,0.15 1.5,-0.65 l 0.1,-0.1 2,6.2 q 1.3,3.5 2.7,6.25 -1.2,0.8 -1.9,1.75 l 0.05,-0.1 q -0.95,1 -1.05,2.5 v 0.1 0.25 0.2 0.25 q 0.1,0.85 0.6,1.65 l 0.05,0.05 q 0.85,1.35 2.1,1.5 l 0.05,0.05 q 1.55,0.35 2.85,-1.05 l 0.1,-0.15 0.65,-0.55 0.35,-0.15 0.15,-0.05 q 3.75,4.3 8.15,4.3 4.4,0 8.2,-4.35 l 0.15,0.05 0.4,0.2 0.65,0.6 0.05,0.05 q 1.15,1.45 2.8,1.1 l 0.05,-0.05 q 1.25,-0.15 2.15,-1.5 v -0.05 l 0.6,-1.55 v -0.1 l 0.05,-0.45 -0.05,-0.5 q -0.15,-1.35 -0.9,-2.25 l -0.05,-0.05 q -0.75,-0.9 -1.9,-1.7 l 2.65,-6.25 2.05,-6.3 0.15,0.2 q 0.6,0.8 1.45,0.65 0.8,-0.15 1.35,-1 l 0.45,-1.3 0.05,-0.3 -0.05,-0.45 q -0.1,-1.1 -0.7,-1.9 l -1.35,-1.3 1.25,-7 q -2.2,-1.2 -4.1,-3.1 l -0.15,-0.15 q -5,-4.9 -5,-12 0,-7.1 5,-12.05 l 0.1,-0.1 q 1.75,-1.75 3.75,-2.85 3.7,-2.1 8.3,-2.1 7.15,0 12.2,4.95 l 0.25,0.25 q 4.75,4.95 4.75,11.9 v 0.4 l -0.45,3.6 1.05,1 q 5.8,5.8 9.8,12.3 8.5,13.8 9,30.95 -0.15,5.85 -1.25,11.3 l -5.25,2.15 q -14.7,5.55 -33.2,7.7 -0.5,-4.45 -3.85,-7.8 -3.9,-3.9 -9.4,-3.9 -5.55,0 -9.5,3.9 l -1.55,1.85 -1.6,-1.85 q -3.9,-3.9 -9.4,-3.9 -5.55,0 -9.5,3.9 -3.25,3.35 -3.75,7.8 -18.5,-2.15 -33.25,-7.7 l -5.2,-2.15 q -1.1,-5.45 -1.25,-11.3 0.45,-17.15 8.95,-30.95 3.95,-6.5 9.75,-12.3 l 1.1,-1.05 q -0.4,-1.7 -0.45,-3.6 v -0.35 q 0,-7 4.9,-11.95 l 0.2,-0.2 q 5.05,-4.95 12.1,-4.95 4.55,0 8.35,2.1 m 58.65,15 v -0.05 q 0,-2.55 -0.9,-4.7 -0.9,-2.1 -2.6,-3.85 -3.6,-3.5 -8.7,-3.5 l -0.65,0.05 q -3.15,0.1 -5.65,1.7 l -0.15,0.1 q -1.1,0.65 -2.1,1.65 -3.6,3.55 -3.6,8.6 0,5.05 3.6,8.5 l 1.35,1.25 q 3.1,2.4 7.2,2.4 5.1,0 8.7,-3.65 3.5,-3.45 3.5,-8.5"
         id="path352" />
      <path
         stroke="none"
         fill="#5b5b5b"
         d="m 604.2,1042 q 0,-3.3 2.25,-5.45 2.15,-2.15 5.35,-2.15 2.9,0 5.05,1.85 l 0.35,0.3 q 1.05,1 1.6,2.25 0.65,1.45 0.65,3.2 0,1.7 -0.65,3.1 -0.55,1.15 -1.5,2.15 l -0.1,0.05 q -2.25,2.3 -5.4,2.3 -3.2,0 -5.35,-2.3 -2.25,-2.15 -2.25,-5.3 m 67.4,0 q 0,3.15 -2.25,5.3 -2.25,2.3 -5.4,2.3 -3.1,0 -5.45,-2.3 l -0.05,-0.05 q -2.2,-2.15 -2.2,-5.25 0,-3.3 2.25,-5.45 l 0.35,-0.3 q 2.25,-1.85 5.1,-1.85 3.15,0 5.4,2.15 2.25,2.15 2.25,5.45"
         id="path353" />
      <path
         stroke="none"
         fill="#30d776"
         d="m 622.75,1029.65 7.1,-1.2 8,-0.45 8,0.45 7.25,1.25 q -5,4.95 -5,12.05 0,7.1 5,12 l 0.15,0.15 q 1.9,1.9 4.1,3.1 l -1.25,7 -3.15,-2.15 q -6.3,-3.4 -15.05,-3.4 -8.85,0 -15,3.4 -1.9,1.05 -3.25,2.2 l -1.3,-7.05 q 1.95,-1.05 3.75,-2.65 l 0.25,-0.2 0.35,-0.35 0.25,-0.3 q 4.65,-4.8 4.7,-11.75 0,-6.9 -4.7,-11.8 l -0.2,-0.3 m 2.95,52.3 q -1.4,-2.75 -2.7,-6.25 l -2,-6.2 q 0.7,-0.85 1.8,-1.55 l 1.55,-0.7 v 0.05 q 5.6,-2.2 13.55,-2.2 7.95,0 13.6,2.2 l -0.05,-0.05 1.55,0.7 1.75,1.45 -2.05,6.3 -2.65,6.25 -1.55,-0.95 q -4.45,-2.45 -10.6,-2.45 -6.25,0 -10.6,2.45 h -0.05 q -0.9,0.45 -1.55,0.95 m 4,6.25 0.2,-0.05 q 3.3,-1.3 8,-1.3 4.7,0 8.05,1.3 h 0.1 q -3.8,4.35 -8.2,4.35 -4.4,0 -8.15,-4.3"
         id="path354" />
      <path
         stroke="none"
         fill="#31de7a"
         d="m 622.75,1029.65 -0.05,-0.05 -0.65,-0.55 0.1,0.05 q -1.6,-1.4 -3.35,-2.35 8.95,-2.75 19.05,-2.75 10.05,0 19.1,2.75 -2,1.1 -3.75,2.85 l -0.1,0.1 -7.25,-1.25 -8,-0.45 -8,0.45 -7.1,1.2 m -29.5,12.45 q 0.05,1.9 0.45,3.6 l -1.1,1.05 q -5.8,5.8 -9.75,12.3 -8.5,13.8 -8.95,30.95 l -0.05,-2 q 0,-15.25 6.25,-27.95 4.55,-9.35 12.5,-17.3 l 0.65,-0.65 m 108.6,47.9 q -0.5,-17.15 -9,-30.95 -4,-6.5 -9.8,-12.3 l -1.05,-1 0.45,-3.6 0.6,0.6 q 7.95,7.95 12.6,17.3 6.2,12.7 6.2,27.95 v 2"
         id="path355" />
      <path
         stroke="none"
         fill="#28b463"
         d="m 619.65,1064.05 q 1.35,-1.15 3.25,-2.2 6.15,-3.4 15,-3.4 8.75,0 15.05,3.4 l 3.15,2.15 1.35,1.3 q 0.6,0.8 0.7,1.9 l 0.05,0.45 -0.05,0.3 -0.45,1.3 q -0.55,0.85 -1.35,1 -0.85,0.15 -1.45,-0.65 l -0.15,-0.2 -1.75,-1.45 -1.55,-0.7 0.05,0.05 q -5.65,-2.2 -13.6,-2.2 -7.95,0 -13.55,2.2 v -0.05 l -1.55,0.7 q -1.1,0.7 -1.8,1.55 l -0.1,0.1 q -0.65,0.8 -1.5,0.65 -0.8,-0.15 -1.35,-1 -0.35,-0.6 -0.45,-1.3 v -0.35 -0.4 q 0.1,-1.1 0.75,-1.9 l 1.3,-1.25 m 6.05,17.9 q 0.65,-0.5 1.55,-0.95 h 0.05 q 4.35,-2.45 10.6,-2.45 6.15,0 10.6,2.45 l 1.55,0.95 q 1.15,0.8 1.9,1.7 l 0.05,0.05 q 0.75,0.9 0.9,2.25 l 0.05,0.5 -0.05,0.45 v 0.1 l -0.6,1.55 v 0.05 q -0.9,1.35 -2.15,1.5 l -0.05,0.05 q -1.65,0.35 -2.8,-1.1 l -0.05,-0.05 -0.65,-0.6 -0.4,-0.2 -0.15,-0.05 h -0.1 q -3.35,-1.3 -8.05,-1.3 -4.7,0 -8,1.3 l -0.2,0.05 -0.15,0.05 -0.35,0.15 -0.65,0.55 -0.1,0.15 q -1.3,1.4 -2.85,1.05 l -0.05,-0.05 q -1.25,-0.15 -2.1,-1.5 l -0.05,-0.05 q -0.5,-0.8 -0.6,-1.65 v -0.25 -0.2 -0.25 -0.1 q 0.1,-1.5 1.05,-2.5 l -0.05,0.1 q 0.7,-0.95 1.9,-1.75"
         id="path356" />
    </g>
  </g>
</svg>
