<?xml version="1.0" encoding="UTF-8" standalone="no"?>
<svg
   version="1.1"
   id="svg386"
   width="136"
   height="164.50787"
   xmlns="http://www.w3.org/2000/svg"
   xmlns:svg="http://www.w3.org/2000/svg">
  <defs
     id="defs1" />
  <g
     id="g386"
     transform="translate(-1081.5,-991.49213)">
    <g
       id="g416">
      <path
         stroke="none"
         fill="#747070"
         d="m 1089.8,1031.6 q -0.45,-17.95 6.35,-35.85 l 0.05,-0.05 q 0.85,-2.3 3.05,-3.4 l 0.05,-0.05 q 2.35,-1.2 4.7,-0.5 h -0.05 q 2.4,0.6 3.8,2.8 v -0.05 l 19.1,29.2 q 10.55,-3.7 22.65,-3.7 12.1,0 22.7,3.7 l 19.05,-29.2 v 0.05 q 1.4,-2.2 3.85,-2.8 h -0.05 q 2.3,-0.7 4.65,0.5 l 0.1,0.05 q 2.15,1.1 3.05,3.4 v 0.05 q 6.8,17.9 6.35,35.85 -0.25,9.65 -2.5,19.3 10.8,16.25 10.8,37.1 v 2 0.15 q -0.5,16.15 -7.6,29.6 -2.1,3.9 -4.75,7.6 l -0.3,0.35 -0.05,0.15 -0.15,0.2 q -3.2,4.15 -7.05,8.05 l -4.9,4.5 -0.05,0.05 -4.45,3.4 q -16.9,11.95 -38.7,11.95 -21.85,0 -38.7,-11.9 v -0.05 q -2.25,-1.6 -4.35,-3.3 l -5.05,-4.65 q -3.95,-3.95 -7,-8.1 -3.45,-4.55 -5.85,-9.4 l -0.25,-0.55 -5.55,-16.7 -0.2,-1.15 v -0.1 l -0.05,-0.2 -0.2,-1.05 v -0.15 l -0.05,-0.2 v -0.2 l -0.05,-0.2 -0.15,-1.5 -0.1,-0.5 v -0.3 l -0.05,-0.35 v -0.05 l -0.05,-0.25 v -0.1 -0.05 l -0.05,-0.4 -0.05,-0.55 -0.05,-0.55 -0.15,-3.3 -0.05,-2.2 q 0,-20.8 10.85,-37.05 -2.3,-9.7 -2.55,-19.35"
         id="path323" />
      <path
         stroke="none"
         fill="#958f8f"
         d="m 1093.8,1031.5 q 0.4,-15.15 6.1,-30.35 0.35,-0.9 1.2,-1.35 l 1.8,-0.2 q 0.95,0.25 1.5,1.1 l 19.95,30.6 -1.15,1.85 -12.15,-13.45 q -0.4,-0.4 -1.05,-0.25 -0.65,0.1 -1.25,0.65 -0.6,0.55 -0.8,1.3 -7.2,22.05 -2.25,38.9 l -1.3,2.05 q -0.5,0.8 -1.45,1.1 l -1.85,-0.2 q -0.85,-0.45 -1.2,-1.35 -5.7,-15.2 -6.1,-30.4 m 80.85,-0.2 19.95,-30.6 q 0.55,-0.85 1.5,-1.1 l 1.8,0.2 q 0.85,0.45 1.2,1.35 5.7,15.2 6.1,30.35 -0.4,15.2 -6.1,30.4 -0.35,0.9 -1.2,1.35 l -1.85,0.2 q -0.95,-0.3 -1.45,-1.1 l -1.3,-2.05 q 4.95,-16.85 -2.25,-38.9 -0.2,-0.75 -0.8,-1.3 -0.6,-0.55 -1.25,-0.65 -0.65,-0.15 -1.05,0.25 l -12.15,13.45 -1.15,-1.85"
         id="path324" />
      <path
         stroke="none"
         fill="#b1a9a9"
         d="m 1174.65,1031.3 -0.45,-0.7 q -0.4,-0.6 -0.4,-1.35 0,-0.75 0.4,-1.35 l 20.4,-31.2 q 0.55,-0.85 1.5,-1.1 l 1.8,0.2 q 0.85,0.45 1.2,1.35 6.5,17.15 6.1,34.35 -0.4,-15.15 -6.1,-30.35 -0.35,-0.9 -1.2,-1.35 l -1.8,-0.2 q -0.95,0.25 -1.5,1.1 l -19.95,30.6 m -50.3,0 -19.95,-30.6 q -0.55,-0.85 -1.5,-1.1 l -1.8,0.2 q -0.85,0.45 -1.2,1.35 -5.7,15.2 -6.1,30.35 -0.4,-17.2 6.1,-34.35 0.35,-0.9 1.2,-1.35 l 1.8,-0.2 q 0.95,0.25 1.5,1.1 l 20.4,31.2 q 0.4,0.6 0.4,1.35 0,0.75 -0.4,1.35 l -0.45,0.7"
         id="path325" />
      <path
         stroke="none"
         fill="#d2d0d0"
         d="m 1105.7,1060.3 q -4.95,-16.85 2.25,-38.9 0.2,-0.75 0.8,-1.3 0.6,-0.55 1.25,-0.65 0.65,-0.15 1.05,0.25 l 12.15,13.45 -17.5,27.15 m 70.1,-27.15 12.15,-13.45 q 0.4,-0.4 1.05,-0.25 0.65,0.1 1.25,0.65 0.6,0.55 0.8,1.3 7.2,22.05 2.25,38.9 l -17.5,-27.15"
         id="path326" />
      <path
         stroke="none"
         fill="#b1a9a9"
         d="m 1085.55,1090 -0.05,-2 q 0,-26.55 18.75,-45.25 4.25,-4.25 8.85,-7.5 l 3.55,-2.3 q 14.6,-8.95 32.85,-8.95 18.3,0 32.9,8.9 l 3.5,2.3 q 4.65,3.3 8.9,7.55 18.7,18.7 18.7,45.25 v 2 q -0.7,-25.25 -18.7,-43.25 -4.4,-4.4 -9.2,-7.75 -2.8,-1.95 -5.75,-3.55 l -3.15,2.5 q -11.25,8.05 -27.2,8.05 -15.95,0 -27.25,-8.05 l -3.1,-2.45 q -2.95,1.6 -5.75,3.55 -4.8,3.35 -9.15,7.7 -18.05,18 -18.7,43.25"
         id="path327" />
      <path
         stroke="none"
         fill="#9f9898"
         d="m 1213.5,1090 q -0.45,15.2 -7.15,27.85 -1.95,3.7 -4.45,7.15 h -0.05 l -0.4,0.6 q -1.65,-12.6 -15.3,-17.2 13,-3.05 18.85,-15.85 5.85,-12.9 -4.1,-28.75 -10,-15.85 -25.6,-7.95 -15.65,7.85 -16.65,36.05 h -18.3 q -1,-28.2 -16.65,-36.05 -15.6,-7.9 -25.6,7.95 -9.95,15.85 -4.1,28.75 5.85,12.8 18.85,15.85 -13.65,4.6 -15.25,17.2 -3.2,-4.25 -5.5,-8.8 l -5.55,-16.7 v -0.2 l -0.2,-1.1 -0.05,-0.25 -0.05,-0.5 -0.1,-0.55 -0.15,-1.25 v -0.2 l -0.1,-0.6 v -0.25 l -0.05,-0.2 v -0.25 l -0.05,-0.3 -0.05,-0.65 v -0.25 l -0.05,-0.3 -0.15,-3.25 q 0.65,-25.25 18.7,-43.25 4.35,-4.35 9.15,-7.7 2.8,-1.95 5.75,-3.55 l 3.1,2.45 q 11.3,8.05 27.25,8.05 15.95,0 27.2,-8.05 l 3.15,-2.5 q 2.95,1.6 5.75,3.55 4.8,3.35 9.2,7.75 18,18 18.7,43.25"
         id="path328" />
      <path
         stroke="none"
         fill="#d2d0d0"
         d="m 1201.45,1125.6 q -3,3.95 -6.7,7.65 l -4.65,4.3 -4.2,3.2 q -15.9,11.25 -36.4,11.25 -20.55,0 -36.4,-11.2 -2.1,-1.5 -4.1,-3.15 l -4.8,-4.4 q -3.7,-3.7 -6.6,-7.65 1.6,-12.6 15.25,-17.2 -13,-3.05 -18.85,-15.85 -5.85,-12.9 4.1,-28.75 10,-15.85 25.6,-7.95 15.65,7.85 16.65,36.05 h 18.3 q 1,-28.2 16.65,-36.05 15.6,-7.9 25.6,7.95 9.95,15.85 4.1,28.75 -5.85,12.8 -18.85,15.85 13.65,4.6 15.3,17.2"
         id="path329" />
      <path
         stroke="none"
         fill="#383838"
         d="m 1153.95,1106.95 0.85,1 2.05,1.5 q 1.4,0.65 3.05,0.65 3,0 5.15,-2.15 l 1.25,-1.65 0.5,-0.45 0.7,0.05 4.7,2.45 0.45,0.5 -0.05,0.65 -1.5,2.3 -1.05,1.15 q -4.25,4.2 -10.15,4.2 -5.9,0 -10.1,-4.2 l -0.3,-0.3 -0.3,0.3 q -4.25,4.2 -10.15,4.2 -5.95,0 -10.1,-4.2 l -1.05,-1.15 -1.5,-2.2 q -0.2,-0.35 -0.05,-0.65 0.05,-0.35 0.4,-0.55 l 4.6,-2.55 0.65,-0.1 0.55,0.45 1.35,1.75 q 2.15,2.15 5.15,2.15 1.65,0 3.1,-0.65 1.1,-0.55 2.05,-1.5 l 0.85,-1 q 4.65,1.75 8.9,0"
         id="path330" />
      <path
         stroke="none"
         fill="#545454"
         d="m 1136.65,1096.95 -0.2,-2.35 v -0.9 q 0.3,-2.4 3.8,-4.1 3.85,-1.85 9.25,-1.85 5.4,0 9.25,1.85 3.45,1.7 3.8,4.1 v 0.9 l -0.2,2.35 q -0.7,-1.9 -3.6,-3.35 -3.85,-1.85 -9.25,-1.85 -5.4,0 -9.25,1.85 -2.9,1.4 -3.6,3.35"
         id="path331" />
      <path
         stroke="none"
         fill="#464646"
         d="m 1136.65,1096.95 q 0.7,-1.95 3.6,-3.35 3.85,-1.85 9.25,-1.85 5.4,0 9.25,1.85 2.9,1.45 3.6,3.35 -0.65,3.95 -3.6,6.9 -2.15,2.15 -4.8,3.1 -4.25,1.75 -8.9,0 -2.65,-0.95 -4.8,-3.1 -2.95,-2.95 -3.6,-6.9"
         id="path332" />
      <path
         stroke="none"
         fill="#5b5b5b"
         d="m 1107.7,1084 q 0.1,-2.35 2.55,-4.05 2.5,-1.7 6.15,-1.7 3.55,0 6.1,1.7 2.45,1.7 2.55,4.05 v 0.3 q -0.1,2.35 -2.55,3.95 -2.55,1.75 -6.1,1.75 -3.65,0 -6.15,-1.75 -2.45,-1.6 -2.55,-3.95 v -0.3 m 83.55,0 v 0.3 q -0.1,2.35 -2.5,3.95 -2.5,1.75 -6.15,1.75 -3.55,0 -6.15,-1.75 -2.4,-1.6 -2.5,-3.95 v -0.3 q 0.1,-2.35 2.5,-4.05 2.6,-1.7 6.15,-1.7 3.65,0 6.15,1.7 2.4,1.7 2.5,4.05"
         id="path333" />
      <path
         stroke="none"
         fill="#ffffff"
         d="m 1191.25,1084 q -0.1,-2.35 -2.5,-4.05 -2.5,-1.7 -6.15,-1.7 -3.55,0 -6.15,1.7 -2.4,1.7 -2.5,4.05 v 0.3 q 0.1,2.35 2.5,3.95 2.6,1.75 6.15,1.75 3.65,0 6.15,-1.75 2.4,-1.6 2.5,-3.95 v -0.3 m -83.55,0 v 0.3 q 0.1,2.35 2.55,3.95 2.5,1.75 6.15,1.75 3.55,0 6.1,-1.75 2.45,-1.6 2.55,-3.95 v -0.3 q -0.1,-2.35 -2.55,-4.05 -2.55,-1.7 -6.1,-1.7 -3.65,0 -6.15,1.7 -2.45,1.7 -2.55,4.05 m -4.7,-0.05 q 0,-5.2 3.65,-8.85 3.65,-3.65 8.85,-3.65 5.1,0 8.8,3.65 3.65,3.65 3.65,8.85 0,5.15 -3.65,8.75 -3.7,3.7 -8.8,3.7 -5.2,0 -8.85,-3.7 -3.65,-3.6 -3.65,-8.75 m 93,0 q 0,5.15 -3.65,8.75 -3.65,3.7 -8.85,3.7 -5.1,0 -8.8,-3.7 -3.65,-3.6 -3.65,-8.75 0,-5.2 3.65,-8.85 3.7,-3.65 8.8,-3.65 5.2,0 8.85,3.65 3.65,3.65 3.65,8.85"
         id="path334" />
    </g>
  </g>
</svg>
