<?xml version="1.0" encoding="UTF-8" standalone="no"?>
<svg
   version="1.1"
   id="svg386"
   width="136"
   height="136"
   xmlns="http://www.w3.org/2000/svg"
   xmlns:svg="http://www.w3.org/2000/svg">
  <defs
     id="defs1" />
  <g
     id="g386"
     transform="translate(-827.70001,-828)">
    <g
       id="g410">
      <path
         stroke="none"
         fill="#1b8045"
         d="m 895.7,828 q 15.95,0 29.3,6.45 10.1,4.9 18.75,13.5 19.95,19.9 19.95,48.05 v 2 0.1 q -0.65,23.5 -15.6,41.2 l -4.35,4.7 v 0.05 q -4.15,4.15 -8.65,7.45 -17.2,12.5 -39.4,12.5 -23.8,0 -41.7,-14.3 h -0.05 l -6.3,-5.65 -4.35,-4.75 v -0.05 Q 828.4,921.65 827.75,898.2 L 827.7,896 q 0,-28.15 19.95,-48.05 8.6,-8.6 18.8,-13.5 13.3,-6.45 29.25,-6.45"
         id="path297" />
      <path
         stroke="none"
         fill="#31de7a"
         d="m 831.75,898 -0.05,-2 q 0,-26.5 18.75,-45.25 8.1,-8.1 17.7,-12.7 12.55,-6.05 27.55,-6.05 15,0 27.55,6.05 9.55,4.6 17.65,12.7 18.8,18.75 18.8,45.25 v 2 q -0.7,-25.2 -18.8,-43.25 -8.3,-8.3 -18.1,-12.9 -12.35,-5.85 -27.1,-5.85 -14.75,0 -27.1,5.8 -9.85,4.65 -18.15,12.95 -18.05,18.05 -18.7,43.25"
         id="path298" />
      <path
         stroke="none"
         fill="#2ecc71"
         d="m 831.75,898 q 0.65,-25.2 18.7,-43.25 8.3,-8.3 18.15,-12.95 1.8,12.9 7.3,22.95 8.2,15.05 19.8,15.05 11.6,0 19.8,-15.05 5.5,-10.05 7.3,-22.9 9.8,4.6 18.1,12.9 18.1,18.05 18.8,43.25 -0.6,22.1 -14.65,38.7 -12.15,7 -19.3,0 -13.55,-18.8 -31.6,-18.8 -18.05,0 -31.6,18.8 -5.35,6.9 -16.2,0 -14.05,-16.6 -14.6,-38.7"
         id="path299" />
      <path
         stroke="none"
         fill="#2fd274"
         d="m 868.6,841.8 q 12.35,-5.8 27.1,-5.8 14.75,0 27.1,5.85 -1.8,12.85 -7.3,22.9 -8.2,15.05 -19.8,15.05 -11.6,0 -19.8,-15.05 -5.5,-10.05 -7.3,-22.95"
         id="path300" />
      <path
         stroke="none"
         fill="#f3f3f3"
         d="m 945.05,936.7 -4.15,4.5 q -3.9,3.95 -8.15,7.05 Q 916.6,960 895.7,960 q -22.4,0 -39.25,-13.45 l -6,-5.35 -4.1,-4.5 q 10.85,6.9 16.2,0 13.55,-18.8 31.6,-18.8 18.05,0 31.6,18.8 7.15,7 19.3,0"
         id="path301" />
      <path
         stroke="none"
         fill="#ffffff"
         d="m 935.3,889.75 q 0,5.05 -3.5,8.5 -3.6,3.65 -8.7,3.65 -5,0 -8.55,-3.65 -3.6,-3.45 -3.6,-8.5 0,-5.05 3.6,-8.6 3.55,-3.5 8.55,-3.5 5.1,0 8.7,3.5 3.5,3.55 3.5,8.6 m -5.85,0.25 q 0,-3.3 -2.25,-5.45 -2.25,-2.15 -5.4,-2.15 -3.1,0 -5.45,2.15 -2.25,2.15 -2.25,5.45 0,3.15 2.25,5.3 2.35,2.3 5.45,2.3 3.15,0 5.4,-2.3 2.25,-2.15 2.25,-5.3 m -67.4,0 q 0,3.15 2.25,5.3 2.15,2.3 5.35,2.3 3.15,0 5.4,-2.3 1.05,-1 1.6,-2.2 0.65,-1.4 0.65,-3.1 0,-1.75 -0.65,-3.2 -0.55,-1.25 -1.6,-2.25 -2.25,-2.15 -5.4,-2.15 -3.2,0 -5.35,2.15 -2.25,2.15 -2.25,5.45 m -5.95,-0.25 q 0,-5.05 3.6,-8.6 3.6,-3.5 8.6,-3.5 4.75,0 8.35,3.2 l 0.35,0.3 q 3.5,3.55 3.5,8.6 0,5.05 -3.5,8.5 l -0.35,0.35 q -3.6,3.3 -8.35,3.3 -5,0 -8.6,-3.65 -3.6,-3.45 -3.6,-8.5"
         id="path302" />
      <path
         stroke="none"
         fill="#5b5b5b"
         d="m 929.45,890 q 0,3.15 -2.25,5.3 -2.25,2.3 -5.4,2.3 -3.1,0 -5.45,-2.3 -2.25,-2.15 -2.25,-5.3 0,-3.3 2.25,-5.45 2.35,-2.15 5.45,-2.15 3.15,0 5.4,2.15 2.25,2.15 2.25,5.45 m -67.4,0 q 0,-3.3 2.25,-5.45 2.15,-2.15 5.35,-2.15 3.15,0 5.4,2.15 1.05,1 1.6,2.25 0.65,1.45 0.65,3.2 0,1.7 -0.65,3.1 -0.55,1.2 -1.6,2.2 -2.25,2.3 -5.4,2.3 -3.2,0 -5.35,-2.3 -2.25,-2.15 -2.25,-5.3"
         id="path303" />
      <path
         stroke="none"
         fill="#ffd738"
         d="m 875.65,907.5 0.1,-0.45 q 1.3,-5.75 5.35,-10.25 1.2,-1.3 2.45,-2.25 5.25,-4.35 12.2,-4.35 6.9,0 12.2,4.35 l 2.35,2.25 q 4.1,4.5 5.35,10.25 l 0.1,0.45 0.25,1.55 0.3,3.7 -0.1,1.5 v 0.2 l -0.2,-1.4 -0.35,-2 q -0.4,-1.95 -1.15,-3.75 -1.5,-3.55 -4.2,-6.5 l -2.35,-2.25 q -5.3,-4.35 -12.2,-4.35 -6.95,0 -12.2,4.35 -1.25,0.95 -2.45,2.25 -2.65,2.95 -4.15,6.5 -0.75,1.8 -1.2,3.75 l -0.4,2 -0.1,1.5 -0.05,-0.3 -0.05,-1.5 0.2,-3.7 0.3,-1.55"
         id="path304" />
      <path
         stroke="none"
         fill="#ffcc00"
         d="m 909.7,923.25 -0.4,0.25 q -5.75,3.2 -13.55,3.2 -7.85,0 -13.6,-3.2 l -0.4,-0.25 -0.65,-0.4 q -4.05,-2.65 -5.3,-6.05 l -0.4,-1.5 -0.15,-0.75 0.1,-1.5 0.4,-2 q 0.45,-1.95 1.2,-3.75 1.5,-3.55 4.15,-6.5 1.2,-1.3 2.45,-2.25 5.25,-4.35 12.2,-4.35 6.9,0 12.2,4.35 l 2.35,2.25 q 2.7,2.95 4.2,6.5 0.75,1.8 1.15,3.75 l 0.35,2 0.2,1.4 -0.1,0.85 -0.45,1.55 q -1.3,3.35 -5.35,6 l -0.6,0.4"
         id="path305" />
      <path
         stroke="none"
         fill="#eebe00"
         d="m 915.75,907.5 4.9,1.05 q 10.15,2.6 10.4,6.25 l -15.4,2.05 0.45,-1.55 0.1,-0.85 v -0.2 l 0.1,-1.5 -0.3,-3.7 -0.25,-1.55 m -55.4,7.25 q 0.3,-3.65 10.3,-6.2 l 5,-1.05 -0.3,1.55 -0.2,3.7 0.05,1.5 0.05,0.3 0.15,0.75 0.4,1.5 -15.45,-2.05"
         id="path306" />
      <path
         stroke="none"
         fill="#deb100"
         d="m 860.35,914.75 15.45,2.05 q 1.25,3.4 5.3,6.05 l 0.65,0.4 -2.25,-0.25 q -4.75,-0.65 -8.85,-1.7 -9.8,-2.5 -10.25,-6 l -0.05,-0.35 v -0.2 m 70.7,0.05 v 0.15 0.35 q -0.5,3.5 -10.4,6 -4.05,1.05 -8.75,1.7 l -2.2,0.25 0.6,-0.4 q 4.05,-2.65 5.35,-6 l 15.4,-2.05"
         id="path307" />
      <path
         stroke="none"
         fill="#29bb67"
         d="m 906.1,848.05 q 3.05,5.25 3.6,9.8 0.7,4.55 -1.4,5.75 -2.15,1.25 -5.8,-1.6 -3.55,-2.85 -6.6,-8.05 l -0.7,-1.2 q -1.2,-2.5 -0.9,-5.05 0.3,-2.85 2.45,-4.1 2.1,-1.2 4.75,-0.05 2.35,1 3.9,3.35 l 0.7,1.15 M 890.85,854 q -2,3.5 -4.45,5.35 -2.35,1.9 -3.75,1.05 -1.4,-0.75 -0.95,-3.8 0.4,-3 2.4,-6.45 l 0.45,-0.85 q 1.05,-1.55 2.6,-2.2 l 3.15,0.05 q 1.4,0.85 1.65,2.75 0.15,1.65 -0.65,3.3 l -0.45,0.8"
         id="path308" />
    </g>
  </g>
</svg>
