<?xml version="1.0" encoding="UTF-8" standalone="no"?>
<svg
   version="1.1"
   id="svg386"
   width="190.72687"
   height="162.10001"
   xmlns="http://www.w3.org/2000/svg"
   xmlns:svg="http://www.w3.org/2000/svg">
  <defs
     id="defs1" />
  <g
     id="g386"
     transform="translate(-800.33655,-252)">
    <g
       id="g396">
      <path
         stroke="none"
         fill="#857e7e"
         d="m 991.05,300.55 q -0.15,5.2 -1.6,10.65 l -0.05,0.05 -0.35,1.3 v 0.1 q -7.4,25.9 -23.95,41.5 -9.7,9.2 -19.35,11.95 1.15,4.55 1,10.2 l -0.4,5.6 q -0.6,5.05 -1.9,10.8 -0.4,1.9 -1.85,3.5 l -1.1,0.8 q -1.25,0.85 -2.7,1.15 l -1.15,0.05 q -5.6,0 -8.6,-8.85 h 0.05 L 928,386.5 v -0.05 l -1.4,-3.05 -0.05,-0.05 -1.1,-1.95 q -5.4,2.6 -11.2,4.2 -2.4,10.5 -3.85,21.6 l -0.1,0.35 q -0.15,3.55 -6.3,5.5 h -0.05 q -3.5,1.05 -8.25,1.05 -4.75,0 -8.25,-1.05 h -0.1 q -6,-1.95 -6.2,-5.5 l -0.05,-0.45 q -1.3,-11.25 -3.4,-21.35 -6.1,-1.6 -11.7,-4.35 l -1.1,1.95 -0.05,0.1 -1.4,3 -0.05,0.05 -1.05,2.85 q -3,8.85 -8.55,8.85 l -1.15,-0.05 q -1.5,-0.3 -2.75,-1.15 l -1.05,-0.8 q -1.5,-1.6 -1.85,-3.5 v -0.15 l -0.05,-0.1 q -1.25,-5.5 -1.8,-10.45 -0.4,-3 -0.5,-5.7 -0.15,-5.6 1.05,-10.15 v -0.05 h -0.05 q -9.65,-2.8 -19.35,-11.95 -16.55,-15.6 -23.9,-41.5 l -0.05,-0.1 -0.35,-1.35 q -1.5,-5.45 -1.65,-10.65 v -0.05 q -0.3,-11.9 6.1,-22.9 9.1,-15.8 26.75,-20.65 h 0.05 q 16,-4.2 30.5,2.85 14.4,-7.8 31.95,-7.8 17.6,0 32,7.8 14.45,-7.05 30.5,-2.85 17.65,4.85 26.8,20.65 h -0.05 q 6.4,11 6.1,22.9 v 0.05 m -122.9,79.5 0.1,-0.1 -0.1,0.1"
         id="path97" />
      <path
         stroke="none"
         fill="#bdb6b6"
         d="m 924.1,301.75 -0.2,0.85 q -4.3,17.3 -0.1,31.6 4.4,14.8 15.5,17.75 11.1,2.95 22.35,-7.65 10.85,-10.3 15.7,-27.35 l 0.25,-0.85 q 2.95,-11.1 -2.8,-21.05 -5.7,-9.9 -16.75,-12.95 -11.15,-2.9 -21.05,2.85 -9.95,5.75 -12.9,16.8 m 62.95,-1.35 q -0.15,4.8 -1.5,9.8 l -0.35,1.25 q -7.05,24.85 -22.85,39.8 -16.3,15.45 -32.45,11.15 -16.15,-4.35 -22.55,-25.85 -2.9,-9.8 -3,-20.6 0.1,-11.2 3.15,-23.35 l 0.25,-1.25 q 4.3,-16.1 18.75,-24.4 14.45,-8.4 30.65,-4.15 16.05,4.4 24.35,18.8 5.25,9.05 5.55,18.8 m -100,15.55 q -0.1,10.8 -3,20.6 -6.4,21.5 -22.55,25.85 -16.15,4.3 -32.45,-11.15 -15.8,-14.95 -22.85,-39.8 l -0.35,-1.25 q -1.35,-5 -1.5,-9.8 0.3,-9.75 5.55,-18.8 8.3,-14.4 24.35,-18.8 16.2,-4.25 30.65,4.15 14.45,8.3 18.75,24.4 l 0.25,1.25 q 3.05,12.15 3.15,23.35 m -19.75,-14.2 q -2.95,-11.05 -12.9,-16.8 -9.9,-5.75 -21.05,-2.85 -11.05,3.05 -16.75,12.95 -5.75,9.95 -2.8,21.05 l 0.25,0.85 q 4.85,17.05 15.7,27.35 11.25,10.6 22.35,7.65 11.1,-2.95 15.5,-17.75 4.2,-14.3 -0.1,-31.6 l -0.2,-0.85"
         id="path98" />
      <path
         stroke="none"
         fill="#afa8a8"
         d="m 867.3,301.75 0.2,0.85 q 4.3,17.3 0.1,31.6 -4.4,14.8 -15.5,17.75 Q 841,354.9 829.75,344.3 818.9,334 814.05,316.95 l -0.25,-0.85 q -2.95,-11.1 2.8,-21.05 5.7,-9.9 16.75,-12.95 11.15,-2.9 21.05,2.85 9.95,5.75 12.9,16.8 m 56.8,0 q 2.95,-11.05 12.9,-16.8 9.9,-5.75 21.05,-2.85 11.05,3.05 16.75,12.95 5.75,9.95 2.8,21.05 l -0.25,0.85 Q 972.5,334 961.65,344.3 950.4,354.9 939.3,351.95 928.2,349 923.8,334.2 q -4.2,-14.3 0.1,-31.6 l 0.2,-0.85"
         id="path99" />
      <path
         stroke="none"
         fill="#dbd9d9"
         d="m 904.35,315.95 q -0.15,-12.1 3.15,-25.35 l 0.25,-1.25 q 4.3,-16.1 18.75,-24.4 14.45,-8.4 30.65,-4.15 16.05,4.4 24.35,18.8 5.8,10 5.55,20.8 -0.3,-9.75 -5.55,-18.8 -8.3,-14.4 -24.35,-18.8 -16.2,-4.25 -30.65,4.15 -14.45,8.3 -18.75,24.4 l -0.25,1.25 q -3.05,12.15 -3.15,23.35 m -17.3,0 q -0.1,-11.2 -3.15,-23.35 l -0.25,-1.25 q -4.3,-16.1 -18.75,-24.4 -14.45,-8.4 -30.65,-4.15 -16.05,4.4 -24.35,18.8 -5.25,9.05 -5.55,18.8 -0.25,-10.8 5.55,-20.8 8.3,-14.4 24.35,-18.8 16.2,-4.25 30.65,4.15 14.45,8.3 18.75,24.4 l 0.25,1.25 q 3.3,13.25 3.15,25.35"
         id="path100" />
      <path
         stroke="none"
         fill="#dbd9d9"
         d="M 959.7,322 Q 959,296.75 941,278.75 q -4.4,-4.4 -9.2,-7.75 -2.8,-1.95 -5.75,-3.55 l -3.15,2.5 q -11.25,8.05 -27.2,8.05 -15.95,0 -27.25,-8.05 l -3.1,-2.45 q -2.95,1.6 -5.75,3.55 -4.8,3.35 -9.15,7.7 -18.05,18 -18.7,43.25 l -0.05,-2 q 0,-26.55 18.75,-45.25 4.25,-4.25 8.85,-7.5 1.75,-1.2 3.55,-2.3 14.6,-8.95 32.85,-8.95 18.3,0 32.9,8.9 l 3.5,2.3 q 4.65,3.3 8.9,7.55 18.7,18.7 18.7,45.25 v 2"
         id="path101" />
      <path
         stroke="none"
         fill="#d2d0d0"
         d="m 959.7,322 q -0.45,15.2 -7.15,27.85 -1.95,3.7 -4.45,7.15 h -0.05 q -3.15,4.3 -7.1,8.25 l -4.65,4.3 q -2.05,1.7 -4.2,3.2 -15.9,11.25 -36.4,11.25 -20.55,0 -36.4,-11.2 l -4.1,-3.15 -4.8,-4.4 q -7.6,-7.6 -12.1,-16.45 l -5.55,-16.7 v -0.2 l -0.2,-1.1 -0.05,-0.25 -0.05,-0.5 -0.1,-0.55 -0.15,-1.25 v -0.2 l -0.1,-0.6 v -0.25 l -0.05,-0.2 v -0.25 l -0.05,-0.3 -0.05,-0.65 v -0.25 l -0.05,-0.3 -0.15,-3.25 q 0.65,-25.25 18.7,-43.25 4.35,-4.35 9.15,-7.7 2.8,-1.95 5.75,-3.55 l 3.1,2.45 q 11.3,8.05 27.25,8.05 15.95,0 27.2,-8.05 l 3.15,-2.5 q 2.95,1.6 5.75,3.55 4.8,3.35 9.2,7.75 18,18 18.7,43.25"
         id="path102" />
      <path
         stroke="none"
         fill="#fffcf5"
         d="m 853.35,394.2 q -0.8,-0.15 -1.45,-0.7 l -0.15,-0.05 q -0.7,-0.75 -0.85,-1.65 -1.25,-5.45 -1.8,-10.3 l -0.45,-5.35 q -0.6,-19.6 17.6,-25.3 3.45,3.15 5.2,6.7 l 0.65,1.5 -2.9,2.9 q -13.35,13.8 -15.45,28.35 l -0.4,3.9 m 84.7,0 -0.35,-3.9 q -2.15,-14.55 -15.5,-28.35 l -2.9,-2.9 0.7,-1.5 q 1.7,-3.55 5.15,-6.7 18.2,5.7 17.6,25.3 l -0.4,5.3 q -0.55,4.85 -1.85,10.35 -0.15,0.9 -0.85,1.65 l -0.15,0.05 q -0.65,0.55 -1.45,0.7"
         id="path103" />
      <path
         stroke="none"
         fill="#cdcbcb"
         d="m 872.1,359.05 -0.65,-1.5 q -1.75,-3.55 -5.2,-6.7 5.3,-1.8 7.5,-8.35 l 7.45,13.85 2.1,3.8 v 0.1 l -0.05,0.2 -0.05,0.05 -0.35,1.45 -0.05,0.05 -1.05,1 -0.85,0.6 -4.5,2.55 q -1.75,0.95 -3.3,2.05 0.55,-4.9 -1,-9.15 m 46.2,9.15 -3.3,-2.05 -4.45,-2.55 -0.9,-0.6 -1.05,-1 -0.05,-0.05 q -0.4,-0.7 -0.35,-1.45 l -0.05,-0.05 -0.05,-0.2 v -0.1 l 2.1,-3.8 7.45,-13.85 q 2.2,6.55 7.5,8.35 -3.45,3.15 -5.15,6.7 l -0.7,1.5 q -1.55,4.25 -1,9.15"
         id="path104" />
      <path
         stroke="none"
         fill="#f0ede7"
         d="m 918.3,368.2 q -0.55,-4.9 1,-9.15 l 2.9,2.9 q 13.35,13.8 15.5,28.35 l 0.35,3.9 q -3.25,-0.35 -5.2,-6.15 l -1.15,-3.1 -1.6,-3.45 q -1.55,-2.9 -3.4,-5.35 -2.85,-3.85 -6.55,-6.7 l -1.85,-1.25 m -64.95,26 0.4,-3.9 q 2.1,-14.55 15.45,-28.35 l 2.9,-2.9 q 1.55,4.25 1,9.15 l -1.85,1.25 q -3.85,3 -6.8,7 -1.7,2.35 -3.1,5.05 -0.9,1.65 -1.65,3.45 l -1.15,3.1 q -1.95,5.8 -5.2,6.15 m 27.85,-37.85 1.7,2.65 h 0.05 l 0.35,1.15 -2.1,-3.8 m 26.9,3.8 q 0.1,-0.7 0.35,-1.15 h 0.05 q 0.8,-1.45 1.7,-2.65 l -2.1,3.8"
         id="path105" />
      <path
         stroke="none"
         fill="#000000"
         fill-opacity="0.0509804"
         d="m 880.9,363.6 0.3,0.4 1.7,1.85 h 0.05 l 0.35,0.8 v 0.05 l -0.05,0.15 h -0.05 l -0.35,1.05 h -0.05 l -1.05,0.7 -5.35,2.2 q -1.75,0.65 -3.3,1.45 -0.95,0.35 -1.85,0.85 -3.1,1.65 -5.6,3.8 l -1.2,-0.45 q 2.95,-4 6.8,-7 l 1.85,-1.25 q 1.55,-1.1 3.3,-2.05 l 4.5,-2.55 m 37.4,4.6 1.85,1.25 q 3.7,2.85 6.55,6.7 l -1.1,0.65 q -2.45,-2.1 -5.45,-3.7 -0.9,-0.5 -1.85,-0.85 -1.55,-0.8 -3.3,-1.45 l -5.35,-2.2 -1.05,-0.7 h -0.05 q -0.4,-0.5 -0.35,-1.05 h -0.05 l -0.05,-0.15 v -0.05 q 0.1,-0.5 0.35,-0.8 h 0.05 l 1.7,-1.85 0.35,-0.4 4.45,2.55 3.3,2.05"
         id="path106" />
      <path
         stroke="none"
         fill="#e7e5e5"
         d="m 871.6,352.85 -0.4,-1.35 q -2.2,-8.9 4.2,-16.2 7.6,-8.3 20.3,-8.3 12.75,0 20.15,8.3 6.6,7.3 4.3,16.2 l -0.3,1.35 q -1.25,-2.35 -4,-4.5 -7.4,-5.8 -20.15,-5.8 -12.7,0 -20.3,5.8 -2.7,2.15 -3.8,4.5"
         id="path107" />
      <path
         stroke="none"
         fill="#dbd9d9"
         d="m 871.6,352.85 q 1.1,-2.35 3.8,-4.5 7.6,-5.8 20.3,-5.8 12.75,0 20.15,5.8 2.75,2.15 4,4.5 -5.55,14.5 -9.15,30.15 -2.7,11.5 -4.3,23.65 -0.35,1.55 -3.6,2.55 -3,0.9 -7.1,0.9 -4.1,0 -7.15,-0.9 -3.15,-1 -3.5,-2.55 -1.45,-12.55 -3.85,-23.65 -3.7,-16.75 -9.6,-30.15 m 11.95,6.15 h -0.05 q 12.7,5.85 24.4,0 l 0.05,-0.05 q 0.7,-0.3 0.95,-1.1 v 0.1 q 0.25,-0.7 0,-1.3 -0.25,-0.8 -0.95,-1.1 h -0.05 q -11.65,-5.95 -24.35,-0.05 -0.85,0.3 -1.05,1.15 -0.25,0.6 0,1.3 0.25,0.7 1.05,1.05"
         id="path108" />
      <path
         stroke="none"
         fill="#cdcbcb"
         d="m 883.55,359 q -0.8,-0.35 -1.05,-1.05 -0.25,-0.7 0,-1.3 0.2,-0.85 1.05,-1.15 12.7,-5.9 24.35,0.05 h 0.05 q 0.7,0.3 0.95,1.1 0.25,0.6 0,1.3 v -0.1 q -0.25,0.8 -0.95,1.1 L 907.9,359 q -11.7,5.85 -24.4,0 h 0.05"
         id="path109" />
      <path
         stroke="none"
         fill="#ffffff"
         d="m 854.65,330.5 q 0,2.55 1.8,4.35 1.85,1.8 4.5,1.8 2.55,0 4.45,-1.8 1.85,-1.8 1.85,-4.35 0,-2.65 -1.85,-4.45 -1.9,-1.85 -4.45,-1.85 -2.65,0 -4.5,1.85 -1.8,1.8 -1.8,4.45 m -5.5,-1.2 q 0,-4.2 2.95,-7.1 2.95,-2.95 7.1,-2.95 4.1,0 7.1,2.95 2.9,2.9 2.9,7.1 0,4.15 -2.9,7 -3,3 -7.1,3 -4.15,0 -7.1,-3 -2.95,-2.85 -2.95,-7 m 93.1,0 q 0,4.15 -2.95,7 -2.95,3 -7.1,3 -4.1,0 -7.1,-3 -2.9,-2.85 -2.9,-7 0,-4.2 2.9,-7.1 3,-2.95 7.1,-2.95 4.15,0 7.1,2.95 2.95,2.9 2.95,7.1 m -5.5,1.2 q 0,-2.65 -1.8,-4.45 -1.85,-1.85 -4.5,-1.85 -2.55,0 -4.45,1.85 -1.85,1.8 -1.85,4.45 0,2.55 1.85,4.35 1.9,1.8 4.45,1.8 2.65,0 4.5,-1.8 1.8,-1.8 1.8,-4.35"
         id="path110" />
      <path
         stroke="none"
         fill="#5b5b5b"
         d="m 936.75,330.5 q 0,2.55 -1.8,4.35 -1.85,1.8 -4.5,1.8 -2.55,0 -4.45,-1.8 -1.85,-1.8 -1.85,-4.35 0,-2.65 1.85,-4.45 1.9,-1.85 4.45,-1.85 2.65,0 4.5,1.85 1.8,1.8 1.8,4.45 m -82.1,0 q 0,-2.65 1.8,-4.45 1.85,-1.85 4.5,-1.85 2.55,0 4.45,1.85 1.85,1.8 1.85,4.45 0,2.55 -1.85,4.35 -1.9,1.8 -4.45,1.8 -2.65,0 -4.5,-1.8 -1.8,-1.8 -1.8,-4.35"
         id="path111" />
    </g>
  </g>
</svg>
