<?xml version="1.0" encoding="UTF-8" standalone="no"?>
<svg
   version="1.1"
   id="svg386"
   width="136.46759"
   height="151.20001"
   xmlns="http://www.w3.org/2000/svg"
   xmlns:svg="http://www.w3.org/2000/svg">
  <defs
     id="defs1" />
  <g
     id="g386"
     transform="translate(-827.67706,-621.25)">
    <g
       id="g405">
      <path
         stroke="none"
         fill="#1b8045"
         d="m 940.6,628.4 q 3.25,3.3 5,7.35 l 0.1,0.25 q 1.7,4.2 1.8,9.25 v 0.1 l -0.1,2.45 q -0.45,4.45 -2.3,8.25 l 4.6,0.7 q 7.8,2.05 11.8,9.1 v -0.05 q 4,7 1.95,14.8 l -0.75,2.25 v 0.1 l -1.3,2.6 q 2.5,8.9 2.5,18.9 v 2 0.1 q -0.65,23.5 -15.6,41.2 l -4.35,4.7 v 0.05 q -4.15,4.15 -8.65,7.45 -17.2,12.5 -39.4,12.5 -23.8,0 -41.7,-14.3 h -0.05 l -6.3,-5.65 -4.35,-4.75 v -0.05 q -14.9,-17.6 -15.55,-41.05 l -0.05,-2.2 q 0,-10 2.5,-18.95 l -1.25,-2.65 0.1,0.15 -0.85,-2.4 q -2.1,-7.8 1.9,-14.75 v -0.05 q 4.1,-7 11.85,-9.05 l 4.6,-0.7 q -1.9,-3.8 -2.3,-8.2 l -0.15,-2.5 v -0.1 q 0.05,-4.75 1.75,-8.8 l 0.15,-0.5 q 1.75,-4.3 5.4,-7.8 l 0.45,-0.4 q 6.9,-6.5 16.45,-6.5 l 1.6,0.1 q 6,0.25 11.15,3.45 h -0.1 l 0.8,0.5 2.8,2.1 0.95,0.9 0.05,0.05 q 3.65,3.7 5.4,8.25 l 4.75,-0.15 4.85,0.15 q 1.75,-4.6 5.55,-8.35 v 0.05 l 0.05,-0.05 0.05,-0.05 q 1.6,-1.6 3.35,-2.75 l 0.1,-0.05 0.7,-0.5 q 4.9,-3.15 11.05,-3.55 l 1.7,-0.1 q 10,0 17.1,6.95 l 0.05,0.05 0.15,0.15"
         id="path236" />
      <path
         stroke="none"
         fill="#31de7a"
         d="m 836.15,681 q 4.7,-12 14.5,-21.8 8.1,-8.1 17.7,-12.7 8.3,-4 17.65,-5.35 l 9.9,-0.7 9.9,0.7 q 9.35,1.35 17.65,5.35 9.55,4.6 17.65,12.7 9.85,9.85 14.55,21.8 l -1.5,0.45 q -4.7,-9.9 -13.05,-18.25 -8.3,-8.3 -18.1,-12.9 -12.35,-5.85 -27.1,-5.85 -14.75,0 -27.1,5.8 -9.85,4.65 -18.15,12.95 -8.35,8.35 -12.95,18.2 l -1.55,-0.4"
         id="path237" />
      <path
         stroke="none"
         fill="#23a35a"
         d="m 907.1,656.9 0.35,0.5 q 0.4,0.75 0.15,1.9 l -0.1,0.3 -0.25,0.8 q -0.6,1.35 -1.85,2.6 l -0.05,0.1 q -0.9,0.85 -2.15,0.85 -1.3,0 -2.2,-0.95 -0.9,-0.9 -0.9,-2.15 0,-0.7 0.25,-1.25 l 0.6,-0.9 0.1,-0.1 q 1.5,-1.5 3.2,-2.05 h 0.15 q 1.35,-0.4 2.15,0 l 0.55,0.35 m -20.55,6.2 -0.1,-0.1 q -1.25,-1.25 -1.8,-2.6 -0.2,-0.4 -0.25,-0.8 l -0.1,-0.3 q -0.3,-1.15 0.1,-1.9 l 0.4,-0.5 q 0.2,-0.25 0.55,-0.35 0.8,-0.4 2.15,0 h 0.1 q 1.7,0.5 3.25,2.05 l 0.1,0.1 0.6,0.9 0.25,1.25 q 0,1.25 -0.95,2.15 -0.9,0.95 -2.15,0.95 -1.25,0 -2.15,-0.85"
         id="path238" />
      <path
         stroke="none"
         fill="#2ecc71"
         d="m 886.55,663.1 q 0.9,0.85 2.15,0.85 1.25,0 2.15,-0.95 0.95,-0.9 0.95,-2.15 l -0.25,-1.25 -0.6,-0.9 -0.1,-0.1 q -1.55,-1.55 -3.25,-2.05 h -0.1 q -1.35,-0.4 -2.15,0 -0.35,0.1 -0.55,0.35 l -0.4,0.5 q -0.4,0.75 -0.1,1.9 l 0.1,0.3 q 0.05,0.4 0.25,0.8 0.55,1.35 1.8,2.6 l 0.1,0.1 m -48.85,18.3 q 4.6,-9.85 12.95,-18.2 8.3,-8.3 18.15,-12.95 12.35,-5.8 27.1,-5.8 14.75,0 27.1,5.85 9.8,4.6 18.1,12.9 8.35,8.35 13.05,18.25 -24.45,6.55 -58.2,6.55 -33.75,0 -58.25,-6.6 m 69.4,-24.5 -0.55,-0.35 q -0.8,-0.4 -2.15,0 h -0.15 q -1.7,0.55 -3.2,2.05 l -0.1,0.1 -0.6,0.9 q -0.25,0.55 -0.25,1.25 0,1.25 0.9,2.15 0.9,0.95 2.2,0.95 1.25,0 2.15,-0.85 l 0.05,-0.1 q 1.25,-1.25 1.85,-2.6 l 0.25,-0.8 0.1,-0.3 q 0.25,-1.15 -0.15,-1.9 l -0.35,-0.5"
         id="path239" />
      <path
         stroke="none"
         fill="#e5e5e5"
         d="m 956.95,684.65 q 2.95,9.25 2.95,19.8 v 2 q -0.6,22.1 -14.65,38.7 l -4.15,4.5 q -3.9,3.95 -8.15,7.05 -16.15,11.75 -37.05,11.75 -22.4,0 -39.25,-13.45 l -6,-5.35 -4.1,-4.5 q -14.05,-16.6 -14.6,-38.7 l -0.05,-2 q 0,-10.55 2.95,-19.85 l 1.3,0.4 1.55,0.4 q 24.5,6.6 58.25,6.6 33.75,0 58.2,-6.55 l 1.5,-0.45 1.3,-0.35 M 923,746.25 q -0.6,-2.3 -2.7,-3.45 -2,-1.15 -4.25,-0.55 -2.3,0.6 -3.55,2.65 -1.1,2 -0.5,4.3 0.6,2.25 2.6,3.45 2.1,1.2 4.4,0.6 2.25,-0.6 3.4,-2.7 1.2,-2.05 0.6,-4.3 m -1.15,-14.8 q -0.4,-1.4 -1.65,-2.15 -1.35,-0.75 -2.75,-0.35 -1.4,0.35 -2.1,1.65 -0.75,1.3 -0.35,2.7 0.35,1.4 1.65,2.15 1.25,0.7 2.65,0.35 1.4,-0.4 2.2,-1.65 0.7,-1.3 0.35,-2.7 m 13.8,8.7 q -0.5,-1.9 -2.2,-2.9 -1.7,-1 -3.55,-0.5 -1.9,0.5 -2.9,2.25 -1,1.7 -0.5,3.6 0.55,1.85 2.25,2.85 1.7,0.95 3.6,0.45 1.85,-0.5 2.85,-2.2 1,-1.7 0.45,-3.55"
         id="path240" />
      <path
         stroke="none"
         fill="#ffffff"
         d="m 955.65,681 1.3,3.65 -1.3,0.35 -1.5,0.45 Q 929.7,692 895.95,692 862.2,692 837.7,685.4 l -1.55,-0.4 -1.3,-0.4 1.3,-3.6 1.55,0.4 q 24.5,6.6 58.25,6.6 33.75,0 58.2,-6.55 l 1.5,-0.45"
         id="path241" />
      <path
         stroke="none"
         fill="#d7d7d7"
         d="m 935.65,740.15 q 0.55,1.85 -0.45,3.55 -1,1.7 -2.85,2.2 -1.9,0.5 -3.6,-0.45 -1.7,-1 -2.25,-2.85 -0.5,-1.9 0.5,-3.6 1,-1.75 2.9,-2.25 1.85,-0.5 3.55,0.5 1.7,1 2.2,2.9 m -13.8,-8.7 q 0.35,1.4 -0.35,2.7 -0.8,1.25 -2.2,1.65 -1.4,0.35 -2.65,-0.35 -1.3,-0.75 -1.65,-2.15 -0.4,-1.4 0.35,-2.7 0.7,-1.3 2.1,-1.65 1.4,-0.4 2.75,0.35 1.25,0.75 1.65,2.15 m 1.15,14.8 q 0.6,2.25 -0.6,4.3 -1.15,2.1 -3.4,2.7 -2.3,0.6 -4.4,-0.6 -2,-1.2 -2.6,-3.45 -0.6,-2.3 0.5,-4.3 1.25,-2.05 3.55,-2.65 2.25,-0.6 4.25,0.55 2.1,1.15 2.7,3.45"
         id="path242" />
      <path
         stroke="none"
         fill="#31de7a"
         d="m 903.25,647.35 -0.1,-2 q 0,-8.35 5.95,-14.25 l 0.05,-0.05 q 1.4,-1.35 2.9,-2.35 l 0.65,-0.45 q 4.05,-2.6 9.15,-2.9 l 1.45,-0.1 q 8.35,0 14.3,5.8 l 0.15,0.15 q 2.75,2.8 4.2,6.25 l 0.05,0.05 q 1.45,3.55 1.5,7.8 v 0.05 l -0.1,2.05 q -0.3,-3.15 -1.4,-5.9 l -0.05,-0.05 q -1.45,-3.45 -4.2,-6.25 l -0.15,-0.15 q -5.95,-5.8 -14.3,-5.8 l -1.45,0.1 q -5.1,0.3 -9.15,2.9 l -0.65,0.45 q -1.5,1 -2.9,2.35 l -0.05,0.05 q -5.25,5.2 -5.85,12.25 m -54.85,0.1 -0.1,-2.1 v -0.05 q 0.05,-4.4 1.75,-8.1 l -0.15,0.25 q 1.45,-3.55 4.45,-6.45 v 0.05 q 5.9,-5.8 14.15,-5.8 l 1.35,0.1 q 5,0.2 9.25,2.85 l 0.5,0.35 q 1.3,0.8 2.5,1.85 l 0.75,0.7 0.05,0.05 q 5.8,5.85 5.8,14.2 l -0.1,1.95 q -0.65,-7.05 -5.7,-12.15 l -0.05,-0.05 -0.75,-0.7 q -1.2,-1.05 -2.5,-1.85 l -0.5,-0.35 q -4.25,-2.65 -9.25,-2.85 l -1.35,-0.1 q -8.25,0 -14.15,5.8 V 635 q -3,2.9 -4.45,6.45 l 0.15,-0.25 q -1.35,2.9 -1.65,6.25"
         id="path243" />
      <path
         stroke="none"
         fill="#2ecc71"
         d="m 848.4,647.45 q 0.3,-3.35 1.65,-6.25 l -0.15,0.25 q 1.45,-3.55 4.45,-6.45 v 0.05 q 5.9,-5.8 14.15,-5.8 l 1.35,0.1 q 5,0.2 9.25,2.85 l 0.5,0.35 q 1.3,0.8 2.5,1.85 l 0.75,0.7 0.05,0.05 q 5.05,5.1 5.7,12.15 -0.65,7.2 -5.75,12.25 v -0.05 l -0.35,0.35 -0.25,0.3 -1.75,1.4 -0.05,0.05 q -5.35,3.9 -11.95,3.9 -8.3,0.05 -14.3,-6 l 0.2,0.15 q -5.35,-5.05 -6,-12.2 m 87.1,-2.1 v -0.05 q 0,-2.55 -0.9,-4.7 -0.9,-2.1 -2.6,-3.85 -3.6,-3.5 -8.7,-3.5 l -0.65,0.05 q -3.15,0.1 -5.65,1.7 l -0.15,0.1 q -1.1,0.65 -2.1,1.65 -3.6,3.55 -3.6,8.6 0,5.05 3.6,8.5 l 1.35,1.25 q 3.1,2.4 7.2,2.4 5.1,0 8.7,-3.65 3.5,-3.45 3.5,-8.5 m 7.9,2.05 q -0.65,7.05 -5.7,12.1 l -0.05,0.05 q -5.95,5.95 -14.35,5.95 -6.9,-0.05 -12.1,-4.05 l -0.3,-0.25 -1.65,-1.55 -0.15,-0.15 q -5.25,-5.05 -5.85,-12.15 0.6,-7.05 5.85,-12.25 l 0.05,-0.05 q 1.4,-1.35 2.9,-2.35 l 0.65,-0.45 q 4.05,-2.6 9.15,-2.9 l 1.45,-0.1 q 8.35,0 14.3,5.8 l 0.15,0.15 q 2.75,2.8 4.2,6.25 l 0.05,0.05 q 1.1,2.75 1.4,5.9 m -87.1,-2.05 q 0,5.05 3.6,8.5 3.6,3.65 8.6,3.65 4,0 7.2,-2.35 l 1.15,-0.95 0.35,-0.35 q 3.5,-3.45 3.5,-8.5 0,-5.05 -3.5,-8.6 l -0.35,-0.3 -1.9,-1.4 -0.05,-0.05 q -2.6,-1.6 -5.7,-1.7 l -0.7,-0.05 q -5,0 -8.6,3.5 -1.75,1.7 -2.6,3.75 -1,2.2 -1,4.8 v 0.05"
         id="path244" />
      <path
         stroke="none"
         fill="#d23007"
         d="m 856.3,645.35 v -0.05 q 0,-2.6 1,-4.8 0.85,-2.05 2.6,-3.75 3.6,-3.5 8.6,-3.5 l 0.7,0.05 q 3.1,0.1 5.7,1.7 l 0.05,0.05 1.9,1.4 0.35,0.3 q 3.5,3.55 3.5,8.6 0,5.05 -3.5,8.5 l -0.35,0.35 -1.15,0.95 q -3.2,2.35 -7.2,2.35 -5,0 -8.6,-3.65 -3.6,-3.45 -3.6,-8.5 m 79.2,0 q 0,5.05 -3.5,8.5 -3.6,3.65 -8.7,3.65 -4.1,0 -7.2,-2.4 l -1.35,-1.25 q -3.6,-3.45 -3.6,-8.5 0,-5.05 3.6,-8.6 1,-1 2.1,-1.65 L 917,635 q 2.5,-1.6 5.65,-1.7 l 0.65,-0.05 q 5.1,0 8.7,3.5 1.7,1.75 2.6,3.85 0.9,2.15 0.9,4.7 v 0.05 m -5.85,0.25 q 0,-3.3 -2.25,-5.45 -2.25,-2.15 -5.4,-2.15 -2.85,0 -5.1,1.85 l -0.35,0.3 q -2.25,2.15 -2.25,5.45 0,3.1 2.2,5.25 l 0.05,0.05 q 2.35,2.3 5.45,2.3 3.15,0 5.4,-2.3 2.25,-2.15 2.25,-5.3 m -67.4,0 q 0,3.15 2.25,5.3 2.15,2.3 5.35,2.3 3.15,0 5.4,-2.3 l 0.1,-0.05 q 0.95,-1 1.5,-2.15 0.65,-1.4 0.65,-3.1 0,-1.75 -0.65,-3.2 -0.55,-1.25 -1.6,-2.25 l -0.35,-0.3 q -2.15,-1.85 -5.05,-1.85 -3.2,0 -5.35,2.15 -2.25,2.15 -2.25,5.45"
         id="path245" />
      <path
         stroke="none"
         fill="#3f3f3f"
         d="m 862.25,645.6 q 0,-3.3 2.25,-5.45 2.15,-2.15 5.35,-2.15 2.9,0 5.05,1.85 l 0.35,0.3 q 1.05,1 1.6,2.25 0.65,1.45 0.65,3.2 0,1.7 -0.65,3.1 -0.55,1.15 -1.5,2.15 l -0.1,0.05 q -2.25,2.3 -5.4,2.3 -3.2,0 -5.35,-2.3 -2.25,-2.15 -2.25,-5.3 m 67.4,0 q 0,3.15 -2.25,5.3 -2.25,2.3 -5.4,2.3 -3.1,0 -5.45,-2.3 l -0.05,-0.05 q -2.2,-2.15 -2.2,-5.25 0,-3.3 2.25,-5.45 l 0.35,-0.3 q 2.25,-1.85 5.1,-1.85 3.15,0 5.4,2.15 2.25,2.15 2.25,5.45"
         id="path246" />
      <path
         stroke="none"
         fill="#2ecc71"
         d="m 862.5,673.5 q 0.65,5.1 -2,9.75 -3.15,5.55 -9.35,7.2 -6.15,1.65 -11.75,-1.55 -4.7,-2.65 -6.5,-7.45 -0.85,-5.1 1.9,-9.8 3.2,-5.55 9.35,-7.2 6.2,-1.65 11.75,1.55 4.6,2.7 6.6,7.5 m 96.45,7.95 q -1.9,4.75 -6.6,7.45 -5.5,3.2 -11.7,1.55 -6.2,-1.65 -9.4,-7.2 -2.65,-4.65 -1.9,-9.75 1.9,-4.8 6.5,-7.5 5.6,-3.2 11.8,-1.55 6.2,1.65 9.3,7.2 2.75,4.65 2,9.8"
         id="path247" />
      <path
         stroke="none"
         fill="#31de7a"
         d="m 929.35,673.5 q 0.1,-1 0.35,-1.95 1.65,-6.2 7.2,-9.4 5.55,-3.2 11.75,-1.55 6.2,1.65 9.35,7.2 3.2,5.55 1.55,11.75 l -0.6,1.9 q 0.75,-5.15 -2,-9.8 -3.1,-5.55 -9.3,-7.2 -6.2,-1.65 -11.8,1.55 -4.6,2.7 -6.5,7.5 m -66.85,0 q -2,-4.8 -6.6,-7.5 -5.55,-3.2 -11.75,-1.55 -6.15,1.65 -9.35,7.2 -2.75,4.7 -1.9,9.8 l -0.65,-1.9 q -1.65,-6.2 1.5,-11.75 3.25,-5.55 9.4,-7.2 6.2,-1.65 11.7,1.55 5.6,3.2 7.25,9.4 l 0.4,1.95"
         id="path248" />
    </g>
  </g>
</svg>
