<?xml version="1.0" encoding="UTF-8" standalone="no"?>
<svg
   version="1.1"
   id="svg386"
   width="160.35461"
   height="169.15054"
   xmlns="http://www.w3.org/2000/svg"
   xmlns:svg="http://www.w3.org/2000/svg">
  <defs
     id="defs1" />
  <g
     id="g386"
     transform="translate(-303.7977,-27.349463)">
    <g
       id="g390">
      <path
         stroke="none"
         fill="#987900"
         d="m 419.35,34.7 q 2.75,4.7 1.75,10.05 l -0.05,0.2 -0.2,0.75 -0.05,0.15 q -1.55,5.75 -6.75,8.85 l -0.5,0.3 -0.25,0.15 -1.35,0.6 -3.2,9.2 q 7.3,2.8 13.9,7.5 h 0.05 l 1.9,1.45 q 4.4,-4.65 10.75,-8.3 h 0.05 q 1.05,-0.65 2.2,-1.25 l 0.4,-0.2 q 4.85,-2.3 11.6,1.4 l 0.05,0.05 q 6.1,3.4 10.4,10.8 H 460 q 4.25,7.25 4.15,14.25 v 0.05 l -0.1,2.2 q -0.75,6 -4.55,8.65 l -0.05,0.05 -0.95,0.65 -0.25,0.15 -1.1,0.6 -0.1,0.1 q -4.2,2.4 -8.35,3.9 3.25,10.05 3.25,21.5 v 2 0.15 q -0.5,16.15 -7.6,29.6 -2.1,3.9 -4.75,7.6 l -0.4,0.5 q -3.2,4.25 -7.15,8.25 l -4.9,4.5 -0.05,0.05 -4.45,3.4 q -16.9,11.95 -38.7,11.95 -21.85,0 -38.7,-11.9 v -0.05 l -4.35,-3.3 -5.05,-4.65 q -8.1,-8.1 -12.85,-17.45 l -0.25,-0.6 -5.55,-16.7 -0.2,-1.15 v -0.1 l -0.05,-0.2 -0.2,-1 v -0.2 L 316.7,139 v -0.2 l -0.05,-0.2 -0.15,-1.5 -0.1,-0.5 v -0.3 l -0.05,-0.35 v -0.05 l -0.05,-0.25 -0.05,-0.55 -0.05,-0.55 -0.05,-0.55 -0.15,-3.3 -0.05,-2.2 q 0,-11.45 3.3,-21.5 -4.15,-1.5 -8.35,-3.9 l -0.1,-0.1 -1.1,-0.6 -0.2,-0.15 -0.95,-0.65 -0.1,-0.05 q -3.8,-2.65 -4.45,-8.7 v 0.25 l -0.2,-2.4 v -0.05 q -0.1,-7 4.15,-14.25 4.25,-7.4 10.4,-10.8 l 0.05,-0.05 q 6.7,-3.7 11.6,-1.4 l 0.4,0.2 2.2,1.25 q 6.35,3.65 10.8,8.25 l 1.85,-1.35 q 6.6,-4.7 14,-7.55 l -3.2,-9.2 -2,-0.95 -0.15,-0.05 -0.3,-0.2 q -4.95,-3.1 -6.45,-8.7 l -0.05,-0.15 -0.15,-0.75 -0.05,-0.2 q -1.05,-5.35 1.7,-10.05 3,-5.2 8.85,-6.8 h 0.05 q 5.65,-1.55 10.65,1.3 l 0.45,0.2 1.95,1.35 -0.1,-0.1 q 3.6,2.8 4.9,7.6 1,3.55 0.3,6.8 v -0.1 q -0.4,2 -1.4,3.95 l -0.35,0.7 -1.25,1.7 1.9,9.8 9.4,-0.6 9.55,0.6 1.8,-9.8 -1.2,-1.75 -0.35,-0.7 q -1.05,-1.9 -1.4,-3.85 v 0.1 q -0.7,-3.3 0.25,-6.75 v -0.1 q 1.1,-4.35 4.25,-7.1 l 2.45,-1.75 0.05,-0.05 q 5.2,-3.05 11.15,-1.45 5.75,1.55 8.85,6.75 v 0.05"
         id="path37" />
      <path
         stroke="none"
         fill="#ffcc00"
         d="m 460.05,92.4 q -0.55,-4.95 -3.5,-10 -3.65,-6.35 -8.9,-9.35 -4.75,-2.6 -8.15,-1.2 l -2.15,1.2 q -9.65,5.6 -14.4,13.45 l -0.6,-0.5 -0.95,-0.75 0.75,-1.4 q 4.75,-8.75 15.2,-14.8 l 2.15,-1.2 q 3.4,-1.4 8.15,1.2 5.25,3 8.9,9.35 3.65,6.25 3.6,12.25 l -0.1,1.75 M 345,86.45 q -4.8,-7.85 -14.4,-13.4 l -2.15,-1.2 q -3.4,-1.4 -8.15,1.2 -5.25,3 -8.9,9.35 -2.95,5.05 -3.45,10 l -0.15,-1.75 q -0.05,-6 3.6,-12.25 3.65,-6.35 8.9,-9.35 4.75,-2.6 8.15,-1.2 l 2.15,1.2 q 10.45,6.05 15.2,14.8 l 0.75,1.4 -1.55,1.2"
         id="path38" />
      <path
         stroke="none"
         fill="#e9bb00"
         d="m 345,86.45 q -3.1,2.4 -6,5.3 -3.6,-4.05 -9,-7.2 l -1.75,-0.95 q -2.8,-1.15 -6.75,0.95 -4.3,2.5 -7.3,7.75 -1.95,3.3 -2.6,6.55 l -0.75,-0.5 q -2.45,-1.85 -2.9,-5.95 0.5,-4.95 3.45,-10 3.65,-6.35 8.9,-9.35 4.75,-2.6 8.15,-1.2 l 2.15,1.2 q 9.6,5.55 14.4,13.4 m 77.95,0.05 q 4.75,-7.85 14.4,-13.45 l 2.15,-1.2 q 3.4,-1.4 8.15,1.2 5.25,3 8.9,9.35 2.95,5.05 3.5,10 -0.5,4.1 -2.95,5.95 l -0.75,0.5 q -0.65,-3.25 -2.6,-6.55 -3,-5.25 -7.3,-7.75 -3.95,-2.1 -6.75,-0.95 l -1.75,0.95 q -5.4,3.15 -9,7.2 l -6,-5.25"
         id="path39" />
      <path
         stroke="none"
         fill="#cba200"
         d="m 428.95,91.75 q 3.6,-4.05 9,-7.2 l 1.75,-0.95 q 2.8,-1.15 6.75,0.95 4.3,2.5 7.3,7.75 1.95,3.3 2.6,6.55 l -1.3,0.75 q -7.9,4.55 -15.5,5.6 -4.15,-7.05 -10.3,-13.2 l -0.3,-0.25 m -117.35,7.1 q 0.65,-3.25 2.6,-6.55 3,-5.25 7.3,-7.75 3.95,-2.1 6.75,-0.95 l 1.75,0.95 q 5.4,3.15 9,7.2 L 338.7,92 q -6.15,6.15 -10.3,13.2 -7.6,-1.05 -15.5,-5.6 l -1.3,-0.75"
         id="path40" />
      <path
         stroke="none"
         fill="#eebe00"
         d="m 347.85,79.55 q 15.8,-11.05 36.1,-11.05 20.35,0 36.1,11 -1.7,16.05 -10.3,28.05 -10.7,14.95 -25.8,14.95 -15.1,0 -25.8,-14.95 -8.6,-12 -10.3,-28 m 23.55,31.25 q 0.2,0.8 0.8,1.45 0.65,0.5 1.5,0.65 l 6.2,0.65 q 0.85,0.1 1.6,-0.35 0.75,-0.45 1.1,-1.25 l 2.55,-5.7 q 0.35,-0.8 0.2,-1.6 -0.2,-0.9 -0.8,-1.45 L 379.9,99 q -0.65,-0.6 -1.5,-0.65 -0.85,-0.1 -1.6,0.3 l -5.45,3.15 q -0.75,0.4 -1.1,1.25 -0.35,0.75 -0.15,1.65 l 1.3,6.1 M 380,87.15 q 0.45,-0.7 0.45,-1.55 0,-0.85 -0.45,-1.55 l -4.95,-6.8 -1.3,-0.95 q -0.85,-0.3 -1.65,0 l -7.95,2.55 q -0.85,0.3 -1.35,1 -0.5,0.65 -0.5,1.5 v 8.4 q 0,0.9 0.5,1.6 0.5,0.65 1.35,0.9 l 7.95,2.6 q 0.8,0.25 1.65,0 l 1.3,-0.9 4.95,-6.8 m 12.65,15.95 q 0.7,0.5 1.55,0.5 0.9,0 1.6,-0.5 l 9.7,-7.05 q 0.65,-0.55 0.9,-1.35 0.25,-0.8 0,-1.6 l -3.7,-11.45 q -0.25,-0.85 -0.9,-1.35 -0.7,-0.5 -1.6,-0.5 h -12.05 q -0.9,0 -1.55,0.5 -0.7,0.5 -0.95,1.35 l -3.7,11.45 q -0.25,0.8 0,1.6 0.25,0.8 0.95,1.35 l 9.75,7.05"
         id="path41" />
      <path
         stroke="none"
         fill="#ffcc00"
         d="m 392.65,103.1 -9.75,-7.05 q -0.7,-0.55 -0.95,-1.35 -0.25,-0.8 0,-1.6 l 3.7,-11.45 q 0.25,-0.85 0.95,-1.35 0.65,-0.5 1.55,-0.5 h 12.05 q 0.9,0 1.6,0.5 0.65,0.5 0.9,1.35 l 3.7,11.45 q 0.25,0.8 0,1.6 -0.25,0.8 -0.9,1.35 l -9.7,7.05 q -0.7,0.5 -1.6,0.5 -0.85,0 -1.55,-0.5 m 27.4,-23.6 q 4.8,3.35 9.2,7.75 18,18 18.7,43.25 -0.45,15.2 -7.15,27.85 -1.95,3.7 -4.45,7.15 h -0.05 q -3.15,4.3 -7.1,8.25 l -4.65,4.3 q -4.4,-1.6 -4.35,-6.3 -1.1,-11.25 -10.45,-19.5 -10.5,-9.25 -25.35,-9.25 -14.85,0 -25.4,9.25 -9.3,8.25 -10.35,19.5 -1.35,4.8 -5.2,6.4 l -4.8,-4.4 q -7.6,-7.6 -12.1,-16.45 L 321,140.6 v -0.2 l -0.2,-1.1 -0.05,-0.25 -0.05,-0.5 -0.1,-0.55 -0.15,-1.25 v -0.2 l -0.1,-0.6 v -0.25 l -0.05,-0.2 v -0.25 l -0.05,-0.3 -0.05,-0.65 v -0.25 l -0.05,-0.3 -0.15,-3.25 q 0.65,-25.25 18.7,-43.25 4.35,-4.35 9.15,-7.7 1.7,16 10.3,28 10.7,14.95 25.8,14.95 15.1,0 25.8,-14.95 8.6,-12 10.3,-28.05 m -40.05,7.65 -4.95,6.8 -1.3,0.9 q -0.85,0.25 -1.65,0 l -7.95,-2.6 q -0.85,-0.25 -1.35,-0.9 -0.5,-0.7 -0.5,-1.6 v -8.4 q 0,-0.85 0.5,-1.5 0.5,-0.7 1.35,-1 l 7.95,-2.55 q 0.8,-0.3 1.65,0 l 1.3,0.95 4.95,6.8 q 0.45,0.7 0.45,1.55 0,0.85 -0.45,1.55 m -8.6,23.65 -1.3,-6.1 q -0.2,-0.9 0.15,-1.65 0.35,-0.85 1.1,-1.25 l 5.45,-3.15 q 0.75,-0.4 1.6,-0.3 0.85,0.05 1.5,0.65 l 4.65,4.2 q 0.6,0.55 0.8,1.45 0.15,0.8 -0.2,1.6 l -2.55,5.7 q -0.35,0.8 -1.1,1.25 -0.75,0.45 -1.6,0.35 l -6.2,-0.65 q -0.85,-0.15 -1.5,-0.65 -0.6,-0.65 -0.8,-1.45"
         id="path42" />
      <path
         stroke="none"
         fill="#ffd738"
         d="m 447.95,130.5 q -0.7,-25.25 -18.7,-43.25 -4.4,-4.4 -9.2,-7.75 -15.75,-11 -36.1,-11 -20.3,0 -36.1,11.05 -4.8,3.35 -9.15,7.7 -18.05,18 -18.7,43.25 l -0.05,-2 q 0,-26.55 18.75,-45.25 4.25,-4.25 8.85,-7.5 15.9,-11.25 36.4,-11.25 20.55,0 36.4,11.2 4.65,3.3 8.9,7.55 18.7,18.7 18.7,45.25 v 2"
         id="path43" />
      <path
         stroke="none"
         fill="#d2a800"
         d="m 343.45,178.15 q 3.85,-1.6 5.2,-6.4 1.05,-11.25 10.35,-19.5 10.55,-9.25 25.4,-9.25 14.85,0 25.35,9.25 9.35,8.25 10.45,19.5 -0.05,4.7 4.35,6.3 l -4.2,3.2 q -15.9,11.25 -36.4,11.25 -20.55,0 -36.4,-11.2 l -4.1,-3.15 M 402.9,156.5 q -1.5,-1.5 -4.45,-0.65 -2.95,0.8 -5.6,3.45 l -0.15,0.15 q -1.4,1.45 -1.4,3.55 0,2.15 1.5,3.65 1.5,1.5 3.65,1.5 2.05,0 3.55,-1.4 l 0.15,-0.15 q 2.65,-2.65 3.45,-5.6 0.85,-2.95 -0.7,-4.5 m -34.1,10.25 q 1.5,1.4 3.55,1.4 2.15,0 3.65,-1.5 1.5,-1.5 1.5,-3.65 0,-2.1 -1.4,-3.55 l -0.15,-0.15 q -2.65,-2.65 -5.6,-3.45 -2.95,-0.85 -4.45,0.65 -1.55,1.55 -0.7,4.5 0.8,2.95 3.45,5.6 l 0.15,0.15"
         id="path44" />
      <path
         stroke="none"
         fill="#a38200"
         d="m 368.8,166.75 -0.15,-0.15 q -2.65,-2.65 -3.45,-5.6 -0.85,-2.95 0.7,-4.5 1.5,-1.5 4.45,-0.65 2.95,0.8 5.6,3.45 l 0.15,0.15 q 1.4,1.45 1.4,3.55 0,2.15 -1.5,3.65 -1.5,1.5 -3.65,1.5 -2.05,0 -3.55,-1.4 m 34.1,-10.25 q 1.55,1.55 0.7,4.5 -0.8,2.95 -3.45,5.6 l -0.15,0.15 q -1.5,1.4 -3.55,1.4 -2.15,0 -3.65,-1.5 -1.5,-1.5 -1.5,-3.65 0,-2.1 1.4,-3.55 l 0.15,-0.15 q 2.65,-2.65 5.6,-3.45 2.95,-0.85 4.45,0.65"
         id="path45" />
      <path
         stroke="none"
         fill="#5b5b5b"
         d="m 339.6,135.25 q 0,-3.6 2.55,-6.15 2.5,-2.5 6.15,-2.5 3.55,0 6.1,2.5 2.55,2.55 2.55,6.15 0,3.6 -2.55,6.05 -2.55,2.55 -6.1,2.55 -3.65,0 -6.15,-2.55 -2.55,-2.45 -2.55,-6.05 m 87.55,0 q 0,3.6 -2.5,6.05 -2.5,2.55 -6.15,2.55 -3.55,0 -6.15,-2.55 -2.5,-2.45 -2.5,-6.05 0,-3.6 2.5,-6.15 2.6,-2.5 6.15,-2.5 3.65,0 6.15,2.5 2.5,2.55 2.5,6.15"
         id="path46" />
      <path
         stroke="none"
         fill="#ffffff"
         d="m 427.15,135.25 q 0,-3.6 -2.5,-6.15 -2.5,-2.5 -6.15,-2.5 -3.55,0 -6.15,2.5 -2.5,2.55 -2.5,6.15 0,3.6 2.5,6.05 2.6,2.55 6.15,2.55 3.65,0 6.15,-2.55 2.5,-2.45 2.5,-6.05 m -87.55,0 q 0,3.6 2.55,6.05 2.5,2.55 6.15,2.55 3.55,0 6.1,-2.55 2.55,-2.45 2.55,-6.05 0,-3.6 -2.55,-6.15 -2.55,-2.5 -6.1,-2.5 -3.65,0 -6.15,2.5 -2.55,2.55 -2.55,6.15 m -4.7,-0.2 q 0,-5.2 3.65,-8.85 3.65,-3.65 8.85,-3.65 5.1,0 8.8,3.65 3.65,3.65 3.65,8.85 0,5.15 -3.65,8.75 -3.7,3.7 -8.8,3.7 -5.2,0 -8.85,-3.7 -3.65,-3.6 -3.65,-8.75 m 97,0 q 0,5.15 -3.65,8.75 -3.65,3.7 -8.85,3.7 -5.1,0 -8.8,-3.7 -3.65,-3.6 -3.65,-8.75 0,-5.2 3.65,-8.85 3.7,-3.65 8.8,-3.65 5.2,0 8.85,3.65 3.65,3.65 3.65,8.85"
         id="path47" />
      <path
         stroke="none"
         fill="#cba200"
         d="m 417.15,43.95 -0.2,0.85 Q 415.8,49 412,51.25 l -0.5,0.3 q -1.3,0.65 -2.65,0.95 l -6.55,18.65 v 0.05 q -0.5,1.25 -1.65,1.85 v 0.05 l -2.4,0.25 h 0.05 q -1.2,-0.25 -1.95,-1.45 l -0.05,-0.1 q -0.65,-1.1 -0.35,-2.35 l 3.65,-19.4 q -1.2,-1.15 -2.15,-2.65 v -0.05 q -0.9,-1.55 -1.2,-3.1 l 0.2,-0.95 q 0.8,-3.15 3.05,-5.15 0.85,-0.75 1.85,-1.35 3.8,-2.2 8.1,-1.05 4.2,1.15 6.45,4.95 0.9,1.6 1.25,3.25 m -66.35,0 q 0.35,-1.65 1.25,-3.25 2.2,-3.8 6.45,-4.95 4.3,-1.15 8.05,1.1 h 0.05 l 1.35,0.95 q 2.6,2.05 3.55,5.5 l 0.2,0.9 q -0.3,1.65 -1.2,3.2 v 0.05 l -2.15,2.6 3.7,19.45 -0.05,-0.05 q 0.2,1.2 -0.3,2.25 l -0.15,0.25 h 0.05 q -0.7,1.05 -1.9,1.45 l -2.4,-0.25 -0.1,-0.05 q -1.05,-0.6 -1.5,-1.9 h -0.05 l -6.5,-18.7 q -1.65,-0.35 -3.2,-1.2 L 355.7,51.15 Q 352.1,48.9 351,44.8 l -0.2,-0.85"
         id="path48" />
      <path
         stroke="none"
         fill="#dbaf00"
         d="m 350.8,43.95 q -0.75,-3.85 1.25,-7.25 2.2,-3.8 6.45,-4.95 4.3,-1.15 8.05,1.1 h 0.05 l 1.35,0.95 q 2.6,2.05 3.55,5.5 0.7,2.55 0.2,4.9 l -0.2,-0.9 q -0.95,-3.45 -3.55,-5.5 l -1.35,-0.95 h -0.05 q -3.75,-2.25 -8.05,-1.1 -4.25,1.15 -6.45,4.95 -0.9,1.6 -1.25,3.25 m 45.45,0.3 q -0.5,-2.4 0.2,-4.95 0.8,-3.15 3.05,-5.15 0.85,-0.75 1.85,-1.35 3.8,-2.2 8.1,-1.05 4.2,1.15 6.45,4.95 2,3.4 1.25,7.25 -0.35,-1.65 -1.25,-3.25 -2.25,-3.8 -6.45,-4.95 -4.3,-1.15 -8.1,1.05 -1,0.6 -1.85,1.35 -2.25,2 -3.05,5.15 l -0.2,0.95"
         id="path49" />
    </g>
  </g>
</svg>
