<?xml version="1.0" encoding="UTF-8" standalone="no"?>
<svg
   version="1.1"
   id="svg386"
   width="190.89766"
   height="178.56818"
   xmlns="http://www.w3.org/2000/svg"
   xmlns:svg="http://www.w3.org/2000/svg">
  <defs
     id="defs1" />
  <g
     id="g386"
     transform="translate(-32.556667,-997.95001)">
    <g
       id="g412">
      <path
         stroke="none"
         fill="#6d4526"
         d="m 128,1020.55 q 14.4,0 26.65,5.2 13.5,-8.05 23.9,-25.4 v -0.05 q 0.85,-1.4 2.25,-2.05 l 0.4,-0.2 3.3,-0.1 q 1.1,0.25 2,1 l 0.35,0.3 0.15,0.15 0.4,0.5 q 0.85,1.1 1.05,2.75 v 0.3 q 0.7,21.3 -10.85,39.05 2.9,3.05 5.35,6.35 l 0.4,-0.1 0.35,-0.1 q 12.15,-2.65 27.1,0.4 h -0.05 l 2.75,0.55 0.3,0.1 q 6,1.75 8.5,8.35 v 0.05 q 2.45,6.4 -0.3,14.2 h -0.05 q -2.7,7.5 -8.55,12 l -0.15,0.1 q -5.1,3.6 -9.95,3.65 h -1.85 l -0.45,-0.05 -2.65,-0.6 -2.35,-0.45 v 2.1 2 0.1 q -0.45,15.85 -7.3,29 -4.75,9.15 -12.6,16.95 l -2.4,2.25 -4.1,3.55 q -9.5,7.5 -20.6,11.05 3.55,6.8 1.7,10.8 l -0.15,0.45 q -1.95,6.1 -10.1,4.5 l -0.05,-0.05 -0.8,-0.15 -0.2,1.7 q -0.5,2.75 -2.1,3.95 -3.6,4.45 -9.1,-1.7 l -0.1,-0.1 -0.1,-0.15 -0.15,0.15 -0.05,0.05 q -5.4,6.15 -9.05,1.8 l -0.15,-0.1 q -1.45,-1.1 -2,-3.75 v -0.05 l -0.2,-1.8 -0.75,0.15 -0.05,0.05 q -8,1.55 -10.05,-4.25 -0.4,-0.6 -0.5,-1.2 -1.35,-3.95 1.95,-10.35 -11.1,-3.55 -20.55,-11 H 86.4 l -4.1,-3.55 -2.35,-2.25 q -19.2,-19.1 -19.9,-45.85 l -0.05,-2.2 0.05,-2.05 -2.25,0.45 H 57.75 L 55,1087.5 h -0.05 l -2.25,0.1 q -4.85,-0.1 -9.95,-3.7 l -0.1,-0.1 q -5.9,-4.5 -8.6,-12 -2.8,-7.8 -0.35,-14.2 v -0.05 q 2.5,-6.6 8.55,-8.3 l 0.1,-0.05 3.05,-0.65 -0.2,0.05 q 14.95,-3.05 27.15,-0.4 h 0.05 l 0.65,0.15 q 2.45,-3.25 5.4,-6.35 -11.6,-17.75 -10.9,-39.05 l 0.05,-0.3 q 0.15,-1.65 1,-2.75 l 0.45,-0.5 0.15,-0.15 0.3,-0.3 q 0.9,-0.75 2,-1 l 3.3,0.1 0.4,0.2 q 1.4,0.65 2.25,2.05 l 0.05,0.05 q 10.35,17.35 23.9,25.4 12.2,-5.2 26.6,-5.2"
         id="path370" />
      <path
         stroke="none"
         fill="#704e35"
         d="m 146.95,1162.9 q -0.5,-1.8 -1.7,-4 -2.65,-5.25 -7.7,-9.5 -9.95,-7.65 -19.1,0 -5.05,4.25 -7.75,9.5 -1.2,2.2 -1.65,4.05 -1.05,-2.95 1.65,-8.05 2.7,-5.25 7.75,-9.5 9.15,-7.65 19.1,0 5.05,4.25 7.7,9.5 2.75,5.1 1.7,8"
         id="path371" />
      <path
         stroke="none"
         fill="#5f422d"
         d="m 146.95,1162.9 -0.1,0.15 q -1.15,3.1 -5.65,2.2 -3.05,-0.65 -6.4,-2.9 0.55,2.2 0.7,4.25 l 0.05,0.25 q 0.15,1.9 -0.1,3.15 -0.2,1.15 -0.8,1.65 -1.25,1.1 -3.5,-1.4 -1.7,-2 -3.15,-5.3 -1.5,3.3 -3.2,5.3 -2.2,2.5 -3.5,1.4 -0.55,-0.5 -0.8,-1.65 -0.25,-1.25 -0.05,-3.1 v -0.3 q 0.2,-2.05 0.75,-4.25 -3.35,2.25 -6.4,2.9 -4.5,0.9 -5.7,-2.2 l -0.05,-0.1 q 0.45,-1.85 1.65,-4.05 2.7,-5.25 7.75,-9.5 9.15,-7.65 19.1,0 5.05,4.25 7.7,9.5 1.2,2.2 1.7,4"
         id="path372" />
      <path
         stroke="none"
         fill="#4f3725"
         d="m 64.5,1081.1 q -1.55,-0.5 -3.25,-1.7 -3.65,-2.8 -5.3,-7.35 -1.65,-4.5 -0.3,-8.35 1.35,-3.3 4.4,-4.15 l 1.9,-0.45 q 10.05,-2.05 18.35,-0.3 l 1.35,0.45 3.35,1.05 0.3,0.6 q 1.2,3.4 -0.55,6.75 -1.55,3.05 -5.5,6.1 -5.5,4.25 -13.3,6.9 l -1.45,0.45 m 127,-0.05 -1.45,-0.4 q -7.8,-2.65 -13.3,-6.95 -3.95,-3 -5.5,-6.05 -1.45,-2.85 -0.9,-5.65 l 0.35,-1.15 0.3,-0.6 1.65,-0.55 1.7,-0.5 1.35,-0.4 q 8.3,-1.8 18.35,0.3 1.05,0.05 1.9,0.45 3.05,0.85 4.4,4.15 1.35,3.8 -0.3,8.3 -1.65,4.55 -5.3,7.4 -1.7,1.15 -3.25,1.65"
         id="path373" />
      <path
         stroke="none"
         fill="#5f422d"
         d="m 191.5,1081.05 q 1.55,-0.5 3.25,-1.65 3.65,-2.85 5.3,-7.4 1.65,-4.5 0.3,-8.3 -1.35,-3.3 -4.4,-4.15 -0.85,-0.4 -1.9,-0.45 -10.05,-2.1 -18.35,-0.3 l -1.35,0.4 -1.7,0.5 -1.65,0.55 0.25,-0.5 q 1.9,-3.55 7.05,-5.75 2.25,-0.9 5,-1.6 10.35,-1.65 22.7,0.8 l 2.8,0.65 q 4.15,1.2 5.95,5.85 1.85,5.3 -0.35,11.5 -2.25,6.4 -7.4,10.2 -1.95,1.55 -4,2.15 h -1.2 l -2.8,-0.6 -3,-0.6 -4.5,-1.3 M 85,1060.3 l -3.35,-1.05 -1.35,-0.45 q -8.3,-1.75 -18.35,0.3 l -1.9,0.45 q -3.05,0.85 -4.4,4.15 -1.35,3.85 0.3,8.35 1.65,4.55 5.3,7.35 1.7,1.2 3.25,1.7 l -4.5,1.3 -3,0.6 -2.8,0.55 -1.2,0.05 q -2.05,-0.65 -4,-2.2 -5.1,-3.75 -7.4,-10.2 -2.2,-6.2 -0.35,-11.45 1.8,-4.65 5.95,-5.9 l 2.8,-0.65 q 12.35,-2.45 22.7,-0.8 9.3,2.35 12.05,7.35 l 0.25,0.55"
         id="path374" />
      <path
         stroke="none"
         fill="#704e35"
         d="m 72.7,1052.4 q -10.35,-1.65 -22.7,0.8 l -2.8,0.65 q -4.15,1.25 -5.95,5.9 -1.85,5.25 0.35,11.45 2.3,6.45 7.4,10.2 1.95,1.55 4,2.2 -3.85,-0.1 -7.95,-3 -4.95,-3.8 -7.25,-10.15 -2.25,-6.3 -0.35,-11.5 1.75,-4.65 5.95,-5.9 l 2.6,-0.55 q 14.05,-2.85 25.5,-0.4 l 1.2,0.3 m 110.6,0 1.2,-0.35 q 11.45,-2.45 25.5,0.4 l 2.6,0.55 q 4.2,1.3 5.95,5.95 1.9,5.2 -0.35,11.5 -2.3,6.35 -7.25,10.15 -4.1,2.9 -7.95,2.95 2.05,-0.6 4,-2.15 5.15,-3.8 7.4,-10.2 2.2,-6.2 0.35,-11.5 -1.8,-4.65 -5.95,-5.85 l -2.8,-0.65 q -12.35,-2.45 -22.7,-0.8"
         id="path375" />
      <path
         stroke="none"
         fill="#bd7841"
         d="m 192,1090.55 q -0.7,-25.2 -18.75,-43.3 -15.1,-15.05 -35.25,-18 l -10,-0.7 -10,0.7 q -20.15,2.95 -35.25,18 -18.05,18.1 -18.7,43.3 l -0.05,-2 q 0,-16.35 7.15,-29.8 4.15,-7.75 10.7,-14.55 l 0.9,-0.95 q 2.55,-2.55 5.2,-4.7 l 1.7,-1.35 q 16.55,-12.65 38.35,-12.65 21.85,0 38.4,12.7 l 1.7,1.35 5.15,4.65 0.95,1 q 6.5,6.75 10.65,14.5 7.15,13.45 7.15,29.8 v 2"
         id="path376" />
      <path
         stroke="none"
         fill="#a16639"
         d="m 192,1090.55 q -0.4,14.9 -6.85,27.25 -4.5,8.6 -11.9,15.95 l -2.25,2.15 -3.9,3.35 q -16.2,-13.75 -39.1,-13.75 -22.85,0 -39.1,13.75 l -3.9,-3.35 -2.25,-2.15 q -18.05,-18 -18.7,-43.2 0.65,-25.2 18.7,-43.3 15.1,-15.05 35.25,-18 l 10,-0.7 10,0.7 q 20.15,2.95 35.25,18 18.05,18.1 18.75,43.3 m -46.5,-30.2 q 0,-10.35 -5.15,-17.6 -5.1,-7.25 -12.35,-7.25 -7.25,0 -12.4,7.25 -5.1,7.25 -5.1,17.6 l 0.05,1.7 q 0.35,21.05 5.05,36.25 5.15,16.7 12.4,16.7 7.25,0 12.35,-16.7 4.75,-15.2 5.15,-36.25 v -1.7"
         id="path377" />
      <path
         stroke="none"
         fill="#b6733f"
         d="m 145.5,1060.35 v 1.7 q -0.4,21.05 -5.15,36.25 -5.1,16.7 -12.35,16.7 -7.25,0 -12.4,-16.7 -4.7,-15.2 -5.05,-36.25 l -0.05,-1.7 q 0,-10.35 5.1,-17.6 5.15,-7.25 12.4,-7.25 7.25,0 12.35,7.25 5.15,7.25 5.15,17.6"
         id="path378" />
      <path
         stroke="none"
         fill="#955e34"
         d="m 88.9,1139.25 q 16.25,-13.75 39.1,-13.75 22.9,0 39.1,13.75 -16.8,13.3 -39.1,13.3 -22.3,0 -39.1,-13.3"
         id="path379" />
      <path
         stroke="none"
         fill="#464646"
         d="m 123.5,1131.8 -0.3,-0.1 h 0.05 q -2.9,-1.05 -5.2,-3.35 -2.35,-2.3 -3.3,-5.2 -0.15,-0.4 0.05,-0.75 l 0.5,-0.5 0.75,-0.05 3.8,1.1 q 8.55,1.9 16.35,0 h 0.05 l 3.8,-1.05 0.7,0.05 0.55,0.5 v 0.75 q -1.05,2.85 -3.35,5.15 -2.3,2.3 -5.15,3.35 h 0.05 l -0.35,0.15 -2.7,0.65 -0.95,0.1 -2.15,-0.05 -0.75,-0.1 -2.45,-0.65"
         id="path380" />
      <path
         stroke="none"
         fill="#383838"
         d="m 123.5,1131.8 2.45,0.65 0.75,0.1 2.15,0.05 0.95,-0.1 2.7,-0.65 0.8,0.9 q 0.95,0.95 2.05,1.5 1.4,0.65 3.05,0.65 3,0 5.15,-2.15 l 1.25,-1.65 0.5,-0.45 0.7,0.05 4.7,2.45 0.45,0.5 -0.05,0.65 -1.5,2.3 -1.05,1.15 q -4.25,4.2 -10.15,4.2 -5.9,0 -10.1,-4.2 l -0.3,-0.3 -0.3,0.3 q -4.25,4.2 -10.15,4.2 -5.95,0 -10.1,-4.2 l -1.05,-1.15 -1.5,-2.2 q -0.2,-0.35 -0.05,-0.65 0.05,-0.35 0.4,-0.55 l 4.6,-2.55 0.65,-0.1 0.55,0.45 1.35,1.75 q 2.15,2.15 5.15,2.15 1.65,0 3.1,-0.65 l 2.05,-1.5 0.8,-0.95"
         id="path381" />
      <path
         stroke="none"
         fill="#5b5b5b"
         d="m 89.3,1080.35 q 0,-2.45 1.7,-4.1 1.7,-1.7 4.1,-1.7 2.4,0 4.15,1.7 1.7,1.65 1.7,4.1 0,2.4 -1.7,4.05 -1.75,1.75 -4.15,1.75 -2.4,0 -4.1,-1.75 -1.7,-1.65 -1.7,-4.05 m 77.4,0 q 0,2.4 -1.7,4.05 -1.7,1.75 -4.1,1.75 -2.4,0 -4.15,-1.75 -1.7,-1.65 -1.7,-4.05 0,-2.45 1.7,-4.1 1.75,-1.7 4.15,-1.7 2.4,0 4.1,1.7 1.7,1.65 1.7,4.1"
         id="path382" />
      <path
         stroke="none"
         fill="#ffffff"
         d="m 166.7,1080.35 q 0,-2.45 -1.7,-4.1 -1.7,-1.7 -4.1,-1.7 -2.4,0 -4.15,1.7 -1.7,1.65 -1.7,4.1 0,2.4 1.7,4.05 1.75,1.75 4.15,1.75 2.4,0 4.1,-1.75 1.7,-1.65 1.7,-4.05 m -81.9,-0.15 q 0,-3.85 2.7,-6.55 2.75,-2.7 6.6,-2.7 3.8,0 6.55,2.7 2.7,2.7 2.7,6.55 0,3.85 -2.7,6.45 -2.75,2.8 -6.55,2.8 -3.85,0 -6.6,-2.8 -2.7,-2.6 -2.7,-6.45 m 4.5,0.15 q 0,2.4 1.7,4.05 1.7,1.75 4.1,1.75 2.4,0 4.15,-1.75 1.7,-1.65 1.7,-4.05 0,-2.45 -1.7,-4.1 -1.75,-1.7 -4.15,-1.7 -2.4,0 -4.1,1.7 -1.7,1.65 -1.7,4.1 m 81.9,-0.15 q 0,3.85 -2.7,6.45 -2.75,2.8 -6.6,2.8 -3.8,0 -6.55,-2.8 -2.7,-2.6 -2.7,-6.45 0,-3.85 2.7,-6.55 2.75,-2.7 6.55,-2.7 3.85,0 6.6,2.7 2.7,2.7 2.7,6.55"
         id="path383" />
      <path
         stroke="none"
         fill="#8e5a32"
         d="m 84.8,1080.2 q 0,3.85 2.7,6.45 2.75,2.8 6.6,2.8 3.8,0 6.55,-2.8 2.7,-2.6 2.7,-6.45 0,-3.85 -2.7,-6.55 -2.75,-2.7 -6.55,-2.7 -3.85,0 -6.6,2.7 -2.7,2.7 -2.7,6.55 m -5.65,-3.45 v -0.05 q 1.65,-6 6.95,-9.05 5.4,-3.1 11.4,-1.5 5.95,1.55 9.1,6.95 3.1,5.35 1.5,11.35 v 0.05 q -1.95,7.2 -7.5,11.05 -5.65,4 -11.6,2.45 -6,-1.6 -8.9,-7.9 -2.85,-6.15 -0.95,-13.35 m 92.05,3.45 q 0,-3.85 -2.7,-6.55 -2.75,-2.7 -6.6,-2.7 -3.8,0 -6.55,2.7 -2.7,2.7 -2.7,6.55 0,3.85 2.7,6.45 2.75,2.8 6.55,2.8 3.85,0 6.6,-2.8 2.7,-2.6 2.7,-6.45 m 5.65,-3.45 q 1.9,7.2 -0.95,13.35 -2.9,6.3 -8.9,7.9 -5.95,1.55 -11.6,-2.45 -5.55,-3.85 -7.5,-11.05 v -0.05 q -1.6,-6 1.5,-11.35 3.15,-5.4 9.1,-6.95 6,-1.6 11.4,1.5 5.3,3.05 6.95,9.05 v 0.05"
         id="path384" />
      <path
         stroke="none"
         fill="#ffdfc6"
         d="m 108.05,1045.1 q -1.4,-3.65 -7.25,-7.8 -16.5,-11.95 -28.75,-35.25 H 72 q 0.25,-0.2 0.55,-0.25 0.45,-0.15 0.85,0 l 0.65,0.6 q 12.25,20.5 28.75,28.7 10.15,4.9 6.95,11.2 v 0.05 l -1.7,2.75 m 39.9,0 -1.7,-2.75 v -0.05 q -3.2,-6.3 6.95,-11.2 16.5,-8.2 28.75,-28.7 l 0.65,-0.6 q 0.4,-0.15 0.85,0 l 0.55,0.25 h -0.05 q -12.25,23.3 -28.75,35.25 -5.85,4.15 -7.25,7.8"
         id="path385" />
      <path
         stroke="none"
         fill="#ebceb7"
         d="m 147.95,1045.1 q 1.4,-3.65 7.25,-7.8 16.5,-11.95 28.75,-35.25 H 184 l 0.15,0.15 0.3,0.85 q 0.8,24.45 -15.55,43.9 h 0.05 q -5.9,7.6 -14.7,3.3 -3.85,-1.9 -6.3,-5.15 m -39.9,0 q -2.45,3.25 -6.3,5.15 -8.8,4.3 -14.7,-3.3 h 0.05 q -16.35,-19.45 -15.55,-43.9 l 0.3,-0.85 0.15,-0.15 h 0.05 q 12.25,23.3 28.75,35.25 5.85,4.15 7.25,7.8"
         id="path386" />
    </g>
  </g>
</svg>
