<?xml version="1.0" encoding="UTF-8" standalone="no"?>
<svg
   version="1.1"
   id="svg386"
   width="136"
   height="136"
   xmlns="http://www.w3.org/2000/svg"
   xmlns:svg="http://www.w3.org/2000/svg">
  <defs
     id="defs1" />
  <g
     id="g386"
     transform="translate(-569.84998,-828)">
    <g
       id="g409">
      <path
         stroke="none"
         fill="#2c2b2b"
         d="m 576.05,867.3 q 4.85,-10.55 13.75,-19.4 l 1.1,-1.05 0.05,-0.1 Q 610.5,828 637.85,828 q 27.45,0 47.05,18.85 l 0.05,0.05 1,1 q 3.9,3.9 7.1,8.2 3.9,5.3 6.7,11.15 v 0.05 l 0.9,2 0.05,0.1 q 5.15,12.2 5.15,26.6 v 0.5 0.5 1 0.5 0.15 q -0.75,20.95 -12.8,37.25 l -2.3,2.85 0.05,-0.05 -1.5,1.75 -3.35,3.6 q -9.8,9.8 -21.6,14.8 -12.2,5.15 -26.5,5.15 -9.05,0 -17.2,-2.05 -4.8,-1.2 -9.25,-3.1 -11.85,-5 -21.6,-14.8 l -3.4,-3.6 q -15.6,-17.7 -16.5,-41.55 l -0.05,-0.9 v -1 -0.5 -0.5 q 0,-14.4 5.25,-26.6 l -0.05,0.1 1.05,-2.35 -0.05,0.15"
         id="path287" />
      <path
         stroke="none"
         fill="#545353"
         d="m 701.85,898.5 q -0.3,-15.05 -6.75,-27.55 l -1.05,-2 q -1.9,-3.35 -4.25,-6.5 -3,-4.05 -6.7,-7.75 l -1,-1 Q 663.7,836 637.85,836 q -25.8,0 -44.2,17.7 l -1.05,1 q -6.65,6.65 -10.9,14.25 l -1.1,2 q -6.4,12.5 -6.7,27.55 l -0.05,-0.5 v -1 -0.5 -0.5 q 0,-13.55 4.9,-25.05 l 0.9,-2 q 4.6,-9.9 12.95,-18.25 l 1.05,-1 q 18.4,-17.7 44.2,-17.7 25.85,0 44.25,17.7 l 1,1 q 3.7,3.7 6.7,7.75 3.7,5 6.3,10.5 l 0.9,2 q 4.85,11.5 4.85,25.05 v 0.5 0.5 1 0.5"
         id="path288" />
      <path
         stroke="none"
         fill="#414040"
         d="m 701.85,898.5 q -0.7,19.7 -12.05,35 l -2.1,2.65 -1.4,1.65 -3.2,3.4 q -9.2,9.25 -20.3,13.95 -11.5,4.85 -24.95,4.85 -8.55,0 -16.25,-1.95 -4.45,-1.1 -8.65,-2.9 -11.15,-4.7 -20.35,-13.95 l -3.2,-3.4 q -14.75,-16.7 -15.5,-39.3 0.3,-15.05 6.7,-27.55 l 1.1,-2 q 4.25,-7.6 10.9,-14.25 l 1.05,-1 q 18.4,-17.7 44.2,-17.7 25.85,0 44.25,17.7 l 1,1 q 3.7,3.7 6.7,7.75 2.35,3.15 4.25,6.5 l 1.05,2 q 6.45,12.5 6.75,27.55 m -20.45,-25.65 -2.05,-1.9 -2.75,-2 q -6.45,-4.15 -14.6,-4.15 -8.2,0 -14.65,4.15 -9.5,4.85 -19,0 -6.45,-4.15 -14.6,-4.15 -8.15,0 -14.6,4.15 -1.4,0.9 -2.75,2 l -2.1,1.9 q -8.05,8.05 -8.05,19.4 0,11.4 8.05,19.5 h 0.1 l 4.55,3.7 q 0.05,15.95 11.4,27.2 4.5,4.55 9.8,7.25 8,4.15 17.7,4.15 16.1,0 27.55,-11.4 l 3.65,-4.1 q 7.6,-10 7.7,-23.1 l 4.65,-3.7 q 8.05,-8.1 8.05,-19.5 0,-11.35 -8.05,-19.4 m -25.55,-13.1 -0.05,-0.55 q -0.45,-7.2 -5.1,-12.45 -5.15,-5.75 -12.35,-5.75 -7.25,0 -12.4,5.75 -4.6,5.25 -5.05,12.45 l -0.05,0.55 q 0,0.7 0.3,1.35 0.9,2.15 4.8,3.8 5.15,2.1 12.4,2.1 7.2,0 12.35,-2.1 3.95,-1.65 4.9,-3.8 l 0.25,-1.35"
         id="path289" />
      <path
         stroke="none"
         fill="#ffffff"
         d="m 596.2,896.1 q 0,-4.6 3.25,-7.8 3.3,-3.2 7.9,-3.2 4.55,0 7.9,3.2 3.2,3.2 3.2,7.8 0,4.6 -3.2,7.75 -3.35,3.35 -7.9,3.35 -4.6,0 -7.9,-3.35 -3.25,-3.15 -3.25,-7.75 m 5.45,0.25 q 0,2.85 2.05,4.8 1.9,2.1 4.85,2.1 2.9,0 4.95,-2.1 2.05,-1.95 2.05,-4.8 0,-3 -2.05,-4.95 -2.05,-2 -4.95,-2 -2.95,0 -4.85,2 -2.05,1.95 -2.05,4.95 m 18.5,22.05 q 20,-6.15 37,0 3.15,9.4 0,17.75 -2,0.15 -3.95,-0.65 -13.75,-5.55 -30.25,0.2 l -2.8,0.5 q -3.55,-7.9 0,-17.8 m 60.1,-22.3 q 0,4.6 -3.25,7.75 -3.25,3.35 -7.9,3.35 -4.55,0 -7.75,-3.35 -3.35,-3.15 -3.35,-7.75 0,-4.6 3.35,-7.8 3.2,-3.2 7.75,-3.2 4.65,0 7.9,3.2 3.25,3.2 3.25,7.8 m -5.35,0.25 q 0,-3 -2.05,-4.95 -2.05,-2 -4.9,-2 -2.85,0 -5,2 -2.05,1.95 -2.05,4.95 0,2.85 2.05,4.8 2.15,2.1 5,2.1 2.85,0 4.9,-2.1 2.05,-1.95 2.05,-4.8"
         id="path290" />
      <path
         stroke="none"
         fill="#bdb6b6"
         d="m 596.2,896.1 q 0,4.6 3.25,7.75 3.3,3.35 7.9,3.35 4.55,0 7.9,-3.35 3.2,-3.15 3.2,-7.75 0,-4.6 -3.2,-7.8 -3.35,-3.2 -7.9,-3.2 -4.6,0 -7.9,3.2 -3.25,3.2 -3.25,7.8 m 85.2,-23.25 q 8.05,8.05 8.05,19.4 0,11.4 -8.05,19.5 l -4.65,3.7 q -0.1,13.1 -7.7,23.1 l -3.65,4.1 q -11.45,11.4 -27.55,11.4 -9.7,0 -17.7,-4.15 -5.3,-2.7 -9.8,-7.25 -11.35,-11.25 -11.4,-27.2 l -4.55,-3.7 h -0.1 q -8.05,-8.1 -8.05,-19.5 0,-11.35 8.05,-19.4 l 2.1,-1.9 q 1.35,-1.1 2.75,-2 6.45,-4.15 14.6,-4.15 8.15,0 14.6,4.15 9.5,4.85 19,0 6.45,-4.15 14.65,-4.15 8.15,0 14.6,4.15 l 2.75,2 2.05,1.9 m -65.3,2.9 q -1.3,0.15 -2.3,1.1 -0.95,0.95 -0.95,2.3 0,1.35 0.95,2.3 1,0.95 2.6,1.15 21.4,2.6 42.6,-0.2 1.85,0 2.8,-0.95 0.95,-0.95 0.95,-2.3 0,-1.35 -0.95,-2.3 -0.95,-0.95 -2.8,-1.15 -22,-2.05 -42.9,0.05 m 25.5,23.45 -0.15,0.1 q -1.15,1.15 -1.15,2.85 0,1.75 1.25,3 l 0.4,0.3 0.4,0.3 q 0.9,0.6 2.15,0.6 1.65,0 2.8,-1.15 l 0.15,-0.2 1.65,-2 q 0.85,-1.2 1.15,-2.45 l 0.1,-0.35 q 0.45,-2.2 -0.65,-3.3 -1.2,-1.2 -3.65,-0.55 -2.3,0.7 -4.45,2.85 m -6.5,5.95 q 1.2,-1.25 1.2,-3 0,-1.7 -1.15,-2.85 L 635,899.2 q -2.1,-2.15 -4.5,-2.85 -2.4,-0.65 -3.65,0.55 -1.1,1.1 -0.6,3.3 l 0.1,0.35 q 0.3,1.25 1.1,2.5 l 1.65,1.95 0.1,0.2 q 1.2,1.15 2.9,1.15 1.2,0 2.2,-0.6 l 0.4,-0.3 0.4,-0.3 m -14.95,13.25 -2.85,0.9 q -3.45,1.2 -4.95,4.4 -1.6,3.3 -0.4,6.6 1.15,3.45 4.45,5 1.85,0.9 3.75,0.9 l 2.8,-0.5 q 16.5,-5.75 30.25,-0.2 1.95,0.8 3.95,0.65 l 2.65,-0.65 q 3.3,-1.3 4.65,-4.65 1.35,-3.3 0.05,-6.65 -1.35,-3.25 -4.6,-4.7 l -2.75,-1.1 q -17,-6.15 -37,0 m 60.1,-22.3 q 0,-4.6 -3.25,-7.8 -3.25,-3.2 -7.9,-3.2 -4.55,0 -7.75,3.2 -3.35,3.2 -3.35,7.8 0,4.6 3.35,7.75 3.2,3.35 7.75,3.35 4.65,0 7.9,-3.35 3.25,-3.15 3.25,-7.75"
         id="path291" />
      <path
         stroke="none"
         fill="#464545"
         d="m 655.85,859.75 -0.25,1.35 q -0.95,2.15 -4.9,3.8 -5.15,2.1 -12.35,2.1 -7.25,0 -12.4,-2.1 -3.9,-1.65 -4.8,-3.8 -0.3,-0.65 -0.3,-1.35 l 0.05,-0.55 q 0.45,-7.2 5.05,-12.45 5.15,-5.75 12.4,-5.75 7.2,0 12.35,5.75 4.65,5.25 5.1,12.45 l 0.05,0.55"
         id="path292" />
      <path
         stroke="none"
         fill="#a8a1a1"
         d="m 616.1,875.75 q 20.9,-2.1 42.9,-0.05 1.85,0.2 2.8,1.15 0.95,0.95 0.95,2.3 0,1.35 -0.95,2.3 -0.95,0.95 -2.8,0.95 -21.2,2.8 -42.6,0.2 -1.6,-0.2 -2.6,-1.15 -0.95,-0.95 -0.95,-2.3 0,-1.35 0.95,-2.3 1,-0.95 2.3,-1.1"
         id="path293" />
      <path
         stroke="none"
         fill="#989292"
         d="m 641.6,899.2 q 2.15,-2.15 4.45,-2.85 2.45,-0.65 3.65,0.55 1.1,1.1 0.65,3.3 l -0.1,0.35 q -0.3,1.25 -1.15,2.45 l -1.65,2 -0.15,0.2 q -1.15,1.15 -2.8,1.15 -1.25,0 -2.15,-0.6 l -0.4,-0.3 -0.4,-0.3 q -1.25,-1.25 -1.25,-3 0,-1.7 1.15,-2.85 l 0.15,-0.1 m -6.5,5.95 -0.4,0.3 -0.4,0.3 q -1,0.6 -2.2,0.6 -1.7,0 -2.9,-1.15 l -0.1,-0.2 -1.65,-1.95 q -0.8,-1.25 -1.1,-2.5 l -0.1,-0.35 q -0.5,-2.2 0.6,-3.3 1.25,-1.2 3.65,-0.55 2.4,0.7 4.5,2.85 l 0.15,0.1 q 1.15,1.15 1.15,2.85 0,1.75 -1.2,3"
         id="path294" />
      <path
         stroke="none"
         fill="#5b5b5b"
         d="m 601.65,896.35 q 0,-3 2.05,-4.95 1.9,-2 4.85,-2 2.9,0 4.95,2 2.05,1.95 2.05,4.95 0,2.85 -2.05,4.8 -2.05,2.1 -4.95,2.1 -2.95,0 -4.85,-2.1 -2.05,-1.95 -2.05,-4.8 m 73.25,0 q 0,2.85 -2.05,4.8 -2.05,2.1 -4.9,2.1 -2.85,0 -5,-2.1 -2.05,-1.95 -2.05,-4.8 0,-3 2.05,-4.95 2.15,-2 5,-2 2.85,0 4.9,2 2.05,1.95 2.05,4.95"
         id="path295" />
      <path
         stroke="none"
         fill="#e7e7e7"
         d="m 620.15,936.2 q -1.9,0 -3.75,-0.9 -3.3,-1.55 -4.45,-5 -1.2,-3.3 0.4,-6.6 1.5,-3.2 4.95,-4.4 l 2.85,-0.9 q -3.55,9.9 0,17.8 m 37,-17.8 2.75,1.1 q 3.25,1.45 4.6,4.7 1.3,3.35 -0.05,6.65 -1.35,3.35 -4.65,4.65 l -2.65,0.65 q 3.15,-8.35 0,-17.75"
         id="path296" />
    </g>
  </g>
</svg>
