<?xml version="1.0" encoding="UTF-8" standalone="no"?>
<svg
   version="1.1"
   id="svg386"
   width="160.35461"
   height="136"
   xmlns="http://www.w3.org/2000/svg"
   xmlns:svg="http://www.w3.org/2000/svg">
  <defs
     id="defs1" />
  <g
     id="g386"
     transform="translate(-303.7977,-252)">
    <g
       id="g394">
      <path
         stroke="none"
         fill="#2d548c"
         d="m 422.7,263.95 2.2,1.65 q 4.3,-4.45 10.45,-8 h 0.05 q 1.05,-0.65 2.2,-1.25 l 0.4,-0.2 q 4.85,-2.3 11.6,1.4 l 0.05,0.05 q 6.1,3.4 10.4,10.8 H 460 q 4.25,7.25 4.15,14.25 v 0.05 l -0.1,2.2 q -0.75,6 -4.55,8.65 l -0.05,0.05 -0.95,0.65 -0.25,0.15 -1.1,0.6 -0.1,0.1 q -4.15,2.35 -8.2,3.85 3.1,9.85 3.1,21.05 v 2 0.15 q -0.5,16.15 -7.6,29.6 -2.1,3.9 -4.75,7.6 l -0.4,0.5 q -3.2,4.25 -7.15,8.25 l -4.9,4.5 -0.05,0.05 -4.45,3.4 q -16.9,11.95 -38.7,11.95 -21.85,0 -38.7,-11.9 v -0.05 l -4.35,-3.3 -5.05,-4.65 Q 327.75,360 323,350.65 l -0.25,-0.6 -5.55,-16.7 -0.2,-1.15 -0.05,-0.3 -0.2,-1 v -0.2 l -0.05,-0.2 v -0.2 l -0.05,-0.2 -0.15,-1.5 -0.1,-0.5 v -0.3 l -0.05,-0.35 v -0.05 l -0.05,-0.25 -0.05,-0.55 -0.05,-0.55 -0.05,-0.55 -0.15,-3.3 -0.05,-2.2 q 0,-11.2 3.15,-21.05 -4.05,-1.5 -8.2,-3.85 l -0.1,-0.1 -1.1,-0.6 -0.2,-0.15 -0.95,-0.65 -0.1,-0.05 q -3.8,-2.65 -4.45,-8.7 v 0.25 l -0.2,-2.4 v -0.05 q -0.1,-7 4.15,-14.25 4.25,-7.4 10.4,-10.8 l 0.05,-0.05 q 6.7,-3.7 11.6,-1.4 l 0.4,0.2 2.2,1.25 q 6.15,3.55 10.5,8 l 2.15,-1.6 q 16.9,-12 38.7,-12 21.85,0 38.7,11.95 h 0.05"
         id="path73" />
      <path
         stroke="none"
         fill="#528cdb"
         d="m 460.05,284.4 q -0.55,-4.95 -3.5,-10 -3.65,-6.35 -8.9,-9.35 -4.75,-2.6 -8.15,-1.2 l -2.15,1.2 q -9.65,5.6 -14.4,13.45 l -0.6,-0.5 -0.95,-0.75 0.75,-1.4 q 4.75,-8.75 15.2,-14.8 l 2.15,-1.2 q 3.4,-1.4 8.15,1.2 5.25,3 8.9,9.35 3.65,6.25 3.6,12.25 l -0.1,1.75 M 345,278.45 q -4.8,-7.85 -14.4,-13.4 l -2.15,-1.2 q -3.4,-1.4 -8.15,1.2 -5.25,3 -8.9,9.35 -2.95,5.05 -3.45,10 l -0.15,-1.75 q -0.05,-6 3.6,-12.25 3.65,-6.35 8.9,-9.35 4.75,-2.6 8.15,-1.2 l 2.15,1.2 q 10.45,6.05 15.2,14.8 l 0.75,1.4 -1.55,1.2"
         id="path74" />
      <path
         stroke="none"
         fill="#4b80c9"
         d="m 345,278.45 q -3.1,2.4 -6,5.3 -3.6,-4.05 -9,-7.2 l -1.75,-0.95 q -2.8,-1.15 -6.75,0.95 -4.3,2.5 -7.3,7.75 -1.95,3.3 -2.6,6.55 l -0.75,-0.5 q -2.45,-1.85 -2.9,-5.95 0.5,-4.95 3.45,-10 3.65,-6.35 8.9,-9.35 4.75,-2.6 8.15,-1.2 l 2.15,1.2 q 9.6,5.55 14.4,13.4 m 77.95,0.05 q 4.75,-7.85 14.4,-13.45 l 2.15,-1.2 q 3.4,-1.4 8.15,1.2 5.25,3 8.9,9.35 2.95,5.05 3.5,10 -0.5,4.1 -2.95,5.95 l -0.75,0.5 q -0.65,-3.25 -2.6,-6.55 -3,-5.25 -7.3,-7.75 -3.95,-2.1 -6.75,-0.95 l -1.75,0.95 q -5.4,3.15 -9,7.2 l -6,-5.25"
         id="path75" />
      <path
         stroke="none"
         fill="#3b6eb4"
         d="m 428.95,283.75 q 3.6,-4.05 9,-7.2 l 1.75,-0.95 q 2.8,-1.15 6.75,0.95 4.3,2.5 7.3,7.75 1.95,3.3 2.6,6.55 l -1.3,0.75 q -7.9,4.55 -15.5,5.6 -4.15,-7.05 -10.3,-13.2 l -0.3,-0.25 m -117.35,7.1 q 0.65,-3.25 2.6,-6.55 3,-5.25 7.3,-7.75 3.95,-2.1 6.75,-0.95 l 1.75,0.95 q 5.4,3.15 9,7.2 l -0.3,0.25 q -6.15,6.15 -10.3,13.2 -7.6,-1.05 -15.5,-5.6 l -1.3,-0.75"
         id="path76" />
      <path
         stroke="none"
         fill="#5a9bf3"
         d="m 447.95,322 q -0.7,-25.25 -18.7,-43.25 -3.05,-3.05 -6.3,-5.6 l -0.45,0.3 Q 406.55,284 383.95,284 q -22.6,0 -38.6,-10.55 l -0.4,-0.25 q -3.25,2.55 -6.25,5.55 -18.05,18 -18.7,43.25 l -0.05,-2 q 0,-26.55 18.75,-45.25 l 3.65,-3.4 q 2.55,-2.2 5.2,-4.1 15.9,-11.25 36.4,-11.25 20.55,0 36.4,11.2 2.65,1.9 5.2,4.1 l 3.7,3.45 q 18.7,18.7 18.7,45.25 v 2"
         id="path77" />
      <path
         stroke="none"
         fill="#528cdb"
         d="m 447.95,322 q -0.45,15.2 -7.15,27.85 -1.95,3.7 -4.45,7.15 h -0.05 q -3.15,4.3 -7.1,8.25 l -4.65,4.3 q -4.4,-1.6 -4.35,-6.3 -1.1,-11.25 -10.45,-19.5 -10.5,-9.25 -25.35,-9.25 -14.85,0 -25.4,9.25 -9.3,8.25 -10.35,19.5 -1.35,4.8 -5.2,6.4 l -4.8,-4.4 q -7.6,-7.6 -12.1,-16.45 L 321,332.1 v -0.2 l -0.2,-1.1 -0.05,-0.25 -0.05,-0.5 -0.1,-0.55 -0.15,-1.25 v -0.2 l -0.1,-0.6 V 327.2 L 320.3,327 v -0.25 l -0.05,-0.3 -0.05,-0.65 v -0.25 l -0.05,-0.3 L 320,322 q 0.65,-25.25 18.7,-43.25 3,-3 6.25,-5.55 l 0.4,0.25 q 16,10.55 38.6,10.55 22.6,0 38.55,-10.55 l 0.45,-0.3 q 3.25,2.55 6.3,5.6 18,18 18.7,43.25"
         id="path78" />
      <path
         stroke="none"
         fill="#4178c2"
         d="m 343.45,369.65 q 3.85,-1.6 5.2,-6.4 1.05,-11.25 10.35,-19.5 10.55,-9.25 25.4,-9.25 14.85,0 25.35,9.25 9.35,8.25 10.45,19.5 -0.05,4.7 4.35,6.3 l -4.2,3.2 q -15.9,11.25 -36.4,11.25 -20.55,0 -36.4,-11.2 l -4.1,-3.15 m 58.1,-22.3 q -1.1,-1.1 -3.3,-0.5 -2.25,0.6 -4.2,2.6 l -0.15,0.1 q -1.05,1.1 -1.05,2.7 0,1.6 1.15,2.7 1.1,1.15 2.75,1.15 1.5,0 2.65,-1.05 l 0.1,-0.1 q 2,-2 2.6,-4.2 0.65,-2.25 -0.55,-3.4 m -32.15,7.7 q 1.1,1.05 2.65,1.05 1.6,0 2.75,-1.15 1.1,-1.1 1.1,-2.7 0,-1.6 -1.05,-2.7 l -0.1,-0.1 q -2,-2 -4.2,-2.6 -2.2,-0.6 -3.35,0.5 -1.15,1.15 -0.5,3.4 0.6,2.2 2.6,4.2 l 0.1,0.1"
         id="path79" />
      <path
         stroke="none"
         fill="#2d5d9c"
         d="m 401.55,347.35 q 1.2,1.15 0.55,3.4 -0.6,2.2 -2.6,4.2 l -0.1,0.1 q -1.15,1.05 -2.65,1.05 -1.65,0 -2.75,-1.15 -1.15,-1.1 -1.15,-2.7 0,-1.6 1.05,-2.7 l 0.15,-0.1 q 1.95,-2 4.2,-2.6 2.2,-0.6 3.3,0.5 m -32.15,7.7 -0.1,-0.1 q -2,-2 -2.6,-4.2 -0.65,-2.25 0.5,-3.4 1.15,-1.1 3.35,-0.5 2.2,0.6 4.2,2.6 l 0.1,0.1 q 1.05,1.1 1.05,2.7 0,1.6 -1.1,2.7 -1.15,1.15 -2.75,1.15 -1.55,0 -2.65,-1.05"
         id="path80" />
      <path
         stroke="none"
         fill="#ffffff"
         d="m 435.2,327.2 q 0,5.7 -4.05,9.6 -4.05,4.1 -9.75,4.1 -5.6,0 -9.75,-4.1 -3.95,-3.9 -3.95,-9.6 0,-5.75 3.95,-9.75 4.15,-4.05 9.75,-4.05 5.7,0 9.75,4.05 4.05,4 4.05,9.75 m -7.55,-0.1 q 0,-3.65 -2.45,-6.1 -2.55,-2.55 -6.2,-2.55 -3.5,0 -6.1,2.55 -2.55,2.45 -2.55,6.1 l 0.05,0.85 q 0.25,2.95 2.5,5.1 2.6,2.5 6.1,2.5 3.65,0 6.2,-2.5 2.15,-2.15 2.4,-5.1 l 0.05,-0.85"
         id="path81" />
      <path
         stroke="none"
         fill="#5b5b5b"
         d="m 427.65,327.1 -0.05,0.85 q -0.25,2.95 -2.4,5.1 -2.55,2.5 -6.2,2.5 -3.5,0 -6.1,-2.5 -2.25,-2.15 -2.5,-5.1 l -0.05,-0.85 q 0,-3.65 2.55,-6.1 2.6,-2.55 6.1,-2.55 3.65,0 6.2,2.55 2.45,2.45 2.45,6.1"
         id="path82" />
      <path
         stroke="none"
         fill="#ffffff"
         d="m 340.25,327.1 0.05,0.85 q 0.25,2.95 2.4,5.1 2.55,2.5 6.2,2.5 3.5,0 6.1,-2.5 2.25,-2.15 2.5,-5.1 l 0.05,-0.85 q 0,-3.65 -2.55,-6.1 -2.6,-2.55 -6.1,-2.55 -3.65,0 -6.2,2.55 -2.45,2.45 -2.45,6.1 m -7.55,0.1 q 0,-5.75 4.05,-9.75 4.05,-4.05 9.75,-4.05 5.6,0 9.75,4.05 3.95,4 3.95,9.75 0,5.7 -3.95,9.6 -4.15,4.1 -9.75,4.1 -5.7,0 -9.75,-4.1 -4.05,-3.9 -4.05,-9.6"
         id="path83" />
      <path
         stroke="none"
         fill="#5b5b5b"
         d="m 340.25,327.1 q 0,-3.65 2.45,-6.1 2.55,-2.55 6.2,-2.55 3.5,0 6.1,2.55 2.55,2.45 2.55,6.1 l -0.05,0.85 q -0.25,2.95 -2.5,5.1 -2.6,2.5 -6.1,2.5 -3.65,0 -6.2,-2.5 -2.15,-2.15 -2.4,-5.1 l -0.05,-0.85"
         id="path84" />
    </g>
  </g>
</svg>
