<?xml version="1.0" encoding="UTF-8" standalone="no"?>
<svg
   version="1.1"
   id="svg386"
   width="136"
   height="149.19333"
   xmlns="http://www.w3.org/2000/svg"
   xmlns:svg="http://www.w3.org/2000/svg">
  <defs
     id="defs1" />
  <g
     id="g386"
     transform="translate(-827.70001,-430.80667)">
    <g
       id="g401">
      <path
         stroke="none"
         fill="#6d4526"
         d="m 943.05,431.95 q 6.6,2.5 8.4,8.55 l 0.05,0.25 0.6,2.85 v -0.1 q 3,14.95 0.3,27.15 v 0.15 l -0.3,1.1 -0.05,0.1 -0.3,1.3 q 11.95,16.85 11.95,38.7 v 2 0.1 q -0.45,15.85 -7.3,29 -4.75,9.15 -12.6,16.95 -19.95,19.95 -48.1,19.95 -28.15,0 -48.05,-19.95 -19.2,-19.1 -19.9,-45.85 L 827.7,512 q 0,-21.85 12,-38.75 l -0.35,-1.3 0.05,0.05 -0.3,-1.2 -0.05,-0.15 q -2.65,-12.2 0.35,-27.05 l -0.05,0.05 0.6,-2.9 0.1,-0.25 q 1.75,-6.1 8.4,-8.5 6.5,-2.45 14.2,0.35 h -0.05 q 7.55,2.6 12.05,8.65 l 0.05,0.1 0.85,1.25 q 1.95,-1.4 4.2,-2.65 15.25,-8.8 31.8,-0.1 l 0.15,0.1 4.2,2.65 0.85,-1.3 0.05,-0.1 q 4.5,-6 12.05,-8.65 h -0.05 q 7.8,-2.8 14.25,-0.35"
         id="path165" />
      <path
         stroke="none"
         fill="#b67340"
         d="m 917,451.25 q 0.1,-3.8 3,-7.9 3.8,-5.05 10.15,-7.3 6.3,-2.25 11.5,-0.35 4.65,1.75 5.95,5.95 l 0.55,2.65 q 2.85,14.05 0.35,25.5 l -0.3,1.15 q 1.65,-10.35 -0.8,-22.75 l -0.6,-2.7 q -1.25,-4.15 -5.95,-5.95 -5.2,-1.9 -11.45,0.35 -6.4,2.25 -10.2,7.35 -1.5,2 -2.2,4 m -42.55,0 q -0.75,-1.95 -2.2,-3.95 -3.8,-5.15 -10.15,-7.35 -6.3,-2.25 -11.5,-0.35 -4.7,1.75 -5.95,5.9 l -0.6,2.75 q -2.45,12.35 -0.8,22.75 l -0.3,-1.2 q -2.45,-11.45 0.35,-25.45 l 0.55,-2.7 q 1.3,-4.2 5.95,-5.9 5.25,-1.9 11.5,0.35 6.35,2.2 10.15,7.3 2.9,4.05 3,7.85"
         id="path166" />
      <path
         stroke="none"
         fill="#8e5a32"
         d="m 874.45,451.25 -0.05,1.3 -0.55,2.8 -0.65,2.9 -1.25,4.6 q -0.55,-1.6 -1.75,-3.3 -2.75,-3.7 -7.35,-5.3 L 854.6,454 q -3.4,1.3 -4.3,4.35 l -0.4,1.85 q -2.05,10.1 -0.25,18.35 l 0.35,1.4 q 0.45,1.9 1.15,3.4 l -0.6,-0.3 q -5.05,-2.7 -7.3,-12.05 -1.65,-10.4 0.8,-22.75 l 0.6,-2.75 q 1.25,-4.15 5.95,-5.9 5.2,-1.9 11.5,0.35 6.35,2.2 10.15,7.35 1.45,2 2.2,3.95 m 73.75,19.7 q -2.3,9.4 -7.35,12.1 l -0.55,0.25 1.1,-3.4 0.4,-1.35 q 1.8,-8.25 -0.25,-18.35 l -0.45,-1.9 q -0.85,-3.05 -4.2,-4.35 l -8.3,0.25 q -4.6,1.65 -7.35,5.3 -1.2,1.75 -1.75,3.3 l -1.3,-4.55 -0.6,-2.95 -0.5,-2.8 -0.1,-1.25 q 0.7,-2 2.2,-4 3.8,-5.1 10.2,-7.35 6.25,-2.25 11.45,-0.35 4.7,1.8 5.95,5.95 l 0.6,2.7 q 2.45,12.4 0.8,22.75"
         id="path167" />
      <path
         stroke="none"
         fill="#774b2a"
         d="m 940.3,483.3 -0.6,0.3 q -3.4,1.15 -6.75,-0.6 -3.05,-1.55 -6.05,-5.5 -4.25,-5.45 -6.95,-13.3 l -0.45,-1.4 q 0.55,-1.55 1.75,-3.3 2.75,-3.65 7.35,-5.3 l 8.3,-0.25 q 3.35,1.3 4.2,4.35 l 0.45,1.9 q 2.05,10.1 0.25,18.35 l -0.4,1.35 -1.1,3.4 m -89.15,0.05 q -0.7,-1.5 -1.15,-3.4 l -0.35,-1.4 q -1.8,-8.25 0.25,-18.35 l 0.4,-1.85 q 0.9,-3.05 4.3,-4.35 l 8.25,0.25 q 4.6,1.6 7.35,5.3 1.2,1.7 1.75,3.3 l -0.4,1.35 q -2.7,7.9 -7,13.3 -3,3.95 -6.05,5.5 -3.35,1.75 -6.75,0.6 l -0.6,-0.25"
         id="path168" />
      <path
         stroke="none"
         fill="#bd7841"
         d="m 905.7,452.7 -10,-0.7 -10,0.7 q -20.15,2.95 -35.25,18 -18.05,18.1 -18.7,43.3 l -0.05,-2 q 0,-26.5 18.75,-45.3 18.75,-18.7 45.25,-18.7 26.5,0 45.25,18.7 18.75,18.8 18.75,45.3 v 2 q -0.7,-25.2 -18.75,-43.3 -15.1,-15.05 -35.25,-18"
         id="path169" />
      <path
         stroke="none"
         fill="#f3dbc8"
         d="m 905.7,452.7 q -0.7,50.15 20.05,88.55 h -60.1 q 20.75,-38.4 20.05,-88.55 l 10,-0.7 10,0.7"
         id="path170" />
      <path
         stroke="none"
         fill="#a16639"
         d="m 905.7,452.7 q 20.15,2.95 35.25,18 18.05,18.1 18.75,43.3 -0.4,14.9 -6.85,27.25 -4.5,8.6 -11.9,15.95 -18.75,18.8 -45.25,18.8 -26.5,0 -45.25,-18.8 -18.05,-18 -18.7,-43.2 0.65,-25.2 18.7,-43.3 15.1,-15.05 35.25,-18 0.7,50.15 -20.05,88.55 h 60.1 Q 905,502.85 905.7,452.7"
         id="path171" />
      <path
         stroke="none"
         fill="#9c6236"
         d="m 867.9,460.7 q -1.55,-2.95 2.4,-8.05 3.95,-5.25 11.4,-9.5 13.45,-7.65 28,0 7.4,4.25 11.35,9.5 4,5.1 2.45,8 -0.7,-1.8 -2.45,-4 -3.95,-5.25 -11.35,-9.5 -14.55,-7.65 -28,0 -7.45,4.25 -11.4,9.5 -1.75,2.2 -2.4,4.05"
         id="path172" />
      <path
         stroke="none"
         fill="#8e5a32"
         d="m 867.9,460.7 q 0.65,-1.85 2.4,-4.05 3.95,-5.25 11.4,-9.5 13.45,-7.65 28,0 7.4,4.25 11.35,9.5 1.75,2.2 2.45,4 l -0.1,0.15 q -1.75,3.1 -8.35,2.2 -4.45,-0.65 -9.35,-2.9 0.8,2.2 1.05,4.25 l 0.05,0.25 q 0.2,1.9 -0.15,3.15 -0.3,1.15 -1.15,1.65 -1.9,1.1 -5.15,-1.4 -2.5,-2 -4.65,-5.3 -2.2,3.3 -4.7,5.3 -3.2,2.5 -5.1,1.4 -0.85,-0.5 -1.2,-1.65 -0.35,-1.25 -0.1,-3.1 v -0.3 q 0.3,-2.05 1.15,-4.25 -4.95,2.25 -9.45,2.9 -6.55,0.9 -8.35,-2.2 l -0.05,-0.1"
         id="path173" />
      <path
         stroke="none"
         fill="#b67340"
         d="M 858.25,543.9 858.2,542 v -1 q 0.4,-12.6 10.95,-21.65 11,-9.35 26.55,-9.35 15.5,0 26.5,9.35 10.55,9.05 11,21.65 v 1 l -0.05,1.9 Q 932.3,532 922.2,523.35 911.2,514 895.7,514 q -15.55,0 -26.55,9.35 -10.1,8.65 -10.9,20.55"
         id="path174" />
      <path
         stroke="none"
         fill="#8e5a32"
         d="m 858.25,543.9 q 0.8,-11.9 10.9,-20.55 11,-9.35 26.55,-9.35 15.5,0 26.5,9.35 10.1,8.65 10.95,20.55 -0.75,12.05 -10.95,20.7 -11,9.4 -26.5,9.4 -15.55,0 -26.55,-9.4 -10.15,-8.7 -10.9,-20.7 m 21.85,-9.5 q 1.5,1.4 3.55,1.4 2.15,0 3.65,-1.5 1.5,-1.5 1.5,-3.65 0,-1.1 -0.35,-2 l -1.05,-1.55 -0.15,-0.15 q -2.55,-2.55 -5.4,-3.4 l -0.2,-0.05 q -2.2,-0.65 -3.55,0.05 -0.5,0.2 -0.9,0.6 l -0.6,0.85 q -0.65,1.25 -0.2,3.15 l 0.1,0.5 0.45,1.3 q 0.95,2.25 3,4.3 l 0.15,0.15 m 34.1,-10.25 -0.85,-0.6 q -1.4,-0.7 -3.6,-0.05 l -0.25,0.1 q -2.85,0.85 -5.35,3.35 L 904,527.1 q -0.65,0.7 -1,1.55 -0.4,0.9 -0.4,2 0,2.15 1.5,3.65 1.5,1.5 3.65,1.5 2.05,0 3.55,-1.4 l 0.15,-0.15 q 2.05,-2.05 3,-4.3 l 0.45,-1.3 0.15,-0.5 q 0.4,-1.9 -0.25,-3.15 l -0.6,-0.85"
         id="path175" />
      <path
         stroke="none"
         fill="#704627"
         d="m 880.1,534.4 -0.15,-0.15 q -2.05,-2.05 -3,-4.3 l -0.45,-1.3 -0.1,-0.5 q -0.45,-1.9 0.2,-3.15 l 0.6,-0.85 q 0.4,-0.4 0.9,-0.6 1.35,-0.7 3.55,-0.05 l 0.2,0.05 q 2.85,0.85 5.4,3.4 l 0.15,0.15 1.05,1.55 q 0.35,0.9 0.35,2 0,2.15 -1.5,3.65 -1.5,1.5 -3.65,1.5 -2.05,0 -3.55,-1.4 m 34.1,-10.25 0.6,0.85 q 0.65,1.25 0.25,3.15 l -0.15,0.5 -0.45,1.3 q -0.95,2.25 -3,4.3 l -0.15,0.15 q -1.5,1.4 -3.55,1.4 -2.15,0 -3.65,-1.5 -1.5,-1.5 -1.5,-3.65 0,-1.1 0.4,-2 0.35,-0.85 1,-1.55 l 0.15,-0.15 q 2.5,-2.5 5.35,-3.35 l 0.25,-0.1 q 2.2,-0.65 3.6,0.05 l 0.85,0.6"
         id="path176" />
      <path
         stroke="none"
         fill="#ffffff"
         d="m 944.2,494.55 q 0,5.15 -3.65,8.75 -3.65,3.7 -8.85,3.7 -5.1,0 -8.8,-3.7 -3.65,-3.6 -3.65,-8.75 0,-5.2 3.65,-8.85 3.7,-3.65 8.8,-3.65 5.2,0 8.85,3.65 3.65,3.65 3.65,8.85 m -4.75,0.2 q 0,-3.6 -2.5,-6.15 -2.5,-2.5 -6.15,-2.5 -3.55,0 -6.15,2.5 -2.5,2.55 -2.5,6.15 0,3.6 2.5,6.05 2.6,2.55 6.15,2.55 3.65,0 6.15,-2.55 2.5,-2.45 2.5,-6.05 m -87.55,0 q 0,3.6 2.55,6.05 2.5,2.55 6.15,2.55 3.55,0 6.1,-2.55 2.55,-2.45 2.55,-6.05 0,-3.6 -2.55,-6.15 -2.55,-2.5 -6.1,-2.5 -3.65,0 -6.15,2.5 -2.55,2.55 -2.55,6.15 m -4.7,-0.2 q 0,-5.2 3.65,-8.85 3.65,-3.65 8.85,-3.65 5.1,0 8.8,3.65 3.65,3.65 3.65,8.85 0,5.15 -3.65,8.75 -3.7,3.7 -8.8,3.7 -5.2,0 -8.85,-3.7 -3.65,-3.6 -3.65,-8.75"
         id="path177" />
      <path
         stroke="none"
         fill="#5b5b5b"
         d="m 939.45,494.75 q 0,3.6 -2.5,6.05 -2.5,2.55 -6.15,2.55 -3.55,0 -6.15,-2.55 -2.5,-2.45 -2.5,-6.05 0,-3.6 2.5,-6.15 2.6,-2.5 6.15,-2.5 3.65,0 6.15,2.5 2.5,2.55 2.5,6.15 m -87.55,0 q 0,-3.6 2.55,-6.15 2.5,-2.5 6.15,-2.5 3.55,0 6.1,2.5 2.55,2.55 2.55,6.15 0,3.6 -2.55,6.05 -2.55,2.55 -6.1,2.55 -3.65,0 -6.15,-2.55 -2.55,-2.45 -2.55,-6.05"
         id="path178" />
    </g>
  </g>
</svg>
