<?xml version="1.0" encoding="UTF-8" standalone="no"?>
<svg
   version="1.1"
   id="svg386"
   width="181"
   height="136"
   xmlns="http://www.w3.org/2000/svg"
   xmlns:svg="http://www.w3.org/2000/svg">
  <defs
     id="defs1" />
  <g
     id="g386"
     transform="translate(-37.5,-252)">
    <g
       id="g393">
      <path
         stroke="none"
         fill="#6d4526"
         d="m 79.95,271.9 1.1,-1.05 0.05,-0.1 Q 100.65,252 128,252 q 27.45,0 47.05,18.85 l 0.05,0.05 1,1 1.8,1.9 6.6,-0.65 q 14.05,0 24,9.95 10,10.05 10,24.05 l -0.05,2.2 v 0.05 q -0.7,12.6 -9.95,21.8 -6.75,6.75 -15.3,8.95 -3.25,10.6 -10.05,19.75 l -2.2,2.85 v -0.05 l -1.5,1.75 -3.35,3.6 q -9.8,9.8 -21.6,14.8 -12.2,5.15 -26.5,5.15 -9.05,0 -17.2,-2.05 -4.8,-1.25 -9.25,-3.1 -11.85,-5 -21.6,-14.8 l -3.4,-3.6 q -9.7,-11 -13.7,-24.3 -8.6,-2.2 -15.3,-8.95 -9.3,-9.2 -10,-21.8 v -0.05 l -0.05,-2.2 q 0,-14 10.05,-24.05 9.9,-9.95 23.95,-9.95 l 6.6,0.6 1.85,-1.85"
         id="path62" />
      <path
         stroke="none"
         fill="#8e5a32"
         d="m 195.95,307.15 q 0,-6.95 -5,-11.9 -4.95,-4.95 -11.85,-4.95 -7.05,0 -12,4.95 -5,4.95 -5,11.9 0,7.05 5,11.95 4.95,5.05 12,5.05 6.9,0 11.85,-5.05 5,-4.9 5,-11.95 m -135.9,0 q 0,7.05 5,11.95 4.95,5.05 11.85,5.05 7.05,0 12,-5.05 5,-4.9 5,-11.95 0,-6.95 -5,-11.9 -4.95,-4.95 -12,-4.95 -6.9,0 -11.85,4.95 -5,4.95 -5,11.9 m -18.5,2 q 0.65,-11.1 8.8,-19.25 8.75,-8.75 21.15,-8.75 12.35,0 21.25,8.75 8.05,8.15 8.7,19.25 -0.65,11.1 -8.7,19.2 -8.9,8.8 -21.25,8.8 -12.4,0 -21.15,-8.8 -8.15,-8.1 -8.8,-19.2 m 172.9,0 q -0.65,11.1 -8.8,19.2 -8.75,8.8 -21.15,8.8 -12.35,0 -21.25,-8.8 -8.05,-8.1 -8.7,-19.2 0.65,-11.1 8.7,-19.25 8.9,-8.75 21.25,-8.75 12.4,0 21.15,8.75 8.15,8.15 8.8,19.25"
         id="path63" />
      <path
         stroke="none"
         fill="#b67340"
         d="m 41.55,309.15 -0.05,-2 q 0,-12.35 8.85,-21.25 8.75,-8.75 21.15,-8.75 12.35,0 21.25,8.75 8.75,8.9 8.75,21.25 l -0.05,2 q -0.65,-11.1 -8.7,-19.25 -8.9,-8.75 -21.25,-8.75 -12.4,0 -21.15,8.75 -8.15,8.15 -8.8,19.25 m 113,0 -0.05,-2 q 0,-12.35 8.75,-21.25 8.9,-8.75 21.25,-8.75 12.4,0 21.15,8.75 8.85,8.9 8.85,21.25 l -0.05,2 q -0.65,-11.1 -8.8,-19.25 -8.75,-8.75 -21.15,-8.75 -12.35,0 -21.25,8.75 -8.05,8.15 -8.7,19.25"
         id="path64" />
      <path
         stroke="none"
         fill="#774b2a"
         d="m 60.05,307.15 q 0,-6.95 5,-11.9 4.95,-4.95 11.85,-4.95 7.05,0 12,4.95 5,4.95 5,11.9 0,7.05 -5,11.95 -4.95,5.05 -12,5.05 -6.9,0 -11.85,-5.05 -5,-4.9 -5,-11.95 m 135.9,0 q 0,7.05 -5,11.95 -4.95,5.05 -11.85,5.05 -7.05,0 -12,-5.05 -5,-4.9 -5,-11.95 0,-6.95 5,-11.9 4.95,-4.95 12,-4.95 6.9,0 11.85,4.95 5,4.95 5,11.9"
         id="path65" />
      <path
         stroke="none"
         fill="#a16639"
         d="m 192,320.5 v 0.5 1 q -0.55,20 -12.05,35.5 l -2.1,2.65 -1.4,1.65 -3.2,3.4 q -9.2,9.25 -20.3,13.95 -11.5,4.85 -24.95,4.85 -8.55,0 -16.25,-1.95 -4.45,-1.1 -8.65,-2.9 -11.15,-4.7 -20.35,-13.95 l -3.2,-3.4 Q 64.65,344.9 64,322 v -1 -0.5 q 0.55,-25.6 18.75,-43.8 L 85,274.6 q 2.75,1.9 6.4,3.65 15.15,7.25 36.6,7.25 21.45,0 36.6,-7.25 3.65,-1.75 6.45,-3.65 l 2.2,2.1 q 3.7,3.7 6.7,7.75 11.6,15.7 12.05,36.05 m -24,-20.65 q -7.4,-7.4 -17.8,-7.4 -10.5,0 -17.85,7.4 -1.55,1.5 -4.35,1.5 -2.8,0 -4.3,-1.5 -7.4,-7.4 -17.8,-7.4 -10.45,0 -17.85,7.4 -7.4,7.4 -7.4,17.8 0,10.45 7.4,17.9 h 0.05 l 4.2,3.4 q 0.05,14.65 10.45,25 4.15,4.15 9,6.65 7.35,3.8 16.25,3.8 14.8,0 25.3,-10.45 l 3.35,-3.8 q 7,-9.15 7.1,-21.2 l 4.25,-3.4 q 7.4,-7.45 7.4,-17.9 0,-10.4 -7.4,-17.8 m -34.7,33.85 q 1.95,-1.95 4.1,-2.6 2.25,-0.6 3.35,0.5 1.1,1.1 0.5,3.35 -0.6,2.15 -2.6,4.1 l -0.1,0.15 q -1.1,1.05 -2.6,1.05 -1.6,0 -2.7,-1.1 -1.15,-1.15 -1.15,-2.75 0,-1.55 1.05,-2.6 l 0.15,-0.1 m -9.65,5.45 q -1.2,1.1 -2.75,1.1 -1.55,0 -2.65,-1.05 l -0.1,-0.15 q -2,-1.95 -2.55,-4.1 -0.6,-2.25 0.5,-3.35 1.15,-1.1 3.35,-0.5 2.2,0.65 4.1,2.6 l 0.15,0.1 q 1.05,1.05 1.05,2.6 0,1.6 -1.1,2.75"
         id="path66" />
      <path
         stroke="none"
         fill="#aa6c3b"
         d="m 85,274.6 q 18.05,-16.6 43,-16.6 25,0 43.05,16.6 -2.8,1.9 -6.45,3.65 -15.15,7.25 -36.6,7.25 -21.45,0 -36.6,-7.25 -3.65,-1.75 -6.4,-3.65"
         id="path67" />
      <path
         stroke="none"
         fill="#b4723f"
         d="m 85,274.6 -2.25,2.1 Q 64.55,294.9 64,320.5 V 320 q 0,-26.55 18.75,-45.3 l 1.05,-1 Q 102.2,256 128,256 q 25.85,0 44.25,17.7 l 1,1 q 3.7,3.7 6.7,7.75 Q 192,298.7 192,320 v 0.5 q -0.45,-20.35 -12.05,-36.05 -3,-4.05 -6.7,-7.75 l -2.2,-2.1 Q 153,258 128,258 q -24.95,0 -43,16.6"
         id="path68" />
      <path
         stroke="none"
         fill="#ffffff"
         d="m 163.1,319.15 q 0,-3.3 -2.25,-5.45 -2.25,-2.15 -5.4,-2.15 -3.1,0 -5.45,2.15 -2.25,2.15 -2.25,5.45 0,3.15 2.25,5.3 2.35,2.3 5.45,2.3 3.15,0 5.4,-2.3 2.25,-2.15 2.25,-5.3 m 5.85,-0.25 q 0,5.05 -3.5,8.5 -3.6,3.65 -8.7,3.65 -5,0 -8.55,-3.65 -3.6,-3.45 -3.6,-8.5 0,-5.05 3.6,-8.6 3.55,-3.5 8.55,-3.5 5.1,0 8.7,3.5 3.5,3.55 3.5,8.6 m -23.2,24.95 q 2.9,7.65 0,16.3 -15.6,5.65 -34,0 -3.25,-9.1 0,-16.35 l 2.6,0.45 q 15.15,5.3 27.75,0.2 1.8,-0.75 3.65,-0.6 m -58,-24.95 q 0,-5.05 3.6,-8.6 3.6,-3.5 8.6,-3.5 5,0 8.7,3.5 3.5,3.55 3.5,8.6 0,5.05 -3.5,8.5 -3.7,3.65 -8.7,3.65 -5,0 -8.6,-3.65 -3.6,-3.45 -3.6,-8.5 m 5.95,0.25 q 0,3.15 2.25,5.3 2.15,2.3 5.35,2.3 3.15,0 5.4,-2.3 2.25,-2.15 2.25,-5.3 0,-3.3 -2.25,-5.45 -2.25,-2.15 -5.4,-2.15 -3.2,0 -5.35,2.15 -2.25,2.15 -2.25,5.45"
         id="path69" />
      <path
         stroke="none"
         fill="#5b5b5b"
         d="m 93.7,319.15 q 0,-3.3 2.25,-5.45 2.15,-2.15 5.35,-2.15 3.15,0 5.4,2.15 2.25,2.15 2.25,5.45 0,3.15 -2.25,5.3 -2.25,2.3 -5.4,2.3 -3.2,0 -5.35,-2.3 -2.25,-2.15 -2.25,-5.3 m 69.4,0 q 0,3.15 -2.25,5.3 -2.25,2.3 -5.4,2.3 -3.1,0 -5.45,-2.3 -2.25,-2.15 -2.25,-5.3 0,-3.3 2.25,-5.45 2.35,-2.15 5.45,-2.15 3.15,0 5.4,2.15 2.25,2.15 2.25,5.45"
         id="path70" />
      <path
         stroke="none"
         fill="#bf8559"
         d="m 168.95,318.9 q 0,-5.05 -3.5,-8.6 -3.6,-3.5 -8.7,-3.5 -5,0 -8.55,3.5 -3.6,3.55 -3.6,8.6 0,5.05 3.6,8.5 3.55,3.65 8.55,3.65 5.1,0 8.7,-3.65 3.5,-3.45 3.5,-8.5 M 168,299.85 q 7.4,7.4 7.4,17.8 0,10.45 -7.4,17.9 l -4.25,3.4 q -0.1,12.05 -7.1,21.2 l -3.35,3.8 q -10.5,10.45 -25.3,10.45 -8.9,0 -16.25,-3.8 -4.85,-2.5 -9,-6.65 -10.4,-10.35 -10.45,-25 l -4.2,-3.4 h -0.05 q -7.4,-7.45 -7.4,-17.9 0,-10.4 7.4,-17.8 7.4,-7.4 17.85,-7.4 10.4,0 17.8,7.4 1.5,1.5 4.3,1.5 2.8,0 4.35,-1.5 7.35,-7.4 17.85,-7.4 10.4,0 17.8,7.4 m -34.7,33.85 -0.15,0.1 q -1.05,1.05 -1.05,2.6 0,1.6 1.15,2.75 1.1,1.1 2.7,1.1 1.5,0 2.6,-1.05 l 0.1,-0.15 q 2,-1.95 2.6,-4.1 0.6,-2.25 -0.5,-3.35 -1.1,-1.1 -3.35,-0.5 -2.15,0.65 -4.1,2.6 m -9.65,5.45 q 1.1,-1.15 1.1,-2.75 0,-1.55 -1.05,-2.6 l -0.15,-0.1 q -1.9,-1.95 -4.1,-2.6 -2.2,-0.6 -3.35,0.5 -1.1,1.1 -0.5,3.35 0.55,2.15 2.55,4.1 l 0.1,0.15 q 1.1,1.05 2.65,1.05 1.55,0 2.75,-1.1 m 22.1,21 2.5,-1 q 3,-1.35 4.25,-4.35 1.2,-3.05 -0.05,-6.1 -1.25,-3.05 -4.3,-4.25 l -2.4,-0.6 q -1.85,-0.15 -3.65,0.6 -12.6,5.1 -27.75,-0.2 l -2.6,-0.45 q -1.75,0 -3.45,0.8 -3,1.45 -4.05,4.6 -1.1,3.05 0.35,6.05 1.4,2.95 4.55,4.05 l 2.6,0.85 q 18.4,5.65 34,0 m -58,-41.25 q 0,5.05 3.6,8.5 3.6,3.65 8.6,3.65 5,0 8.7,-3.65 3.5,-3.45 3.5,-8.5 0,-5.05 -3.5,-8.6 -3.7,-3.5 -8.7,-3.5 -5,0 -8.6,3.5 -3.6,3.55 -3.6,8.6"
         id="path71" />
      <path
         stroke="none"
         fill="#e7e7e7"
         d="m 145.75,343.85 2.4,0.6 q 3.05,1.2 4.3,4.25 1.25,3.05 0.05,6.1 -1.25,3 -4.25,4.35 l -2.5,1 q 2.9,-8.65 0,-16.3 m -34,16.3 -2.6,-0.85 q -3.15,-1.1 -4.55,-4.05 -1.45,-3 -0.35,-6.05 1.05,-3.15 4.05,-4.6 1.7,-0.8 3.45,-0.8 -3.25,7.25 0,16.35"
         id="path72" />
    </g>
  </g>
</svg>
