<?xml version="1.0" encoding="UTF-8" standalone="no"?>
<svg
   version="1.1"
   id="svg386"
   width="276.10004"
   height="170.03769"
   xmlns="http://www.w3.org/2000/svg"
   xmlns:svg="http://www.w3.org/2000/svg">
  <defs
     id="defs1" />
  <g
     id="g386"
     transform="translate(-1011.45,-409.96231)">
    <g
       id="g387">
      <path
         stroke="none"
         fill="#6d4526"
         d="m 1277.05,410.05 q 4.85,0.45 7.85,4.35 l -0.05,-0.05 q 2.5,3.15 2.55,7 l 0.15,7.85 v 0.05 q -0.1,5.05 -0.7,9.9 v 0.05 q -1.15,8.05 -3.65,15.4 -7,20.3 -25,35.65 v 0.05 q -15.7,13.15 -40.9,16.05 l 0.2,5.65 v 2 0.1 q -0.45,15.85 -7.3,29 -4.75,9.15 -12.6,16.95 -19.95,19.95 -48.1,19.95 -28.15,0 -48.05,-19.95 -19.2,-19.1 -19.9,-45.85 l -0.05,-2.2 0.2,-5.65 q -25.2,-2.9 -40.85,-16.05 l -0.05,-0.05 q -18,-15.35 -24.95,-35.65 -2.55,-7.35 -3.65,-15.4 v -0.05 q -0.65,-4.85 -0.75,-9.9 v -0.05 l 0.15,-7.85 q 0.05,-3.85 2.55,-7 v 0.05 q 2.95,-3.9 7.85,-4.35 h -0.1 q 4.7,-0.55 8.45,2.35 3.85,2.95 4.45,7.75 0.85,6.95 2.4,13.7 0.45,-2.85 2.55,-5.3 2.85,-3.8 7.6,-4.3 4.85,-0.6 8.6,2.4 l -0.05,-0.05 q 3.85,3 4.4,7.75 0.55,4.7 1.45,9.35 l 1.25,-1.95 0.05,-0.1 q 2.95,-3.75 7.75,-4.25 h -0.1 q 4.8,-0.7 8.65,2.3 l 0.05,0.05 q 3.55,2.8 4.3,7.15 l 0.2,-0.1 0.05,-0.05 q 6.7,-3.7 11.6,-1.4 l 0.4,0.2 2.2,1.25 q 7.25,4.2 12,9.65 6.75,-4.95 14.35,-7.9 v -1.1 q 0,-4.45 3.1,-7.6 3.1,-3.2 7.6,-3.2 h 28.6 q 4.45,0 7.6,3.2 h -0.05 q 3.15,3.15 3.15,7.6 v 1.1 q 7.6,2.95 14.4,7.9 4.75,-5.45 12,-9.65 h 0.05 l 2.2,-1.25 0.4,-0.2 q 4.85,-2.3 11.6,1.4 l 0.05,0.05 0.15,0.05 q 0.7,-4.3 4.25,-7.1 l 0.05,-0.05 q 3.85,-3 8.7,-2.3 h -0.15 q 4.8,0.5 7.8,4.25 l 0.05,0.1 1.25,1.95 1.45,-9.35 q 0.5,-4.75 4.35,-7.75 l -0.05,0.05 q 3.75,-3 8.6,-2.4 4.75,0.5 7.65,4.3 2.05,2.45 2.5,5.3 1.55,-6.75 2.45,-13.7 0.55,-4.8 4.4,-7.75 h 0.05 q 3.7,-2.9 8.4,-2.35 h -0.05"
         id="path179" />
      <path
         stroke="none"
         fill="#774b2a"
         d="m 1194.5,472.95 q 3.6,-4.05 9,-7.2 0.85,-0.45 1.75,-0.95 2.8,-1.15 6.75,0.95 4.3,2.5 7.3,7.75 1.95,3.3 2.6,6.55 l -1.3,0.75 q -7.9,4.55 -15.5,5.6 -4.15,-7.05 -10.3,-13.2 l -0.3,-0.25 m -89.95,0 -0.3,0.25 q -6.15,6.15 -10.3,13.2 -7.6,-1.05 -15.5,-5.6 l -1.3,-0.75 q 0.65,-3.25 2.6,-6.55 3,-5.25 7.3,-7.75 3.95,-2.1 6.75,-0.95 l 1.75,0.95 q 5.4,3.15 9,7.2"
         id="path180" />
      <path
         stroke="none"
         fill="#8e5a32"
         d="m 1104.55,472.95 q -3.6,-4.05 -9,-7.2 l -1.75,-0.95 q -2.8,-1.15 -6.75,0.95 -4.3,2.5 -7.3,7.75 -1.95,3.3 -2.6,6.55 l -0.75,-0.5 q -2.45,-1.85 -2.9,-5.95 0.5,-4.95 3.45,-10 3.65,-6.35 8.9,-9.35 4.75,-2.6 8.15,-1.2 l 2.15,1.2 q 9.6,5.55 14.4,13.4 -3.1,2.4 -6,5.3 m 83.95,-5.25 q 4.75,-7.85 14.4,-13.45 l 2.15,-1.2 q 3.4,-1.4 8.15,1.2 5.25,3 8.9,9.35 2.95,5.05 3.5,10 -0.5,4.1 -2.95,5.95 l -0.75,0.5 q -0.65,-3.25 -2.6,-6.55 -3,-5.25 -7.3,-7.75 -3.95,-2.1 -6.75,-0.95 -0.9,0.5 -1.75,0.95 -5.4,3.15 -9,7.2 l -6,-5.25"
         id="path181" />
      <path
         stroke="none"
         fill="#b67340"
         d="m 1188.5,467.7 -0.6,-0.5 -0.95,-0.75 0.75,-1.4 q 4.75,-8.75 15.2,-14.8 l 2.15,-1.2 q 3.4,-1.4 8.15,1.2 5.25,3 8.9,9.35 3.65,6.25 3.6,12.25 l -0.1,1.75 q -0.55,-4.95 -3.5,-10 -3.65,-6.35 -8.9,-9.35 -4.75,-2.6 -8.15,-1.2 l -2.15,1.2 q -9.65,5.6 -14.4,13.45 m -115,5.9 -0.15,-1.75 q -0.05,-6 3.6,-12.25 3.65,-6.35 8.9,-9.35 4.75,-2.6 8.15,-1.2 l 2.15,1.2 q 10.45,6.05 15.2,14.8 l 0.75,1.4 -1.55,1.2 q -4.8,-7.85 -14.4,-13.4 l -2.15,-1.2 q -3.4,-1.4 -8.15,1.2 -5.25,3 -8.9,9.35 -2.95,5.05 -3.45,10"
         id="path182" />
      <path
         stroke="none"
         fill="#d49562"
         d="m 1257.5,444.75 q 0.3,4.05 2.15,3.85 2,-0.45 4.65,-8.15 2.6,-9.7 3.9,-19.8 0.35,-3.15 2.9,-5.1 2.45,-1.9 5.55,-1.55 3.15,0.3 5.05,2.8 1.7,2.15 1.7,4.75 l 0.15,7.6 -0.15,-3.6 q 0,-2.6 -1.7,-4.75 -1.9,-2.5 -5.05,-2.8 -3.1,-0.35 -5.55,1.55 -2.55,1.95 -2.9,5.1 -1.3,10.1 -3.9,19.8 -2.65,7.7 -4.65,8.15 -2.6,0.3 -2.15,-7.85 m -61.75,52.15 q -0.6,-1.95 0,-4 0.8,-3.05 3.65,-4.55 l 0.05,-0.05 q 14.45,-10.4 17.05,-25.15 1.8,-7.5 2.7,-15.2 0.4,-3.1 2.9,-5.1 2.5,-1.95 5.65,-1.5 3.15,0.35 5.1,2.8 1.9,2.5 1.6,5.65 l -0.2,1.2 q -0.4,-1.55 -1.4,-2.85 -1.95,-2.45 -5.1,-2.8 -3.15,-0.45 -5.65,1.5 -2.5,2 -2.9,5.1 -0.9,7.7 -2.7,15.2 -2.6,14.75 -17.05,25.15 l -0.05,0.05 q -2.85,1.5 -3.65,4.55 m 38.15,-38.35 q 0.2,2.25 1.2,2.45 1.6,0.4 3.7,-6.35 2.7,-9.7 3.9,-19.85 0.35,-3.1 2.85,-5.05 2.45,-1.95 5.6,-1.55 3.15,0.35 5.05,2.9 2.1,2.5 1.65,5.6 l -0.1,1.35 q -0.4,-1.6 -1.55,-2.95 -1.9,-2.55 -5.05,-2.9 -3.15,-0.4 -5.6,1.55 -2.5,1.95 -2.85,5.05 -1.2,10.15 -3.9,19.85 -2.1,6.75 -3.7,6.35 -1.65,-0.3 -1.2,-6.45 m -168.8,0 q 0.45,6.15 -1.2,6.45 -1.6,0.4 -3.7,-6.35 -2.7,-9.7 -3.9,-19.85 -0.35,-3.1 -2.85,-5.05 -2.45,-1.95 -5.6,-1.55 -3.15,0.35 -5.05,2.9 -1.15,1.35 -1.55,2.95 l -0.1,-1.35 q -0.45,-3.1 1.65,-5.6 1.9,-2.55 5.05,-2.9 3.15,-0.4 5.6,1.55 2.5,1.95 2.85,5.05 1.2,10.15 3.9,19.85 2.1,6.75 3.7,6.35 1,-0.2 1.2,-2.45 m -23.6,-13.8 q 0.45,8.15 -2.15,7.85 -2,-0.45 -4.65,-8.15 -2.6,-9.7 -3.9,-19.8 -0.35,-3.15 -2.9,-5.1 -2.45,-1.9 -5.55,-1.55 -3.15,0.3 -5.05,2.8 -1.7,2.15 -1.7,4.75 l -0.15,3.6 q -0.05,-3.75 0.15,-7.6 0,-2.6 1.7,-4.75 1.9,-2.5 5.05,-2.8 3.1,-0.35 5.55,1.55 2.55,1.95 2.9,5.1 1.3,10.1 3.9,19.8 2.65,7.7 4.65,8.15 1.85,0.2 2.15,-3.85 m 61.75,52.15 q -0.8,-3.05 -3.65,-4.55 l -0.05,-0.05 q -14.45,-10.4 -17.05,-25.15 -1.8,-7.5 -2.7,-15.2 -0.4,-3.1 -2.9,-5.1 -2.5,-1.95 -5.65,-1.5 -3.15,0.35 -5.1,2.8 -1,1.3 -1.4,2.85 l -0.2,-1.2 q -0.3,-3.15 1.6,-5.65 1.95,-2.45 5.1,-2.8 3.15,-0.45 5.65,1.5 2.5,2 2.9,5.1 0.9,7.7 2.7,15.2 2.6,14.75 17.05,25.15 l 0.05,0.05 q 2.85,1.5 3.65,4.55 0.6,2.05 0,4"
         id="path183" />
      <path
         stroke="none"
         fill="#bf8658"
         d="m 1257.5,444.75 q -0.45,8.15 2.15,7.85 2,-0.45 4.65,-8.15 2.6,-9.7 3.9,-19.8 0.35,-3.15 2.9,-5.1 2.45,-1.9 5.55,-1.55 3.15,0.3 5.05,2.8 1.7,2.15 1.7,4.75 l 0.15,3.6 q -0.1,4.85 -0.7,9.5 -38.9,54.5 -85.75,61.05 l -0.65,-0.95 q -0.5,-0.85 -0.7,-1.75 v -0.1 q 0.8,-3.05 3.65,-4.55 l 0.05,-0.05 q 14.45,-10.4 17.05,-25.15 1.8,-7.5 2.7,-15.2 0.4,-3.1 2.9,-5.1 2.5,-1.95 5.65,-1.5 3.15,0.35 5.1,2.8 1,1.3 1.4,2.85 l -0.15,1 q -0.45,4.3 -0.2,6.55 -0.45,6.15 1.2,6.45 1.6,0.4 3.7,-6.35 2.7,-9.7 3.9,-19.85 0.35,-3.1 2.85,-5.05 2.45,-1.95 5.6,-1.55 3.15,0.35 5.05,2.9 1.15,1.35 1.55,2.95 l -0.2,1.5 q -0.25,3.15 -0.05,5.2 m -216.25,-6.7 q 0.4,-1.6 1.55,-2.95 1.9,-2.55 5.05,-2.9 3.15,-0.4 5.6,1.55 2.5,1.95 2.85,5.05 1.2,10.15 3.9,19.85 2.1,6.75 3.7,6.35 1.65,-0.3 1.2,-6.45 0.25,-2.25 -0.2,-6.55 l -0.15,-1 q 0.4,-1.55 1.4,-2.85 1.95,-2.45 5.1,-2.8 3.15,-0.45 5.65,1.5 2.5,2 2.9,5.1 0.9,7.7 2.7,15.2 2.6,14.75 17.05,25.15 l 0.05,0.05 q 2.85,1.5 3.65,4.55 v 0.1 l -0.7,1.75 -0.65,0.95 q -46.85,-6.55 -85.75,-61.05 -0.6,-4.65 -0.7,-9.5 l 0.15,-3.6 q 0,-2.6 1.7,-4.75 1.9,-2.5 5.05,-2.8 3.1,-0.35 5.55,1.55 2.55,1.95 2.9,5.1 1.3,10.1 3.9,19.8 2.65,7.7 4.65,8.15 2.6,0.3 2.15,-7.85 l -0.05,-5.2 -0.2,-1.5"
         id="path184" />
      <path
         stroke="none"
         fill="#b47e52"
         d="m 1282.85,438.65 q -1.05,7.65 -3.45,14.65 -6.65,19.3 -23.8,33.9 -16.3,13.6 -43.45,15.6 L 1201,502.35 q -2.5,-0.7 -3.9,-2.65 46.85,-6.55 85.75,-61.05 m -266.7,0 q 38.9,54.5 85.75,61.05 -1.4,1.95 -3.9,2.65 l -11.15,0.45 q -27.15,-2 -43.45,-15.6 -17.15,-14.6 -23.8,-33.9 -2.4,-7 -3.45,-14.65"
         id="path185" />
      <path
         stroke="none"
         fill="#bd7841"
         d="m 1159.5,452.7 -10,-0.7 -10,0.7 q -20.15,2.95 -35.25,18 -18.05,18.1 -18.7,43.3 l -0.05,-2 q 0,-26.5 18.75,-45.3 18.75,-18.7 45.25,-18.7 26.5,0 45.25,18.7 18.75,18.8 18.75,45.3 v 2 q -0.7,-25.2 -18.75,-43.3 -15.1,-15.05 -35.25,-18"
         id="path186" />
      <path
         stroke="none"
         fill="#aa6c3b"
         d="m 1159.5,452.7 q -0.7,50.15 20.05,88.55 h -60.1 q 20.75,-38.4 20.05,-88.55 l 10,-0.7 10,0.7"
         id="path187" />
      <path
         stroke="none"
         fill="#a16639"
         d="m 1159.5,452.7 q 20.15,2.95 35.25,18 18.05,18.1 18.75,43.3 -0.4,14.9 -6.85,27.25 -4.5,8.6 -11.9,15.95 -18.75,18.8 -45.25,18.8 -26.5,0 -45.25,-18.8 -18.05,-18 -18.7,-43.2 0.65,-25.2 18.7,-43.3 15.1,-15.05 35.25,-18 0.7,50.15 -20.05,88.55 h 60.1 q -20.75,-38.4 -20.05,-88.55"
         id="path188" />
      <path
         stroke="none"
         fill="#bd7841"
         d="m 1128.5,451.2 v -3.75 q 0,-2.8 1.95,-4.8 1.95,-2 4.75,-2 h 28.6 q 2.75,0 4.7,2 2,2 2,4.8 v 3.75 q -0.05,-1.25 -0.5,-2.35 -0.5,-1.2 -1.5,-2.2 -1.95,-2 -4.7,-2 h -28.6 q -2.8,0 -4.75,2 -0.95,1 -1.45,2.15 -0.45,1.1 -0.5,2.4"
         id="path189" />
      <path
         stroke="none"
         fill="#aa6c3b"
         d="m 1128.5,451.2 q 0.05,-1.3 0.5,-2.4 0.5,-1.15 1.45,-2.15 1.95,-2 4.75,-2 h 28.6 q 2.75,0 4.7,2 1,1 1.5,2.2 0.45,1.1 0.5,2.35 v 11.9 q -0.1,2.7 -2,4.55 l -4.3,3.55 q -14.7,10 -29.15,0.15 -2.65,-1.7 -4.6,-3.7 -1.85,-1.85 -1.95,-4.55 v -11.9"
         id="path190" />
      <path
         stroke="none"
         fill="#b67340"
         d="M 1112.05,543.9 1112,542 v -1 q 0.4,-12.6 10.95,-21.65 11,-9.35 26.55,-9.35 15.5,0 26.5,9.35 10.55,9.05 11,21.65 v 1 l -0.05,1.9 Q 1186.1,532 1176,523.35 1165,514 1149.5,514 q -15.55,0 -26.55,9.35 -10.1,8.65 -10.9,20.55"
         id="path191" />
      <path
         stroke="none"
         fill="#8e5a32"
         d="m 1186.95,543.9 q -0.75,12.05 -10.95,20.7 -11,9.4 -26.5,9.4 -15.55,0 -26.55,-9.4 -10.15,-8.7 -10.9,-20.7 0.8,-11.9 10.9,-20.55 11,-9.35 26.55,-9.35 15.5,0 26.5,9.35 10.1,8.65 10.95,20.55 m -53.05,-9.5 q 1.5,1.4 3.55,1.4 2.15,0 3.65,-1.5 1.5,-1.5 1.5,-3.65 0,-1.1 -0.35,-2 l -1.05,-1.55 -0.15,-0.15 q -2.55,-2.55 -5.4,-3.4 l -0.2,-0.05 q -2.2,-0.65 -3.55,0.05 -0.5,0.2 -0.9,0.6 l -0.6,0.85 q -0.65,1.25 -0.2,3.15 l 0.1,0.5 0.45,1.3 q 0.95,2.25 3,4.3 l 0.15,0.15 m 34.1,-10.25 -0.85,-0.6 q -1.4,-0.7 -3.6,-0.05 l -0.25,0.1 q -2.85,0.85 -5.35,3.35 l -0.15,0.15 q -0.65,0.7 -1,1.55 -0.4,0.9 -0.4,2 0,2.15 1.5,3.65 1.5,1.5 3.65,1.5 2.05,0 3.55,-1.4 l 0.15,-0.15 q 2.05,-2.05 3,-4.3 l 0.45,-1.3 0.15,-0.5 q 0.4,-1.9 -0.25,-3.15 l -0.6,-0.85"
         id="path192" />
      <path
         stroke="none"
         fill="#704627"
         d="m 1168,524.15 0.6,0.85 q 0.65,1.25 0.25,3.15 l -0.15,0.5 -0.45,1.3 q -0.95,2.25 -3,4.3 l -0.15,0.15 q -1.5,1.4 -3.55,1.4 -2.15,0 -3.65,-1.5 -1.5,-1.5 -1.5,-3.65 0,-1.1 0.4,-2 0.35,-0.85 1,-1.55 l 0.15,-0.15 q 2.5,-2.5 5.35,-3.35 l 0.25,-0.1 q 2.2,-0.65 3.6,0.05 l 0.85,0.6 m -34.1,10.25 -0.15,-0.15 q -2.05,-2.05 -3,-4.3 l -0.45,-1.3 -0.1,-0.5 q -0.45,-1.9 0.2,-3.15 l 0.6,-0.85 q 0.4,-0.4 0.9,-0.6 1.35,-0.7 3.55,-0.05 l 0.2,0.05 q 2.85,0.85 5.4,3.4 l 0.15,0.15 1.05,1.55 q 0.35,0.9 0.35,2 0,2.15 -1.5,3.65 -1.5,1.5 -3.65,1.5 -2.05,0 -3.55,-1.4"
         id="path193" />
      <path
         stroke="none"
         fill="#ffffff"
         d="m 1193.25,494.75 q 0,-3.6 -2.5,-6.15 -2.5,-2.5 -6.15,-2.5 -3.55,0 -6.15,2.5 -2.5,2.55 -2.5,6.15 0,3.6 2.5,6.05 2.6,2.55 6.15,2.55 3.65,0 6.15,-2.55 2.5,-2.45 2.5,-6.05 m 4.75,-0.2 q 0,5.15 -3.65,8.75 -3.65,3.7 -8.85,3.7 -5.1,0 -8.8,-3.7 -3.65,-3.6 -3.65,-8.75 0,-5.2 3.65,-8.85 3.7,-3.65 8.8,-3.65 5.2,0 8.85,3.65 3.65,3.65 3.65,8.85 m -97,0 q 0,-5.2 3.65,-8.85 3.65,-3.65 8.85,-3.65 5.1,0 8.8,3.65 3.65,3.65 3.65,8.85 0,5.15 -3.65,8.75 -3.7,3.7 -8.8,3.7 -5.2,0 -8.85,-3.7 -3.65,-3.6 -3.65,-8.75 m 4.7,0.2 q 0,3.6 2.55,6.05 2.5,2.55 6.15,2.55 3.55,0 6.1,-2.55 2.55,-2.45 2.55,-6.05 0,-3.6 -2.55,-6.15 -2.55,-2.5 -6.1,-2.5 -3.65,0 -6.15,2.5 -2.55,2.55 -2.55,6.15"
         id="path194" />
      <path
         stroke="none"
         fill="#5b5b5b"
         d="m 1105.7,494.75 q 0,-3.6 2.55,-6.15 2.5,-2.5 6.15,-2.5 3.55,0 6.1,2.5 2.55,2.55 2.55,6.15 0,3.6 -2.55,6.05 -2.55,2.55 -6.1,2.55 -3.65,0 -6.15,-2.55 -2.55,-2.45 -2.55,-6.05 m 87.55,0 q 0,3.6 -2.5,6.05 -2.5,2.55 -6.15,2.55 -3.55,0 -6.15,-2.55 -2.5,-2.45 -2.5,-6.05 0,-3.6 2.5,-6.15 2.6,-2.5 6.15,-2.5 3.65,0 6.15,2.5 2.5,2.55 2.5,6.15"
         id="path195" />
    </g>
  </g>
</svg>
