<?xml version="1.0" encoding="UTF-8" standalone="no"?>
<svg
   version="1.1"
   id="svg386"
   width="145.28076"
   height="161.99725"
   xmlns="http://www.w3.org/2000/svg"
   xmlns:svg="http://www.w3.org/2000/svg">
  <defs
     id="defs1" />
  <g
     id="g386"
     transform="translate(-565.22437,-610.5)">
    <g
       id="g404">
      <path
         stroke="none"
         fill="#2d4d7b"
         d="m 652.6,635.15 h 0.1 l 0.9,0.2 h 0.2 q 7.25,1.75 13.95,5.1 9.9,4.9 18.35,13.35 17.6,17.6 20,41.5 v 0.05 l 0.35,5.5 v 0.15 1.95 1.3 0.4 0.2 0.45 l -0.1,1.8 v 0.2 l -0.05,0.4 v 0.3 l -0.1,1.3 v 0.05 q -1,12.15 -5.9,22.7 6.8,8.05 9.15,16.95 l 0.05,0.05 q 1.4,5.3 0.85,9.5 -0.7,5.6 -4.45,9.35 l -2.85,2.25 -0.2,0.1 -0.9,0.5 q -5.8,3.1 -14.85,0.7 -7.8,-2.05 -14.95,-7.6 l 0.05,0.05 -0.6,-0.45 q -15.5,9 -34.65,9 -18.55,0 -33.5,-8.45 l -0.75,0.6 h -0.05 q -6.75,4.9 -14,6.85 -7.8,2.05 -13.05,0.05 h -0.1 q -1.4,-0.5 -2.6,-1.25 h -0.05 q -1.6,-0.95 -3,-2.35 -3.8,-3.75 -4.45,-9.35 -0.6,-4.2 0.85,-9.5 V 749 q 2.15,-8.05 8.1,-15.5 -5.5,-11.15 -6.6,-24.05 l -0.15,-2 -0.1,-2 v -0.1 l -0.05,-1.1 v -1.3 l 0.05,-2.05 q 0.7,-27.5 20.3,-47.1 14.9,-14.9 34.35,-18.85 h 0.05 l 0.9,-0.2 1.7,-0.3 h -0.1 l 5.25,-0.65 1.9,-17.8 v -0.05 q 0.25,-2.4 1.95,-3.9 l 0.3,-0.25 0.85,-0.55 0.15,-0.05 q 1.25,-0.7 2.8,-0.7 1.5,0 2.85,0.7 l 0.45,0.25 0.85,0.6 q 1.75,1.65 1.95,4.15 l 1.9,17.8 5.4,0.85 h 0.1 l 1.2,0.3"
         id="path223" />
      <path
         stroke="none"
         fill="#5a9bf3"
         d="m 702.45,701 -0.2,0.15 -0.15,-1.45 q -2.25,-22.5 -18.85,-39.1 -7.95,-7.95 -17.3,-12.6 -6.25,-3.1 -13.1,-4.75 l -2.35,-0.5 q -6.5,-1.3 -13.55,-1.3 l -11.6,0.95 -2.4,0.45 q -18.3,3.75 -32.35,17.75 -17.05,17.1 -18.9,40.55 L 571.5,701 q 0.65,-25.9 19.1,-44.4 14.05,-14 32.35,-17.75 l 1.05,-0.2 1.35,-0.25 11.6,-0.95 q 7.05,0 13.55,1.3 l 1.3,0.3 1.05,0.2 q 6.85,1.65 13.1,4.75 9.35,4.65 17.3,12.6 16.6,16.6 18.85,39.1 l 0.35,5.3"
         id="path224" />
      <path
         stroke="none"
         fill="#528cdb"
         d="m 702.45,701 v 1.95 1.3 0.4 0.4 l -0.1,1.8 -0.05,0.85 -0.1,1.3 q -1.05,12.8 -6.7,23.75 l -2.95,5.15 -0.8,1.2 q -3.65,5.3 -8.5,10.15 l -2,1.95 q -4.45,4.15 -9.3,7.3 -15.45,9.95 -35,9.95 -18.9,0 -33.9,-9.3 -5.45,-3.35 -10.4,-7.9 l -2.05,-2 q -4,-4 -7.1,-8.3 l -1.3,-1.85 -3.1,-5.1 q -6.25,-11.4 -7.4,-24.9 V 709 l -0.1,-1.75 -0.1,-2 v -0.1 l -0.05,-0.9 v -1.3 l 0.05,-1.95 0.2,0.15 q 1.85,-23.45 18.9,-40.55 14.05,-14 32.35,-17.75 l 2.4,-0.45 11.6,-0.95 q 7.05,0 13.55,1.3 l 2.35,0.5 q 6.85,1.65 13.1,4.75 9.35,4.65 17.3,12.6 16.6,16.6 18.85,39.1 l 0.15,1.45 0.2,-0.15 m -78.1,-31.3 q 0,-1.95 -1.4,-3.35 -1.4,-1.4 -3.35,-1.4 -1.95,0 -3.35,1.4 -1.4,1.4 -1.4,3.35 0,1.95 1.4,3.35 1.4,1.4 3.35,1.4 1.95,0 3.35,-1.4 1.4,-1.4 1.4,-3.35 M 613.2,657.75 q 0,-1.45 -1.05,-2.5 -1.05,-1.05 -2.5,-1.05 -1.45,0 -2.5,1.05 -1.05,1.05 -1.05,2.5 0,1.45 1.05,2.5 1.05,1.05 2.5,1.05 1.45,0 2.5,-1.05 1.05,-1.05 1.05,-2.5 m -2.7,14.6 q 0,-2.35 -1.7,-4.05 -1.65,-1.65 -4,-1.65 -2.35,0 -4.05,1.65 -1.65,1.7 -1.65,4.05 0,2.35 1.65,4 1.7,1.7 4.05,1.7 2.35,0 4,-1.7 1.7,-1.65 1.7,-4 m 47.65,80.85 q -0.6,-2.3 -2.7,-3.45 -2,-1.15 -4.25,-0.55 -2.3,0.6 -3.55,2.65 -1.1,2 -0.5,4.3 0.6,2.25 2.6,3.45 2.1,1.2 4.4,0.6 2.25,-0.6 3.4,-2.7 1.2,-2.05 0.6,-4.3 m 12.65,-6.1 q -0.5,-1.9 -2.2,-2.9 -1.7,-1 -3.55,-0.5 -1.9,0.5 -2.9,2.25 -1,1.7 -0.5,3.6 0.55,1.85 2.25,2.85 1.7,0.95 3.6,0.45 1.85,-0.5 2.85,-2.2 1,-1.7 0.45,-3.55 M 657,738.4 q -0.4,-1.4 -1.65,-2.15 -1.35,-0.75 -2.75,-0.35 -1.4,0.35 -2.1,1.65 -0.75,1.3 -0.35,2.7 0.35,1.4 1.65,2.15 1.25,0.7 2.65,0.35 1.4,-0.4 2.2,-1.65 0.7,-1.3 0.35,-2.7"
         id="path225" />
      <path
         stroke="none"
         fill="#406eaf"
         d="m 582.2,739.1 1.3,1.85 q 3.1,4.3 7.1,8.3 l 2.05,2 q 4.95,4.55 10.4,7.9 l -0.85,0.7 -1.9,1.5 q -6.1,4.45 -12.7,6.2 -6.4,1.7 -10.75,0.15 -1.05,-0.35 -1.95,-0.9 -2.1,-3.6 -1.55,-8.75 0.2,-1.9 0.75,-4 1.85,-6.85 6.65,-13.2 l 1.45,-1.75 m 89.75,19.4 q 4.85,-3.15 9.3,-7.3 l 2,-1.95 q 4.85,-4.85 8.5,-10.15 l 0.8,-1.2 1.4,1.7 q 5.6,6.9 7.65,14.45 l 0.75,4 q 0.55,5.2 -1.55,8.75 l -0.65,0.35 q -4.7,2.35 -12.05,0.4 -7.05,-1.85 -13.5,-6.85 l -1.9,-1.55 -0.75,-0.65"
         id="path226" />
      <path
         stroke="none"
         fill="#4475bb"
         d="m 579.1,734 3.1,5.1 -1.45,1.75 q -4.8,6.35 -6.65,13.2 -0.55,2.1 -0.75,4 -0.55,5.15 1.55,8.75 -1.2,-0.7 -2.25,-1.75 -2.8,-2.8 -3.3,-7 -0.45,-3.5 0.75,-8 2.05,-7.55 7.7,-14.5 l 1.3,-1.55 m 113.45,3.9 2.95,-5.15 1.3,1.4 q 6.55,7.55 8.8,15.9 1.2,4.5 0.75,8 -0.5,4.2 -3.3,7 l -2.25,1.75 q 2.1,-3.55 1.55,-8.75 l -0.75,-4 q -2.05,-7.55 -7.65,-14.45 l -1.4,-1.7"
         id="path227" />
      <path
         stroke="none"
         fill="#4a7fc6"
         d="m 657,738.4 q 0.35,1.4 -0.35,2.7 -0.8,1.25 -2.2,1.65 -1.4,0.35 -2.65,-0.35 -1.3,-0.75 -1.65,-2.15 -0.4,-1.4 0.35,-2.7 0.7,-1.3 2.1,-1.65 1.4,-0.4 2.75,0.35 1.25,0.75 1.65,2.15 m 13.8,8.7 q 0.55,1.85 -0.45,3.55 -1,1.7 -2.85,2.2 -1.9,0.5 -3.6,-0.45 -1.7,-1 -2.25,-2.85 -0.5,-1.9 0.5,-3.6 1,-1.75 2.9,-2.25 1.85,-0.5 3.55,0.5 1.7,1 2.2,2.9 m -12.65,6.1 q 0.6,2.25 -0.6,4.3 -1.15,2.1 -3.4,2.7 -2.3,0.6 -4.4,-0.6 -2,-1.2 -2.6,-3.45 -0.6,-2.3 0.5,-4.3 1.25,-2.05 3.55,-2.65 2.25,-0.6 4.25,0.55 2.1,1.15 2.7,3.45 M 610.5,672.35 q 0,2.35 -1.7,4 -1.65,1.7 -4,1.7 -2.35,0 -4.05,-1.7 -1.65,-1.65 -1.65,-4 0,-2.35 1.65,-4.05 1.7,-1.65 4.05,-1.65 2.35,0 4,1.65 1.7,1.7 1.7,4.05 m 2.7,-14.6 q 0,1.45 -1.05,2.5 -1.05,1.05 -2.5,1.05 -1.45,0 -2.5,-1.05 -1.05,-1.05 -1.05,-2.5 0,-1.45 1.05,-2.5 1.05,-1.05 2.5,-1.05 1.45,0 2.5,1.05 1.05,1.05 1.05,2.5 m 11.15,11.95 q 0,1.95 -1.4,3.35 -1.4,1.4 -3.35,1.4 -1.95,0 -3.35,-1.4 -1.4,-1.4 -1.4,-3.35 0,-1.95 1.4,-3.35 1.4,-1.4 3.35,-1.4 1.95,0 3.35,1.4 1.4,1.4 1.4,3.35"
         id="path228" />
      <path
         stroke="none"
         fill="#5a9bf3"
         d="m 680.2,688.6 q -3.8,-0.95 -7.2,1 -3.5,2 -4.5,5.8 -1.05,3.8 0.95,7.3 1.95,3.35 5.75,4.35 3.85,1.05 7.3,-0.85 3.4,-2.05 4.45,-5.85 1,-3.85 -0.95,-7.25 -1.95,-3.4 -5.8,-4.5 m 10.7,14 -0.2,0.45 q -1.6,5.25 -6.4,8.1 -5,2.9 -10.6,1.4 -5.5,-1.5 -8.4,-6.45 -2.8,-4.9 -1.35,-10.25 l -0.05,-0.4 q 2.65,-9.85 8.5,-15.75 5.75,-5.9 11.35,-4.4 5.5,1.45 7.6,9.5 2,7.95 -0.45,17.8 m -95.4,-14 q -3.85,1.1 -5.8,4.5 -1.95,3.4 -0.95,7.25 1.05,3.8 4.45,5.85 3.45,1.9 7.3,0.85 3.8,-1 5.75,-4.35 2,-3.5 0.95,-7.3 -1,-3.8 -4.5,-5.8 -3.4,-1.95 -7.2,-1 m -10.7,14 q -2.45,-9.85 -0.45,-17.8 2.1,-8.05 7.6,-9.5 5.6,-1.5 11.35,4.4 5.85,5.9 8.5,15.75 l -0.05,0.4 q 1.45,5.35 -1.35,10.25 -2.9,4.95 -8.4,6.45 -5.6,1.5 -10.6,-1.4 -4.8,-2.85 -6.4,-8.1 l -0.2,-0.45"
         id="path229" />
      <path
         stroke="none"
         fill="#ffffff"
         d="m 677.3,692.3 -0.6,-0.1 q -2,-0.3 -3.85,0.75 -2.15,1.25 -2.75,3.6 -0.7,2.45 0.6,4.65 1,1.9 2.95,2.6 l 0.55,0.15 q 2.45,0.65 4.6,-0.6 2.2,-1.3 2.8,-3.65 0.65,-2.45 -0.65,-4.65 -1.2,-2.05 -3.65,-2.75 m 2.9,-3.7 q 3.85,1.1 5.8,4.5 1.95,3.4 0.95,7.25 -1.05,3.8 -4.45,5.85 -3.45,1.9 -7.3,0.85 -3.8,-1 -5.75,-4.35 -2,-3.5 -0.95,-7.3 1,-3.8 4.5,-5.8 3.4,-1.95 7.2,-1 m -84.7,0 q 3.8,-0.95 7.2,1 3.5,2 4.5,5.8 1.05,3.8 -0.95,7.3 -1.95,3.35 -5.75,4.35 -3.85,1.05 -7.3,-0.85 -3.4,-2.05 -4.45,-5.85 -1,-3.85 0.95,-7.25 1.95,-3.4 5.8,-4.5 m 2.9,3.7 q -2.45,0.7 -3.65,2.75 -1.3,2.2 -0.65,4.65 0.6,2.35 2.8,3.65 2.15,1.25 4.6,0.6 l 0.55,-0.15 q 1.95,-0.7 2.95,-2.6 1.3,-2.2 0.6,-4.65 -0.6,-2.35 -2.75,-3.6 Q 601,691.9 599,692.2 l -0.6,0.1"
         id="path230" />
      <path
         stroke="none"
         fill="#5b5b5b"
         d="m 598.4,692.3 0.6,-0.1 q 2,-0.3 3.85,0.75 2.15,1.25 2.75,3.6 0.7,2.45 -0.6,4.65 -1,1.9 -2.95,2.6 l -0.55,0.15 q -2.45,0.65 -4.6,-0.6 -2.2,-1.3 -2.8,-3.65 -0.65,-2.45 0.65,-4.65 1.2,-2.05 3.65,-2.75 m 78.9,0 q 2.45,0.7 3.65,2.75 1.3,2.2 0.65,4.65 -0.6,2.35 -2.8,3.65 -2.15,1.25 -4.6,0.6 l -0.55,-0.15 q -1.95,-0.7 -2.95,-2.6 -1.3,-2.2 -0.6,-4.65 0.6,-2.35 2.75,-3.6 1.85,-1.05 3.85,-0.75 l 0.6,0.1"
         id="path231" />
      <path
         stroke="none"
         fill="#fffcf5"
         d="m 632.25,650.2 3.55,-33.8 q 0.1,-0.85 0.7,-1.4 l 0.4,-0.25 1,-0.25 1.05,0.25 0.35,0.25 h 0.05 q 0.6,0.55 0.65,1.4 l 3.6,33.6 -6.05,0.75 -5.3,-0.55 m 11.8,3.7 1.7,16.2 q -2.2,2.15 -8.2,2.2 -5.45,0.05 -7.5,-1.85 l 1.75,-16.3 q 2.1,0.7 5.75,0.65 4.1,-0.05 6.5,-0.9 m 2.15,20.45 0.75,7.05 q -0.9,5.3 -9.4,5.45 -7.95,0.1 -8.7,-5.05 l 0.75,-7.05 q 1.85,2.4 7.95,2.3 6.65,-0.1 8.65,-2.7"
         id="path232" />
      <path
         stroke="none"
         fill="#f0ede7"
         d="m 646.2,674.35 q -2,2.6 -8.65,2.7 -6.1,0.1 -7.95,-2.3 l 0.45,-4.3 q 2.05,1.9 7.5,1.85 6,-0.05 8.2,-2.2 l 0.45,4.25 m -2.6,-24.35 0.45,3.9 q -2.4,0.85 -6.5,0.9 -3.65,0.05 -5.75,-0.65 l 0.45,-3.95 5.3,0.55 6.05,-0.75 m 3.35,31.4 0.1,0.85 q 0.25,8.7 -9.5,8.9 -9.35,0.2 -8.8,-8.9 l 0.1,-0.45 q 0.75,5.15 8.7,5.05 8.5,-0.15 9.4,-5.45"
         id="path233" />
      <path
         stroke="none"
         fill="#e7e7e7"
         d="m 621.15,710.9 q -3.25,7.25 0,16.35 l -2.6,-0.85 q -3.15,-1.1 -4.55,-4.05 -1.45,-3 -0.35,-6.05 1.05,-3.15 4.05,-4.6 1.7,-0.8 3.45,-0.8 m 34,16.35 q 2.9,-8.65 0,-16.3 l 2.4,0.6 q 3.05,1.2 4.3,4.25 1.25,3.05 0.05,6.1 -1.25,3 -4.25,4.35 l -2.5,1"
         id="path234" />
      <path
         stroke="none"
         fill="#ffffff"
         d="m 655.15,727.25 q -15.6,5.65 -34,0 -3.25,-9.1 0,-16.35 1.3,0 2.6,0.45 15.15,5.3 27.75,0.2 1.8,-0.75 3.65,-0.6 2.9,7.65 0,16.3"
         id="path235" />
    </g>
  </g>
</svg>
