<?xml version="1.0" encoding="UTF-8" standalone="no"?>
<svg
   version="1.1"
   id="svg386"
   width="145.28073"
   height="161.57587"
   xmlns="http://www.w3.org/2000/svg"
   xmlns:svg="http://www.w3.org/2000/svg">
  <defs
     id="defs1" />
  <g
     id="g386"
     transform="translate(-55.37439,-418.47144)">
    <g
       id="g398">
      <path
         stroke="none"
         fill="#233b43"
         d="m 196.6,511.8 v 0.4 0.2 0.45 l -0.1,1.8 v 0.2 l -0.05,0.4 v 0.3 l -0.1,1.3 v 0.05 q -1,12.15 -5.9,22.7 6.8,8.05 9.15,16.95 l 0.05,0.05 q 1.4,5.3 0.85,9.5 -0.7,5.6 -4.45,9.35 l -2.85,2.25 -0.2,0.1 -0.9,0.5 q -5.8,3.1 -14.85,0.7 -7.8,-2.05 -14.95,-7.6 l 0.05,0.05 -0.6,-0.45 q -15.5,9 -34.65,9 -18.55,0 -33.5,-8.45 l -0.75,0.6 H 92.8 q -6.75,4.9 -14,6.85 -7.8,2.05 -13.05,0.05 h -0.1 l -2.6,-1.25 H 63 l -3,-2.35 q -3.8,-3.75 -4.45,-9.35 -0.6,-4.2 0.85,-9.5 v -0.05 q 2.15,-8.05 8.1,-15.5 Q 59,529.9 57.9,517 l -0.15,-2 -0.1,-2 v -0.1 l -0.05,-1.1 v -1.3 l 0.05,-2.05 q 0.7,-27.5 20.3,-47.1 13.95,-13.95 31.85,-18.3 1.9,-7.6 4.75,-13.2 v 0.05 q 5.9,-12 13.5,-11.4 7.55,-0.6 13.5,11.4 2.8,5.7 4.8,13.65 6,1.65 11.55,4.45 9.9,4.9 18.35,13.35 17.6,17.6 20,41.5 v 0.05 l 0.35,5.5 v 0.15 1.95 1.3"
         id="path126" />
      <path
         stroke="none"
         fill="#c3dce9"
         d="m 93.2,566.7 q -5.45,-3.35 -10.4,-7.9 l -2.05,-2 q -4,-4 -7.1,-8.3 l -1.3,-1.85 -3.1,-5.1 q -6.25,-11.4 -7.4,-24.9 v -0.1 l -0.1,-1.75 -0.1,-2 v -0.1 -0.15 l 0.2,0.15 0.4,0.2 0.6,0.35 0.6,0.35 q 26.35,15.05 63.65,15.05 37.3,0 63.65,-15.05 l 1.25,-0.7 0.4,-0.2 0.2,-0.1 -0.1,1.8 -0.05,0.85 -0.1,1.3 q -1.05,12.8 -6.7,23.75 l -2.95,5.15 -0.8,1.2 q -3.65,5.3 -8.5,10.15 l -2,1.95 q -4.45,4.15 -9.3,7.3 -15.45,9.95 -35,9.95 -18.9,0 -33.9,-9.3"
         id="path127" />
      <path
         stroke="none"
         fill="#d5f0ff"
         d="m 61.85,508.7 0.4,0.2 0.6,0.35 0.6,0.35 q 26.35,15.05 63.65,15.05 37.3,0 63.65,-15.05 l 1.25,-0.7 0.4,-0.2 0.2,-0.15 v 1.95 1.3 0.4 0.4 l -0.2,0.1 -0.4,0.2 -1.25,0.7 q -26.35,15.05 -63.65,15.05 -37.3,0 -63.65,-15.05 l -0.6,-0.35 -0.6,-0.35 -0.4,-0.2 -0.2,-0.15 v 0.15 l -0.05,-0.9 v -1.3 l 0.05,-1.95 0.2,0.15"
         id="path128" />
      <path
         stroke="none"
         fill="#365a66"
         d="m 61.85,508.7 q 1.85,-23.45 18.9,-40.55 14.05,-14 32.35,-17.75 l 2.4,-0.45 11.6,-0.95 q 7.05,0 13.55,1.3 l 2.35,0.5 q 6.85,1.65 13.1,4.75 9.35,4.65 17.3,12.6 16.6,16.6 18.85,39.1 l 0.15,1.45 -0.4,0.2 -1.25,0.7 q -26.35,15.05 -63.65,15.05 -37.3,0 -63.65,-15.05 l -0.6,-0.35 -0.6,-0.35 -0.4,-0.2"
         id="path129" />
      <path
         stroke="none"
         fill="#48798a"
         d="m 61.85,508.7 -0.2,-0.15 q 0.65,-25.9 19.1,-44.4 14.05,-14 32.35,-17.75 l 1.05,-0.2 1.35,-0.25 11.6,-0.95 q 7.05,0 13.55,1.3 l 1.3,0.3 1.05,0.2 q 6.85,1.65 13.1,4.75 9.35,4.65 17.3,12.6 16.6,16.6 18.85,39.1 l 0.35,5.3 -0.2,0.15 -0.15,-1.45 q -2.25,-22.5 -18.85,-39.1 -7.95,-7.95 -17.3,-12.6 -6.25,-3.1 -13.1,-4.75 l -2.35,-0.5 Q 134.15,449 127.1,449 l -11.6,0.95 -2.4,0.45 q -18.3,3.75 -32.35,17.75 -17.05,17.1 -18.9,40.55"
         id="path130" />
      <path
         stroke="none"
         fill="#39606d"
         d="m 185.65,540.3 1.3,1.4 q 6.55,7.55 8.8,15.9 1.2,4.5 0.75,8 -0.5,4.2 -3.3,7 -1.05,1.05 -2.25,1.75 2.1,-3.55 1.55,-8.75 l -0.75,-4 q -2.05,-7.55 -7.65,-14.45 l -1.4,-1.7 2.95,-5.15 M 65.05,574.35 62.8,572.6 q -2.8,-2.8 -3.3,-7 -0.45,-3.5 0.75,-8 2.05,-7.55 7.7,-14.5 l 1.3,-1.55 3.1,5.1 -1.45,1.75 q -4.8,6.35 -6.65,13.2 -0.55,2.1 -0.75,4 -0.55,5.15 1.55,8.75 m 76.9,-127.75 q -1.7,-6.25 -4,-10.95 -4.55,-9.15 -9.9,-9.15 -5.4,0 -9.95,9.15 -2.3,4.55 -3.95,10.55 l -1.05,0.2 q 1.95,-8.65 5,-14.75 4.55,-9.15 9.95,-9.15 5.35,0 9.9,9.15 3.05,6.2 5.05,15.15 l -1.05,-0.2"
         id="path131" />
      <path
         stroke="none"
         fill="#2f4e58"
         d="m 141.95,446.6 -1.3,-0.3 Q 134.15,445 127.1,445 l -11.6,0.95 -1.35,0.25 q 1.65,-6 3.95,-10.55 4.55,-9.15 9.95,-9.15 5.35,0 9.9,9.15 2.3,4.7 4,10.95 m 49,127.75 -0.65,0.35 q -4.7,2.35 -12.05,0.4 -7.05,-1.85 -13.5,-6.85 l -1.9,-1.55 -0.75,-0.65 q 4.85,-3.15 9.3,-7.3 l 2,-1.95 q 4.85,-4.85 8.5,-10.15 l 0.8,-1.2 1.4,1.7 q 5.6,6.9 7.65,14.45 l 0.75,4 q 0.55,5.2 -1.55,8.75 m -97.75,-7.65 -0.85,0.7 -1.9,1.5 q -6.1,4.45 -12.7,6.2 -6.4,1.7 -10.75,0.15 -1.05,-0.35 -1.95,-0.9 -2.1,-3.6 -1.55,-8.75 0.2,-1.9 0.75,-4 1.85,-6.85 6.65,-13.2 l 1.45,-1.75 1.3,1.85 q 3.1,4.3 7.1,8.3 l 2.05,2 q 4.95,4.55 10.4,7.9"
         id="path132" />
      <path
         stroke="none"
         fill="#ffffff"
         d="m 167.2,498.35 q -2.8,2.75 -6.75,2.75 -4,0 -6.8,-2.8 -2.75,-2.75 -2.8,-6.8 0,-3.9 2.8,-6.65 2.8,-2.85 6.75,-2.9 4,0.1 6.75,2.85 2.8,2.8 2.85,6.75 0,3.95 -2.8,6.8 m -4.35,-1.8 q 1.8,-1.8 1.8,-4.2 0,-2.55 -1.75,-4.3 -1.75,-1.75 -4.3,-1.75 -2.45,-0.05 -4.25,1.75 l -0.4,0.4 q -1.35,1.6 -1.3,3.75 0.05,2.55 1.8,4.3 1.75,1.75 4.25,1.75 2.1,0 3.7,-1.3 l 0.45,-0.4"
         id="path133" />
      <path
         stroke="none"
         fill="#5b5b5b"
         d="m 162.85,496.55 -0.45,0.4 q -1.6,1.3 -3.7,1.3 -2.5,0 -4.25,-1.75 -1.75,-1.75 -1.8,-4.3 -0.05,-2.15 1.3,-3.75 l 0.4,-0.4 q 1.8,-1.8 4.25,-1.75 2.55,0 4.3,1.75 1.75,1.75 1.75,4.3 0,2.4 -1.8,4.2"
         id="path134" />
      <path
         stroke="none"
         fill="#c3dce9"
         d="m 169.45,480.85 q 7.1,7.3 9.35,15.2 2.15,8 -1.85,12 -4.1,4.1 -12.05,1.9 -8,-2.15 -15.2,-9.4 l -0.2,-0.35 q -3.95,-3.9 -3.95,-9.55 0.05,-5.75 4.05,-9.8 4.1,-4.1 9.9,-4.1 5.55,0.05 9.55,3.8 l 0.4,0.3 m -2.25,17.5 q 2.8,-2.85 2.8,-6.8 -0.05,-3.95 -2.85,-6.75 -2.75,-2.75 -6.75,-2.85 -3.95,0.05 -6.75,2.9 -2.8,2.75 -2.8,6.65 0.05,4.05 2.8,6.8 2.8,2.8 6.8,2.8 3.95,0 6.75,-2.75"
         id="path135" />
      <path
         stroke="none"
         fill="#c3dce9"
         d="m 84.65,480.85 0.4,-0.3 q 4,-3.75 9.55,-3.8 5.8,0 9.9,4.1 4,4.05 4.05,9.8 0,5.65 -3.95,9.55 l -0.2,0.35 q -7.2,7.25 -15.2,9.4 -7.95,2.2 -12.05,-1.9 -4,-4 -1.85,-12 2.25,-7.9 9.35,-15.2 m 2.25,17.5 q 2.8,2.75 6.75,2.75 4,0 6.8,-2.8 2.75,-2.75 2.8,-6.8 0,-3.9 -2.8,-6.65 -2.8,-2.85 -6.75,-2.9 -4,0.1 -6.75,2.85 -2.8,2.8 -2.85,6.75 0,3.95 2.8,6.8"
         id="path136" />
      <path
         stroke="none"
         fill="#ffffff"
         d="m 86.9,498.35 q -2.8,-2.85 -2.8,-6.8 0.05,-3.95 2.85,-6.75 2.75,-2.75 6.75,-2.85 3.95,0.05 6.75,2.9 2.8,2.75 2.8,6.65 -0.05,4.05 -2.8,6.8 -2.8,2.8 -6.8,2.8 -3.95,0 -6.75,-2.75 m 4.35,-1.8 0.45,0.4 q 1.6,1.3 3.7,1.3 2.5,0 4.25,-1.75 1.75,-1.75 1.8,-4.3 0.05,-2.15 -1.3,-3.75 l -0.4,-0.4 q -1.8,-1.8 -4.25,-1.75 -2.55,0 -4.3,1.75 -1.75,1.75 -1.75,4.3 0,2.4 1.8,4.2"
         id="path137" />
      <path
         stroke="none"
         fill="#5b5b5b"
         d="m 91.25,496.55 q -1.8,-1.8 -1.8,-4.2 0,-2.55 1.75,-4.3 1.75,-1.75 4.3,-1.75 2.45,-0.05 4.25,1.75 l 0.4,0.4 q 1.35,1.6 1.3,3.75 -0.05,2.55 -1.8,4.3 -1.75,1.75 -4.25,1.75 -2.1,0 -3.7,-1.3 l -0.45,-0.4"
         id="path138" />
    </g>
  </g>
</svg>
