<?xml version="1.0" encoding="UTF-8" standalone="no"?>
<svg
   version="1.1"
   id="svg386"
   width="136"
   height="136"
   xmlns="http://www.w3.org/2000/svg"
   xmlns:svg="http://www.w3.org/2000/svg">
  <defs
     id="defs1" />
  <g
     id="g386"
     transform="translate(-315.95001,-1020)">
    <g
       id="g413">
      <path
         stroke="none"
         fill="#6d4526"
         d="m 432.05,1039.9 q 19.9,19.9 19.9,48.1 v 2 0.1 q -0.4,14.55 -6.2,26.9 0.55,4.05 0.15,10.05 v 0.05 q -0.85,10.1 -9.55,17.05 -5.85,4.6 -9.25,2.95 -2.75,-0.4 -4.05,-3.35 l -5.8,3.8 q -14.9,8.45 -33.3,8.45 -18.35,0 -33.2,-8.5 -3.05,-1.7 -5.85,-3.7 -1.25,2.75 -3.9,3.2 -3.4,1.75 -9.3,-2.75 l -0.05,-0.1 q -8.7,-7 -9.5,-17.1 L 322.1,1127 q -0.4,-5.85 0.2,-9.9 -5.9,-12.35 -6.3,-26.9 l -0.05,-2.2 q 0,-28.2 19.9,-48.1 19.95,-19.9 48.1,-19.9 28.2,0 48.1,19.9"
         id="path357" />
      <path
         stroke="none"
         fill="#bd7841"
         d="m 320,1090 -0.05,-2 q 0,-26.55 18.7,-45.3 18.8,-18.7 45.3,-18.7 26.55,0 45.25,18.7 18.75,18.75 18.75,45.3 v 2 q -0.7,-25.25 -18.75,-43.3 -18.7,-18.7 -45.25,-18.7 -26.5,0 -45.3,18.7 -18,18.05 -18.65,43.3"
         id="path358" />
      <path
         stroke="none"
         fill="#8e5a32"
         d="m 441.55,1116.4 q 0.8,4 0.35,10.35 -0.75,8.45 -8.05,14.25 -7.25,5.75 -7.85,-2.45 l -0.2,-2.1 3.4,-3.25 q 7.75,-7.75 12.35,-16.8 m -99.35,20.1 -0.2,1.95 q -0.6,8.2 -7.85,2.6 -7.3,-5.9 -8.05,-14.35 -0.45,-6.2 0.35,-10.2 4.5,9 12.2,16.7 l 3.55,3.3 m 35.45,-88.75 0.6,1.05 q 1.05,2.15 0.8,4.25 -0.3,2.45 -2.1,3.55 -1.8,1.05 -4.05,0.05 -2,-0.85 -3.35,-2.85 l -0.6,-1.05 q -2.55,-4.45 -3.1,-8.35 -0.55,-3.9 1.25,-4.9 1.8,-1.1 4.85,1.35 3.15,2.4 5.7,6.9 m 19.7,7.7 -0.95,1.5 q -2,3 -5,4.3 -3.4,1.45 -6.15,-0.1 -2.75,-1.6 -3.15,-5.25 -0.4,-3.3 1.2,-6.5 l 0.9,-1.55 q 3.9,-6.75 8.5,-10.4 4.7,-3.65 7.45,-2.05 2.75,1.55 1.85,7.4 -0.75,5.9 -4.65,12.65"
         id="path359" />
      <path
         stroke="none"
         fill="#a16639"
         d="m 447.95,1090 q -0.4,14.35 -6.4,26.4 -4.6,9.05 -12.35,16.8 l -3.4,3.25 -3.25,2.7 q -1.75,-9.05 -11.05,-15.8 -11.4,-8.35 -27.55,-8.35 -16.15,0 -27.6,8.35 -9.2,6.75 -10.95,15.8 l -3.2,-2.65 -3.55,-3.3 q -7.7,-7.7 -12.2,-16.7 -6.1,-12.1 -6.45,-26.5 0.65,-25.25 18.65,-43.3 18.8,-18.7 45.3,-18.7 26.55,0 45.25,18.7 18.05,18.05 18.75,43.3 m -50.6,-34.55 q 3.9,-6.75 4.65,-12.65 0.9,-5.85 -1.85,-7.4 -2.75,-1.6 -7.45,2.05 -4.6,3.65 -8.5,10.4 l -0.9,1.55 q -1.6,3.2 -1.2,6.5 0.4,3.65 3.15,5.25 2.75,1.55 6.15,0.1 3,-1.3 5,-4.3 l 0.95,-1.5 m -19.7,-7.7 q -2.55,-4.5 -5.7,-6.9 -3.05,-2.45 -4.85,-1.35 -1.8,1 -1.25,4.9 0.55,3.9 3.1,8.35 l 0.6,1.05 q 1.35,2 3.35,2.85 2.25,1 4.05,-0.05 1.8,-1.1 2.1,-3.55 0.25,-2.1 -0.8,-4.25 l -0.6,-1.05"
         id="path360" />
      <path
         stroke="none"
         fill="#ebceb7"
         d="m 422.55,1139.15 q -3.55,2.75 -7.3,4.9 -14,7.95 -31.3,7.95 -17.25,0 -31.25,-8 -3.8,-2.15 -7.3,-4.85 1.75,-9.05 10.95,-15.8 11.45,-8.35 27.6,-8.35 16.15,0 27.55,8.35 9.3,6.75 11.05,15.8 m -45.5,-5.5 q 2.85,2.85 6.9,2.85 4,0 6.85,-2.85 2.85,-2.85 2.85,-6.85 0,-1.5 -0.4,-2.85 l -0.25,-0.35 -0.4,-0.1 H 392 l -0.45,0.15 -0.2,0.45 q -0.15,2.75 -2.15,4.7 -2.2,2.2 -5.25,2.2 -3.1,0 -5.25,-2.2 -2,-1.95 -2.2,-4.7 l -0.2,-0.45 -0.45,-0.15 h -0.6 l -0.4,0.1 -0.2,0.35 q -0.4,1.35 -0.4,2.85 0,4.05 2.8,6.85 m -12.35,9.1 q 3.75,0 6.45,-2.7 l 0.9,-1.05 0.2,-0.6 -0.25,-0.65 q -0.2,-0.25 -0.55,-0.3 l -0.65,0.1 q -1.85,0.95 -4.1,0.95 -3.6,0 -6.2,-2.65 -2.1,-2.05 -2.55,-4.8 l -0.3,-0.55 -0.6,-0.3 -0.65,0.2 -0.4,0.5 q -0.4,1.3 -0.4,2.75 0,3.75 2.65,6.4 l 0.05,0.05 q 2.65,2.65 6.4,2.65 m 38.5,0 q 3.75,0 6.4,-2.65 l 0.05,-0.05 q 2.65,-2.65 2.65,-6.4 0,-1.45 -0.4,-2.75 l -0.4,-0.5 -0.65,-0.2 -0.6,0.3 -0.3,0.55 q -0.45,2.75 -2.55,4.8 -2.6,2.65 -6.2,2.65 -2.25,0 -4.1,-0.95 l -0.65,-0.1 -0.55,0.3 q -0.25,0.25 -0.25,0.65 -0.05,0.3 0.2,0.6 l 0.9,1.05 q 2.7,2.7 6.45,2.7"
         id="path361" />
      <path
         stroke="none"
         fill="#c6ad99"
         d="m 403.2,1142.75 q -3.75,0 -6.45,-2.7 l -0.9,-1.05 q -0.25,-0.3 -0.2,-0.6 0,-0.4 0.25,-0.65 l 0.55,-0.3 0.65,0.1 q 1.85,0.95 4.1,0.95 3.6,0 6.2,-2.65 2.1,-2.05 2.55,-4.8 l 0.3,-0.55 0.6,-0.3 0.65,0.2 0.4,0.5 q 0.4,1.3 0.4,2.75 0,3.75 -2.65,6.4 l -0.05,0.05 q -2.65,2.65 -6.4,2.65 m -26.15,-9.1 q -2.8,-2.8 -2.8,-6.85 0,-1.5 0.4,-2.85 l 0.2,-0.35 0.4,-0.1 h 0.6 l 0.45,0.15 0.2,0.45 q 0.2,2.75 2.2,4.7 2.15,2.2 5.25,2.2 3.05,0 5.25,-2.2 2,-1.95 2.15,-4.7 l 0.2,-0.45 0.45,-0.15 h 0.6 l 0.4,0.1 0.25,0.35 q 0.4,1.35 0.4,2.85 0,4 -2.85,6.85 -2.85,2.85 -6.85,2.85 -4.05,0 -6.9,-2.85 m -12.35,9.1 q -3.75,0 -6.4,-2.65 l -0.05,-0.05 q -2.65,-2.65 -2.65,-6.4 0,-1.45 0.4,-2.75 l 0.4,-0.5 0.65,-0.2 0.6,0.3 0.3,0.55 q 0.45,2.75 2.55,4.8 2.6,2.65 6.2,2.65 2.25,0 4.1,-0.95 l 0.65,-0.1 q 0.35,0.05 0.55,0.3 l 0.25,0.65 -0.2,0.6 -0.9,1.05 q -2.7,2.7 -6.45,2.7"
         id="path362" />
      <path
         stroke="none"
         fill="#ebceb7"
         d="m 423.2,1088.7 q 0,-4.5 -3.15,-7.7 -3.25,-3.15 -7.7,-3.15 -4.5,0 -7.7,3.15 -3.2,3.2 -3.2,7.7 0,4.55 3.2,7.7 3.2,3.2 7.7,3.2 4.45,0 7.7,-3.2 3.15,-3.15 3.15,-7.7 m 14.9,-19.4 q -0.45,1.7 -2.45,3.3 -3.7,2.85 -1.6,9.75 0.85,3 0.85,6.35 0,9.35 -6.6,15.95 -6.6,6.65 -15.95,6.65 -9.35,0 -15.95,-6.65 -6.65,-6.6 -6.65,-15.95 0,-3.25 0.8,-6.15 12.2,-15.45 47.55,-13.25 m -108.3,0 q 35.35,-2.2 47.55,13.25 0.8,2.9 0.8,6.15 0,9.35 -6.65,15.95 -6.6,6.65 -15.95,6.65 -9.35,0 -15.95,-6.65 -6.6,-6.6 -6.6,-15.95 0,-3.35 0.85,-6.35 2.1,-6.9 -1.6,-9.75 -2,-1.6 -2.45,-3.3 m 14.9,19.4 q 0,4.55 3.15,7.7 3.25,3.2 7.7,3.2 4.5,0 7.7,-3.2 3.2,-3.15 3.2,-7.7 0,-4.5 -3.2,-7.7 -3.2,-3.15 -7.7,-3.15 -4.45,0 -7.7,3.15 -3.15,3.2 -3.15,7.7"
         id="path363" />
      <path
         stroke="none"
         fill="#ffffff"
         d="m 344.7,1088.7 q 0,-4.5 3.15,-7.7 3.25,-3.15 7.7,-3.15 4.5,0 7.7,3.15 3.2,3.2 3.2,7.7 0,4.55 -3.2,7.7 -3.2,3.2 -7.7,3.2 -4.45,0 -7.7,-3.2 -3.15,-3.15 -3.15,-7.7 m 78.5,0 q 0,4.55 -3.15,7.7 -3.25,3.2 -7.7,3.2 -4.5,0 -7.7,-3.2 -3.2,-3.15 -3.2,-7.7 0,-4.5 3.2,-7.7 3.2,-3.15 7.7,-3.15 4.45,0 7.7,3.15 3.15,3.2 3.15,7.7 m -6.3,0 q 0,-2.55 -1.85,-4.35 -1.8,-1.8 -4.35,-1.8 -2.55,0 -4.45,1.8 -1.8,1.8 -1.8,4.35 0,2.6 1.8,4.45 1.9,1.8 4.45,1.8 2.55,0 4.35,-1.8 1.85,-1.85 1.85,-4.45 m -65.9,0 q 0,2.6 1.85,4.45 1.8,1.8 4.35,1.8 2.55,0 4.45,-1.8 1.8,-1.85 1.8,-4.45 0,-2.55 -1.8,-4.35 -1.9,-1.8 -4.45,-1.8 -2.55,0 -4.35,1.8 -1.85,1.8 -1.85,4.35"
         id="path364" />
      <path
         stroke="none"
         fill="#5b5b5b"
         d="m 351,1088.7 q 0,-2.55 1.85,-4.35 1.8,-1.8 4.35,-1.8 2.55,0 4.45,1.8 1.8,1.8 1.8,4.35 0,2.6 -1.8,4.45 -1.9,1.8 -4.45,1.8 -2.55,0 -4.35,-1.8 -1.85,-1.85 -1.85,-4.45 m 65.9,0 q 0,2.6 -1.85,4.45 -1.8,1.8 -4.35,1.8 -2.55,0 -4.45,-1.8 -1.8,-1.85 -1.8,-4.45 0,-2.55 1.8,-4.35 1.9,-1.8 4.45,-1.8 2.55,0 4.35,1.8 1.85,1.8 1.85,4.35"
         id="path365" />
      <path
         stroke="none"
         fill="#dec2ad"
         d="m 390.55,1082.55 q 1.5,-5.5 5.85,-9.8 5.5,-5.55 18.65,-8.45 9.2,-1.8 15.65,-0.95 6.45,0.75 7.35,4.1 0.25,0.95 0.05,1.85 -35.35,-2.2 -47.55,13.25 M 329.8,1069.3 q -0.2,-0.9 0.05,-1.85 0.9,-3.35 7.35,-4.1 6.45,-0.85 15.65,0.95 13.15,2.9 18.65,8.45 4.35,4.3 5.85,9.8 -12.2,-15.45 -47.55,-13.25"
         id="path366" />
      <path
         stroke="none"
         fill="#ff9900"
         d="m 371.65,1103.4 q -0.9,-0.7 -1.2,-1.55 0.65,-4.2 3.8,-7.45 l 1.6,-1.35 q 3.5,-2.6 8.1,-2.6 4.6,0 8.1,2.6 l 1.55,1.35 q 3.2,3.25 3.8,7.45 l -1.15,1.55 q -0.8,-3.05 -3.35,-5.45 l -1.4,-1.15 q -3.3,-2.3 -7.55,-2.3 -4.25,0 -7.5,2.3 l -1.5,1.15 q -2.5,2.4 -3.3,5.45"
         id="path367" />
      <path
         stroke="none"
         fill="#f39100"
         d="m 371.65,1103.4 q 0.8,-3.05 3.3,-5.45 l 1.5,-1.15 q 3.25,-2.3 7.5,-2.3 4.25,0 7.55,2.3 l 1.4,1.15 q 2.55,2.4 3.35,5.45 -1,0.8 -2.65,1.45 -4,1.65 -9.65,1.65 -5.7,0 -9.7,-1.65 l -2.6,-1.45"
         id="path368" />
      <path
         stroke="none"
         fill="#e08600"
         d="m 371.65,1103.4 2.6,1.45 q 4,1.65 9.7,1.65 5.65,0 9.65,-1.65 1.65,-0.65 2.65,-1.45 l 1.15,-1.55 0.2,2.2 -0.05,0.9 q -0.25,3.05 -3.95,5.2 -4,2.35 -9.65,2.35 -5.7,0 -9.7,-2.35 -3.65,-2.15 -3.95,-5.2 v -0.9 q 0,-1.15 0.15,-2.2 0.3,0.85 1.2,1.55"
         id="path369" />
    </g>
  </g>
</svg>
