<?xml version="1.0" encoding="UTF-8" standalone="no"?>
<svg
   version="1.1"
   id="svg386"
   width="181"
   height="136"
   xmlns="http://www.w3.org/2000/svg"
   xmlns:svg="http://www.w3.org/2000/svg">
  <defs
     id="defs1" />
  <g
     id="g386"
     transform="translate(-805.20001,-60)">
    <g
       id="g392">
      <path
         stroke="none"
         fill="#807f7f"
         d="m 986.2,109 -0.05,2.2 v 0.05 q -0.7,12.6 -9.95,21.8 -6.1,6.1 -13.75,8.45 -1.85,9.65 -6.35,18.25 -2.1,3.9 -4.75,7.6 l -0.4,0.5 q -3.2,4.25 -7.15,8.25 l -4.9,4.5 -0.05,0.05 -4.45,3.4 -5.05,3.25 -0.05,0.05 q -15.05,8.65 -33.6,8.65 -18.6,0 -33.6,-8.65 h 0.05 q -2.65,-1.5 -5.15,-3.25 v -0.05 q -2.25,-1.6 -4.35,-3.3 l -5.05,-4.65 q -8.1,-8.1 -12.85,-17.45 l -0.25,-0.6 -5.5,-16.5 q -7.65,-2.4 -13.75,-8.5 -9.3,-9.2 -10,-21.8 V 111.2 L 805.2,109 q 0,-14 10.05,-24.05 9.9,-9.95 23.95,-9.95 6.15,0 11.6,1.95 L 857,72 q 3.3,-2.35 6.8,-4.2 l -0.05,0.05 Q 878.1,60 895.7,60 q 17.6,0 32,7.8 3.45,1.85 6.7,4.15 h 0.05 q 3.2,2.25 6.25,5 5.35,-1.95 11.5,-1.95 14.05,0 24,9.95 10,10.05 10,24.05 m -157.45,31.1 -0.05,-0.2 0.05,0.3 v -0.1"
         id="path15" />
      <path
         stroke="none"
         fill="#414040"
         d="m 982.15,111 q -0.65,11.1 -8.8,19.2 -8.75,8.8 -21.15,8.8 -12.35,0 -21.25,-8.8 -8.05,-8.1 -8.7,-19.2 0.65,-11.1 8.7,-19.25 8.9,-8.75 21.25,-8.75 12.4,0 21.15,8.75 8.15,8.15 8.8,19.25 m -18.5,-2 q 0,-6.95 -5,-11.9 -4.95,-4.95 -11.85,-4.95 -7.05,0 -12,4.95 -5,4.95 -5,11.9 0,7.05 5,11.95 4.95,5.05 12,5.05 6.9,0 11.85,-5.05 5,-4.9 5,-11.95 m -135.9,0 q 0,7.05 5,11.95 4.95,5.05 11.85,5.05 7.05,0 12,-5.05 5,-4.9 5,-11.95 0,-6.95 -5,-11.9 -4.95,-4.95 -12,-4.95 -6.9,0 -11.85,4.95 -5,4.95 -5,11.9 m -18.5,2 Q 809.9,99.9 818.05,91.75 826.8,83 839.2,83 q 12.35,0 21.25,8.75 8.05,8.15 8.7,19.25 -0.65,11.1 -8.7,19.2 -8.9,8.8 -21.25,8.8 -12.4,0 -21.15,-8.8 -8.15,-8.1 -8.8,-19.2"
         id="path16" />
      <path
         stroke="none"
         fill="#545353"
         d="m 809.25,111 -0.05,-2 q 0,-12.35 8.85,-21.25 Q 826.8,79 839.2,79 q 12.35,0 21.25,8.75 8.75,8.9 8.75,21.25 l -0.05,2 Q 868.5,99.9 860.45,91.75 851.55,83 839.2,83 q -12.4,0 -21.15,8.75 -8.15,8.15 -8.8,19.25 m 113,0 -0.05,-2 q 0,-12.35 8.75,-21.25 8.9,-8.75 21.25,-8.75 12.4,0 21.15,8.75 8.85,8.9 8.85,21.25 l -0.05,2 Q 981.5,99.9 973.35,91.75 964.6,83 952.2,83 q -12.35,0 -21.25,8.75 -8.05,8.15 -8.7,19.25"
         id="path17" />
      <path
         stroke="none"
         fill="#353434"
         d="m 963.65,109 q 0,7.05 -5,11.95 -4.95,5.05 -11.85,5.05 -7.05,0 -12,-5.05 -5,-4.9 -5,-11.95 0,-6.95 5,-11.9 4.95,-4.95 12,-4.95 6.9,0 11.85,4.95 5,4.95 5,11.9 m -135.9,0 q 0,-6.95 5,-11.9 4.95,-4.95 11.85,-4.95 7.05,0 12,4.95 5,4.95 5,11.9 0,7.05 -5,11.95 -4.95,5.05 -12,5.05 -6.9,0 -11.85,-5.05 -5,-4.9 -5,-11.95"
         id="path18" />
      <path
         stroke="none"
         fill="#ffffff"
         d="m 831.75,130 -0.05,-2 q 0,-26.55 18.75,-45.25 4.25,-4.25 8.85,-7.5 3.1,-2.2 6.35,-3.9 13.5,-7.35 30.05,-7.35 16.55,0 30.1,7.3 3.25,1.75 6.3,3.9 4.65,3.3 8.9,7.55 18.7,18.7 18.7,45.25 v 2 Q 959,104.75 941,86.75 q -4.4,-4.4 -9.2,-7.75 -3.35,-2.3 -6.85,-4.15 -2.35,9 -6.65,16.6 -9.35,16.55 -22.6,16.55 -13.25,0 -22.65,-16.55 -4.3,-7.55 -6.6,-16.55 -3.5,1.8 -6.85,4.15 -4.8,3.35 -9.15,7.7 -18.05,18 -18.7,43.25"
         id="path19" />
      <path
         stroke="none"
         fill="#f5f5f5"
         d="m 831.75,130 q 0.65,-25.25 18.7,-43.25 4.35,-4.35 9.15,-7.7 3.35,-2.35 6.85,-4.15 2.3,9 6.6,16.55 9.4,16.55 22.65,16.55 13.25,0 22.6,-16.55 4.3,-7.6 6.65,-16.6 3.5,1.85 6.85,4.15 4.8,3.35 9.2,7.75 18,18 18.7,43.25 -0.45,15.2 -7.15,27.85 -1.95,3.7 -4.45,7.15 h -0.05 q -3.15,4.3 -7.1,8.25 l -4.65,4.3 q -2.05,1.7 -4.2,3.2 l -4.8,3.1 -2.45,-2.1 Q 912.8,172 895.7,172 q -17.1,0 -29.2,9.75 l -2.4,2.1 -4.8,-3.05 -4.1,-3.15 -4.8,-4.4 q -7.6,-7.6 -12.1,-16.45 l -5.55,-16.7 v -0.2 l -0.2,-1.1 -0.05,-0.25 -0.05,-0.5 -0.1,-0.55 -0.15,-1.25 v -0.2 l -0.1,-0.6 v -0.25 l -0.05,-0.2 v -0.25 l -0.05,-0.3 -0.05,-0.65 v -0.25 l -0.05,-0.3 -0.15,-3.25"
         id="path20" />
      <path
         stroke="none"
         fill="#e5e5e5"
         d="m 927.3,183.85 q -14.15,8.15 -31.6,8.15 -17.5,0 -31.6,-8.15 l 2.4,-2.1 q 12.1,-9.75 29.2,-9.75 17.1,0 29.15,9.75 l 2.45,2.1"
         id="path21" />
      <path
         stroke="none"
         fill="#5b5b5b"
         d="m 844.35,121.95 v -0.05 q 1.65,-6 6.95,-9.05 5.4,-3.1 11.4,-1.5 5.95,1.55 9.1,6.95 3.1,5.35 1.5,11.35 v 0.05 q -1.95,7.2 -7.5,11.05 -5.65,4 -11.6,2.45 -6,-1.6 -8.9,-7.9 -2.85,-6.15 -0.95,-13.35 m 5.65,3.45 q 0,3.85 2.7,6.45 2.75,2.8 6.6,2.8 3.8,0 6.55,-2.8 2.7,-2.6 2.7,-6.45 0,-3.85 -2.7,-6.55 -2.75,-2.7 -6.55,-2.7 -3.85,0 -6.6,2.7 -2.7,2.7 -2.7,6.55 m 4.5,0.15 q 0,-2.45 1.7,-4.1 1.7,-1.7 4.1,-1.7 2.4,0 4.15,1.7 1.7,1.65 1.7,4.1 0,2.4 -1.7,4.05 -1.75,1.75 -4.15,1.75 -2.4,0 -4.1,-1.75 -1.7,-1.65 -1.7,-4.05 m 91.55,-3.6 q 1.9,7.2 -0.95,13.35 -2.9,6.3 -8.9,7.9 -5.95,1.55 -11.6,-2.45 -5.55,-3.85 -7.5,-11.05 v -0.05 q -1.6,-6 1.5,-11.35 3.15,-5.4 9.1,-6.95 6,-1.6 11.4,1.5 5.3,3.05 6.95,9.05 v 0.05 m -10.15,3.6 q 0,2.4 -1.7,4.05 -1.7,1.75 -4.1,1.75 -2.4,0 -4.15,-1.75 -1.7,-1.65 -1.7,-4.05 0,-2.45 1.7,-4.1 1.75,-1.7 4.15,-1.7 2.4,0 4.1,1.7 1.7,1.65 1.7,4.1 m 4.5,-0.15 q 0,-3.85 -2.7,-6.55 -2.75,-2.7 -6.6,-2.7 -3.8,0 -6.55,2.7 -2.7,2.7 -2.7,6.55 0,3.85 2.7,6.45 2.75,2.8 6.55,2.8 3.85,0 6.6,-2.8 2.7,-2.6 2.7,-6.45"
         id="path22" />
      <path
         stroke="none"
         fill="#ffffff"
         d="m 940.4,125.4 q 0,3.85 -2.7,6.45 -2.75,2.8 -6.6,2.8 -3.8,0 -6.55,-2.8 -2.7,-2.6 -2.7,-6.45 0,-3.85 2.7,-6.55 2.75,-2.7 6.55,-2.7 3.85,0 6.6,2.7 2.7,2.7 2.7,6.55 m -90.4,0 q 0,-3.85 2.7,-6.55 2.75,-2.7 6.6,-2.7 3.8,0 6.55,2.7 2.7,2.7 2.7,6.55 0,3.85 -2.7,6.45 -2.75,2.8 -6.55,2.8 -3.85,0 -6.6,-2.8 -2.7,-2.6 -2.7,-6.45 m 4.5,0.15 q 0,2.4 1.7,4.05 1.7,1.75 4.1,1.75 2.4,0 4.15,-1.75 1.7,-1.65 1.7,-4.05 0,-2.45 -1.7,-4.1 -1.75,-1.7 -4.15,-1.7 -2.4,0 -4.1,1.7 -1.7,1.65 -1.7,4.1 m 81.4,0 q 0,-2.45 -1.7,-4.1 -1.7,-1.7 -4.1,-1.7 -2.4,0 -4.15,1.7 -1.7,1.65 -1.7,4.1 0,2.4 1.7,4.05 1.75,1.75 4.15,1.75 2.4,0 4.1,-1.75 1.7,-1.65 1.7,-4.05"
         id="path23" />
      <path
         stroke="none"
         fill="#666666"
         d="m 882.85,136.25 -0.2,-2.35 V 133 q 0.3,-2.4 3.8,-4.1 3.85,-1.85 9.25,-1.85 5.4,0 9.25,1.85 3.45,1.7 3.8,4.1 v 0.9 l -0.2,2.35 q -0.7,-1.9 -3.6,-3.35 -3.85,-1.85 -9.25,-1.85 -5.4,0 -9.25,1.85 -2.9,1.4 -3.6,3.35"
         id="path24" />
      <path
         stroke="none"
         fill="#464646"
         d="m 900.15,146.25 0.85,1 q 0.95,0.95 2.05,1.5 1.4,0.65 3.05,0.65 3,0 5.15,-2.15 l 1.25,-1.65 0.5,-0.45 0.7,0.05 4.7,2.45 0.45,0.5 -0.05,0.65 -1.5,2.3 -1.05,1.15 q -4.25,4.2 -10.15,4.2 -5.9,0 -10.1,-4.2 l -0.3,-0.3 -0.3,0.3 q -4.25,4.2 -10.15,4.2 -5.95,0 -10.1,-4.2 l -1.05,-1.15 -1.5,-2.2 q -0.2,-0.35 -0.05,-0.65 0.05,-0.35 0.4,-0.55 l 4.6,-2.55 0.65,-0.1 q 0.35,0.1 0.55,0.45 l 1.35,1.75 q 2.15,2.15 5.15,2.15 1.65,0 3.1,-0.65 l 2.05,-1.5 0.85,-1 q 4.65,1.75 8.9,0"
         id="path25" />
      <path
         stroke="none"
         fill="#5b5b5b"
         d="m 900.15,146.25 q -4.25,1.75 -8.9,0 -2.65,-0.95 -4.8,-3.1 -2.95,-2.95 -3.6,-6.9 0.7,-1.95 3.6,-3.35 3.85,-1.85 9.25,-1.85 5.4,0 9.25,1.85 2.9,1.45 3.6,3.35 -0.65,3.95 -3.6,6.9 -2.15,2.15 -4.8,3.1"
         id="path26" />
    </g>
  </g>
</svg>
