<?xml version="1.0" encoding="UTF-8" standalone="no"?>
<svg
   version="1.1"
   id="svg386"
   width="136"
   height="136"
   xmlns="http://www.w3.org/2000/svg"
   xmlns:svg="http://www.w3.org/2000/svg">
  <defs
     id="defs1" />
  <g
     id="g386"
     transform="translate(-1081.5,-60)">
    <g
       id="g388">
      <path
         stroke="none"
         fill="#8a1d03"
         d="m 1149.5,60 q 28.2,0 48.1,19.9 19.9,19.9 19.9,48.1 v 2 0.1 q -0.4,14.55 -6.2,26.9 0.55,4.05 0.15,10.05 v 0.05 q -0.85,10.1 -9.55,17.05 -5.85,4.6 -9.25,2.95 -2.75,-0.4 -4.05,-3.35 l -5.8,3.8 q -14.9,8.45 -33.3,8.45 -18.35,0 -33.2,-8.5 l -5.85,-3.75 q -1.25,2.8 -3.9,3.25 -3.4,1.75 -9.3,-2.75 l -0.05,-0.1 q -8.7,-7 -9.5,-17.1 l -0.05,-0.05 q -0.4,-5.85 0.2,-9.9 -5.9,-12.35 -6.3,-26.9 l -0.05,-2.2 q 0,-28.2 19.9,-48.1 19.95,-19.9 48.1,-19.9"
         id="path1" />
      <path
         stroke="none"
         fill="#f53707"
         d="m 1213.5,130 q -0.7,-25.25 -18.75,-43.3 -18.7,-18.7 -45.25,-18.7 -26.5,0 -45.3,18.7 -18,18.05 -18.65,43.3 l -0.05,-2 q 0,-26.55 18.7,-45.3 18.8,-18.7 45.3,-18.7 26.55,0 45.25,18.7 18.75,18.75 18.75,45.3 v 2"
         id="path2" />
      <path
         stroke="none"
         fill="#d23007"
         d="m 1213.5,130 q -0.4,14.35 -6.4,26.4 -4.6,9.05 -12.35,16.8 l -3.4,3.25 q -5,4.4 -10.55,7.6 -0.95,-1.85 -2.1,-3.55 1.1,-0.55 1.55,-1.35 1.2,-2.15 -2.65,-4.95 -3.55,-2.7 -9.8,-4.35 l -0.15,-0.05 -0.35,-0.05 q -7.9,-4.8 -17.8,-4.8 -9.9,0 -17.8,4.8 l -0.35,0.05 -0.15,0.05 q -6.25,1.65 -9.8,4.35 -3.85,2.8 -2.65,4.95 0.45,0.8 1.6,1.35 -1.2,1.7 -2.1,3.5 -5.5,-3.1 -10.5,-7.5 l -3.55,-3.3 q -7.7,-7.7 -12.2,-16.7 -6.1,-12.1 -6.45,-26.5 0.65,-25.25 18.65,-43.3 18.8,-18.7 45.3,-18.7 26.55,0 45.25,18.7 18.05,18.05 18.75,43.3"
         id="path3" />
      <path
         stroke="none"
         fill="#ffcc00"
         d="m 1118.25,184 q 0.9,-1.8 2.1,-3.5 -1.15,-0.55 -1.6,-1.35 -1.2,-2.15 2.65,-4.95 3.55,-2.7 9.8,-4.35 l 0.15,-0.05 0.35,-0.05 q 7.9,-4.8 17.8,-4.8 9.9,0 17.8,4.8 l 0.35,0.05 0.15,0.05 q 6.25,1.65 9.8,4.35 3.85,2.8 2.65,4.95 -0.45,0.8 -1.55,1.35 1.15,1.7 2.1,3.55 -14,7.95 -31.3,7.95 -17.25,0 -31.25,-8"
         id="path4" />
      <path
         stroke="none"
         fill="#bb2905"
         d="m 1092,156.5 q 4.5,9 12.2,16.7 l 3.55,3.3 -0.2,1.95 q -0.6,8.2 -7.85,2.6 -7.3,-5.9 -8.05,-14.35 -0.45,-6.2 0.35,-10.2 m 99.35,19.95 3.4,-3.25 q 7.75,-7.75 12.35,-16.8 0.8,4 0.35,10.35 -0.75,8.45 -8.05,14.25 -7.25,5.75 -7.85,-2.45 l -0.2,-2.1"
         id="path5" />
      <path
         stroke="none"
         fill="#d5eef7"
         d="m 1193.25,121.4 0.15,0.55 q 3.25,12.1 0.75,21.9 -2.55,9.85 -9.4,11.7 -6.85,1.8 -14,-5.4 -7.2,-7.2 -10.45,-19.3 l -0.15,-0.55 q -1.6,-6.7 1.85,-12.6 3.6,-6.25 10.4,-8.05 6.85,-1.85 13.05,1.75 5.95,3.45 7.8,10 m -7.7,11.85 q 0,-4.4 -3.1,-7.45 -3.1,-3.05 -7.45,-3.05 -4.25,0 -7.45,3.05 -3,3.05 -3,7.45 0,4.35 3,7.35 3.2,3.15 7.45,3.15 4.35,0 7.45,-3.15 3.1,-3 3.1,-7.35 m -46.65,-2.9 -0.2,0.55 q -3.2,12.1 -10.3,19.25 -7.15,7.25 -14.05,5.45 -6.8,-1.9 -9.4,-11.7 -2.6,-9.85 0.6,-21.95 l 0.2,-0.55 q 1.9,-6.55 7.85,-10 6.2,-3.6 13.05,-1.7 6.9,1.8 10.4,8 3.5,5.95 1.85,12.65 m -25.6,2.9 q 0,4.35 3.05,7.35 3.1,3.15 7.45,3.15 4.3,0 7.45,-3.15 3.05,-3 3.05,-7.35 0,-4.4 -3.05,-7.45 -3.15,-3.05 -7.45,-3.05 -4.35,0 -7.45,3.05 -3.05,3.05 -3.05,7.45"
         id="path6" />
      <path
         stroke="none"
         fill="#ffffff"
         d="m 1113.3,133.25 q 0,-4.4 3.05,-7.45 3.1,-3.05 7.45,-3.05 4.3,0 7.45,3.05 3.05,3.05 3.05,7.45 0,4.35 -3.05,7.35 -3.15,3.15 -7.45,3.15 -4.35,0 -7.45,-3.15 -3.05,-3 -3.05,-7.35 m 66.5,-0.05 q 0,-2.8 -1.9,-4.65 -1.95,-1.95 -4.7,-1.95 -2.7,0 -4.7,1.95 -1.9,1.85 -1.9,4.65 v 0.65 q 0.2,2.25 1.9,3.9 2,1.9 4.7,1.9 2.75,0 4.7,-1.9 1.65,-1.65 1.85,-3.9 l 0.05,-0.65 m 5.75,0.05 q 0,4.35 -3.1,7.35 -3.1,3.15 -7.45,3.15 -4.25,0 -7.45,-3.15 -3,-3 -3,-7.35 0,-4.4 3,-7.45 3.2,-3.05 7.45,-3.05 4.35,0 7.45,3.05 3.1,3.05 3.1,7.45 m -66.5,-0.05 0.05,0.65 q 0.15,2.25 1.8,3.9 1.95,1.9 4.75,1.9 2.65,0 4.65,-1.9 1.75,-1.65 1.9,-3.9 l 0.05,-0.65 q 0,-2.8 -1.95,-4.65 -2,-1.95 -4.65,-1.95 -2.8,0 -4.75,1.95 -1.85,1.85 -1.85,4.65"
         id="path7" />
      <path
         stroke="none"
         fill="#5b5b5b"
         d="m 1179.8,133.2 -0.05,0.65 q -0.2,2.25 -1.85,3.9 -1.95,1.9 -4.7,1.9 -2.7,0 -4.7,-1.9 -1.7,-1.65 -1.9,-3.9 v -0.65 q 0,-2.8 1.9,-4.65 2,-1.95 4.7,-1.95 2.75,0 4.7,1.95 1.9,1.85 1.9,4.65 m -60.75,0 q 0,-2.8 1.85,-4.65 1.95,-1.95 4.75,-1.95 2.65,0 4.65,1.95 1.95,1.85 1.95,4.65 l -0.05,0.65 q -0.15,2.25 -1.9,3.9 -2,1.9 -4.65,1.9 -2.8,0 -4.75,-1.9 -1.65,-1.65 -1.8,-3.9 l -0.05,-0.65"
         id="path8" />
      <path
         stroke="none"
         fill="#61a3ff"
         d="m 1167.5,149.5 q -0.05,-1.95 -0.6,-3.8 l -0.2,-0.75 -0.05,-0.15 q -1.25,-3.8 -4.45,-6.7 -5.2,-4.95 -12.7,-4.95 -7.45,0 -12.8,4.95 -3.1,2.9 -4.35,6.7 l -0.05,0.15 -0.25,0.75 q -0.5,1.85 -0.55,3.8 V 146 q 0,-2.35 0.55,-4.5 l 0.25,-0.85 0.05,-0.15 q 1.25,-4.05 4.35,-7.2 5.35,-5.3 12.8,-5.3 7.5,0 12.7,5.3 3.2,3.15 4.45,7.2 l 0.05,0.15 0.2,0.85 q 0.6,2.15 0.6,4.5 v 3.5"
         id="path9" />
      <path
         stroke="none"
         fill="#5d9cf3"
         d="m 1167.5,149.5 v 0.4 6 0.5 l -0.1,1.45 -0.1,0.85 q -17.8,4.55 -35.6,0 l -0.1,-0.85 -0.1,-1.65 v -0.3 -6 -0.4 q 0.05,-1.95 0.55,-3.8 l 0.25,-0.75 0.05,-0.15 q 1.25,-3.8 4.35,-6.7 5.35,-4.95 12.8,-4.95 7.5,0 12.7,4.95 3.2,2.9 4.45,6.7 l 0.05,0.15 0.2,0.75 q 0.55,1.85 0.6,3.8"
         id="path10" />
      <path
         stroke="none"
         fill="#397ede"
         d="m 1166.5,161.95 q -1.3,3.7 -4.3,6.7 -5.2,5.35 -12.7,5.35 -7.45,0 -12.8,-5.35 -2.95,-3 -4.2,-6.7 17,3.85 34,0"
         id="path11" />
      <path
         stroke="none"
         fill="#3473cb"
         d="m 1166.5,161.95 q -17,3.85 -34,0 -0.55,-1.55 -0.8,-3.25 17.8,4.55 35.6,0 l -0.8,3.25"
         id="path12" />
      <path
         stroke="none"
         fill="#bb2905"
         d="m 1162.9,82.45 q 3.9,6.75 4.65,12.65 0.9,5.85 -1.85,7.4 -2.75,1.6 -7.45,-2.05 -4.6,-3.65 -8.5,-10.4 l -0.9,-1.55 q -1.6,-3.2 -1.2,-6.5 0.4,-3.65 3.15,-5.25 2.75,-1.55 6.15,-0.1 3,1.3 5,4.3 l 0.95,1.5"
         id="path13" />
      <path
         stroke="none"
         fill="#bb2905"
         d="m 1143.2,90.15 q -2.55,4.5 -5.7,6.9 -3.05,2.45 -4.85,1.35 -1.8,-1 -1.25,-4.9 0.55,-3.9 3.1,-8.35 l 0.6,-1.05 q 1.35,-2 3.35,-2.85 2.25,-1 4.05,0.05 1.8,1.1 2.1,3.55 0.25,2.1 -0.8,4.25 l -0.6,1.05"
         id="path14" />
    </g>
  </g>
</svg>
