<?xml version="1.0" encoding="UTF-8" standalone="no"?>
<svg
   version="1.1"
   id="svg386"
   width="147.09479"
   height="136"
   xmlns="http://www.w3.org/2000/svg"
   xmlns:svg="http://www.w3.org/2000/svg">
  <defs
     id="defs1" />
  <g
     id="g386"
     transform="translate(-564.81805,-60)">
    <g
       id="g391">
      <path
         stroke="none"
         fill="#1d3138"
         d="m 677.1,71.95 q 4.9,3.5 9.4,8 19.85,19.85 19.85,48.05 v 2 0.15 q -0.25,8.95 -2.6,17.15 6.05,6.75 7.65,14.55 2,10 -3.8,15.55 -5.6,5.85 -15.6,3.85 -4.1,-0.85 -7.9,-2.9 l -2.55,2.25 -0.05,0.05 -2.6,2.1 -0.25,0.2 -1.6,1.1 q -7.2,5.1 -15.3,8 -10.9,3.95 -23.4,3.95 -12.55,0 -23.45,-3.95 -8.1,-2.9 -15.25,-7.95 h 0.05 l -1.75,-1.25 -0.1,-0.05 -2.5,-2 -0.05,-0.05 -2.7,-2.4 q -3.8,2.05 -7.85,2.9 h -0.05 q -10,2 -15.55,-3.85 -5.85,-5.55 -3.8,-15.55 1.6,-8.1 8.05,-15.05 l -1.8,-5.4 -0.2,-1.2 -0.05,-0.3 -0.2,-1 v -0.2 l -0.05,-0.2 v -0.2 l -0.05,-0.2 -0.15,-1.5 -0.1,-0.5 v -0.3 l -0.05,-0.35 v -0.05 l -0.05,-0.25 -0.05,-0.55 -0.05,-0.55 -0.05,-0.55 -0.15,-3.3 -0.05,-2.2 q 0,-28.2 19.95,-48.05 4.5,-4.55 9.35,-7.95 16.9,-12 38.7,-12 21.85,0 38.7,11.95 h 0.05"
         id="path27" />
      <path
         stroke="none"
         fill="#29454f"
         d="m 704.75,174.55 q -4.3,4.3 -11.95,2.75 -7.45,-1.55 -13.85,-7.75 l -0.1,-0.1 q -3.1,-3.15 -2.25,-8.35 0.85,-5.25 5.15,-9.55 4.25,-4.25 9.5,-5.1 5.25,-0.9 8.35,2.25 l 0.1,0.1 q 6.2,6.4 7.75,13.85 1.55,7.65 -2.7,11.9 m -132.8,0 q -4.25,-4.25 -2.7,-11.9 1.55,-7.45 7.75,-13.85 l 0.1,-0.1 q 3.1,-3.15 8.35,-2.25 5.25,0.85 9.5,5.1 4.3,4.3 5.15,9.55 0.85,5.2 -2.25,8.35 l -0.1,0.1 q -6.4,6.2 -13.85,7.75 -7.65,1.55 -11.95,-2.75"
         id="path28" />
      <path
         stroke="none"
         fill="#447180"
         d="m 574.4,130 -0.05,-2 q 0,-26.55 18.75,-45.25 4.25,-4.25 8.85,-7.5 15.9,-11.25 36.4,-11.25 20.55,0 36.4,11.2 4.65,3.3 8.9,7.55 18.7,18.7 18.7,45.25 v 2 q -0.7,-25.25 -18.7,-43.25 -4.4,-4.4 -9.2,-7.75 -15.75,-11 -36.1,-11 -20.3,0 -36.1,11.05 -4.8,3.35 -9.15,7.7 -18.05,18 -18.7,43.25"
         id="path29" />
      <path
         stroke="none"
         fill="#365a66"
         d="m 574.4,130 q 0.65,-25.25 18.7,-43.25 4.35,-4.35 9.15,-7.7 15.8,-11.05 36.1,-11.05 20.35,0 36.1,11 4.8,3.35 9.2,7.75 18,18 18.7,43.25 -0.45,15.2 -7.15,27.85 -1.95,3.7 -4.45,7.15 h -0.05 q -3.15,4.3 -7.1,8.25 l -4.65,4.3 -2.6,2.1 -3,-2.15 q -14.5,-9.5 -35,-9.5 -20.5,0 -35,9.5 l -3,2.15 -2.5,-2 -4.8,-4.4 q -7.6,-7.6 -12.1,-16.45 l -5.55,-16.7 v -0.2 l -0.2,-1.1 -0.05,-0.25 -0.05,-0.5 -0.1,-0.55 -0.15,-1.25 v -0.2 l -0.1,-0.6 V 135.2 L 574.7,135 v -0.25 l -0.05,-0.3 -0.05,-0.65 v -0.25 l -0.05,-0.3 -0.15,-3.25 m 110.9,-11.25 q -1.85,-6.55 -7.8,-10 -6.2,-3.6 -13.05,-1.75 -6.8,1.8 -10.4,8.05 -3.45,5.9 -1.85,12.6 l 0.15,0.55 q 3.25,12.1 10.45,19.3 7.15,7.2 14,5.4 6.85,-1.85 9.4,-11.7 2.5,-9.8 -0.75,-21.9 l -0.15,-0.55 m -62.35,26.65 -0.2,2.6 0.05,1.05 q 0.3,3.5 4.55,6 4.65,2.7 11.2,2.7 6.55,0 11.15,-2.7 4.25,-2.5 4.55,-6 l 0.05,-1.05 -0.2,-2.6 q -0.75,-4.85 -4.4,-8.55 l -1.8,-1.55 q -4.05,-3.05 -9.35,-3.05 -5.3,0 -9.35,3.05 l -1.85,1.55 q -3.65,3.7 -4.4,8.55 m 2,-17.7 q 1.65,-6.7 -1.85,-12.65 -3.5,-6.2 -10.4,-8 -6.85,-1.9 -13.05,1.7 -5.95,3.45 -7.85,10 l -0.2,0.55 q -3.2,12.1 -0.6,21.95 2.6,9.8 9.4,11.7 6.9,1.8 14.05,-5.45 7.1,-7.15 10.3,-19.25 l 0.2,-0.55"
         id="path30" />
      <path
         stroke="none"
         fill="#d5eef7"
         d="m 624.95,127.7 -0.2,0.55 q -3.2,12.1 -10.3,19.25 -7.15,7.25 -14.05,5.45 -6.8,-1.9 -9.4,-11.7 -2.6,-9.85 0.6,-21.95 l 0.2,-0.55 q 1.9,-6.55 7.85,-10 6.2,-3.6 13.05,-1.7 6.9,1.8 10.4,8 3.5,5.95 1.85,12.65 m 60.35,-8.95 0.15,0.55 q 3.25,12.1 0.75,21.9 -2.55,9.85 -9.4,11.7 -6.85,1.8 -14,-5.4 -7.2,-7.2 -10.45,-19.3 l -0.15,-0.55 q -1.6,-6.7 1.85,-12.6 3.6,-6.25 10.4,-8.05 6.85,-1.85 13.05,1.75 5.95,3.45 7.8,10"
         id="path31" />
      <path
         stroke="none"
         fill="#e08600"
         d="m 654.1,145.4 0.2,2.6 -0.05,1.05 q -0.3,3.5 -4.55,6 -4.6,2.7 -11.15,2.7 -6.55,0 -11.2,-2.7 -4.25,-2.5 -4.55,-6 l -0.05,-1.05 0.2,-2.6 q 0.7,2 4.4,3.5 4.65,1.9 11.2,1.9 6.55,0 11.15,-1.9 3.7,-1.5 4.4,-3.5"
         id="path32" />
      <path
         stroke="none"
         fill="#ff9900"
         d="m 654.1,145.4 q -0.7,2 -4.4,3.5 -4.6,1.9 -11.15,1.9 -6.55,0 -11.2,-1.9 -3.7,-1.5 -4.4,-3.5 0.75,-4.85 4.4,-8.55 l 1.85,-1.55 q 4.05,-3.05 9.35,-3.05 5.3,0 9.35,3.05 l 1.8,1.55 q 3.65,3.7 4.4,8.55"
         id="path33" />
      <path
         stroke="none"
         fill="#f2f9fb"
         d="m 676.35,179.65 -1.6,1.1 q -15.9,11.25 -36.4,11.25 -20.55,0 -36.4,-11.2 l -1.6,-1.15 3,-2.15 q 14.5,-9.5 35,-9.5 20.5,0 35,9.5 l 3,2.15"
         id="path34" />
      <path
         stroke="none"
         fill="#ffffff"
         d="m 604.1,132.55 0.05,0.65 q 0.15,2.25 1.8,3.9 1.95,1.9 4.75,1.9 2.65,0 4.65,-1.9 1.75,-1.65 1.9,-3.9 l 0.05,-0.65 q 0,-2.8 -1.95,-4.65 -2,-1.95 -4.65,-1.95 -2.8,0 -4.75,1.95 -1.85,1.85 -1.85,4.65 m 73.5,-1.95 q 0,4.35 -3.1,7.35 -3.1,3.15 -7.45,3.15 -4.25,0 -7.45,-3.15 -3,-3 -3,-7.35 0,-4.4 3,-7.45 3.2,-3.05 7.45,-3.05 4.35,0 7.45,3.05 3.1,3.05 3.1,7.45 m -4.75,1.95 q 0,-2.8 -1.9,-4.65 -1.95,-1.95 -4.7,-1.95 -2.7,0 -4.7,1.95 -1.9,1.85 -1.9,4.65 v 0.65 q 0.2,2.25 1.9,3.9 2,1.9 4.7,1.9 2.75,0 4.7,-1.9 1.65,-1.65 1.85,-3.9 l 0.05,-0.65 m -73.5,-1.95 q 0,-4.4 3.05,-7.45 3.1,-3.05 7.45,-3.05 4.3,0 7.45,3.05 3.05,3.05 3.05,7.45 0,4.35 -3.05,7.35 -3.15,3.15 -7.45,3.15 -4.35,0 -7.45,-3.15 -3.05,-3 -3.05,-7.35"
         id="path35" />
      <path
         stroke="none"
         fill="#5b5b5b"
         d="m 672.85,132.55 -0.05,0.65 q -0.2,2.25 -1.85,3.9 -1.95,1.9 -4.7,1.9 -2.7,0 -4.7,-1.9 -1.7,-1.65 -1.9,-3.9 v -0.65 q 0,-2.8 1.9,-4.65 2,-1.95 4.7,-1.95 2.75,0 4.7,1.95 1.9,1.85 1.9,4.65 m -68.75,0 q 0,-2.8 1.85,-4.65 1.95,-1.95 4.75,-1.95 2.65,0 4.65,1.95 1.95,1.85 1.95,4.65 l -0.05,0.65 q -0.15,2.25 -1.9,3.9 -2,1.9 -4.65,1.9 -2.8,0 -4.75,-1.9 -1.65,-1.65 -1.8,-3.9 l -0.05,-0.65"
         id="path36" />
    </g>
  </g>
</svg>
