<?xml version="1.0" encoding="UTF-8" standalone="no"?>
<svg
   version="1.1"
   id="svg386"
   width="151.89923"
   height="136"
   xmlns="http://www.w3.org/2000/svg"
   xmlns:svg="http://www.w3.org/2000/svg">
  <defs
     id="defs1" />
  <g
     id="g386"
     transform="translate(-559.98096,-252)">
    <g
       id="g395">
      <path
         stroke="none"
         fill="#9c619c"
         d="m 670.9,261.5 1.9,1.2 q 3.6,-1.9 8.05,-3.05 h -0.05 q 9.5,-2.55 17.4,-0.35 h 0.05 q 8.35,2.35 10.55,8.25 l 0.15,0.4 0.8,2.8 q 4.05,15.2 0.4,27.6 l -0.05,0.2 -0.4,1.1 -0.05,0.15 q -2.3,6.95 -6.35,10.8 0.6,4.55 0.6,9.4 v 2 0.15 q -0.5,16.15 -7.6,29.6 -2.1,3.9 -4.75,7.6 l -0.4,0.5 q -3.2,4.25 -7.15,8.25 l -4.9,4.5 -0.05,0.05 q -2.15,1.8 -4.45,3.4 -16.9,11.95 -38.7,11.95 -21.85,0 -38.7,-11.9 v -0.05 l -4.35,-3.3 -5.05,-4.65 q -8.1,-8.1 -12.85,-17.45 l -0.25,-0.6 -5.55,-16.7 -0.2,-1.15 -0.05,-0.3 -0.2,-1 v -0.2 l -0.05,-0.2 v -0.2 l -0.05,-0.2 -0.15,-1.5 -0.1,-0.5 v -0.3 l -0.05,-0.35 v -0.05 l -0.05,-0.25 v -0.1 -0.05 l -0.05,-0.4 -0.05,-0.55 -0.05,-0.55 -0.15,-3.3 -0.05,-2.2 q 0,-4.85 0.6,-9.4 -4.1,-3.9 -6.35,-10.9 v 0.05 l -0.4,-1.2 -0.05,-0.2 q -3.65,-12.4 0.45,-27.55 v 0.05 l 0.8,-2.9 0.1,-0.35 q 2.1,-5.95 10.6,-8.25 7.9,-2.2 17.4,0.35 H 591 q 4.45,1.15 8.1,3.05 l 1.9,-1.2 h -0.05 Q 616.5,252 635.9,252 q 19.45,0 35,9.5"
         id="path85" />
      <path
         stroke="none"
         fill="#f095f0"
         d="m 664.3,278.7 q 0.1,-3.8 4,-7.9 5.05,-5.05 13.55,-7.3 8.35,-2.25 15.3,-0.35 6.2,1.75 7.95,5.95 l 0.75,2.65 q 3.75,14.05 0.45,25.5 l -0.4,1.15 q 2.2,-10.35 -1.05,-22.75 l -0.8,-2.7 q -1.7,-4.15 -7.95,-5.95 -6.95,-1.9 -15.3,0.35 -8.5,2.25 -13.55,7.35 -2,2 -2.95,4 m -98.35,19.75 -0.4,-1.2 Q 562.25,285.8 566,271.8 l 0.75,-2.7 q 1.7,-4.2 7.95,-5.9 6.95,-1.9 15.3,0.35 8.5,2.2 13.55,7.3 3.85,4.05 4,7.85 -1,-1.95 -2.95,-3.95 -5.05,-5.15 -13.55,-7.35 -8.35,-2.25 -15.3,-0.35 -6.3,1.75 -7.95,5.9 l -0.8,2.75 q -3.3,12.35 -1.05,22.75"
         id="path86" />
      <path
         stroke="none"
         fill="#d987d9"
         d="M 565.95,298.45 Q 563.7,288.05 567,275.7 l 0.8,-2.75 q 1.65,-4.15 7.95,-5.9 6.95,-1.9 15.3,0.35 8.5,2.2 13.55,7.35 1.95,2 2.95,3.95 l -0.1,1.3 -0.7,2.8 -0.85,2.9 -1.7,4.6 q -0.75,-1.6 -2.3,-3.3 -3.7,-3.7 -9.8,-5.3 -6.05,-1.65 -11.05,-0.25 -4.5,1.3 -5.7,4.35 l -0.55,1.85 q -2.7,10.1 -0.3,18.35 l 0.45,1.4 q 0.6,1.9 1.55,3.4 l -0.8,-0.3 q -6.75,-2.7 -9.75,-12.05 M 705.9,298.4 q -3.05,9.4 -9.8,12.1 l -0.75,0.25 q 0.9,-1.45 1.5,-3.4 l 0.5,-1.35 q 2.4,-8.25 -0.3,-18.35 l -0.6,-1.9 q -1.15,-3.05 -5.65,-4.35 -5.05,-1.4 -11.05,0.25 -6.1,1.65 -9.8,5.3 -1.6,1.75 -2.3,3.3 l -1.75,-4.55 -0.8,-2.95 -0.7,-2.8 -0.1,-1.25 q 0.95,-2 2.95,-4 5.05,-5.1 13.55,-7.35 8.35,-2.25 15.3,-0.35 6.25,1.8 7.95,5.95 l 0.8,2.7 q 3.25,12.4 1.05,22.75"
         id="path87" />
      <path
         stroke="none"
         fill="#c97dc9"
         d="m 695.35,310.75 -0.8,0.3 q -4.5,1.15 -9,-0.6 -4.05,-1.55 -8.05,-5.5 -5.7,-5.45 -9.3,-13.3 l -0.55,-1.4 q 0.7,-1.55 2.3,-3.3 3.7,-3.65 9.8,-5.3 6,-1.65 11.05,-0.25 4.5,1.3 5.65,4.35 l 0.6,1.9 q 2.7,10.1 0.3,18.35 l -0.5,1.35 q -0.6,1.95 -1.5,3.4 m -91.15,-20.45 -0.55,1.35 q -3.6,7.9 -9.3,13.3 -4,3.95 -8.05,5.5 -4.5,1.75 -9,0.6 l -0.8,-0.25 q -0.95,-1.5 -1.55,-3.4 L 574.5,306 q -2.4,-8.25 0.3,-18.35 l 0.55,-1.85 q 1.2,-3.05 5.7,-4.35 5,-1.4 11.05,0.25 6.1,1.6 9.8,5.3 1.55,1.7 2.3,3.3"
         id="path88" />
      <path
         stroke="none"
         fill="#ffaaff"
         d="m 571.95,322 -0.05,-2 q 0,-7.85 1.65,-15.05 3.9,-17.05 17.1,-30.2 4.25,-4.25 8.85,-7.5 l 3.55,-2.3 q 14.6,-8.95 32.85,-8.95 18.3,0 32.9,8.9 l 3.5,2.3 q 4.65,3.3 8.9,7.55 18.7,18.7 18.7,45.25 v 2 q -0.7,-25.25 -18.7,-43.25 -4.4,-4.4 -9.2,-7.75 -2.8,-1.95 -5.75,-3.55 l -3.15,2.5 q -11.25,8.05 -27.2,8.05 -15.95,0 -27.25,-8.05 l -3.1,-2.45 q -2.95,1.6 -5.75,3.55 -4.8,3.35 -9.15,7.7 -11.65,11.6 -16,26.2 -2.45,8.05 -2.7,17.05"
         id="path89" />
      <path
         stroke="none"
         fill="#ee9fee"
         d="m 571.95,322 q 0.25,-9 2.7,-17.05 4.35,-14.6 16,-26.2 4.35,-4.35 9.15,-7.7 2.8,-1.95 5.75,-3.55 l 3.1,2.45 q 11.3,8.05 27.25,8.05 15.95,0 27.2,-8.05 l 3.15,-2.5 q 2.95,1.6 5.75,3.55 4.8,3.35 9.2,7.75 18,18 18.7,43.25 -0.45,15.2 -7.15,27.85 -1.95,3.7 -4.45,7.15 h -0.05 q -3.15,4.3 -7.1,8.25 l -4.65,4.3 -4.2,3.2 Q 656.4,384 635.9,384 q -20.55,0 -36.4,-11.2 l -4.1,-3.15 -4.8,-4.4 q -7.6,-7.6 -12.1,-16.45 l -5.55,-16.7 v -0.2 l -0.2,-1.1 -0.05,-0.25 -0.05,-0.5 -0.1,-0.55 -0.15,-1.25 v -0.2 l -0.1,-0.6 v -0.25 l -0.05,-0.2 v -0.25 l -0.05,-0.3 -0.05,-0.65 v -0.25 l -0.05,-0.3 -0.15,-3.25 m 112.45,0.5 q 0,-5.2 -3.65,-8.85 -3.65,-3.65 -8.85,-3.65 -5.1,0 -8.8,3.65 -3.65,3.65 -3.65,8.85 0,5.15 3.65,8.75 3.7,3.7 8.8,3.7 5.2,0 8.85,-3.7 3.65,-3.6 3.65,-8.75 m -97,0 q 0,5.15 3.65,8.75 3.65,3.7 8.85,3.7 5.1,0 8.8,-3.7 3.65,-3.6 3.65,-8.75 0,-5.2 -3.65,-8.85 -3.7,-3.65 -8.8,-3.65 -5.2,0 -8.85,3.65 -3.65,3.65 -3.65,8.85"
         id="path90" />
      <path
         stroke="none"
         fill="#ffffff"
         d="m 587.4,322.5 q 0,-5.2 3.65,-8.85 3.65,-3.65 8.85,-3.65 5.1,0 8.8,3.65 3.65,3.65 3.65,8.85 0,5.15 -3.65,8.75 -3.7,3.7 -8.8,3.7 -5.2,0 -8.85,-3.7 -3.65,-3.6 -3.65,-8.75 m 97,0 q 0,5.15 -3.65,8.75 -3.65,3.7 -8.85,3.7 -5.1,0 -8.8,-3.7 -3.65,-3.6 -3.65,-8.75 0,-5.2 3.65,-8.85 3.7,-3.65 8.8,-3.65 5.2,0 8.85,3.65 3.65,3.65 3.65,8.85 m -4.75,0.2 q 0,-3.6 -2.5,-6.15 -2.5,-2.5 -6.15,-2.5 -3.55,0 -6.15,2.5 -2.5,2.55 -2.5,6.15 0,3.6 2.5,6.05 2.6,2.55 6.15,2.55 3.65,0 6.15,-2.55 2.5,-2.45 2.5,-6.05 m -87.55,0 q 0,3.6 2.55,6.05 2.5,2.55 6.15,2.55 3.55,0 6.1,-2.55 2.55,-2.45 2.55,-6.05 0,-3.6 -2.55,-6.15 -2.55,-2.5 -6.1,-2.5 -3.65,0 -6.15,2.5 -2.55,2.55 -2.55,6.15"
         id="path91" />
      <path
         stroke="none"
         fill="#5b5b5b"
         d="m 592.1,322.7 q 0,-3.6 2.55,-6.15 2.5,-2.5 6.15,-2.5 3.55,0 6.1,2.5 2.55,2.55 2.55,6.15 0,3.6 -2.55,6.05 -2.55,2.55 -6.1,2.55 -3.65,0 -6.15,-2.55 -2.55,-2.45 -2.55,-6.05 m 87.55,0 q 0,3.6 -2.5,6.05 -2.5,2.55 -6.15,2.55 -3.55,0 -6.15,-2.55 -2.5,-2.45 -2.5,-6.05 0,-3.6 2.5,-6.15 2.6,-2.5 6.15,-2.5 3.65,0 6.15,2.5 2.5,2.55 2.5,6.15"
         id="path92" />
      <path
         stroke="none"
         fill="#ffc4ff"
         d="m 610,348.55 -0.1,-1.1 v -0.85 q 0,-10.8 7.55,-18.4 l 1.85,-1.7 q 7.1,-5.9 16.6,-5.9 9.5,0 16.55,5.95 l 1.8,1.65 q 7.65,7.6 7.65,18.4 v 0.85 l -0.05,1.05 q -0.7,-9.45 -7.6,-16.3 l -1.8,-1.65 q -7.05,-5.95 -16.55,-5.95 -9.5,0 -16.6,5.9 l -1.85,1.7 q -6.8,6.85 -7.45,16.35"
         id="path93" />
      <path
         stroke="none"
         fill="#ffaaff"
         d="m 610,348.55 q 0.65,-9.5 7.45,-16.35 l 1.85,-1.7 q 7.1,-5.9 16.6,-5.9 9.5,0 16.55,5.95 l 1.8,1.65 q 6.9,6.85 7.6,16.3 -0.3,2.9 -1.5,5.5 -1.5,3.2 -4.4,5.9 l -1.7,1.45 q -7.6,6.05 -18.35,6.05 -10.8,0 -18.45,-6.05 l -1.6,-1.35 q -2.9,-2.75 -4.4,-5.95 -1.2,-2.6 -1.45,-5.5 M 654.4,340 q -1.5,-1.5 -4.45,-0.65 l -0.25,0.1 q -2.85,0.85 -5.35,3.35 l -0.15,0.15 q -0.65,0.7 -1,1.55 -0.4,0.9 -0.4,2 0,2.15 1.5,3.65 1.5,1.5 3.65,1.5 2.05,0 3.55,-1.4 l 0.15,-0.15 q 2.05,-2.05 3,-4.3 l 0.45,-1.3 q 0.65,-2.25 -0.1,-3.65 L 654.4,340 m -34.1,10.25 q 1.5,1.4 3.55,1.4 2.15,0 3.65,-1.5 1.5,-1.5 1.5,-3.65 0,-1.1 -0.35,-2 l -1.05,-1.55 -0.15,-0.15 q -2.55,-2.55 -5.4,-3.4 l -0.2,-0.05 Q 618.9,338.5 617.4,340 l -0.6,0.85 q -0.75,1.4 -0.1,3.65 0.15,0.65 0.45,1.3 0.95,2.25 3,4.3 l 0.15,0.15"
         id="path94" />
      <path
         stroke="none"
         fill="#af74af"
         d="m 620.3,350.25 -0.15,-0.15 q -2.05,-2.05 -3,-4.3 -0.3,-0.65 -0.45,-1.3 -0.65,-2.25 0.1,-3.65 l 0.6,-0.85 q 1.5,-1.5 4.45,-0.65 l 0.2,0.05 q 2.85,0.85 5.4,3.4 l 0.15,0.15 1.05,1.55 q 0.35,0.9 0.35,2 0,2.15 -1.5,3.65 -1.5,1.5 -3.65,1.5 -2.05,0 -3.55,-1.4 m 34.1,-10.25 0.6,0.85 q 0.75,1.4 0.1,3.65 l -0.45,1.3 q -0.95,2.25 -3,4.3 l -0.15,0.15 q -1.5,1.4 -3.55,1.4 -2.15,0 -3.65,-1.5 -1.5,-1.5 -1.5,-3.65 0,-1.1 0.4,-2 0.35,-0.85 1,-1.55 l 0.15,-0.15 q 2.5,-2.5 5.35,-3.35 l 0.25,-0.1 q 2.95,-0.85 4.45,0.65"
         id="path95" />
      <path
         stroke="none"
         fill="#000000"
         fill-opacity="0.101961"
         d="m 655.95,359.9 -0.45,1.1 q -1.55,3.25 -4.9,5.9 -6.1,4.85 -14.7,4.85 -8.65,0 -14.8,-4.85 -3.3,-2.6 -4.8,-5.85 l -0.45,-1.05 1.6,1.35 q 7.65,6.05 18.45,6.05 10.75,0 18.35,-6.05 l 1.7,-1.45"
         id="path96" />
    </g>
  </g>
</svg>
