<?xml version="1.0" encoding="UTF-8" standalone="no"?>
<svg
   version="1.1"
   id="svg386"
   width="136"
   height="183.65845"
   xmlns="http://www.w3.org/2000/svg"
   xmlns:svg="http://www.w3.org/2000/svg">
  <defs
     id="defs1" />
  <g
     id="g386"
     transform="translate(-1081.5,-204.34155)">
    <g
       id="g397">
      <path
         stroke="none"
         fill="#857e7e"
         d="m 1099.25,225 q -0.65,-18.25 9.1,-20.1 9.45,-3.4 23.35,13.9 l 0.3,0.45 q 10.7,18 13.65,32.85 l 3.85,-0.1 3.85,0.1 q 2.9,-14.85 13.7,-32.85 l 0.3,-0.45 q 13.85,-17.3 23.3,-13.9 h 0.05 q 9.7,1.85 9.05,20.1 l -0.2,3.65 q -1.5,17.3 -1.5,29.05 l 0.05,0.4 v 0.55 l -0.05,3.15 v 8 l -0.15,1.1 -0.3,1 0.05,0.05 q 19.85,19.85 19.85,48.05 v 2 0.1 q -0.75,26.85 -19.85,46 -10.4,10.35 -22.95,15.35 h -0.05 q -11.6,4.55 -25.15,4.55 -13.5,0 -25.05,-4.55 -12.65,-5 -23,-15.35 -19.2,-19.1 -19.9,-45.9 l -0.05,-2.2 q 0,-28.2 19.95,-48.05 l -0.35,-1.05 q -0.15,-0.55 -0.15,-1.1 v -8 l -0.05,-3.15 0.05,-0.55 v -0.4 q 0,-11.75 -1.45,-29.05 l -0.25,-3.65"
         id="path112" />
      <path
         stroke="none"
         fill="#a8a1a1"
         d="m 1110.15,278.1 v -4.2 q 0,-10.15 -1.3,-25.05 -1.25,-14.9 5.05,-16.65 6.35,-1.75 16.35,10.7 9,15.15 11.3,27.55 l -1.55,2.95 q -4.1,6.5 -11.8,8.6 -7.7,2.05 -14.55,-1.55 l -3.5,-2.35 m 78.7,0 -3.5,2.35 q -6.85,3.6 -14.55,1.55 -7.7,-2.1 -11.8,-8.6 -0.95,-1.45 -1.55,-2.95 2.3,-12.4 11.3,-27.55 10,-12.45 16.35,-10.7 6.3,1.75 5.05,16.65 -1.3,14.9 -1.3,25.05 v 4.2"
         id="path113" />
      <path
         stroke="none"
         fill="#bdb6b6"
         d="m 1188.85,278.1 v -4.2 q 0,-10.15 1.3,-25.05 1.25,-14.9 -5.05,-16.65 -6.35,-1.75 -16.35,10.7 -9,15.15 -11.3,27.55 -0.8,-1.95 -1.05,-3.9 l -0.1,-1.15 q 0.65,-17.45 14.15,-40.1 11.7,-14.6 19.15,-12.55 5.65,1.55 6.15,12.1 l -0.2,3.45 q -1.5,17.5 -1.5,29.4 l 0.05,0.85 -0.05,3.15 v 8.1 q -1.4,5.05 -5.2,8.3 m -85.6,-53.25 q 0.5,-10.55 6.15,-12.1 7.45,-2.05 19.15,12.55 13.5,22.65 14.15,40.1 l -0.1,1.15 q -0.25,1.95 -1.05,3.9 -2.3,-12.4 -11.3,-27.55 -10,-12.45 -16.35,-10.7 -6.3,1.75 -5.05,16.65 1.3,14.9 1.3,25.05 v 4.2 q -3.8,-3.25 -5.2,-8.3 v -8.1 l -0.05,-3.15 0.05,-0.85 q 0,-11.9 -1.5,-29.4 l -0.2,-3.45"
         id="path114" />
      <path
         stroke="none"
         fill="#cbc3c3"
         d="m 1103.25,224.85 q -0.5,-14.25 6.15,-16.1 7.45,-2.05 19.15,12.55 15.1,25.3 14.15,44.1 -0.65,-17.45 -14.15,-40.1 -11.7,-14.6 -19.15,-12.55 -5.65,1.55 -6.15,12.1 m 53.05,40.55 q -0.95,-18.8 14.15,-44.1 11.7,-14.6 19.15,-12.55 6.65,1.85 6.15,16.1 -0.5,-10.55 -6.15,-12.1 -7.45,-2.05 -19.15,12.55 -13.5,22.65 -14.15,40.1"
         id="path115" />
      <path
         stroke="none"
         fill="#dbd9d9"
         d="m 1085.55,322 -0.05,-2 q 0,-26.55 18.75,-45.25 7.4,-7.4 16,-11.85 13.2,-6.9 29.25,-6.9 16.05,0 29.3,6.85 8.6,4.5 16,11.9 18.7,18.7 18.7,45.25 v 2 q -0.7,-25.25 -18.7,-43.25 -8.4,-8.4 -18.35,-13.05 l -4,3.4 q -9.5,6.9 -22.95,6.9 -13.45,0 -23,-6.9 -2.25,-1.6 -3.9,-3.35 -9.95,4.6 -18.35,13 -18.05,18 -18.7,43.25"
         id="path116" />
      <path
         stroke="none"
         fill="#d2d0d0"
         d="m 1085.55,322 q 0.65,-25.25 18.7,-43.25 8.4,-8.4 18.35,-13 1.65,1.75 3.9,3.35 9.55,6.9 23,6.9 13.45,0 22.95,-6.9 l 4,-3.4 q 9.95,4.65 18.35,13.05 18,18 18.7,43.25 -0.7,25.25 -18.7,43.25 -9.75,9.75 -21.6,14.45 -10.2,-19.95 -23.7,-19.95 -13.4,0 -23.6,19.95 -11.9,-4.7 -21.65,-14.45 -18.05,-18 -18.7,-43.25"
         id="path117" />
      <path
         stroke="none"
         fill="#e5e3e3"
         d="m 1173.2,379.7 q -10.95,4.3 -23.7,4.3 -12.7,0 -23.6,-4.3 10.2,-19.95 23.6,-19.95 13.5,0 23.7,19.95"
         id="path118" />
      <path
         stroke="none"
         fill="#ffffff"
         d="m 1184.25,305.25 q 0,-3.3 -2.25,-5.45 -2.25,-2.15 -5.4,-2.15 -3.1,0 -5.45,2.15 -2.25,2.15 -2.25,5.45 0,3.15 2.25,5.3 2.35,2.3 5.45,2.3 3.15,0 5.4,-2.3 2.25,-2.15 2.25,-5.3 M 1108.9,305 q 0,-5.05 3.6,-8.6 3.6,-3.5 8.6,-3.5 5,0 8.7,3.5 3.5,3.55 3.5,8.6 0,5.05 -3.5,8.5 -3.7,3.65 -8.7,3.65 -5,0 -8.6,-3.65 -3.6,-3.45 -3.6,-8.5 m 5.95,0.25 q 0,3.15 2.25,5.3 2.15,2.3 5.35,2.3 3.15,0 5.4,-2.3 2.25,-2.15 2.25,-5.3 0,-3.3 -2.25,-5.45 -2.25,-2.15 -5.4,-2.15 -3.2,0 -5.35,2.15 -2.25,2.15 -2.25,5.45 M 1190.1,305 q 0,5.05 -3.5,8.5 -3.6,3.65 -8.7,3.65 -5,0 -8.55,-3.65 -3.6,-3.45 -3.6,-8.5 0,-5.05 3.6,-8.6 3.55,-3.5 8.55,-3.5 5.1,0 8.7,3.5 3.5,3.55 3.5,8.6"
         id="path119" />
      <path
         stroke="none"
         fill="#5b5b5b"
         d="m 1114.85,305.25 q 0,-3.3 2.25,-5.45 2.15,-2.15 5.35,-2.15 3.15,0 5.4,2.15 2.25,2.15 2.25,5.45 0,3.15 -2.25,5.3 -2.25,2.3 -5.4,2.3 -3.2,0 -5.35,-2.3 -2.25,-2.15 -2.25,-5.3 m 69.4,0 q 0,3.15 -2.25,5.3 -2.25,2.3 -5.4,2.3 -3.1,0 -5.45,-2.3 -2.25,-2.15 -2.25,-5.3 0,-3.3 2.25,-5.45 2.35,-2.15 5.45,-2.15 3.15,0 5.4,2.15 2.25,2.15 2.25,5.45"
         id="path120" />
      <path
         stroke="none"
         fill="#ffffff"
         d="m 1142.65,349.15 q -3.3,1.55 -7.2,1.55 -6.95,0 -11.9,-4.95 -4.9,-4.9 -4.9,-11.85 0,-7 4.9,-11.9 4.95,-4.95 11.9,-4.95 h 28.5 q 6.7,0.15 11.45,4.95 4.95,4.9 4.95,11.9 0,6.95 -4.95,11.85 -4.9,4.95 -11.9,4.95 -3.9,0 -7.15,-1.55 -2.55,-1.2 -4.75,-3.4 l -2.1,-2.5 -2.15,2.5 q -2.15,2.2 -4.7,3.4"
         id="path121" />
      <path
         stroke="none"
         fill="#a8a1a1"
         d="m 1142.65,349.15 q 2.55,-1.2 4.7,-3.4 l 2.15,-2.5 2.1,2.5 q 2.2,2.2 4.75,3.4 -3.1,1.55 -6.85,1.55 -3.75,0 -6.85,-1.55"
         id="path122" />
      <path
         stroke="none"
         fill="#ffc4ff"
         d="m 1137.6,316.3 -0.1,-1.6 v -0.9 q 0.25,-2.25 3.6,-3.9 3.7,-1.75 8.9,-1.75 5.15,0 8.8,1.75 3.35,1.65 3.65,3.9 l 0.05,0.9 -0.1,1.75 q -0.5,-2.05 -3.6,-3.55 -3.65,-1.75 -8.8,-1.75 -5.2,0 -8.9,1.75 -3,1.45 -3.5,3.4"
         id="path123" />
      <path
         stroke="none"
         fill="#ffaaff"
         d="m 1137.6,316.3 q 0.5,-1.95 3.5,-3.4 3.7,-1.75 8.9,-1.75 5.15,0 8.8,1.75 3.1,1.5 3.6,3.55 -0.55,4.05 -3.6,7 -3.65,3.7 -8.8,3.7 -5.2,0 -8.9,-3.7 -3,-3 -3.5,-7.15"
         id="path124" />
      <path
         stroke="none"
         fill="#a8a1a1"
         d="m 1110.05,322.3 q 0.05,-0.35 0.25,-0.5 l 0.5,-0.3 q 8.55,-1.65 18.35,3.7 l 0.45,0.5 v 0.6 l -0.3,0.55 -0.6,0.2 q -8.7,-0.45 -18.4,1.05 l -0.5,-0.1 -0.45,-0.45 v -0.6 l 0.7,-4.65 m 3.55,12.15 V 334 l 0.3,-0.4 q 5.55,-4.05 14.4,-3.55 l 0.5,0.2 0.2,0.45 v 0.5 l -0.4,0.35 q -7.25,2 -12.85,6.95 l -0.45,0.1 -0.45,-0.15 -0.2,-0.4 -1.05,-3.6 m 71.8,0 -1.05,3.6 -0.2,0.4 -0.45,0.15 -0.45,-0.1 q -5.6,-4.95 -12.85,-6.95 l -0.4,-0.35 v -0.5 l 0.2,-0.45 0.5,-0.2 q 8.85,-0.5 14.4,3.55 l 0.3,0.4 v 0.45 m 3.55,-12.15 0.7,4.65 v 0.6 l -0.45,0.45 -0.5,0.1 q -9.7,-1.5 -18.4,-1.05 l -0.6,-0.2 q -0.3,-0.25 -0.3,-0.55 v -0.6 q 0.15,-0.3 0.45,-0.5 9.8,-5.35 18.35,-3.7 l 0.5,0.3 0.25,0.5"
         id="path125" />
    </g>
  </g>
</svg>
