<?xml version="1.0" encoding="UTF-8" standalone="no"?>
<svg
   version="1.1"
   id="svg386"
   width="160.3546"
   height="136"
   xmlns="http://www.w3.org/2000/svg"
   xmlns:svg="http://www.w3.org/2000/svg">
  <defs
     id="defs1" />
  <g
     id="g386"
     transform="translate(-47.847702,-828)">
    <g
       id="g407">
      <path
         stroke="none"
         fill="#857e7e"
         d="m 179.45,833.6 2.2,-1.25 0.4,-0.2 q 4.85,-2.3 11.6,1.4 l 0.05,0.05 q 6.1,3.4 10.4,10.8 h -0.05 q 4.25,7.25 4.15,14.25 v 0.05 l -0.1,2.2 q -0.75,6 -4.55,8.65 l -0.05,0.05 -0.95,0.65 -0.25,0.15 -1.1,0.6 -0.1,0.1 q -4.15,2.35 -8.2,3.85 3.1,9.9 3.1,21.05 v 2 0.15 q -0.5,16.15 -7.6,29.6 -2.1,3.9 -4.75,7.6 l -0.4,0.5 q -3.2,4.25 -7.15,8.25 l -4.9,4.5 -0.05,0.05 q -2.15,1.8 -4.45,3.4 Q 149.8,964 128,964 106.15,964 89.3,952.1 v -0.05 l -4.35,-3.3 -5.05,-4.65 Q 71.8,936 67.05,926.65 l -0.25,-0.6 -5.55,-16.7 -0.2,-1.15 v -0.1 l -0.05,-0.2 -0.2,-1 v -0.2 l -0.05,-0.2 v -0.2 l -0.05,-0.2 -0.15,-1.5 -0.1,-0.5 v -0.3 L 60.4,903.45 V 903.4 L 60.35,903.15 60.3,902.6 60.25,902.05 60.2,901.5 60.05,898.2 60,896 q 0,-11.2 3.15,-21.05 -4.05,-1.5 -8.2,-3.85 l -0.1,-0.1 q -0.55,-0.35 -1.1,-0.6 l -0.2,-0.15 -0.95,-0.65 -0.1,-0.05 q -3.8,-2.65 -4.45,-8.7 v 0.25 l -0.2,-2.4 v -0.05 q -0.1,-7 4.15,-14.25 4.25,-7.4 10.4,-10.8 l 0.05,-0.05 q 6.7,-3.7 11.6,-1.4 l 0.4,0.2 2.2,1.25 q 6.15,3.55 10.5,8 L 89.3,840 q 16.9,-12 38.7,-12 21.85,0 38.7,11.95 h 0.05 l 2.15,1.65 q 4.35,-4.45 10.5,-8 h 0.05"
         id="path264" />
      <path
         stroke="none"
         fill="#cdc6c6"
         d="m 204.1,860.4 q -0.55,-4.95 -3.5,-10 -3.65,-6.35 -8.9,-9.35 -4.75,-2.6 -8.15,-1.2 l -2.15,1.2 q -9.65,5.6 -14.4,13.45 l -0.6,-0.5 -0.95,-0.75 0.75,-1.4 q 4.75,-8.75 15.2,-14.8 l 2.15,-1.2 q 3.4,-1.4 8.15,1.2 5.25,3 8.9,9.35 3.65,6.25 3.6,12.25 l -0.1,1.75 M 89.05,854.45 q -4.8,-7.85 -14.4,-13.4 l -2.15,-1.2 q -3.4,-1.4 -8.15,1.2 -5.25,3 -8.9,9.35 -2.95,5.05 -3.45,10 l -0.15,-1.75 q -0.05,-6 3.6,-12.25 3.65,-6.35 8.9,-9.35 4.75,-2.6 8.15,-1.2 l 2.15,1.2 q 10.45,6.05 15.2,14.8 l 0.75,1.4 -1.55,1.2"
         id="path265" />
      <path
         stroke="none"
         fill="#bdb6b6"
         d="m 89.05,854.45 q -3.1,2.4 -6,5.3 -3.6,-4.05 -9,-7.2 L 72.3,851.6 q -2.8,-1.15 -6.75,0.95 -4.3,2.5 -7.3,7.75 -1.95,3.3 -2.6,6.55 l -0.75,-0.5 q -2.45,-1.85 -2.9,-5.95 0.5,-4.95 3.45,-10 3.65,-6.35 8.9,-9.35 4.75,-2.6 8.15,-1.2 l 2.15,1.2 q 9.6,5.55 14.4,13.4 M 167,854.5 q 4.75,-7.85 14.4,-13.45 l 2.15,-1.2 q 3.4,-1.4 8.15,1.2 5.25,3 8.9,9.35 2.95,5.05 3.5,10 -0.5,4.1 -2.95,5.95 l -0.75,0.5 q -0.65,-3.25 -2.6,-6.55 -3,-5.25 -7.3,-7.75 -3.95,-2.1 -6.75,-0.95 l -1.75,0.95 q -5.4,3.15 -9,7.2 l -6,-5.25"
         id="path266" />
      <path
         stroke="none"
         fill="#a8a1a1"
         d="m 173,859.75 q 3.6,-4.05 9,-7.2 l 1.75,-0.95 q 2.8,-1.15 6.75,0.95 4.3,2.5 7.3,7.75 1.95,3.3 2.6,6.55 l -1.3,0.75 q -7.9,4.55 -15.5,5.6 -4.15,-7.05 -10.3,-13.2 l -0.3,-0.25 m -117.35,7.1 q 0.65,-3.25 2.6,-6.55 3,-5.25 7.3,-7.75 3.95,-2.1 6.75,-0.95 l 1.75,0.95 q 5.4,3.15 9,7.2 l -0.3,0.25 q -6.15,6.15 -10.3,13.2 -7.6,-1.05 -15.5,-5.6 l -1.3,-0.75"
         id="path267" />
      <path
         stroke="none"
         fill="#dbd9d9"
         d="M 64.05,898 64,896 q 0,-26.55 18.75,-45.25 l 3.65,-3.4 q 2.55,-2.2 5.2,-4.1 Q 107.5,832 128,832 q 20.55,0 36.4,11.2 l 5.2,4.1 3.7,3.45 Q 192,869.45 192,896 v 2 q -0.7,-25.25 -18.7,-43.25 -3.05,-3.05 -6.3,-5.6 l -0.45,0.3 Q 150.6,860 128,860 105.4,860 89.4,849.45 L 89,849.2 q -3.25,2.55 -6.25,5.55 -18.05,18 -18.7,43.25"
         id="path268" />
      <path
         stroke="none"
         fill="#d2d0d0"
         d="m 64.05,898 q 0.65,-25.25 18.7,-43.25 3,-3 6.25,-5.55 l 0.4,0.25 q 16,10.55 38.6,10.55 22.6,0 38.55,-10.55 l 0.45,-0.3 q 3.25,2.55 6.3,5.6 18,18 18.7,43.25 -0.45,15.2 -7.15,27.85 -1.95,3.7 -4.45,7.15 h -0.05 q -3.15,4.3 -7.1,8.25 l -4.65,4.3 q -4.4,-1.6 -4.35,-6.3 -1.1,-11.25 -10.45,-19.5 -10.5,-9.25 -25.35,-9.25 -14.85,0 -25.4,9.25 -9.3,8.25 -10.35,19.5 -1.35,4.8 -5.2,6.4 l -4.8,-4.4 q -7.6,-7.6 -12.1,-16.45 l -5.55,-16.7 v -0.2 l -0.2,-1.1 -0.05,-0.25 -0.05,-0.5 -0.1,-0.55 -0.15,-1.25 v -0.2 l -0.1,-0.6 V 903.2 L 64.35,903 v -0.25 l -0.05,-0.3 -0.05,-0.65 v -0.25 L 64.2,901.25 64.05,898"
         id="path269" />
      <path
         stroke="none"
         fill="#bdb6b6"
         d="m 168.6,945.55 -4.2,3.2 Q 148.5,960 128,960 107.45,960 91.6,948.8 l -4.1,-3.15 q 3.85,-1.6 5.2,-6.4 1.05,-11.25 10.35,-19.5 10.55,-9.25 25.4,-9.25 14.85,0 25.35,9.25 9.35,8.25 10.45,19.5 -0.05,4.7 4.35,6.3 m -23,-22.2 q -1.1,-1.1 -3.3,-0.5 -2.25,0.6 -4.2,2.6 l -0.15,0.1 q -1.05,1.1 -1.05,2.7 0,1.6 1.15,2.7 1.1,1.15 2.75,1.15 1.5,0 2.65,-1.05 l 0.1,-0.1 q 2,-2 2.6,-4.2 0.65,-2.25 -0.55,-3.4 m -32.15,7.7 q 1.1,1.05 2.65,1.05 1.6,0 2.75,-1.15 1.1,-1.1 1.1,-2.7 0,-1.6 -1.05,-2.7 l -0.1,-0.1 q -2,-2 -4.2,-2.6 -2.2,-0.6 -3.35,0.5 -1.15,1.15 -0.5,3.4 0.6,2.2 2.6,4.2 l 0.1,0.1"
         id="path270" />
      <path
         stroke="none"
         fill="#9a9494"
         d="m 113.45,931.05 -0.1,-0.1 q -2,-2 -2.6,-4.2 -0.65,-2.25 0.5,-3.4 1.15,-1.1 3.35,-0.5 2.2,0.6 4.2,2.6 l 0.1,0.1 q 1.05,1.1 1.05,2.7 0,1.6 -1.1,2.7 -1.15,1.15 -2.75,1.15 -1.55,0 -2.65,-1.05 m 32.15,-7.7 q 1.2,1.15 0.55,3.4 -0.6,2.2 -2.6,4.2 l -0.1,0.1 q -1.15,1.05 -2.65,1.05 -1.65,0 -2.75,-1.15 -1.15,-1.1 -1.15,-2.7 0,-1.6 1.05,-2.7 l 0.15,-0.1 q 1.95,-2 4.2,-2.6 2.2,-0.6 3.3,0.5"
         id="path271" />
      <path
         stroke="none"
         fill="#ffffff"
         d="m 171.7,903.1 q 0,-3.65 -2.45,-6.1 -2.55,-2.55 -6.2,-2.55 -3.5,0 -6.1,2.55 -2.55,2.45 -2.55,6.1 l 0.05,0.85 q 0.25,2.95 2.5,5.1 2.6,2.5 6.1,2.5 3.65,0 6.2,-2.5 2.15,-2.15 2.4,-5.1 l 0.05,-0.85 m 7.55,0.1 q 0,5.7 -4.05,9.6 -4.05,4.1 -9.75,4.1 -5.6,0 -9.75,-4.1 -3.95,-3.9 -3.95,-9.6 0,-5.75 3.95,-9.75 4.15,-4.05 9.75,-4.05 5.7,0 9.75,4.05 4.05,4 4.05,9.75"
         id="path272" />
      <path
         stroke="none"
         fill="#5b5b5b"
         d="m 171.7,903.1 -0.05,0.85 q -0.25,2.95 -2.4,5.1 -2.55,2.5 -6.2,2.5 -3.5,0 -6.1,-2.5 -2.25,-2.15 -2.5,-5.1 l -0.05,-0.85 q 0,-3.65 2.55,-6.1 2.6,-2.55 6.1,-2.55 3.65,0 6.2,2.55 2.45,2.45 2.45,6.1"
         id="path273" />
      <path
         stroke="none"
         fill="#ffffff"
         d="m 76.75,903.2 q 0,-5.75 4.05,-9.75 4.05,-4.05 9.75,-4.05 5.6,0 9.75,4.05 3.95,4 3.95,9.75 0,5.7 -3.95,9.6 -4.15,4.1 -9.75,4.1 -5.7,0 -9.75,-4.1 -4.05,-3.9 -4.05,-9.6 m 7.55,-0.1 0.05,0.85 q 0.25,2.95 2.4,5.1 2.55,2.5 6.2,2.5 3.5,0 6.1,-2.5 2.25,-2.15 2.5,-5.1 l 0.05,-0.85 q 0,-3.65 -2.55,-6.1 -2.6,-2.55 -6.1,-2.55 -3.65,0 -6.2,2.55 -2.45,2.45 -2.45,6.1"
         id="path274" />
      <path
         stroke="none"
         fill="#5b5b5b"
         d="m 84.3,903.1 q 0,-3.65 2.45,-6.1 2.55,-2.55 6.2,-2.55 3.5,0 6.1,2.55 2.55,2.45 2.55,6.1 l -0.05,0.85 q -0.25,2.95 -2.5,5.1 -2.6,2.5 -6.1,2.5 -3.65,0 -6.2,-2.5 -2.15,-2.15 -2.4,-5.1 L 84.3,903.1"
         id="path275" />
      <path
         stroke="none"
         fill="#fffcf5"
         d="m 117.95,893.15 8.65,-29.35 q 0.15,-0.45 0.55,-0.75 0.4,-0.3 0.85,-0.3 0.5,0 0.9,0.3 l 0.5,0.75 8.7,29.4 1.15,3.95 0.75,3.45 q -0.35,1.8 -1.65,3.05 -2.75,2.85 -10.35,2.85 -7.6,0 -10.3,-2.85 -1.35,-1.3 -1.65,-3.1 0.15,-1.6 0.7,-3.4 l 1.2,-4"
         id="path276" />
      <path
         stroke="none"
         fill="#bdb6b6"
         d="m 117.95,893.15 -1.2,4 q -0.55,1.8 -0.7,3.4 -0.55,4.45 1.65,7.05 2.7,3.55 10.3,3.55 7.6,0 10.35,-3.55 2.15,-2.6 1.65,-7 l -0.75,-3.45 -1.15,-3.95 q 1.45,0.75 2.8,1.8 5.4,4.2 5.4,10.15 0,5.95 -5.4,10.1 -5.3,4.2 -12.9,4.2 -7.6,0 -13,-4.2 -5.3,-4.15 -5.3,-10.1 0,-5.95 5.3,-10.15 1.4,-1.05 2.95,-1.85"
         id="path277" />
      <path
         stroke="none"
         fill="#f0ede7"
         d="m 116.05,900.55 q 0.3,1.8 1.65,3.1 2.7,2.85 10.3,2.85 7.6,0 10.35,-2.85 1.3,-1.25 1.65,-3.05 0.5,4.4 -1.65,7 -2.75,3.55 -10.35,3.55 -7.6,0 -10.3,-3.55 -2.2,-2.6 -1.65,-7.05"
         id="path278" />
    </g>
  </g>
</svg>
