<?xml version="1.0" encoding="UTF-8" standalone="no"?>
<svg
   version="1.1"
   id="svg386"
   width="136"
   height="136"
   xmlns="http://www.w3.org/2000/svg"
   xmlns:svg="http://www.w3.org/2000/svg">
  <defs
     id="defs1" />
  <g
     id="g386"
     transform="translate(-827.70001,-1020)">
    <g
       id="g415">
      <path
         stroke="none"
         fill="#6d4526"
         d="m 936.55,1033.55 1.8,1.4 q 2.8,2.3 5.45,4.95 l 1.1,1.15 q 6.8,7.1 11.2,15.25 v 0.05 q 2.65,5.05 4.4,10.5 v -0.05 l 1.3,4.6 q 1.9,7.9 1.9,16.6 v 2 0.1 q -0.1,4.75 -0.85,9.35 -1.65,10.5 -6.45,19.65 -4.75,9.15 -12.6,16.95 l -2.4,2.25 -4.1,3.55 q -17.9,14.15 -41.6,14.15 -23.7,0 -41.55,-14.15 h -0.05 l -4.1,-3.55 -2.35,-2.25 q -19.2,-19.1 -19.9,-45.85 l -0.05,-2.2 q 0,-17.4 7.65,-31.65 v -0.05 q 4.35,-8.15 11.25,-15.3 l 1.05,-1.1 q 2.65,-2.7 5.5,-5 h -0.05 l 1.85,-1.4 q 17.55,-13.5 40.75,-13.5 23.25,0 40.85,13.55"
         id="path335" />
      <path
         stroke="none"
         fill="#bd7841"
         d="m 831.75,1090 -0.05,-2 q 0,-16.35 7.15,-29.8 4.15,-7.75 10.7,-14.55 l 0.9,-0.95 5.2,-4.7 1.7,-1.35 Q 873.9,1024 895.7,1024 q 21.85,0 38.4,12.7 l 1.7,1.35 5.15,4.65 0.95,1 q 6.5,6.75 10.65,14.5 2.5,4.75 4.15,9.85 l 1.2,4.25 q 1.8,7.5 1.8,15.7 v 2 q -0.25,-9.35 -2.9,-17.7 l -1.5,-4.25 q -4.7,-11.7 -14.35,-21.35 -15.1,-15.05 -35.25,-18 l -10,-0.7 -10,0.7 q -20.15,2.95 -35.25,18 -18.05,18.1 -18.7,43.3"
         id="path336" />
      <path
         stroke="none"
         fill="#a16639"
         d="m 831.75,1090 q 0.65,-25.2 18.7,-43.3 15.1,-15.05 35.25,-18 l 10,-0.7 10,0.7 q 20.15,2.95 35.25,18 9.65,9.65 14.35,21.35 l 1.5,4.25 q 2.65,8.35 2.9,17.7 -0.1,4.5 -0.8,8.8 -1.55,9.85 -6.05,18.45 -4.5,8.6 -11.9,15.95 l -2.25,2.15 -3.9,3.35 q -6.3,-5.35 -13.55,-8.6 5.1,-2.15 9.65,-5.3 l 0.8,-0.6 3.7,-2.9 1.05,-0.95 q 9.9,-9.35 9.55,-19.9 -0.3,-10.45 -7.15,-2.25 -2.3,2.7 -6.2,3.75 h -0.05 q -6,1.6 -11.35,-1.5 l -2.35,-1.65 q -3.4,-2.9 -4.6,-7.45 -1.6,-6 1.5,-11.4 3.05,-5.3 9.05,-6.95 h 0.05 l 4.05,-0.7 H 932 q 6.05,0.05 1.4,-4.2 v -0.05 l -1.7,-1.6 -0.75,-0.6 q -5.4,-4.7 -11.55,-7.65 -3.4,-1.6 -7.05,-2.7 0.7,-3.4 0.85,-7.2 v -0.85 q 0,-5.2 -5.15,-8.85 -5.1,-3.65 -12.35,-3.65 -7.25,0 -12.4,3.65 -5.1,3.65 -5.1,8.85 l 0.05,0.85 q 0.15,3.8 0.8,7.25 -10.65,3.2 -19.25,10.9 l -1.7,1.6 q -4,4.6 2.35,4.25 h 0.95 l 5.05,0.75 h 0.05 q 6,1.65 9.05,6.95 3.1,5.4 1.5,11.4 -1.15,4.5 -4.55,7.4 -1.1,0.95 -2.4,1.7 -5.35,3.1 -11.35,1.5 h -0.05 q -3.95,-1.05 -5.95,-3.25 -7.3,-7.95 -7.9,0.05 0.2,12.45 10.55,21.95 l 2.7,2.2 1.7,1.25 q 4.85,3.55 10.4,5.95 -7.3,3.25 -13.6,8.55 l -3.9,-3.35 -2.25,-2.15 q -18.05,-18 -18.7,-43.2 m 96.6,-11.35 q -3.85,0 -6.55,2.7 -2.7,2.75 -2.7,6.6 0,3.8 2.7,6.55 2.7,2.7 6.55,2.7 3.85,0 6.45,-2.7 2.8,-2.75 2.8,-6.55 0,-3.85 -2.8,-6.6 -2.6,-2.7 -6.45,-2.7 M 863,1078.7 q -3.85,0 -6.45,2.7 -2.8,2.75 -2.8,6.6 0,3.8 2.8,6.55 2.6,2.7 6.45,2.7 3.85,0 6.55,-2.7 2.7,-2.75 2.7,-6.55 0,-3.85 -2.7,-6.6 -2.7,-2.7 -6.55,-2.7"
         id="path337" />
      <path
         stroke="none"
         fill="#aa6c3c"
         d="m 879.05,1055.55 q -0.65,-3.45 -0.8,-7.25 l -0.05,-0.85 q 0,-5.2 5.1,-8.85 5.15,-3.65 12.4,-3.65 7.25,0 12.35,3.65 5.15,3.65 5.15,8.85 v 0.85 q -0.15,3.8 -0.85,7.2 -7.8,-2.35 -16.65,-2.35 l -1.6,0.05 q -7.95,0.2 -15.05,2.35"
         id="path338" />
      <path
         stroke="none"
         fill="#ebceb7"
         d="m 879.05,1055.55 q 7.1,-2.15 15.05,-2.35 l 1.6,-0.05 q 8.85,0 16.65,2.35 3.65,1.1 7.05,2.7 6.15,2.95 11.55,7.65 l 0.75,0.6 1.7,1.6 v 0.05 q 4.65,4.25 -1.4,4.2 h -3.05 l -4.05,0.7 h -0.05 q -6,1.65 -9.05,6.95 -3.1,5.4 -1.5,11.4 1.2,4.55 4.6,7.45 l 2.35,1.65 q 5.35,3.1 11.35,1.5 h 0.05 q 3.9,-1.05 6.2,-3.75 6.85,-8.2 7.15,2.25 0.35,10.55 -9.55,19.9 l -1.05,0.95 -3.7,2.9 -0.8,0.6 q -4.55,3.15 -9.65,5.3 l -1.85,0.75 q -10.7,4.1 -23.7,4.1 h -1.6 q -11.8,-0.25 -21.65,-3.9 l -2.25,-0.9 q -5.55,-2.4 -10.4,-5.95 l -1.7,-1.25 -2.7,-2.2 q -10.35,-9.5 -10.55,-21.95 0.6,-8 7.9,-0.05 2,2.2 5.95,3.25 h 0.05 q 6,1.6 11.35,-1.5 1.3,-0.75 2.4,-1.7 3.4,-2.9 4.55,-7.4 1.6,-6 -1.5,-11.4 -3.05,-5.3 -9.05,-6.95 h -0.05 l -5.05,-0.75 h -0.95 q -6.35,0.35 -2.35,-4.25 l 1.7,-1.6 q 8.6,-7.7 19.25,-10.9 m 3.8,42.55 0.15,0.7 q 0.75,3.5 3.45,6.2 2.15,2.15 4.8,3.1 l -0.85,1 -2.05,1.5 q -1.45,0.65 -3.1,0.65 -3,0 -5.15,-2.15 l -1.35,-1.75 q -0.2,-0.35 -0.55,-0.45 l -0.65,0.1 -4.6,2.55 q -0.35,0.2 -0.4,0.55 -0.15,0.3 0.05,0.65 l 1.5,2.2 1.05,1.15 q 4.15,4.2 10.1,4.2 5.9,0 10.15,-4.2 l 0.3,-0.3 0.3,0.3 q 4.2,4.2 10.1,4.2 5.9,0 10.15,-4.2 l 1.05,-1.15 1.5,-2.3 0.05,-0.65 -0.45,-0.5 -4.7,-2.45 -0.7,-0.05 -0.5,0.45 -1.25,1.65 q -2.15,2.15 -5.15,2.15 -1.65,0 -3.05,-0.65 -1.1,-0.55 -2.05,-1.5 l -0.85,-1 q 2.65,-0.95 4.8,-3.1 2.7,-2.7 3.5,-6.2 l 0.1,-0.7 0.2,-2.35 v -0.9 q -0.35,-2.4 -3.8,-4.1 -3.85,-1.85 -9.25,-1.85 -5.4,0 -9.25,1.85 -3.5,1.7 -3.8,4.1 v 0.9 l 0.2,2.35"
         id="path339" />
      <path
         stroke="none"
         fill="#ffffff"
         d="m 928.35,1078.65 q 3.85,0 6.45,2.7 2.8,2.75 2.8,6.6 0,3.8 -2.8,6.55 -2.6,2.7 -6.45,2.7 -3.85,0 -6.55,-2.7 -2.7,-2.75 -2.7,-6.55 0,-3.85 2.7,-6.6 2.7,-2.7 6.55,-2.7 m 0.15,4.5 q -2.45,0 -4.1,1.7 -1.7,1.7 -1.7,4.1 0,2.4 1.7,4.15 1.65,1.7 4.1,1.7 2.4,0 4.05,-1.7 1.75,-1.75 1.75,-4.15 0,-2.4 -1.75,-4.1 -1.65,-1.7 -4.05,-1.7 M 863,1078.7 q 3.85,0 6.55,2.7 2.7,2.75 2.7,6.6 0,3.8 -2.7,6.55 -2.7,2.7 -6.55,2.7 -3.85,0 -6.45,-2.7 -2.8,-2.75 -2.8,-6.55 0,-3.85 2.8,-6.6 2.6,-2.7 6.45,-2.7 m -0.15,4.5 q -2.4,0 -4.05,1.7 -1.75,1.7 -1.75,4.1 0,2.4 1.75,4.15 1.65,1.7 4.05,1.7 2.45,0 4.1,-1.7 1.7,-1.75 1.7,-4.15 0,-2.4 -1.7,-4.1 -1.65,-1.7 -4.1,-1.7"
         id="path340" />
      <path
         stroke="none"
         fill="#5b5b5b"
         d="m 862.85,1083.2 q 2.45,0 4.1,1.7 1.7,1.7 1.7,4.1 0,2.4 -1.7,4.15 -1.65,1.7 -4.1,1.7 -2.4,0 -4.05,-1.7 -1.75,-1.75 -1.75,-4.15 0,-2.4 1.75,-4.1 1.65,-1.7 4.05,-1.7 m 65.65,-0.05 q 2.4,0 4.05,1.7 1.75,1.7 1.75,4.1 0,2.4 -1.75,4.15 -1.65,1.7 -4.05,1.7 -2.45,0 -4.1,-1.7 -1.7,-1.75 -1.7,-4.15 0,-2.4 1.7,-4.1 1.65,-1.7 4.1,-1.7"
         id="path341" />
      <path
         stroke="none"
         fill="#545454"
         d="m 882.85,1098.1 -0.2,-2.35 v -0.9 q 0.3,-2.4 3.8,-4.1 3.85,-1.85 9.25,-1.85 5.4,0 9.25,1.85 3.45,1.7 3.8,4.1 v 0.9 l -0.2,2.35 q -0.7,-1.9 -3.6,-3.35 -3.85,-1.85 -9.25,-1.85 -5.4,0 -9.25,1.85 -2.9,1.4 -3.6,3.35"
         id="path342" />
      <path
         stroke="none"
         fill="#464646"
         d="m 882.85,1098.1 q 0.7,-1.95 3.6,-3.35 3.85,-1.85 9.25,-1.85 5.4,0 9.25,1.85 2.9,1.45 3.6,3.35 l -0.1,0.7 q -0.8,3.5 -3.5,6.2 -2.15,2.15 -4.8,3.1 -4.25,1.75 -8.9,0 -2.65,-0.95 -4.8,-3.1 -2.7,-2.7 -3.45,-6.2 l -0.15,-0.7"
         id="path343" />
      <path
         stroke="none"
         fill="#383838"
         d="m 900.15,1108.1 0.85,1 q 0.95,0.95 2.05,1.5 1.4,0.65 3.05,0.65 3,0 5.15,-2.15 l 1.25,-1.65 0.5,-0.45 0.7,0.05 4.7,2.45 0.45,0.5 -0.05,0.65 -1.5,2.3 -1.05,1.15 q -4.25,4.2 -10.15,4.2 -5.9,0 -10.1,-4.2 l -0.3,-0.3 -0.3,0.3 q -4.25,4.2 -10.15,4.2 -5.95,0 -10.1,-4.2 l -1.05,-1.15 -1.5,-2.2 q -0.2,-0.35 -0.05,-0.65 0.05,-0.35 0.4,-0.55 l 4.6,-2.55 0.65,-0.1 q 0.35,0.1 0.55,0.45 l 1.35,1.75 q 2.15,2.15 5.15,2.15 1.65,0 3.1,-0.65 l 2.05,-1.5 0.85,-1 q 4.65,1.75 8.9,0"
         id="path344" />
      <path
         stroke="none"
         fill="#955e34"
         d="m 934.8,1138.7 q -16.8,13.3 -39.1,13.3 -22.3,0 -39.1,-13.3 6.3,-5.3 13.6,-8.55 l 2.25,0.9 q 9.85,3.65 21.65,3.9 h 1.6 q 13,0 23.7,-4.1 l 1.85,-0.75 q 7.25,3.25 13.55,8.6"
         id="path345" />
    </g>
  </g>
</svg>
