<?xml version="1.0" encoding="UTF-8" standalone="no"?>
<svg
   version="1.1"
   id="svg386"
   width="136"
   height="146.06128"
   xmlns="http://www.w3.org/2000/svg"
   xmlns:svg="http://www.w3.org/2000/svg">
  <defs
     id="defs1" />
  <g
     id="g386"
     transform="translate(-60,-636)">
    <g
       id="g402">
      <path
         stroke="none"
         fill="#624630"
         d="m 79.95,655.95 q 7.8,-7.9 16.95,-12.6 14.05,-7.35 31.1,-7.35 17.05,0 31.15,7.3 9.15,4.75 17,12.65 Q 196,675.8 196,704 v 2 0.1 q -0.75,26.85 -19.85,46 -10.4,10.35 -22.95,15.35 h -0.05 q -3.85,1.5 -7.9,2.5 -2,9.2 -5.4,10.75 -2.3,1.6 -4.95,1.3 -3.5,-0.25 -5.55,-2.9 l 0.05,0.1 q -0.95,-1.2 -1.4,-2.5 -0.45,1.3 -1.4,2.5 l 0.1,-0.1 q -2.05,2.65 -5.5,2.9 -2.7,0.35 -5.05,-1.3 -3.4,-1.55 -5.35,-10.75 -4.05,-1 -7.85,-2.5 -12.65,-5 -23,-15.35 Q 60.75,733 60.05,706.2 L 60,704 q 0,-28.2 19.95,-48.05"
         id="path196" />
      <path
         stroke="none"
         fill="#b17e58"
         d="M 64.05,706 64,704 q 0,-26.55 18.75,-45.25 7.4,-7.4 16,-11.85 13.2,-6.9 29.25,-6.9 16.05,0 29.3,6.85 8.6,4.5 16,11.9 18.7,18.7 18.7,45.25 v 2 q -0.7,-25.25 -18.7,-43.25 -8.4,-8.4 -18.35,-13.05 l -4,3.4 q -9.5,6.9 -22.95,6.9 -13.45,0 -23,-6.9 -2.25,-1.6 -3.9,-3.35 -9.95,4.6 -18.35,13 -18.05,18 -18.7,43.25"
         id="path197" />
      <path
         stroke="none"
         fill="#986c4c"
         d="m 64.05,706 q 0.65,-25.25 18.7,-43.25 8.4,-8.4 18.35,-13 1.65,1.75 3.9,3.35 9.55,6.9 23,6.9 13.45,0 22.95,-6.9 l 4,-3.4 q 9.95,4.65 18.35,13.05 18,18 18.7,43.25 -0.7,25.25 -18.7,43.25 -9.75,9.75 -21.6,14.45 -5.75,-11.25 -12.55,-16.15 10.2,-2.75 18.2,-10.75 12.15,-12.15 12.15,-29.35 0,-17.2 -12.15,-29.35 -12.15,-12.15 -29.35,-12.15 -17.2,0 -29.35,12.15 -12.15,12.15 -12.15,29.35 0,17.2 12.15,29.35 8.05,8.05 18.25,10.75 -6.75,4.9 -12.5,16.15 Q 92.5,759 82.75,749.25 64.7,731.25 64.05,706"
         id="path198" />
      <path
         stroke="none"
         fill="#916546"
         d="M 116.9,747.55 Q 106.7,744.85 98.65,736.8 86.5,724.65 86.5,707.45 q 0,-17.2 12.15,-29.35 12.15,-12.15 29.35,-12.15 17.2,0 29.35,12.15 12.15,12.15 12.15,29.35 0,17.2 -12.15,29.35 -8,8 -18.2,10.75 -5.3,1.4 -11.15,1.4 -5.85,0 -11.1,-1.4"
         id="path199" />
      <path
         stroke="none"
         fill="#845c41"
         d="m 151.7,763.7 q -10.95,4.3 -23.7,4.3 -12.7,0 -23.6,-4.3 5.75,-11.25 12.5,-16.15 5.25,1.4 11.1,1.4 5.85,0 11.15,-1.4 6.8,4.9 12.55,16.15"
         id="path200" />
      <path
         stroke="none"
         fill="#ffffff"
         d="m 94.4,687 q 0,-5.05 3.6,-8.6 3.6,-3.5 8.6,-3.5 5,0 8.7,3.5 3.5,3.55 3.5,8.6 0,5.05 -3.5,8.5 -3.7,3.65 -8.7,3.65 -5,0 -8.6,-3.65 -3.6,-3.45 -3.6,-8.5 m 5.95,0.25 q 0,3.15 2.25,5.3 2.15,2.3 5.35,2.3 3.15,0 5.4,-2.3 2.25,-2.15 2.25,-5.3 0,-3.3 -2.25,-5.45 -2.25,-2.15 -5.4,-2.15 -3.2,0 -5.35,2.15 -2.25,2.15 -2.25,5.45 M 161.6,687 q 0,5.05 -3.5,8.5 -3.6,3.65 -8.7,3.65 -5,0 -8.55,-3.65 -3.6,-3.45 -3.6,-8.5 0,-5.05 3.6,-8.6 3.55,-3.5 8.55,-3.5 5.1,0 8.7,3.5 3.5,3.55 3.5,8.6 m -5.85,0.25 q 0,-3.3 -2.25,-5.45 -2.25,-2.15 -5.4,-2.15 -3.1,0 -5.45,2.15 -2.25,2.15 -2.25,5.45 0,3.15 2.25,5.3 2.35,2.3 5.45,2.3 3.15,0 5.4,-2.3 2.25,-2.15 2.25,-5.3"
         id="path201" />
      <path
         stroke="none"
         fill="#5b5b5b"
         d="m 155.75,687.25 q 0,3.15 -2.25,5.3 -2.25,2.3 -5.4,2.3 -3.1,0 -5.45,-2.3 -2.25,-2.15 -2.25,-5.3 0,-3.3 2.25,-5.45 2.35,-2.15 5.45,-2.15 3.15,0 5.4,2.15 2.25,2.15 2.25,5.45 m -55.4,0 q 0,-3.3 2.25,-5.45 2.15,-2.15 5.35,-2.15 3.15,0 5.4,2.15 2.25,2.15 2.25,5.45 0,3.15 -2.25,5.3 -2.25,2.3 -5.4,2.3 -3.2,0 -5.35,-2.3 -2.25,-2.15 -2.25,-5.3"
         id="path202" />
      <path
         stroke="none"
         fill="#f0ede7"
         d="m 131.65,744 v -10.95 q 0,-1.25 0.9,-2.1 0.85,-0.9 2.1,-0.9 h 6.75 q 0.8,0 1.55,0.45 l 1.1,1.1 0.35,1.55 -0.25,7.65 -0.1,1.8 -1.1,-1.1 q -0.75,-0.45 -1.55,-0.45 h -6.75 q -1.25,0 -2.1,0.9 -0.85,0.8 -0.9,2.05 m -19.7,-1.4 -0.05,-1.8 -0.3,-7.65 q 0,-0.8 0.35,-1.55 0.4,-0.7 1.1,-1.1 0.75,-0.45 1.55,-0.45 h 6.75 q 1.25,0 2.1,0.9 0.9,0.85 0.9,2.1 V 744 q -0.05,-1.25 -0.9,-2.05 -0.85,-0.9 -2.1,-0.9 h -6.75 q -0.8,0 -1.55,0.45 -0.7,0.4 -1.1,1.1"
         id="path203" />
      <path
         stroke="none"
         fill="#fffcf5"
         d="m 111.95,742.6 q 0.4,-0.7 1.1,-1.1 0.75,-0.45 1.55,-0.45 h 6.75 q 1.25,0 2.1,0.9 0.85,0.8 0.9,2.05 v 30.2 0.3 q -0.05,1.15 -0.85,2.15 -1,1.3 -2.75,1.35 -1.3,0.15 -2.45,-0.7 -4.85,-2.8 -6.35,-34.7 m 19.7,1.4 q 0.05,-1.25 0.9,-2.05 0.85,-0.9 2.1,-0.9 h 6.75 q 0.8,0 1.55,0.45 l 1.1,1.1 q -1.5,31.9 -6.35,34.7 -1.15,0.85 -2.45,0.7 -1.75,-0.05 -2.75,-1.35 -0.8,-1 -0.85,-2.15 V 774.2 744"
         id="path204" />
      <path
         stroke="none"
         fill="#3c6672"
         d="m 121.15,736.15 q -3.3,1.55 -7.2,1.55 -6.95,0 -11.9,-4.95 -4.9,-4.9 -4.9,-11.85 0,-7 4.9,-11.9 4.95,-4.95 11.9,-4.95 h 28.5 q 6.7,0.15 11.45,4.95 4.95,4.9 4.95,11.9 0,6.95 -4.95,11.85 -4.9,4.95 -11.9,4.95 -3.9,0 -7.15,-1.55 -2.55,-1.2 -4.75,-3.4 l -2.1,-2.5 -2.15,2.5 q -2.15,2.2 -4.7,3.4"
         id="path205" />
      <path
         stroke="none"
         fill="#333333"
         d="m 115.6,703.3 -0.1,-1.6 v -0.9 q 0.25,-2.25 3.6,-3.9 3.7,-1.75 8.9,-1.75 5.15,0 8.8,1.75 3.35,1.65 3.65,3.9 l 0.05,0.9 -0.1,1.75 q -0.5,-2.05 -3.6,-3.55 -3.65,-1.75 -8.8,-1.75 -5.2,0 -8.9,1.75 -3,1.45 -3.5,3.4"
         id="path206" />
      <path
         stroke="none"
         fill="#252525"
         d="m 115.6,703.3 q 0.5,-1.95 3.5,-3.4 3.7,-1.75 8.9,-1.75 5.15,0 8.8,1.75 3.1,1.5 3.6,3.55 -0.55,4.05 -3.6,7 -3.65,3.7 -8.8,3.7 -5.2,0 -8.9,-3.7 -3,-3 -3.5,-7.15"
         id="path207" />
      <path
         stroke="none"
         fill="#252525"
         d="m 163.9,721.45 -1.05,3.6 -0.2,0.4 -0.45,0.15 -0.45,-0.1 q -5.6,-4.95 -12.85,-6.95 l -0.4,-0.35 v -0.5 l 0.2,-0.45 q 0.2,-0.15 0.5,-0.2 8.85,-0.5 14.4,3.55 l 0.3,0.4 v 0.45 m 3.55,-12.15 0.7,4.65 v 0.6 l -0.45,0.45 -0.5,0.1 q -9.7,-1.5 -18.4,-1.05 l -0.6,-0.2 -0.3,-0.55 v -0.6 q 0.15,-0.3 0.45,-0.5 9.8,-5.35 18.35,-3.7 0.25,0.05 0.5,0.3 l 0.25,0.5 M 92.1,721.45 V 721 l 0.3,-0.4 q 5.55,-4.05 14.4,-3.55 l 0.5,0.2 0.2,0.45 v 0.5 l -0.4,0.35 q -7.25,2 -12.85,6.95 l -0.45,0.1 -0.45,-0.15 -0.2,-0.4 -1.05,-3.6 M 88.55,709.3 q 0.05,-0.35 0.25,-0.5 l 0.5,-0.3 q 8.55,-1.65 18.35,3.7 l 0.45,0.5 v 0.6 l -0.3,0.55 -0.6,0.2 q -8.7,-0.45 -18.4,1.05 l -0.5,-0.1 -0.45,-0.45 v -0.6 l 0.7,-4.65"
         id="path208" />
    </g>
  </g>
</svg>
