<?xml version="1.0" encoding="UTF-8" standalone="no"?>
<svg
   version="1.1"
   id="svg386"
   width="136"
   height="149.19336"
   xmlns="http://www.w3.org/2000/svg"
   xmlns:svg="http://www.w3.org/2000/svg">
  <defs
     id="defs1" />
  <g
     id="g386"
     transform="translate(-315.95001,-814.80664)">
    <g
       id="g408">
      <path
         stroke="none"
         fill="#857e7e"
         d="m 414.05,816.3 q 7.8,-2.8 14.25,-0.35 6.6,2.5 8.4,8.55 l 0.05,0.25 0.6,2.85 v -0.1 q 2.95,14.7 0.4,26.75 14.2,18 14.2,41.75 v 2 0.1 q -0.1,4.15 -0.6,8.2 l -0.05,0.05 q -1.6,11.05 -6.65,20.75 -1.9,3.65 -4.35,7.2 -3.6,5.05 -8.25,9.75 -19.95,19.95 -48.1,19.95 -28.15,0 -48.05,-19.95 -4.75,-4.7 -8.3,-9.8 h 0.05 q -8.8,-12.65 -10.95,-27.95 -0.6,-3.95 -0.7,-8.1 l -0.05,-2.2 q 0,-23.85 14.3,-41.75 -2.55,-12.05 0.4,-26.65 l -0.05,0.05 0.6,-2.9 0.1,-0.25 q 1.75,-6.1 8.4,-8.5 6.5,-2.45 14.2,0.35 h -0.05 q 6.5,2.2 10.75,7.05 2.15,-1.55 5.05,-1.5 h 28.6 q 2.85,0.05 5,1.6 4.25,-4.9 10.85,-7.2 h -0.05"
         id="path279" />
      <path
         stroke="none"
         fill="#ffffff"
         d="M 409.25,841 409,840.9 q -2.9,-1.25 -5.95,-2.15 v -0.05 l 0.6,-3.8 q 4.05,1.3 7.9,3.15 l -1.95,2.4 -0.35,0.55 m -44.4,-2.25 q -3.05,0.9 -5.95,2.15 l -0.2,0.1 -0.35,-0.55 -2,-2.4 q 3.85,-1.85 7.95,-3.15 l 0.55,3.25 v 0.15 0.45 m -19.25,9.95 q -2.85,2.15 -5.5,4.7 l -1.4,1.3 -3.25,3.55 Q 320.6,875.2 320,898 l -0.05,-2 q 0,-23.4 14.6,-40.75 l 4.15,-4.55 q 0.85,-0.85 1.7,-1.6 l 2,-1.85 3.2,1.45 M 447.95,898 Q 447.3,875.2 432.5,858.25 l -3.3,-3.55 -0.8,-0.8 -0.5,-0.45 q -2.7,-2.6 -5.55,-4.75 1.5,-0.75 3.15,-1.45 l 2.1,1.9 1.6,1.55 3.05,3.2 1.15,1.35 q 14.55,17.4 14.55,40.75 v 2 m -15.5,-19.45 q 0,5.15 -3.65,8.75 -3.65,3.7 -8.85,3.7 -5.1,0 -8.8,-3.7 -3.65,-3.6 -3.65,-8.75 0,-5.2 3.65,-8.85 3.7,-3.65 8.8,-3.65 5.2,0 8.85,3.65 3.65,3.65 3.65,8.85 m -4.75,0.2 q 0,-3.6 -2.5,-6.15 -2.5,-2.5 -6.15,-2.5 -3.55,0 -6.15,2.5 -2.5,2.55 -2.5,6.15 0,3.6 2.5,6.05 2.6,2.55 6.15,2.55 3.65,0 6.15,-2.55 2.5,-2.45 2.5,-6.05 m -92.25,-0.2 q 0,-5.2 3.65,-8.85 3.65,-3.65 8.85,-3.65 5.1,0 8.8,3.65 3.65,3.65 3.65,8.85 0,5.15 -3.65,8.75 -3.7,3.7 -8.8,3.7 -5.2,0 -8.85,-3.7 -3.65,-3.6 -3.65,-8.75 m 4.7,0.2 q 0,3.6 2.55,6.05 2.5,2.55 6.15,2.55 3.55,0 6.1,-2.55 2.55,-2.45 2.55,-6.05 0,-3.6 -2.55,-6.15 -2.55,-2.5 -6.1,-2.5 -3.65,0 -6.15,2.5 -2.55,2.55 -2.55,6.15"
         id="path280" />
      <path
         stroke="none"
         fill="#e9e9e9"
         d="m 403.05,838.75 q 3.05,0.9 5.95,2.15 l 0.25,0.1 q -2.6,3.8 -3.6,8.45 -0.5,2.1 -0.6,4.45 l -0.05,1.05 q 0.3,3.75 3.95,1.75 l 1.7,-1.15 2.35,-1.65 q 4.15,-2.75 9.35,-5.2 2.85,2.15 5.55,4.75 l 0.5,0.45 0.8,0.8 3.3,3.55 q 14.8,16.95 15.45,39.75 -0.1,3.95 -0.6,7.75 -9,-5.2 -20.2,-5 -6,0.3 -0.85,5.25 10.85,10.4 10.7,26 -3.4,4.8 -7.8,9.2 -18.75,18.8 -45.25,18.8 -26.5,0 -45.25,-18.8 -4.45,-4.4 -7.8,-9.25 -0.1,-15.55 10.7,-25.95 5.15,-4.95 -0.85,-5.25 -11.2,-0.2 -20.1,4.95 -0.55,-3.75 -0.65,-7.7 0.6,-22.8 15.45,-39.75 l 3.25,-3.55 1.4,-1.3 q 2.65,-2.55 5.5,-4.7 6.7,3.15 11.65,6.85 l 1.8,1.15 q 3.55,1.95 3.85,-1.75 -0.05,-2.8 -0.6,-5.35 -1,-4.75 -3.6,-8.6 l 0.2,-0.1 q 2.9,-1.25 5.95,-2.15 l 1.75,11.9 q 0.45,2.4 2.15,4 l 4,3.05 q 5.7,3.75 11.15,3.8 5.5,-0.05 11.5,-3.9 l 3.75,-2.95 q 1.2,-1.15 1.8,-2.7 l 0.35,-1.3 1.75,-11.9 m 29.4,39.8 q 0,-5.2 -3.65,-8.85 -3.65,-3.65 -8.85,-3.65 -5.1,0 -8.8,3.65 -3.65,3.65 -3.65,8.85 0,5.15 3.65,8.75 3.7,3.7 8.8,3.7 5.2,0 8.85,-3.7 3.65,-3.6 3.65,-8.75 m -97,0 q 0,5.15 3.65,8.75 3.65,3.7 8.85,3.7 5.1,0 8.8,-3.7 3.65,-3.6 3.65,-8.75 0,-5.2 -3.65,-8.85 -3.7,-3.65 -8.8,-3.65 -5.2,0 -8.85,3.65 -3.65,3.65 -3.65,8.85 m 67.05,19.55 -2.4,-8.15 q -2.15,-9.15 -16.15,-9.55 -12.9,-0.35 -16.15,9.55 l -2.35,8.1 q -4.3,2.1 -8.05,5.3 -10.55,9.05 -10.95,21.65 v 1 l 0.05,1.9 q 0.75,12 10.9,20.7 11,9.4 26.55,9.4 15.5,0 26.5,-9.4 10.2,-8.65 10.95,-20.7 l 0.05,-1.9 v -1 q -0.45,-12.6 -11,-21.65 -3.75,-3.15 -7.95,-5.25"
         id="path281" />
      <path
         stroke="none"
         fill="#414040"
         d="m 402.5,898.1 q -8.3,-4.1 -18.55,-4.1 -10.25,0 -18.5,4.05 l 2.35,-8.1 q 3.25,-9.9 16.15,-9.55 14,0.4 16.15,9.55 l 2.4,8.15 m 9.05,-60.05 q -3.85,-1.85 -7.9,-3.15 l 0.05,-0.45 0.1,-2.25 0.65,-0.95 q 3.8,-5.1 10.2,-7.35 6.25,-2.25 11.45,-0.35 4.7,1.8 5.95,5.95 l 0.6,2.7 q 2.35,11.75 0.95,21.7 l -0.15,1.05 -0.05,0.3 -1.15,-1.35 -3.05,-3.2 -1.6,-1.55 -0.8,-4.95 -0.45,-1.9 q -0.85,-3.05 -4.2,-4.35 l -8.3,0.25 -1.05,0.45 -1.25,-0.6 m -8.5,0.65 v 0.05 l -1.75,11.9 -0.35,1.3 q -0.6,1.55 -1.8,2.7 l -3.75,2.95 q -6,3.85 -11.5,3.9 -5.45,-0.05 -11.15,-3.8 l -4,-3.05 q -1.7,-1.6 -2.15,-4 l -1.75,-11.9 v -0.45 -0.15 q -0.2,-1.1 0.05,-2.15 l 0.5,-1.45 0.2,-0.45 0.35,-0.6 q 1.55,-2.45 4.25,-2.45 h 27.55 q 1.9,0 3.2,1.25 l 1,1.2 0.4,0.65 0.2,0.4 0.45,1.5 q 0.2,1.25 0.05,2.65 M 358.7,841 q 2.6,3.85 3.6,8.6 0.55,2.55 0.6,5.35 -0.3,3.7 -3.85,1.75 l -1.8,-1.15 q -4.95,-3.7 -11.65,-6.85 6.15,-4.75 13.1,-7.7 m -38.05,64.7 q 8.9,-5.15 20.1,-4.95 6,0.3 0.85,5.25 -10.8,10.4 -10.7,25.95 -8.25,-11.85 -10.25,-26.25 M 437,932 q 0.15,-15.6 -10.7,-26 -5.15,-4.95 0.85,-5.25 11.2,-0.2 20.2,5 -1.5,10.4 -6.25,19.5 -1.8,3.45 -4.1,6.75 m -14.65,-83.3 q -5.2,2.45 -9.35,5.2 l -2.35,1.65 -1.7,1.15 q -3.65,2 -3.95,-1.75 l 0.05,-1.05 q 0.1,-2.35 0.6,-4.45 1,-4.65 3.6,-8.45 6.9,2.95 13.1,7.7 M 334.5,855 q -1.65,-10.4 0.8,-22.75 l 0.6,-2.75 q 1.25,-4.15 5.95,-5.9 5.2,-1.9 11.5,0.35 6.35,2.2 10.15,7.35 l 0.6,0.9 q -0.1,1.05 0.1,2.25 l 0.1,0.45 q -4.1,1.3 -7.95,3.15 l -1.2,0.6 -1.05,-0.4 -8.25,-0.25 q -3.4,1.3 -4.3,4.35 l -0.4,1.85 -0.75,4.9 q -0.85,0.75 -1.7,1.6 l -4.15,4.55 -0.05,-0.25 m 86.9,72.9 q -0.75,12.05 -10.95,20.7 -11,9.4 -26.5,9.4 -15.55,0 -26.55,-9.4 -10.15,-8.7 -10.9,-20.7 0.8,-11.9 10.9,-20.55 3.05,-2.6 6.4,-4.45 8.9,-4.9 20.15,-4.9 11.25,0 20.15,4.95 3.35,1.85 6.35,4.4 10.1,8.65 10.95,20.55 m -18.95,-19.75 -0.85,-0.6 q -1.4,-0.7 -3.6,-0.05 l -0.25,0.1 q -2.85,0.85 -5.35,3.35 l -0.15,0.15 q -0.65,0.7 -1,1.55 -0.4,0.9 -0.4,2 0,2.15 1.5,3.65 1.5,1.5 3.65,1.5 2.05,0 3.55,-1.4 l 0.15,-0.15 q 2.05,-2.05 3,-4.3 l 0.45,-1.3 0.15,-0.5 q 0.4,-1.9 -0.25,-3.15 l -0.6,-0.85 m -34.1,10.25 q 1.5,1.4 3.55,1.4 2.15,0 3.65,-1.5 1.5,-1.5 1.5,-3.65 0,-1.1 -0.35,-2 l -1.05,-1.55 -0.15,-0.15 q -2.55,-2.55 -5.4,-3.4 l -0.2,-0.05 q -2.2,-0.65 -3.55,0.05 -0.5,0.2 -0.9,0.6 l -0.6,0.85 q -0.65,1.25 -0.2,3.15 l 0.1,0.5 0.45,1.3 q 0.95,2.25 3,4.3 l 0.15,0.15"
         id="path282" />
      <path
         stroke="none"
         fill="#2e2d2d"
         d="m 368.35,918.4 -0.15,-0.15 q -2.05,-2.05 -3,-4.3 l -0.45,-1.3 -0.1,-0.5 q -0.45,-1.9 0.2,-3.15 l 0.6,-0.85 q 0.4,-0.4 0.9,-0.6 1.35,-0.7 3.55,-0.05 l 0.2,0.05 q 2.85,0.85 5.4,3.4 l 0.15,0.15 1.05,1.55 q 0.35,0.9 0.35,2 0,2.15 -1.5,3.65 -1.5,1.5 -3.65,1.5 -2.05,0 -3.55,-1.4 m 57.15,-71.15 q -6,-5.2 -12.7,-8.6 l 1.05,-0.45 8.3,-0.25 q 3.35,1.3 4.2,4.35 l 0.45,1.9 0.8,4.95 -2.1,-1.9 m -85.1,1.85 0.75,-4.9 0.4,-1.85 q 0.9,-3.05 4.3,-4.35 l 8.25,0.25 1.05,0.4 q -6.75,3.4 -12.75,8.6 l -2,1.85 m 62.05,59.05 0.6,0.85 q 0.65,1.25 0.25,3.15 l -0.15,0.5 -0.45,1.3 q -0.95,2.25 -3,4.3 l -0.15,0.15 q -1.5,1.4 -3.55,1.4 -2.15,0 -3.65,-1.5 -1.5,-1.5 -1.5,-3.65 0,-1.1 0.4,-2 0.35,-0.85 1,-1.55 l 0.15,-0.15 q 2.5,-2.5 5.35,-3.35 l 0.25,-0.1 q 2.2,-0.65 3.6,0.05 l 0.85,0.6"
         id="path283" />
      <path
         stroke="none"
         fill="#545353"
         d="m 403.65,834.9 -0.6,3.8 q 0.15,-1.4 -0.05,-2.65 l -0.45,-1.5 -0.2,-0.4 -0.4,-0.65 -1,-1.2 q -1.3,-1.25 -3.2,-1.25 H 370.2 q -2.7,0 -4.25,2.45 l -0.35,0.6 -0.2,0.45 -0.5,1.45 q -0.25,1.05 -0.05,2.15 l -0.55,-3.25 -0.1,-0.45 q -0.2,-1.2 -0.1,-2.25 l -0.6,-0.9 q -3.8,-5.15 -10.15,-7.35 -6.3,-2.25 -11.5,-0.35 -4.7,1.75 -5.95,5.9 l -0.6,2.75 q -2.45,12.35 -0.8,22.75 l -0.3,-1.2 q -2.45,-11.45 0.35,-25.45 l 0.55,-2.7 q 1.3,-4.2 5.95,-5.9 5.25,-1.9 11.5,0.35 6.35,2.2 10.15,7.3 1.05,1.5 1.75,2.95 l 0.8,-1.8 q 1.6,-2.65 4.4,-2.65 h 28.6 q 1.55,0 2.7,0.85 0.95,0.6 1.65,1.8 0.55,0.85 0.9,1.85 0.65,-1.5 1.75,-3.05 3.8,-5.05 10.15,-7.3 6.3,-2.25 11.5,-0.35 4.65,1.75 5.95,5.95 l 0.55,2.65 q 2.85,14.05 0.35,25.5 v 0.1 l -0.3,1.05 0.15,-1.05 q 1.4,-9.95 -0.95,-21.7 l -0.6,-2.7 q -1.25,-4.15 -5.95,-5.95 -5.2,-1.9 -11.45,0.35 -6.4,2.25 -10.2,7.35 l -0.65,0.95 -0.1,2.25 -0.05,0.45 m -1.15,63.2 q 4.2,2.1 7.95,5.25 10.55,9.05 11,21.65 v 1 l -0.05,1.9 q -0.85,-11.9 -10.95,-20.55 -3,-2.55 -6.35,-4.4 -8.9,-4.95 -20.15,-4.95 -11.25,0 -20.15,4.9 -3.35,1.85 -6.4,4.45 -10.1,8.65 -10.9,20.55 l -0.05,-1.9 v -1 q 0.4,-12.6 10.95,-21.65 3.75,-3.2 8.05,-5.3 8.25,-4.05 18.5,-4.05 10.25,0 18.55,4.1"
         id="path284" />
      <path
         stroke="none"
         fill="#4f4e4e"
         d="m 409.25,841 0.35,-0.55 1.95,-2.4 1.25,0.6 q 6.7,3.4 12.7,8.6 -1.65,0.7 -3.15,1.45 -6.2,-4.75 -13.1,-7.7 m -66.85,6.25 q 6,-5.2 12.75,-8.6 l 1.2,-0.6 2,2.4 0.35,0.55 q -6.95,2.95 -13.1,7.7 l -3.2,-1.45"
         id="path285" />
      <path
         stroke="none"
         fill="#5b5b5b"
         d="m 427.7,878.75 q 0,3.6 -2.5,6.05 -2.5,2.55 -6.15,2.55 -3.55,0 -6.15,-2.55 -2.5,-2.45 -2.5,-6.05 0,-3.6 2.5,-6.15 2.6,-2.5 6.15,-2.5 3.65,0 6.15,2.5 2.5,2.55 2.5,6.15 m -87.55,0 q 0,-3.6 2.55,-6.15 2.5,-2.5 6.15,-2.5 3.55,0 6.1,2.5 2.55,2.55 2.55,6.15 0,3.6 -2.55,6.05 -2.55,2.55 -6.1,2.55 -3.65,0 -6.15,-2.55 -2.55,-2.45 -2.55,-6.05"
         id="path286" />
    </g>
  </g>
</svg>
