<?xml version="1.0" encoding="UTF-8" standalone="no"?>
<!-- Created with Inkscape (http://www.inkscape.org/) -->

<svg
   width="7.7529988mm"
   height="7.7529993mm"
   viewBox="0 0 7.7529988 7.7529993"
   version="1.1"
   id="svg1"
   xmlns="http://www.w3.org/2000/svg"
   xmlns:svg="http://www.w3.org/2000/svg">
  <defs
     id="defs1" />
  <g
     id="layer1"
     transform="translate(-84.964144,-113.21895)">
    <g
       id="g2">
      <path
         d="m 271.58431,442.32948 q 0.99005,0.28287 1.36722,0.99005 0.42431,0.66004 0.28287,1.32008 -0.14144,0.66003 -0.80148,1.13149 -0.61289,0.47145 -1.65009,0.33002 -1.41436,-0.28288 -2.35727,-1.08435 -0.94292,-0.84862 -1.36723,-1.93297 -0.4243,-1.08434 -0.23572,-2.35727 0.18858,-1.27293 1.08434,-2.45157 0.56575,-0.75433 1.50866,-1.50866 0.99006,-0.80147 1.98011,-1.5558 0.99006,-0.80147 1.83868,-1.60295 0.84862,-0.80147 1.17864,-1.65009 0.37716,-0.89576 0.0471,-1.79153 -0.28287,-0.94291 -1.65009,-1.93297 -0.14144,-0.0471 -0.28287,-0.0943 -0.14144,-0.0471 -0.33002,-0.0943 -2.02726,0.0943 -3.7245,1.22579 -1.69724,1.13149 -2.92302,2.73444 -0.66004,0.80147 -1.46151,0.89576 -0.75433,0.0943 -1.32008,-0.28287 -0.56574,-0.42431 -0.75433,-1.17864 -0.14143,-0.80147 0.42431,-1.69724 0.94291,-1.22578 2.21584,-2.35727 1.32008,-1.1315 2.78159,-1.88583 1.50866,-0.75432 3.06446,-1.08434 1.5558,-0.33002 2.97017,0 1.41436,0.28287 2.593,1.32007 1.22578,1.0372 2.02726,3.01732 0.5186,1.27292 0.42431,2.45156 -0.0943,1.17864 -0.56575,2.26299 -0.47145,1.08434 -1.27293,2.02726 -0.80147,0.89576 -1.79153,1.69723 -0.33002,0.28288 -1.17864,0.84862 -0.80147,0.5186 -1.5558,1.22579 -0.75433,0.66003 -1.22578,1.41436 -0.42431,0.70719 -0.0943,1.41437 0.0943,0.0943 0.14143,0.0943 0.14144,0.0943 0.28288,0.0943 0.18858,0 0.33002,0.0471 z m -3.96023,8.58048 q 0,-1.08435 0.75433,-1.83867 0.75433,-0.75433 1.83868,-0.75433 1.08434,0 1.83867,0.75433 0.80147,0.75432 0.80147,1.83867 0,1.08435 -0.80147,1.88582 -0.75433,0.75433 -1.83867,0.75433 -1.08435,0 -1.83868,-0.75433 -0.75433,-0.80147 -0.75433,-1.88582 z"
         id="text1"
         style="font-size:42.6667px;font-family:Chalkboard;-inkscape-font-specification:Chalkboard;white-space:pre"
         transform="matrix(0.26458333,0,0,0.26458333,17.335054,0.9698973)"
         aria-label="?" />
      <rect
         style="fill:#000000;fill-opacity:0;stroke-width:0.298558"
         id="rect2"
         width="7.7529998"
         height="7.7529998"
         x="84.964142"
         y="113.21893" />
    </g>
  </g>
</svg>
